<?xml version="1.0" encoding="UTF-8"?>
<svg version="1.1" xmlns="http://www.w3.org/2000/svg" width="800" height="715">
<path d="M0 0 C46.60789997 -1.0748153 91.52083972 9.089046 132.68310547 31.06201172 C133.65207764 31.57151367 133.65207764 31.57151367 134.640625 32.09130859 C152.39220762 41.47609803 168.45083051 53.36218517 183.27685547 66.87451172 C186.70145458 69.98778364 190.18929562 73.0268864 193.68310547 76.06201172 C190.20588641 80.16334702 186.68625809 84.2247366 183.12060547 88.24951172 C182.39744141 89.06806641 181.67427734 89.88662109 180.92919922 90.72998047 C178.66045976 93.08552387 176.27872461 95.07766316 173.68310547 97.06201172 C172.94189453 96.34658203 172.20068359 95.63115234 171.43701172 94.89404297 C125.94402541 51.59924718 66.34170451 28.84078184 3.68701172 29.81591797 C-51.71837495 31.36631233 -105.42792471 52.58386763 -145.80517578 90.70263672 C-147.86294732 92.63559785 -149.94926065 94.4592031 -152.12939453 96.24951172 C-155.17057586 98.831234 -157.75632298 101.66476625 -160.32861328 104.71044922 C-161.76213437 106.40589066 -163.22722815 108.07481356 -164.71142578 109.72607422 C-197.95859991 147.08175126 -218.30717985 198.23756129 -218.52001953 248.32373047 C-218.52856964 249.92436089 -218.52856964 249.92436089 -218.53729248 251.55732727 C-218.54669936 253.81221541 -218.55325921 256.06711704 -218.55712891 258.32202148 C-218.56673807 261.69459627 -218.59776333 265.06653515 -218.62939453 268.43896484 C-218.72046333 286.87548808 -217.07685858 304.76975948 -212.56689453 322.68701172 C-212.18283447 324.24174194 -212.18283447 324.24174194 -211.79101562 325.82788086 C-199.57250507 373.84390229 -171.36332978 419.2700545 -131.31689453 449.06201172 C-130.73069336 449.50287109 -130.14449219 449.94373047 -129.54052734 450.39794922 C-98.12006995 473.87209204 -62.92029007 488.42583322 -24.31689453 495.06201172 C-23.57584473 495.19333496 -22.83479492 495.3246582 -22.07128906 495.45996094 C32.24802022 504.62674615 93.67678041 490.29313475 138.86279297 459.08154297 C146.3032359 453.75369117 153.55518156 448.26573276 160.55810547 442.37451172 C161.08138428 441.93518311 161.60466309 441.49585449 162.14379883 441.04321289 C165.84525888 437.88815041 169.27719451 434.53400752 172.68310547 431.06201172 C176.04646141 432.51946596 178.22844552 434.37319025 180.79248047 436.97607422 C181.54658203 437.73662109 182.30068359 438.49716797 183.07763672 439.28076172 C183.85494141 440.07482422 184.63224609 440.86888672 185.43310547 441.68701172 C186.22587891 442.48880859 187.01865234 443.29060547 187.83544922 444.11669922 C189.7892504 446.09404018 191.7382265 448.07590081 193.68310547 450.06201172 C168.88297019 479.75015146 130.89179454 500.96299416 94.68310547 513.06201172 C93.78736816 513.366875 92.89163086 513.67173828 91.96875 513.98583984 C26.6314047 535.95992333 -45.11699862 530.28835395 -106.97265625 500.34277344 C-124.52722904 491.60600452 -140.510879 480.65038793 -155.75439453 468.37451172 C-156.4048877 467.85195801 -157.05538086 467.3294043 -157.72558594 466.79101562 C-161.6138501 463.61225225 -165.21612531 460.26680783 -168.7097168 456.65820312 C-170.3392535 455.03980559 -172.04028221 453.57850799 -173.81689453 452.12451172 C-176.94724287 449.47788167 -179.60727791 446.62133023 -182.25439453 443.49560547 C-183.81668795 441.65221759 -185.39781363 439.83871512 -187.00439453 438.03466797 C-202.17859133 420.87061878 -214.50368984 401.79048303 -224.33740234 381.12011719 C-224.98383647 379.76183213 -225.63671263 378.40659188 -226.29638672 377.0546875 C-256.8184671 314.23386833 -257.73146125 238.68723305 -235.3671875 173.28466797 C-225.07642491 144.11268414 -210.28692181 116.77188047 -190.31689453 93.06201172 C-189.87764648 92.53397949 -189.43839844 92.00594727 -188.98583984 91.46191406 C-179.81485328 80.44990006 -170.30654371 70.18796156 -159.05126953 61.23779297 C-157.24859308 59.80337756 -155.466458 58.34270537 -153.70751953 56.85498047 C-111.58501676 21.27517413 -54.815501 1.46713775 0 0 Z " fill="#333568" transform="translate(250.31689453125,187.93798828125)"/>
<path d="M0 0 C2.54456954 2.23330722 4.96941209 4.53991802 7.3671875 6.9296875 C8.06714844 7.60644531 8.76710938 8.28320312 9.48828125 8.98046875 C26.98681288 27.09298394 31.80452578 54.35317397 31.51953125 78.609375 C30.31137795 104.94092128 22.51634164 129.67082658 3.1171875 148.2421875 C-15.28460654 163.59861422 -38.946722 169.52676393 -62.53393555 167.48486328 C-83.04915404 165.3073804 -103.3261561 157.63927099 -116.81640625 141.33203125 C-135.4598036 116.67463475 -140.51672806 87.49921121 -136.31640625 57.08984375 C-132.77125746 34.17016707 -121.78334499 13.44071118 -103.1328125 -0.6328125 C-74.11590676 -20.14110144 -28.21682607 -22.18830536 0 0 Z " fill="#01BFE1" transform="translate(310.6328125,377.0703125)"/>
<path d="M0 0 C25.09712309 21.93213542 33.67137491 53.74601811 36.1875 85.875 C36.1875 95.115 36.1875 104.355 36.1875 113.875 C-22.2225 113.875 -80.6325 113.875 -140.8125 113.875 C-137.43352841 143.15942048 -133.48958553 172.90583699 -109.4375 192.84375 C-88.86553518 207.87710891 -63.83380554 211.7839441 -38.96435547 208.05493164 C-20.49673974 204.80723806 -3.87551232 197.29401861 11.58422852 186.84472656 C14.70158017 184.74669941 17.6847987 183.21101715 21.1875 181.875 C21.41150504 185.87607462 21.57395348 189.87468569 21.68188477 193.88061523 C21.72690132 195.23998621 21.78814542 196.5989272 21.86645508 197.95678711 C22.49296354 209.10699978 22.49296354 209.10699978 19.46484375 213.20800781 C17.13385506 215.09127611 14.84578921 216.49612852 12.1875 217.875 C11.0588855 218.509823 11.0588855 218.509823 9.9074707 219.1574707 C7.65869713 220.36281334 5.38554603 221.44550079 3.0625 222.5 C2.23411621 222.88115967 1.40573242 223.26231934 0.55224609 223.6550293 C-17.58141338 231.8457188 -36.89213001 236.30787203 -56.8125 236.875 C-58.51986328 236.95234375 -58.51986328 236.95234375 -60.26171875 237.03125 C-88.31140569 237.75902566 -114.36850023 229.73345275 -135.96875 211.72265625 C-137.8125 209.875 -137.8125 209.875 -137.8125 207.875 C-138.4725 207.875 -139.1325 207.875 -139.8125 207.875 C-141.61892955 205.87393831 -143.28721306 203.8751455 -144.9375 201.75 C-145.42887451 201.11763428 -145.92024902 200.48526855 -146.42651367 199.83374023 C-170.97724405 167.56718025 -176.74530425 123.79705167 -171.6875 84.4375 C-167.60686448 56.77819232 -156.15215929 32.09681918 -136.8125 11.875 C-136.13960937 11.12734375 -135.46671875 10.3796875 -134.7734375 9.609375 C-101.63079416 -25.8917336 -37.73681469 -31.27216719 0 0 Z M-118.46386719 32.26464844 C-131.11244791 47.36784149 -137.67301317 67.61961854 -139.8125 86.875 C-92.2925 86.875 -44.7725 86.875 4.1875 86.875 C4.1875 80.1126237 4.02239649 74.07633096 2.9375 67.5 C2.73398926 66.2612915 2.73398926 66.2612915 2.52636719 64.99755859 C-0.57773973 47.07712195 -8.67715153 29.03772058 -23.6875 18 C-54.43138781 -1.71003851 -94.43981773 5.30885058 -118.46386719 32.26464844 Z " fill="#333568" transform="translate(763.8125,349.125)"/>
<path d="M0 0 C1.02996094 -0.020625 2.05992187 -0.04125 3.12109375 -0.0625 C4.14589844 -0.06765625 5.17070313 -0.0728125 6.2265625 -0.078125 C7.14260254 -0.0874707 8.05864258 -0.09681641 9.00244141 -0.10644531 C13.89494974 0.41064331 18.62859551 1.95552605 23.375 3.25 C23.375 13.81 23.375 24.37 23.375 35.25 C17.375 33.25 17.375 33.25 14.578125 32.1796875 C2.65674696 27.92205248 -11.84398752 26.88953931 -23.625 32.25 C-42.71955814 41.41538791 -52.3675441 57.0770056 -59.45410156 76.52539062 C-66.67769376 98.05340847 -67.09278941 120.36556531 -67.13111091 142.84162927 C-67.14064431 146.59721415 -67.16685644 150.35268666 -67.19111633 154.10820007 C-67.23438124 161.18358808 -67.26317148 168.25895381 -67.28643972 175.33443278 C-67.31370916 183.40496544 -67.35760483 191.47538279 -67.40272844 199.54583228 C-67.49499999 216.11384121 -67.5647473 232.68183897 -67.625 249.25 C-77.855 249.25 -88.085 249.25 -98.625 249.25 C-98.625 168.4 -98.625 87.55 -98.625 4.25 C-88.395 4.25 -78.165 4.25 -67.625 4.25 C-67.64240234 9.75494141 -67.64240234 9.75494141 -67.66015625 15.37109375 C-67.66794552 18.90893467 -67.67402302 22.44677464 -67.67993164 25.98461914 C-67.68497356 28.45142033 -67.69180691 30.91821852 -67.70043945 33.38500977 C-67.71251125 36.92204529 -67.71822956 40.45904145 -67.72265625 43.99609375 C-67.72781754 45.10649521 -67.73297882 46.21689667 -67.73829651 47.36094666 C-67.73837204 48.38192947 -67.73844757 49.40291229 -67.73852539 50.45483398 C-67.74185631 51.81051735 -67.74185631 51.81051735 -67.74525452 53.19358826 C-67.85400462 55.24253581 -67.85400462 55.24253581 -66.625 56.25 C-66.49158203 55.00669922 -66.49158203 55.00669922 -66.35546875 53.73828125 C-65.47967308 49.55600568 -63.88790227 46.21261694 -61.9375 42.4375 C-61.57519287 41.72899902 -61.21288574 41.02049805 -60.83959961 40.29052734 C-51.52026141 22.3270758 -38.83659926 9.08617573 -19.5 2.125 C-12.96034959 0.13467161 -6.7918514 0.03325264 0 0 Z " fill="#343669" transform="translate(542.625,330.75)"/>
<path d="M0 0 C12 0 12 0 15.296875 2.859375 C16.15654841 4.12882107 16.97318621 5.42822391 17.75 6.75 C18.2035083 7.44029297 18.6570166 8.13058594 19.12426758 8.84179688 C20.45222964 10.87404178 21.7267396 12.93322831 23 15 C24.22262457 16.83770263 25.45130185 18.67140055 26.6875 20.5 C27.3165625 21.45777344 27.945625 22.41554688 28.59375 23.40234375 C31.87229286 28.34786814 35.29219068 33.19684371 38.6875 38.0625 C45.30508106 47.55076321 51.86592371 57.07536674 58.38378906 66.63232422 C60.1049362 69.15372678 61.82940524 71.67283152 63.5546875 74.19140625 C64.4350769 75.4767627 64.4350769 75.4767627 65.33325195 76.78808594 C66.45138791 78.42037816 67.56970253 80.05254802 68.68823242 81.68457031 C69.19459229 82.42416992 69.70095215 83.16376953 70.22265625 83.92578125 C70.66359619 84.56942627 71.10453613 85.21307129 71.55883789 85.8762207 C73.3889951 88.57324554 75.19307625 91.28736959 77 94 C76.99777939 92.83710953 76.99555878 91.67421906 76.99327087 90.47608948 C76.97304088 79.54230632 76.95802855 68.60852694 76.94818783 57.67472935 C76.94295864 52.05292038 76.93586034 46.43112647 76.92456055 40.80932617 C76.91373294 35.38881723 76.90772344 29.9683228 76.90512276 24.54780388 C76.90326828 22.47485055 76.89964723 20.40189806 76.89426994 18.32895088 C76.8870612 15.43616107 76.88600899 12.54343204 76.88647461 9.65063477 C76.88287933 8.78461136 76.87928406 7.91858795 76.87557983 7.02632141 C76.88594784 1.11405216 76.88594784 1.11405216 78 0 C81.3 0 84.6 0 88 0 C88 37.29 88 74.58 88 113 C77 113 77 113 73.6875 109.84375 C72.7532848 108.42029575 71.85906972 106.97002696 71 105.5 C70.50274414 104.7260791 70.00548828 103.9521582 69.49316406 103.15478516 C68.46473586 101.5541022 67.45070672 99.94407783 66.45117188 98.32519531 C64.3309077 94.92792142 62.04132061 91.65808625 59.75 88.375 C58.84798686 87.06056197 57.94698522 85.74542936 57.046875 84.4296875 C53.39011862 79.10204445 49.69357779 73.80214799 46 68.5 C39.63234669 59.35660738 33.29989609 50.19016265 27 41 C25.0425398 38.14523319 23.08400824 35.29120466 21.125 32.4375 C20.68438232 31.79433838 20.24376465 31.15117676 19.78979492 30.48852539 C19.36674072 29.87227295 18.94368652 29.25602051 18.5078125 28.62109375 C18.14316895 28.0892749 17.77852539 27.55745605 17.40283203 27.00952148 C15.29388397 23.98850661 13.14146584 20.99805218 11 18 C11 49.35 11 80.7 11 113 C7.37 113 3.74 113 0 113 C0 75.71 0 38.42 0 0 Z " fill="#353769" transform="translate(432,2)"/>
<path d="M0 0 C3.63 0 7.26 0 11 0 C16.77487942 15.05010209 22.53746385 30.10472627 28.2265625 45.1875 C28.76064224 46.6034269 28.76064224 46.6034269 29.30551147 48.04795837 C30.75406661 51.88930761 32.20220768 55.73081187 33.64910889 59.57278442 C37.30659758 69.28282832 40.97533782 78.98713943 44.75 88.65234375 C45.03648911 89.38674179 45.32297821 90.12113983 45.6181488 90.87779236 C46.93718297 94.25579267 48.26243126 97.63114938 49.59790039 101.00268555 C50.05156982 102.15937744 50.50523926 103.31606934 50.97265625 104.5078125 C51.36718994 105.50441895 51.76172363 106.50102539 52.16821289 107.52783203 C53 110 53 110 53 113 C49.04 113 45.08 113 41 113 C40.64172119 112.03586182 40.28344238 111.07172363 39.91430664 110.07836914 C38.58829137 106.5122329 37.25868804 102.94744358 35.92797852 99.38305664 C35.35179755 97.8381765 34.77659924 96.2929295 34.20239258 94.74731445 C33.37837733 92.52979628 32.55087357 90.31360785 31.72265625 88.09765625 C31.46533218 87.4028566 31.20800812 86.70805695 30.94288635 85.99220276 C29.89459187 82.74780725 29.89459187 82.74780725 28 80 C26.52536522 79.93628508 25.04760719 79.94285743 23.57202148 79.97827148 C22.63112167 79.99836777 21.69022186 80.01846405 20.72080994 80.03916931 C19.69790359 80.06620438 18.67499725 80.09323944 17.62109375 80.12109375 C16.57929459 80.14470474 15.53749542 80.16831573 14.46412659 80.19264221 C11.1217864 80.26949327 7.77966554 80.35342488 4.4375 80.4375 C2.17774527 80.49069923 -0.08202031 80.54343975 -2.34179688 80.59570312 C-7.8946683 80.72513723 -13.44737556 80.86039197 -19 81 C-19.32798584 81.89831543 -19.65597168 82.79663086 -19.99389648 83.72216797 C-21.20966587 87.05105428 -22.42698465 90.37937221 -23.64477539 93.70751953 C-24.17189217 95.14877076 -24.69858712 96.59017633 -25.22485352 98.03173828 C-25.98082739 100.10229443 -26.73831035 102.17229303 -27.49609375 104.2421875 C-27.73154404 104.88807831 -27.96699432 105.53396912 -28.20957947 106.19943237 C-29.05967931 108.51809859 -29.89455305 110.7891061 -31 113 C-34.96 113 -38.92 113 -43 113 C-41.0784483 106.37152807 -38.93747093 99.93013127 -36.4375 93.5 C-36.09348648 92.60578842 -35.74947296 91.71157684 -35.39503479 90.79026794 C-34.26665353 87.85889603 -33.13333575 84.92945953 -32 82 C-30.38244742 77.80402682 -28.76738332 73.60709723 -27.15234375 69.41015625 C-26.7348436 68.32622086 -26.31734344 67.24228546 -25.88719177 66.12550354 C-22.79586566 58.09216117 -19.73631615 50.04713362 -16.69140625 41.99609375 C-16.25992279 40.85604889 -15.82843933 39.71600403 -15.38388062 38.54141235 C-13.69385405 34.07534981 -12.00408946 29.60920023 -10.32006836 25.14086914 C-9.15494126 22.04989275 -7.98600718 18.96037949 -6.81640625 15.87109375 C-6.47339981 14.95750595 -6.13039337 14.04391815 -5.7769928 13.10264587 C-4.06649685 8.59430178 -2.25651829 4.26279756 0 0 Z M4 13 C3.70174316 14.04003174 3.70174316 14.04003174 3.39746094 15.10107422 C-0.10968549 26.92597166 -4.50408551 38.41943643 -8.81103516 49.97070312 C-9.83121524 52.71075062 -10.8455662 55.45290257 -11.859375 58.1953125 C-12.33271271 59.45615158 -12.33271271 59.45615158 -12.81561279 60.74246216 C-13.10301331 61.5211264 -13.39041382 62.29979065 -13.68652344 63.10205078 C-13.94093201 63.78453888 -14.19534058 64.46702698 -14.4574585 65.17019653 C-15.14213508 67.1612818 -15.14213508 67.1612818 -15 70 C-1.8 70 11.4 70 25 70 C24.29087412 66.45437059 23.57049448 63.53647842 22.35766602 60.19726562 C22.02384415 59.2728064 21.69002228 58.34834717 21.34608459 57.39587402 C20.98566574 56.4092981 20.62524689 55.42272217 20.25390625 54.40625 C19.88273178 53.38196899 19.51155731 52.35768799 19.12913513 51.30236816 C17.94359604 48.03368865 16.75301088 44.76687152 15.5625 41.5 C14.76466431 39.30089356 13.96713481 37.10167602 13.16992188 34.90234375 C12.40652312 32.79938 11.64286008 30.69651217 10.87890625 28.59375 C10.52051163 27.60717407 10.162117 26.62059814 9.79286194 25.60412598 C9.45588791 24.67966675 9.11891388 23.75520752 8.77172852 22.80273438 C8.47718277 21.99396851 8.18263702 21.18520264 7.87916565 20.35192871 C6.95712206 17.88529368 5.9868929 15.44133178 5 13 C4.67 13 4.34 13 4 13 Z " fill="#353769" transform="translate(157,2)"/>
<path d="M0 0 C0.78900696 -0.00807175 1.57801392 -0.01614349 2.39093018 -0.02445984 C4.07228383 -0.03833147 5.75366602 -0.04903976 7.43505859 -0.05688477 C9.96379726 -0.07387062 12.49114855 -0.11769519 15.01953125 -0.16210938 C27.10484404 -0.2787794 38.94884269 0.41885858 48.62109375 8.625 C55.43928762 15.31363199 58.08087166 22.97144786 58.36328125 32.55078125 C57.76164683 44.99434199 53.67549706 53.23903183 44.71484375 61.703125 C32.67988032 71.5281944 16.72495993 69.56139488 2.265625 69.23828125 C2.265625 83.75828125 2.265625 98.27828125 2.265625 113.23828125 C-1.034375 113.23828125 -4.334375 113.23828125 -7.734375 113.23828125 C-8.67843081 110.40611383 -8.8599762 108.67860284 -8.86135864 105.7461853 C-8.86417847 104.82636368 -8.86699829 103.90654205 -8.86990356 102.95884705 C-8.86787933 101.95197342 -8.8658551 100.94509979 -8.86376953 99.90771484 C-8.86552185 98.84574387 -8.86727417 97.78377289 -8.86907959 96.68962097 C-8.87348861 93.17197038 -8.87056384 89.65436987 -8.8671875 86.13671875 C-8.86786071 83.69959503 -8.86883088 81.26247138 -8.87008667 78.8253479 C-8.87156227 73.71591554 -8.8694131 68.60650065 -8.86474609 63.49707031 C-8.85904286 56.9315267 -8.86233245 50.36602391 -8.86831856 43.8004818 C-8.87192272 38.76837859 -8.87078636 33.73628516 -8.86819077 28.70418167 C-8.86752141 26.28234477 -8.86835022 23.86050699 -8.87067032 21.43867111 C-8.87319512 18.06244284 -8.86935896 14.68628183 -8.86376953 11.31005859 C-8.86579376 10.29913651 -8.86781799 9.28821442 -8.86990356 8.24665833 C-8.86567383 6.87538536 -8.86567383 6.87538536 -8.86135864 5.47640991 C-8.86098162 4.67742468 -8.86060459 3.87843945 -8.86021614 3.05524254 C-8.54907279 -1.43721062 -3.4603088 0.03348377 0 0 Z M2.265625 10.23828125 C2.265625 26.40828125 2.265625 42.57828125 2.265625 59.23828125 C22.87629062 60.33351101 22.87629062 60.33351101 40.265625 52.23828125 C46.51562195 45.64106224 46.71504693 38.60767936 46.578125 29.87890625 C46.02537134 23.43932612 43.96897792 20.02085989 39.578125 15.42578125 C31.49376275 10.08705146 23.68775514 9.83901219 14.203125 10.05078125 C8.2940625 10.14359375 8.2940625 10.14359375 2.265625 10.23828125 Z " fill="#313366" transform="translate(325.734375,1.76171875)"/>
<path d="M0 0 C18.15 0 36.3 0 55 0 C55 3.3 55 6.6 55 10 C40.15 10 25.3 10 10 10 C10.33 10.66 10.66 11.32 11 12 C11.08690293 14.844062 11.11561213 17.66399702 11.09765625 20.5078125 C11.09664917 21.25281006 11.09564209 21.99780762 11.09460449 22.76538086 C11.08936714 25.5519362 11.07540589 28.33846962 11.0625 31.125 C11.041875 37.35375 11.02125 43.5825 11 50 C31.295 50.495 31.295 50.495 52 51 C52 53.97 52 56.94 52 60 C49.86610076 62.13389924 45.11203455 61.25960929 42.15234375 61.31640625 C40.97436218 61.34438293 40.97436218 61.34438293 39.77258301 61.3729248 C36.82767417 61.44143085 33.88257277 61.50144626 30.9375 61.5625 C24.358125 61.706875 17.77875 61.85125 11 62 C11 75.53 11 89.06 11 103 C26.18 103 41.36 103 57 103 C57.8299392 106.31975682 58.18113914 108.64892584 58 112 C57 113 57 113 54.71580505 113.12025452 C53.70542679 113.11803391 52.69504852 113.11581329 51.65405273 113.11352539 C49.91835022 113.11334412 49.91835022 113.11334412 48.14758301 113.11315918 C46.92196655 113.10804321 45.6963501 113.10292725 44.43359375 113.09765625 C42.754328 113.09614563 42.754328 113.09614563 41.0411377 113.09460449 C36.83991478 113.0893535 32.63870641 113.07539239 28.4375 113.0625 C19.053125 113.041875 9.66875 113.02125 0 113 C0 75.71 0 38.42 0 0 Z " fill="#343568" transform="translate(552,2)"/>
<path d="M0 0 C0 3.96 0 7.92 0 12 C-2.44140625 11.25130208 -4.8828125 10.50260417 -7.32421875 9.75390625 C-17.12341222 6.99296561 -29.76627598 5.93246816 -39 11 C-42.83469529 14.26357046 -45.5778092 17.2056891 -46.75 22.1875 C-47.17202116 28.62332272 -45.69924945 33.6912821 -42 39 C-39.86388097 40.77688303 -39.86388097 40.77688303 -37.3125 42.25 C-36.33925781 42.84425781 -35.36601562 43.43851563 -34.36328125 44.05078125 C-31.2832858 45.83581926 -28.18278432 47.5729293 -25.06689453 49.29394531 C-0.90495302 62.66206887 -0.90495302 62.66206887 4.4375 75.4375 C5.94934816 85.01253836 5.10722678 93.3279418 -0.0625 101.6875 C-6.7124277 110.16714154 -16.78927023 112.5801998 -27 114 C-37.82772703 115.17586176 -49.19279532 112.49444425 -59 108 C-59 103.71 -59 99.42 -59 95 C-58.154375 95.40992187 -57.30875 95.81984375 -56.4375 96.2421875 C-43.4181322 102.4263872 -31.34161976 105.91471878 -17.08984375 100.90234375 C-12.60968381 98.96791955 -10.1242944 96.79121918 -8.125 92.375 C-6.13294522 86.27362078 -6.80786266 80.47964568 -9.5625 74.75 C-15.99826122 67.48914119 -24.73072066 63.18242643 -33.13476562 58.58789062 C-43.86430686 52.60787604 -55.00317479 45.66517084 -58.53125 33.25390625 C-60.14126697 25.51240799 -58.63273119 18.75281835 -54.81640625 11.86328125 C-49.22057624 3.54087118 -40.80432863 -0.46690894 -31.1953125 -2.53125 C-20.32302849 -4.12620609 -10.54303338 -2.69183831 0 0 Z " fill="#353769" transform="translate(286,3)"/>
<path d="M0 0 C25.08 0 50.16 0 76 0 C76 3.3 76 6.6 76 10 C65.11 10 54.22 10 43 10 C43 43.99 43 77.98 43 113 C39.7 113 36.4 113 33 113 C31.04634694 111.04634694 31.87977876 108.06600248 31.87557983 105.46598816 C31.87917511 104.52515884 31.88277039 103.58432953 31.88647461 102.61499023 C31.88632858 101.62973358 31.88618256 100.64447693 31.8860321 99.62936401 C31.88673168 96.35575193 31.89452615 93.08219596 31.90234375 89.80859375 C31.90420777 87.54557832 31.90563175 85.28256249 31.90663147 83.01954651 C31.9104579 77.05021052 31.92028925 71.08089868 31.93133545 65.11157227 C31.94154688 59.02555671 31.94612851 52.93953727 31.95117188 46.85351562 C31.96191141 34.9023314 31.97950922 22.95117149 32 11 C21.44 10.67 10.88 10.34 0 10 C0 6.7 0 3.4 0 0 Z " fill="#343569" transform="translate(623,2)"/>
<path d="M0 0 C0.78900696 -0.00807175 1.57801392 -0.01614349 2.39093018 -0.02445984 C4.07228383 -0.03833147 5.75366602 -0.04903976 7.43505859 -0.05688477 C9.96379726 -0.07387062 12.49114855 -0.11769519 15.01953125 -0.16210938 C27.13206594 -0.2790422 38.88469844 0.45008959 48.6171875 8.6015625 C52.82876872 12.78320357 56.13014814 17.33380158 57.265625 23.23828125 C57.25149832 33.05632263 57.25149832 33.05632263 54.8515625 35.93359375 C54.32820313 36.36414062 53.80484375 36.7946875 53.265625 37.23828125 C52.54375 37.96015625 51.821875 38.68203125 51.078125 39.42578125 C50.48 40.02390625 49.881875 40.62203125 49.265625 41.23828125 C46.60785925 38.5805155 46.81152701 36.81550099 46.390625 33.11328125 C45.40236906 26.18016789 43.93035748 21.05528416 39.078125 15.92578125 C31.19128782 11.19367894 23.23724334 10.73323603 14.203125 10.55078125 C13.05134766 10.51662109 11.89957031 10.48246094 10.71289062 10.44726562 C7.8972329 10.36548304 5.08185929 10.2961075 2.265625 10.23828125 C2.265625 9.57828125 2.265625 8.91828125 2.265625 8.23828125 C11.175625 8.23828125 20.085625 8.23828125 29.265625 8.23828125 C19.74386087 -1.28348288 8.34939439 3.74107356 -6.734375 3.23828125 C-6.734375 38.87828125 -6.734375 74.51828125 -6.734375 111.23828125 C-7.394375 110.90828125 -8.054375 110.57828125 -8.734375 110.23828125 C-8.75770529 96.04372083 -8.7752884 81.84916338 -8.78618717 67.65458775 C-8.79141672 61.0642334 -8.79851567 54.47389188 -8.80981445 47.88354492 C-8.82064078 41.52936107 -8.82665129 35.1751896 -8.82925224 28.82099724 C-8.83110695 26.39078514 -8.83472843 23.96057376 -8.84010506 21.5303669 C-8.84731211 18.13945144 -8.84836608 14.74858784 -8.84790039 11.35766602 C-8.85149567 10.34203079 -8.85509094 9.32639557 -8.85879517 8.27998352 C-8.8574205 7.36146606 -8.85604584 6.44294861 -8.85462952 5.49659729 C-8.85555131 4.6937156 -8.8564731 3.89083391 -8.85742283 3.06362247 C-8.55390591 -1.43887022 -3.466874 0.0335473 0 0 Z " fill="#404171" transform="translate(325.734375,1.76171875)"/>
<path d="M0 0 C0.33 0 0.66 0 1 0 C1 33.33 1 66.66 1 101 C3.64 101 6.28 101 9 101 C9 68 9 35 9 1 C9.33 1 9.66 1 10 1 C10 34.66 10 68.32 10 103 C6.7 103 3.4 103 0 103 C-1.95151685 101.04848315 -1.12690802 98.07491369 -1.13552856 95.47709656 C-1.13350433 94.53783829 -1.1314801 93.59858002 -1.12939453 92.63085938 C-1.13114685 91.64720901 -1.13289917 90.66355865 -1.13470459 89.65010071 C-1.13912505 86.38129947 -1.13618443 83.11255184 -1.1328125 79.84375 C-1.13348548 77.58312978 -1.13445546 75.32250962 -1.13571167 73.06188965 C-1.13718891 68.31713168 -1.13503326 63.57239251 -1.13037109 58.82763672 C-1.1246738 52.73061376 -1.12795266 46.63363481 -1.13394356 40.53661346 C-1.13754848 35.86651271 -1.1364109 31.19642247 -1.13381577 26.52632141 C-1.1331463 24.27753189 -1.13397558 22.02874143 -1.13629532 19.779953 C-1.13882071 16.64298962 -1.13498285 13.50609859 -1.12939453 10.36914062 C-1.13141876 9.42988235 -1.13344299 8.49062408 -1.13552856 7.52290344 C-1.11426225 1.11426225 -1.11426225 1.11426225 0 0 Z " fill="#474774" transform="translate(656,12)"/>
<path d="M0 0 C14.85 0 29.7 0 45 0 C45 2.31 45 4.62 45 7 C29.49 7 13.98 7 -2 7 C-1 3 -1 3 0 0 Z " fill="#333568" transform="translate(563,106)"/>
<path d="M0 0 C0.33 0 0.66 0 1 0 C1 13.53 1 27.06 1 41 C16.18 41 31.36 41 47 41 C47.8299392 44.31975682 48.18113914 46.64892584 48 50 C47 51 47 51 44.71580505 51.12025452 C43.70542679 51.11803391 42.69504852 51.11581329 41.65405273 51.11352539 C40.5129454 51.11344986 39.37183807 51.11337433 38.19615173 51.11329651 C36.9545076 51.10813522 35.71286346 51.10297394 34.43359375 51.09765625 C32.53795433 51.09553383 32.53795433 51.09553383 30.60401917 51.09336853 C27.23875111 51.08870582 23.8735501 51.0797148 20.50830078 51.06866455 C17.0765033 51.05844846 13.64469891 51.05387049 10.21289062 51.04882812 C3.47524176 51.0377738 -3.26237525 51.0210171 -10 51 C-10 50.34 -10 49.68 -10 49 C8.48 49 26.96 49 46 49 C46 46.69 46 44.38 46 42 C30.82 42 15.64 42 0 42 C0 28.14 0 14.28 0 0 Z " fill="#525181" transform="translate(562,64)"/>
<path d="M0 0 C2.875 1.5625 2.875 1.5625 5 4 C5.63734462 7.96569988 5.61999672 10.03280512 3.4375 13.4375 C0.05782196 15.60396028 -2.05983987 15.56288002 -6 15 C-8.4375 13.4375 -8.4375 13.4375 -10 11 C-10.56783945 7.02512383 -10.62340519 4.93510779 -8.375 1.5625 C-5.26456309 -0.48384007 -3.66322334 -0.59807728 0 0 Z " fill="#343567" transform="translate(400,101)"/>
<path d="M0 0 C1.32 0.66 2.64 1.32 4 2 C3.814375 2.556875 3.62875 3.11375 3.4375 3.6875 C2.92448835 6.399133 3.3359276 8.34371039 4 11 C4.33 11 4.66 11 5 11 C5 14.3 5 17.6 5 21 C4.01 21.33 3.02 21.66 2 22 C1.01 21.34 0.02 20.68 -1 20 C-1.66 21.32 -2.32 22.64 -3 24 C-5.61583003 21.38416997 -4.96347849 15.46871561 -5.14453125 11.8359375 C-4.94109813 6.43671265 -3.41415355 4.08032985 0 0 Z " fill="#303265" transform="translate(233,13)"/>
<path d="M0 0 C2 2 2 2 2.08203125 4.7578125 C1.55157145 11.38471614 0.73899404 16.92657843 -2 23 C-5 23 -5 23 -6.625 21.6875 C-8 20 -8 20 -9 17 C-9.66 17 -10.32 17 -11 17 C-10.67 12.05 -10.34 7.1 -10 2 C-9.67 2 -9.34 2 -9 2 C-8.8046875 3.98567708 -8.609375 5.97135417 -8.4140625 7.95703125 C-8.07334609 10.29988142 -8.07334609 10.29988142 -6 13 C-4.0549 10.08235 -3.54723683 8.37462715 -3 5 C-2.34 5.66 -1.68 6.32 -1 7 C-0.67 4.69 -0.34 2.38 0 0 Z " fill="#3C3D6E" transform="translate(382,29)"/>
<path d="M0 0 C14.85 0 29.7 0 45 0 C45 0.99 45 1.98 45 3 C31.47 3 17.94 3 4 3 C3.67 3.66 3.34 4.32 3 5 C2.87625 4.360625 2.7525 3.72125 2.625 3.0625 C2.315625 2.0415625 2.315625 2.0415625 2 1 C1.34 0.67 0.68 0.34 0 0 Z " fill="#2B2F64" transform="translate(563,106)"/>
<path d="M0 0 C0 0.33 0 0.66 0 1 C-0.94875 1.12375 -1.8975 1.2475 -2.875 1.375 C-6.08667191 1.71687177 -6.08667191 1.71687177 -8 4 C-6.12403473 7.35143175 -6.12403473 7.35143175 -2 9 C-6.95 8.67 -11.9 8.34 -17 8 C-17.33 7.01 -17.66 6.02 -18 5 C-13.67694343 -0.5945438 -6.42067643 -0.22528689 0 0 Z " fill="#2B2D61" transform="translate(275,1)"/>
<path d="M0 0 C0.66 0 1.32 0 2 0 C2 9.57 2 19.14 2 29 C1.01 29 0.02 29 -1 29 C-1.02891546 24.54168018 -1.04676981 20.08338431 -1.0625 15.625 C-1.07087891 14.35398437 -1.07925781 13.08296875 -1.08789062 11.7734375 C-1.09111328 10.56171875 -1.09433594 9.35 -1.09765625 8.1015625 C-1.10289307 6.98088379 -1.10812988 5.86020508 -1.11352539 4.70556641 C-1 2 -1 2 0 0 Z " fill="#4D4D7A" transform="translate(783,531)"/>
<path d="M0 0 C2 3 2 3 3 6 C2.34 6.66 1.68 7.32 1 8 C1 8.99 1 9.98 1 11 C-2.79133356 10.45838092 -4.66109564 9.00716275 -7 6 C-7.25 3.25 -7.25 3.25 -7 1 C-6.01 1.495 -6.01 1.495 -5 2 C-5 2.66 -5 3.32 -5 4 C-3.01508358 3.73323796 -3.01508358 3.73323796 -1 3 C-0.67 2.01 -0.34 1.02 0 0 Z " fill="#303165" transform="translate(240,41)"/>
<path d="M0 0 C0 3 0 3 -1.5 4.6875 C-1.995 5.120625 -2.49 5.55375 -3 6 C-2.67 6.99 -2.34 7.98 -2 9 C-2.66 9 -3.32 9 -4 9 C-3.67 10.32 -3.34 11.64 -3 13 C-3.598125 13.144375 -4.19625 13.28875 -4.8125 13.4375 C-6.56150404 13.8872439 -8.28677023 14.42892341 -10 15 C-10.3125 12.83203125 -10.3125 12.83203125 -10 10 C-7.8125 7.32421875 -7.8125 7.32421875 -5 4.6875 C-4.071875 3.80449219 -3.14375 2.92148437 -2.1875 2.01171875 C-1.1046875 1.01591797 -1.1046875 1.01591797 0 0 Z " fill="#3D3F6E" transform="translate(80,259)"/>
<path d="M0 0 C2.0625 0.4375 2.0625 0.4375 4 1 C4 1.66 4 2.32 4 3 C5.32 3.66 6.64 4.32 8 5 C6.2097939 5.67057887 4.41778511 6.3363469 2.625 7 C1.62726563 7.37125 0.62953125 7.7425 -0.3984375 8.125 C-3 9 -3 9 -5 9 C-5 8.34 -5 7.68 -5 7 C-4.34 7 -3.68 7 -3 7 C-3 6.34 -3 5.68 -3 5 C-2.34 4.67 -1.68 4.34 -1 4 C-1 3.01 -1 2.02 -1 1 C-0.67 0.67 -0.34 0.34 0 0 Z " fill="#3B3B6B" transform="translate(178,225)"/>
<path d="M0 0 C1.32 0.33 2.64 0.66 4 1 C3.01 1.8971875 3.01 1.8971875 2 2.8125 C-0.3373846 4.87501834 -0.3373846 4.87501834 0 8 C0.66 8.66 1.32 9.32 2 10 C-2.92975386 10 -5.84698176 8.65331721 -10 6 C-8.68 5.34 -7.36 4.68 -6 4 C-6 4.99 -6 5.98 -6 7 C-2.57421051 3.82460444 -2.57421051 3.82460444 0 0 Z " fill="#37396B" transform="translate(273,61)"/>
<path d="M0 0 C0.61875 0.144375 1.2375 0.28875 1.875 0.4375 C6.22537017 1.22056663 10.60021907 1.59846659 15 2 C15 2.33 15 2.66 15 3 C12.73000175 3.50377768 10.45896997 4.00290019 8.1875 4.5 C6.29064453 4.91765625 6.29064453 4.91765625 4.35546875 5.34375 C1 6 1 6 -2 6 C-2 5.34 -2 4.68 -2 4 C-1.34 3.67 -0.68 3.34 0 3 C0 2.01 0 1.02 0 0 Z " fill="#3C3C6D" transform="translate(201,219)"/>
<path d="M0 0 C-0.78375 0.4125 -1.5675 0.825 -2.375 1.25 C-5.05891656 3.0392777 -5.88098949 4.04988139 -7 7 C-8.32 6.67 -9.64 6.34 -11 6 C-11 5.34 -11 4.68 -11 4 C-11.66 3.67 -12.32 3.34 -13 3 C-11 -0 -11 -0 -7.625 -0.75 C-4.63357422 -0.95630523 -2.76556715 -0.99560417 0 0 Z " fill="#373A6B" transform="translate(279,2)"/>
<path d="M0 0 C0.99 0 1.98 0 3 0 C5.1875 2.5 5.1875 2.5 7 5 C5.70700306 7.88437779 4.34058637 9.87219421 2 12 C1.34 11.67 0.68 11.34 0 11 C0.66 10.34 1.32 9.68 2 9 C2.6425235 6.93125966 2.6425235 6.93125966 3 5 C2.34 5 1.68 5 1 5 C0.67 3.35 0.34 1.7 0 0 Z " fill="#2C2D61" transform="translate(435,260)"/>
<path d="M0 0 C1.32 0.33 2.64 0.66 4 1 C0.30051813 4.61139896 0.30051813 4.61139896 -2 6 C-5.375 5.8125 -5.375 5.8125 -8 5 C-7.67 3.68 -7.34 2.36 -7 1 C-4.69 1.33 -2.38 1.66 0 2 C0 1.34 0 0.68 0 0 Z " fill="#13C3E2" transform="translate(314,520)"/>
<path d="M0 0 C3.40321099 0.60771625 5.30695989 1.87821082 8 4 C8.9075 4.495 9.815 4.99 10.75 5.5 C11.86375 6.2425 11.86375 6.2425 13 7 C13 7.99 13 8.98 13 10 C9.43621578 9.42696862 7.82935187 8.16281552 5.375 5.5625 C4.78460938 4.94503906 4.19421875 4.32757813 3.5859375 3.69140625 C3.06257813 3.13324219 2.53921875 2.57507813 2 2 C1.34 1.34 0.68 0.68 0 0 Z " fill="#3C3D6E" transform="translate(409,271)"/>
<path d="M0 0 C1.485 0.99 1.485 0.99 3 2 C3.88614956 6.85000134 3.26113102 11.61905865 1 16 C0.67 16 0.34 16 0 16 C0 10.72 0 5.44 0 0 Z " fill="#2A2A62" transform="translate(1,430)"/>
<path d="M0 0 C2.75 0.8125 2.75 0.8125 5 2 C5 2.66 5 3.32 5 4 C3.02 4.66 1.04 5.32 -1 6 C-1.99 5.01 -2.98 4.02 -4 3 C-2.3125 1.375 -2.3125 1.375 0 0 Z " fill="#38396B" transform="translate(249,53)"/>
<path d="M0 0 C2 3 2 3 2 6 C0 8.1875 0 8.1875 -2 10 C-2.99 9.67 -3.98 9.34 -5 9 C-3.35 6.03 -1.7 3.06 0 0 Z " fill="#14C3E2" transform="translate(188,397)"/>
<path d="M0 0 C0.103125 0.639375 0.20625 1.27875 0.3125 1.9375 C0.6528125 2.9584375 0.6528125 2.9584375 1 4 C1.99 4.33 2.98 4.66 4 5 C-0.29 5 -4.58 5 -9 5 C-9 4.34 -9 3.68 -9 3 C-8.071875 2.87625 -7.14375 2.7525 -6.1875 2.625 C-2.86074765 2.18466918 -2.86074765 2.18466918 0 0 Z " fill="#2C3061" transform="translate(310,704)"/>
<path d="M0 0 C0.598125 0.185625 1.19625 0.37125 1.8125 0.5625 C4.16408762 1.22093687 4.16408762 1.22093687 7 0 C5.50902342 3.7952131 3.24299151 5.61042731 0 8 C0 5.36 0 2.72 0 0 Z " fill="#3F3F6F" transform="translate(426,275)"/>
<path d="M0 0 C0.33 0.66 0.66 1.32 1 2 C1.99 2 2.98 2 4 2 C4 1.34 4 0.68 4 0 C5.32 0.33 6.64 0.66 8 1 C6.68 2.32 5.36 3.64 4 5 C2.02 4.34 0.04 3.68 -2 3 C-1.34 2.01 -0.68 1.02 0 0 Z " fill="#3B3B6C" transform="translate(353,233)"/>
<path d="M0 0 C3.25543229 0.34879632 4.01873107 1.02133261 6.25 3.5625 C6.8275 4.366875 7.405 5.17125 8 6 C7.01 6.33 6.02 6.66 5 7 C5 6.34 5 5.68 5 5 C4.01 5.33 3.02 5.66 2 6 C1.34 4.02 0.68 2.04 0 0 Z " fill="#3F4070" transform="translate(277,64)"/>
<path d="M0 0 C2.31 0.66 4.62 1.32 7 2 C6.67 3.32 6.34 4.64 6 6 C4.68 6.33 3.36 6.66 2 7 C2 6.01 2 5.02 2 4 C1.05021103 1.84971696 1.05021103 1.84971696 0 0 Z " fill="#3A3B6D" transform="translate(670,552)"/>
<path d="M0 0 C-3.44450737 2.29633824 -5.93812283 2.54016485 -10 3 C-10 2.34 -10 1.68 -10 1 C-9.34 1 -8.68 1 -8 1 C-8 0.34 -8 -0.32 -8 -1 C-4.37673261 -2.2077558 -3.35853631 -1.54311128 0 0 Z " fill="#13C4E3" transform="translate(285,540)"/>
<path d="M0 0 C0.66 0.33 1.32 0.66 2 1 C1.4375 3.375 1.4375 3.375 0 6 C-3.625 7.3125 -3.625 7.3125 -7 8 C-6.02133662 6.85373678 -5.04205413 5.70800212 -4.0625 4.5625 C-3.51722656 3.92441406 -2.97195313 3.28632813 -2.41015625 2.62890625 C-1.63204305 1.73008851 -0.84063472 0.84063472 0 0 Z " fill="#424270" transform="translate(501,345)"/>
<path d="M0 0 C1.98 0.66 3.96 1.32 6 2 C5.67 3.32 5.34 4.64 5 6 C4.34 6 3.68 6 3 6 C2.67 6.66 2.34 7.32 2 8 C0.74335022 5.09399739 0 3.20395416 0 0 Z " fill="#3D3E6F" transform="translate(369,20)"/>
<path d="M0 0 C0.99 0 1.98 0 3 0 C1.7874262 3.72433382 0.49140021 7.37802806 -1 11 C-2.23802788 7.423475 -1.81278541 4.65753437 -1 1 C-0.67 0.67 -0.34 0.34 0 0 Z " fill="#3F3F6F" transform="translate(486,392)"/>
<path d="M0 0 C1.65 1.65 3.3 3.3 5 5 C4.67 5.99 4.34 6.98 4 8 C3.67 7.34 3.34 6.68 3 6 C2.01 6 1.02 6 0 6 C-0.66 4.68 -1.32 3.36 -2 2 C-1.34 1.34 -0.68 0.68 0 0 Z " fill="#2C2D60" transform="translate(500,85)"/>
<path d="M0 0 C2.475 0.495 2.475 0.495 5 1 C5.12375 1.5775 5.2475 2.155 5.375 2.75 C6.00725613 5.02612206 6.91863468 6.90760206 8 9 C6.84775972 8.07038578 5.70340824 7.1309875 4.5625 6.1875 C3.60537109 5.40439453 3.60537109 5.40439453 2.62890625 4.60546875 C1 3 1 3 0 0 Z " fill="#2B2A60" transform="translate(65,626)"/>
<path d="M0 0 C3.7952131 1.49097658 5.61042731 3.75700849 8 7 C7.34 7.66 6.68 8.32 6 9 C5.38125 8.195625 4.7625 7.39125 4.125 6.5625 C2.25835959 3.96125481 2.25835959 3.96125481 0 3 C0 2.01 0 1.02 0 0 Z " fill="#444475" transform="translate(95,617)"/>
<path d="M0 0 C0.99 0.33 1.98 0.66 3 1 C3 1.66 3 2.32 3 3 C1.68 3 0.36 3 -1 3 C-1 3.66 -1 4.32 -1 5 C-3.31 4.67 -5.62 4.34 -8 4 C-8 3.67 -8 3.34 -8 3 C-7.05125 2.690625 -6.1025 2.38125 -5.125 2.0625 C-2.13919592 1.12605258 -2.13919592 1.12605258 0 0 Z " fill="#3D3D6F" transform="translate(675,578)"/>
<path d="M0 0 C2 3 2 3 1.5390625 5.69921875 C1.23742187 6.68535156 0.93578125 7.67148437 0.625 8.6875 C0.32851562 9.68136719 0.03203125 10.67523438 -0.2734375 11.69921875 C-0.51320312 12.45847656 -0.75296875 13.21773438 -1 14 C-1.33 14 -1.66 14 -2 14 C-1.85970581 11.8537974 -1.71261836 9.70803782 -1.5625 7.5625 C-1.48128906 6.36753906 -1.40007812 5.17257812 -1.31640625 3.94140625 C-1 1 -1 1 0 0 Z " fill="#404173" transform="translate(4,476)"/>
<path d="M0 0 C1.95775078 2.93662616 2.56073149 4.5737056 3 8 C2.67 8.66 2.34 9.32 2 10 C1.01 9.67 0.02 9.34 -1 9 C-0.67 6.03 -0.34 3.06 0 0 Z " fill="#404172" transform="translate(595,419)"/>
<path d="M0 0 C0.66 0.66 1.32 1.32 2 2 C1.66555164 5.34448359 0.21127671 7.52337009 -2 10 C-2.66 10 -3.32 10 -4 10 C-2.8905928 6.51329166 -1.73662334 3.22515763 0 0 Z " fill="#3D3E6E" transform="translate(484,366)"/>
<path d="M0 0 C1.32 0 2.64 0 4 0 C2.63016497 3.16115776 2.0109362 3.9927092 -1 6 C-1.66 5.67 -2.32 5.34 -3 5 C-2.67 4.01 -2.34 3.02 -2 2 C-1.34 2 -0.68 2 0 2 C0 1.34 0 0.68 0 0 Z " fill="#404170" transform="translate(102,275)"/>
<path d="M0 0 C0.66 0 1.32 0 2 0 C2 2.97 2 5.94 2 9 C1.67 8.34 1.34 7.68 1 7 C0.34 7 -0.32 7 -1 7 C-1.04254356 5.00045254 -1.04080783 2.99958364 -1 1 C-0.67 0.67 -0.34 0.34 0 0 Z " fill="#28285D" transform="translate(29,473)"/>
<path d="M0 0 C0.99 0.33 1.98 0.66 3 1 C2.34 2.65 1.68 4.3 1 6 C-1.31 5.67 -3.62 5.34 -6 5 C-4 3 -4 3 -1 2 C-0.67 1.34 -0.34 0.68 0 0 Z " fill="#3D3E6E" transform="translate(277,6)"/>
<path d="M0 0 C-0.99 0.495 -0.99 0.495 -2 1 C-2.65213292 3.02463255 -2.65213292 3.02463255 -3 5 C-3.99 4.67 -4.98 4.34 -6 4 C-6.33 3.01 -6.66 2.02 -7 1 C-3.375 -1.125 -3.375 -1.125 0 0 Z " fill="#3A3B6D" transform="translate(656,342)"/>
<path d="M0 0 C0.99 0.66 1.98 1.32 3 2 C1.35 3.98 -0.3 5.96 -2 8 C-2.66 7.01 -3.32 6.02 -4 5 C-2.68 3.35 -1.36 1.7 0 0 Z " fill="#3E3E6F" transform="translate(58,283)"/>
<path d="M0 0 C0.66 1.32 1.32 2.64 2 4 C4.31 4 6.62 4 9 4 C9 4.33 9 4.66 9 5 C5.7 5 2.4 5 -1 5 C-1 1 -1 1 0 0 Z " fill="#2C2E63" transform="translate(207,216)"/>
<path d="M0 0 C3.875 4.75 3.875 4.75 5 7 C3.35 7 1.7 7 0 7 C-0.93423645 3.98968256 -1.04449911 3.13349732 0 0 Z " fill="#3D3E6E" transform="translate(483,59)"/>
<path d="M0 0 C2.475 0.99 2.475 0.99 5 2 C4.01 2.99 3.02 3.98 2 5 C-0.475 4.01 -0.475 4.01 -3 3 C-2.01 2.01 -1.02 1.02 0 0 Z " fill="#3D3D6E" transform="translate(260,61)"/>
<path d="M0 0 C0.99 0 1.98 0 3 0 C3.33 1.98 3.66 3.96 4 6 C3.01 6.495 3.01 6.495 2 7 C-0.13324818 4.86675182 -0.53238345 3.8992226 -1 1 C-0.67 0.67 -0.34 0.34 0 0 Z " fill="#2E2F62" transform="translate(43,305)"/>
<path d="M0 0 C2.6486859 3.19668988 4.93992341 6.39486597 7 10 C6.01 10.495 6.01 10.495 5 11 C4.54625 10.195625 4.0925 9.39125 3.625 8.5625 C2.25274335 5.91143428 2.25274335 5.91143428 0 5 C0 3.35 0 1.7 0 0 Z " fill="#3E3D6D" transform="translate(494,75)"/>
<path d="M0 0 C4.92307692 4.30769231 4.92307692 4.30769231 5.3125 7.8125 C5.209375 8.534375 5.10625 9.25625 5 10 C3.68 9.67 2.36 9.34 1 9 C1 8.34 1 7.68 1 7 C1.66 7 2.32 7 3 7 C2.505 6.21625 2.01 5.4325 1.5 4.625 C0 2 0 2 0 0 Z " fill="#2D2E5D" transform="translate(284,70)"/>
<path d="M0 0 C2.475 0.495 2.475 0.495 5 1 C5 1.66 5 2.32 5 3 C5.66 3 6.32 3 7 3 C7 3.66 7 4.32 7 5 C5.02 5 3.04 5 1 5 C1.33 3.68 1.66 2.36 2 1 C1.34 0.67 0.68 0.34 0 0 Z " fill="#3D3D71" transform="translate(351,60)"/>
<path d="M0 0 C0.33 1.32 0.66 2.64 1 4 C-2.1964086 5.06546953 -4.65747276 5.07427838 -8 5 C-5.31158141 2.74754119 -3.35358125 1.11786042 0 0 Z " fill="#393B6B" transform="translate(368,53)"/>
<path d="M0 0 C2.475 0.495 2.475 0.495 5 1 C4.67 2.98 4.34 4.96 4 7 C3.67 6.01 3.34 5.02 3 4 C2.34 4 1.68 4 1 4 C0.67 2.68 0.34 1.36 0 0 Z " fill="#2D3062" transform="translate(367,8)"/>
<path d="M0 0 C0.66 0 1.32 0 2 0 C2 3.63 2 7.26 2 11 C-0.475 10.01 -0.475 10.01 -3 9 C-1.68 8.67 -0.36 8.34 1 8 C0.67 5.36 0.34 2.72 0 0 Z " fill="#26245A" transform="translate(284,4)"/>
<path d="M0 0 C1.8125 0.1875 1.8125 0.1875 4 1 C5.75 3.5625 5.75 3.5625 7 6 C4 6 4 6 1.8125 4.125 C0 2 0 2 0 0 Z " fill="#4A497A" transform="translate(73,635)"/>
<path d="M0 0 C1.65 1.32 3.3 2.64 5 4 C4.67 4.66 4.34 5.32 4 6 C3.67 5.67 3.34 5.34 3 5 C2.34 5.66 1.68 6.32 1 7 C1 6.34 1 5.68 1 5 C0.34 5 -0.32 5 -1 5 C-0.67 3.35 -0.34 1.7 0 0 Z " fill="#3D3F73" transform="translate(158,10)"/>
<path d="M0 0 C0 0.66 0 1.32 0 2 C-0.99 2 -1.98 2 -3 2 C-3 2.99 -3 3.98 -3 5 C-6 4 -6 4 -8 1 C-5.23735711 0.40267181 -2.83967231 0 0 0 Z " fill="#404273" transform="translate(315,680)"/>
<path d="M0 0 C4.67692308 1.47692308 4.67692308 1.47692308 6.3125 4.125 C6.539375 4.74375 6.76625 5.3625 7 6 C5.68 6 4.36 6 3 6 C2.01 4.02 1.02 2.04 0 0 Z " fill="#13C6E3" transform="translate(184,503)"/>
<path d="M0 0 C0.66 0.33 1.32 0.66 2 1 C2 2.65 2 4.3 2 6 C1.34 5.67 0.68 5.34 0 5 C-0.66 5.99 -1.32 6.98 -2 8 C-2 6.02 -2 4.04 -2 2 C-1.34 2 -0.68 2 0 2 C0 1.34 0 0.68 0 0 Z " fill="#404172" transform="translate(595,482)"/>
<path d="M0 0 C1.5625 1.6875 1.5625 1.6875 3 4 C2.6875 6.75 2.6875 6.75 2 9 C0.4375 7.3125 0.4375 7.3125 -1 5 C-0.6875 2.25 -0.6875 2.25 0 0 Z " fill="#3D3D70" transform="translate(44,355)"/>
<path d="M0 0 C0.93065133 2.60582371 1.14917407 3.64198224 0.0625 6.25 C-0.4634375 7.11625 -0.4634375 7.11625 -1 8 C-1.66 7.01 -2.32 6.02 -3 5 C-1.125 1.125 -1.125 1.125 0 0 Z " fill="#2B2D5E" transform="translate(62,279)"/>
<path d="M0 0 C3.25543229 0.34879632 4.01873107 1.02133261 6.25 3.5625 C6.8275 4.366875 7.405 5.17125 8 6 C5 6 5 6 3.3125 4.625 C2 3 2 3 2 1 C1.34 0.67 0.68 0.34 0 0 Z " fill="#454674" transform="translate(436,259)"/>
<path d="M0 0 C0 0.99 0 1.98 0 3 C-1.98 3 -3.96 3 -6 3 C-6.33 2.34 -6.66 1.68 -7 1 C-4.53721199 -0.231394 -2.7204945 -0.07159196 0 0 Z " fill="#2B2D5F" transform="translate(400,113)"/>
<path d="M0 0 C3.96 1.98 3.96 1.98 8 4 C6.02 4.99 6.02 4.99 4 6 C2.62437146 4.71034824 1.29233607 3.37310707 0 2 C0 1.34 0 0.68 0 0 Z " fill="#3E3E6C" transform="translate(227,98)"/>
<path d="M0 0 C2.475 0.99 2.475 0.99 5 2 C4.01 2.99 3.02 3.98 2 5 C1.01 4.67 0.02 4.34 -1 4 C-0.67 2.68 -0.34 1.36 0 0 Z " fill="#2E2E62" transform="translate(378,681)"/>
<path d="M0 0 C1.32 0.33 2.64 0.66 4 1 C3.67 1.66 3.34 2.32 3 3 C0.6859378 3.73075648 -1.64828869 4.40138258 -4 5 C-2.68 3.35 -1.36 1.7 0 0 Z " fill="#2A2B5E" transform="translate(416,626)"/>
<path d="M0 0 C0 2.31 0 4.62 0 7 C-1.32 6.34 -2.64 5.68 -4 5 C-3.34 4.01 -2.68 3.02 -2 2 C-2.66 1.67 -3.32 1.34 -4 1 C-2 0 -2 0 0 0 Z " fill="#3C3D6F" transform="translate(663,337)"/>
<path d="M0 0 C2.475 0.99 2.475 0.99 5 2 C4.67 2.99 4.34 3.98 4 5 C2.35 5.33 0.7 5.66 -1 6 C-0.34 5.34 0.32 4.68 1 4 C0.6814823 1.89179203 0.6814823 1.89179203 0 0 Z " fill="#2E2E60" transform="translate(147,240)"/>
<path d="M0 0 C2.97 0.495 2.97 0.495 6 1 C5.67 2.65 5.34 4.3 5 6 C1.125 3.375 1.125 3.375 0 0 Z " fill="#3B3B6E" transform="translate(127,93)"/>
</svg>
