<?xml version="1.0" encoding="UTF-8"?>
<svg version="1.1" xmlns="http://www.w3.org/2000/svg" width="3000" height="3000">
<path d="M0 0 C3.90348492 0.00232753 7.80696565 -0.00121631 11.71044969 -0.00396682 C18.56313245 -0.00800072 25.41580762 -0.00835538 32.26849113 -0.00626088 C42.52736892 -0.00314254 52.78623979 -0.00580729 63.04511707 -0.00955958 C80.53304196 -0.01578493 98.02096438 -0.01726694 115.50889021 -0.01614211 C133.22616473 -0.01501689 150.94343715 -0.01605441 168.66071135 -0.01971458 C169.78063371 -0.01994423 170.90055607 -0.02017388 172.05441548 -0.02041049 C176.61586313 -0.02135215 181.17731078 -0.02230785 185.73875842 -0.02328168 C233.30238582 -0.03342131 280.86601204 -0.03648749 328.4296404 -0.03707379 C333.54793255 -0.03713854 338.66622471 -0.03720648 343.78451687 -0.0372772 C345.05465863 -0.03729421 346.3248004 -0.03731121 347.6334313 -0.03732873 C375.78971118 -0.03773733 403.94599082 -0.0399277 432.10227058 -0.04243305 C443.69897926 -0.04346142 455.29568794 -0.04445145 466.89239663 -0.0454493 C468.81444936 -0.04561518 468.81444936 -0.04561518 470.77533144 -0.04578442 C543.51061161 -0.05204876 616.24589156 -0.05624506 688.98117199 -0.05578861 C691.04067791 -0.05577586 693.10018382 -0.0557639 695.15968974 -0.0557522 C709.62796997 -0.05566986 724.09625019 -0.05556716 738.56453042 -0.05545932 C742.7127439 -0.05542855 746.86095738 -0.05539849 751.00917086 -0.05536851 C754.46931841 -0.05534341 757.92946596 -0.05531762 761.3896135 -0.0552904 C826.73495188 -0.05477904 892.08028902 -0.05619552 957.42562681 -0.06563781 C958.11348703 -0.06573717 958.80134725 -0.06583653 959.51005171 -0.06593889 C981.00225516 -0.06905027 1002.49445857 -0.07241675 1023.98666197 -0.07583068 C1046.04027816 -0.07933224 1068.09389436 -0.08280278 1090.14751059 -0.08609508 C1090.82660066 -0.0861966 1091.50569073 -0.08629813 1092.20535929 -0.08640273 C1134.7522906 -0.09275445 1177.29922154 -0.09666993 1219.84615332 -0.09795306 C1221.81788852 -0.09801299 1221.81788852 -0.09801299 1223.82945675 -0.09807413 C1252.68726354 -0.09892745 1281.5450703 -0.09918858 1310.4028771 -0.09890375 C1320.72902 -0.09880727 1331.05516291 -0.09875522 1341.38130581 -0.09872502 C1343.95013955 -0.09871711 1346.51897329 -0.0987069 1349.08780703 -0.0986944 C1389.99863313 -0.09851816 1430.90945576 -0.10421241 1471.82028086 -0.11284821 C1513.03147158 -0.12150319 1554.24265751 -0.12368507 1595.45384876 -0.11708689 C1601.1533368 -0.11617464 1606.85282485 -0.11533135 1612.55231291 -0.11452888 C1613.66952446 -0.11436879 1614.78673602 -0.1142087 1615.93780247 -0.11404376 C1633.60015441 -0.11169431 1651.26249803 -0.11604012 1668.92484841 -0.12320006 C1686.30874536 -0.13010615 1703.69263007 -0.12982915 1721.07652676 -0.12200793 C1731.25653909 -0.11763988 1741.43651529 -0.1186661 1751.61652459 -0.12787471 C1758.39451024 -0.1334526 1765.17246918 -0.13165366 1771.95045282 -0.12409193 C1775.78165707 -0.12001721 1779.61279074 -0.11884049 1783.44399043 -0.12684262 C1872.23797553 -0.29946123 1958.55925723 23.76970965 2024.59164244 85.64169862 C2026.81775303 87.71484547 2029.07599361 89.71758452 2031.38851744 91.69247987 C2038.9434382 98.25787878 2045.793163 105.50755404 2052.26351744 113.12997987 C2053.46041197 114.49316346 2053.46041197 114.49316346 2054.68148619 115.88388612 C2097.48975998 164.97984673 2123.73698166 227.21689563 2132.01351744 291.56747987 C2132.1292108 292.46474793 2132.24490416 293.362016 2132.36410338 294.28647401 C2134.54727221 312.73225996 2134.40986129 331.25790982 2134.3934973 349.80167257 C2134.39117204 353.71345127 2134.39471256 357.62522577 2134.39746412 361.5370036 C2134.40150003 368.40586082 2134.40185177 375.27471048 2134.39975818 382.14356846 C2134.39664119 392.4266608 2134.39930357 402.70974624 2134.40305689 412.99283808 C2134.40928371 430.52159492 2134.41076402 448.05034929 2134.40963942 465.57910706 C2134.40851436 483.33872726 2134.40955117 501.09834537 2134.41321188 518.85796525 C2134.41344153 519.98039917 2134.41367119 521.10283308 2134.4139078 522.25928015 C2134.41484946 526.83092758 2134.41580515 531.40257502 2134.41677899 535.97422245 C2134.42691968 583.64898454 2134.42998484 631.32374547 2134.4305711 678.99850852 C2134.43063585 684.12908344 2134.43070379 689.25965837 2134.43077451 694.3902333 C2134.43079151 695.66341753 2134.43080852 696.93660177 2134.43082604 698.24836735 C2134.4312346 726.4698493 2134.43342487 754.69133104 2134.43593035 782.91281288 C2134.43695872 794.53573282 2134.43794875 806.15865277 2134.4389466 817.78157272 C2134.43911249 819.70796013 2134.43911249 819.70796013 2134.43928172 821.67326446 C2134.44554624 894.57455492 2134.44974234 967.47584516 2134.44928592 1040.37713588 C2134.44927316 1042.44142864 2134.4492612 1044.50572141 2134.44924951 1046.57001417 C2134.44916717 1061.07198279 2134.44906446 1075.57395142 2134.44895663 1090.07592004 C2134.44892586 1094.23380806 2134.44889579 1098.39169608 2134.44886581 1102.54958409 C2134.44884072 1106.01780195 2134.44881493 1109.48601981 2134.4487877 1112.95423766 C2134.44827634 1178.45223144 2134.44969283 1243.95022398 2134.45913511 1309.44821717 C2134.45928415 1310.48241823 2134.45928415 1310.48241823 2134.4594362 1311.53751224 C2134.46254757 1333.0798908 2134.46591405 1354.62226932 2134.46932798 1376.16464784 C2134.47282954 1398.26966072 2134.47630007 1420.3746736 2134.47959238 1442.47968652 C2134.47969391 1443.16035565 2134.47979543 1443.84102478 2134.47990004 1444.54232025 C2134.48625158 1487.18697092 2134.4901672 1529.83162124 2134.49145037 1572.47627236 C2134.49149032 1573.79374689 2134.49153027 1575.11122141 2134.49157143 1576.4686194 C2134.49242474 1605.39170258 2134.49268589 1634.31478575 2134.49240105 1663.23786894 C2134.49230457 1673.58733148 2134.49225253 1683.93679402 2134.49222232 1694.28625656 C2134.49221441 1696.86090091 2134.49220421 1699.43554525 2134.4921917 1702.0101896 C2134.49201545 1743.01689192 2134.4977103 1784.02359079 2134.50634552 1825.03029213 C2134.51499976 1866.33729937 2134.51718301 1907.64430182 2134.5105842 1948.95130959 C2134.50967194 1954.66353434 2134.50882865 1960.3757591 2134.50802618 1966.08798387 C2134.50778605 1967.76755334 2134.50778605 1967.76755334 2134.50754107 1969.48105351 C2134.50519123 1987.18595591 2134.50953832 2004.89085002 2134.51669737 2022.59575087 C2134.52360192 2040.01976308 2134.52332822 2057.44376309 2134.51550523 2074.86777504 C2134.51113574 2085.07247949 2134.51216691 2095.2771479 2134.52137202 2105.48184933 C2134.52694691 2112.27492231 2134.5251547 2119.06796863 2134.51758923 2125.86103959 C2134.51351169 2129.70164575 2134.51234566 2133.54218146 2134.52033992 2137.38278308 C2134.5662253 2161.00375515 2134.2546928 2184.81473335 2130.07601744 2208.12997987 C2129.86243589 2209.35724793 2129.64885435 2210.584516 2129.42880064 2211.84897401 C2120.00784132 2264.04997195 2099.01656873 2315.79971298 2065.26351744 2357.12997987 C2064.50554869 2358.07872987 2063.74757994 2359.02747987 2062.96664244 2360.00497987 C2058.59836278 2365.42767185 2054.0610463 2370.66145425 2049.36898619 2375.80576112 C2047.52374188 2377.84271911 2045.73270074 2379.91268834 2043.95101744 2382.00497987 C2040.87296399 2385.53400394 2037.62738939 2388.87409851 2034.32601744 2392.19247987 C2033.84801695 2392.67507264 2033.37001646 2393.15766541 2032.87753111 2393.65488221 C2028.8398484 2397.67561411 2024.58633606 2401.41977111 2020.26351744 2405.12997987 C2019.63389097 2405.67162782 2019.00426451 2406.21327577 2018.35555845 2406.77133729 C1965.97724028 2451.48618691 1900.01894162 2479.53951963 1831.26351744 2485.12997987 C1829.83948018 2485.25509416 1829.83948018 2485.25509416 1828.38667448 2485.382736 C1814.53497862 2486.42878192 1800.66113731 2486.27215437 1786.77888084 2486.25995973 C1782.85900064 2486.2576389 1778.9391247 2486.26117293 1775.01924538 2486.26392655 C1768.13300077 2486.26796638 1761.24676371 2486.26831243 1754.36051835 2486.26622061 C1744.05139495 2486.26310625 1733.74227846 2486.265764 1723.43315556 2486.26951932 C1705.86089754 2486.27574903 1688.28864199 2486.27722602 1670.71638304 2486.27610185 C1652.91077285 2486.27497709 1635.10516475 2486.27601254 1617.29955488 2486.27967431 C1616.17453763 2486.27990396 1615.04952037 2486.28013362 1613.89041168 2486.28037023 C1609.30830061 2486.28131188 1604.72618953 2486.28226757 1600.14407846 2486.28324142 C1552.35083611 2486.2933842 1504.55759493 2486.29644735 1456.76435162 2486.29703353 C1451.62039187 2486.29709828 1446.47643213 2486.29716622 1441.33247238 2486.29723694 C1439.41773009 2486.29726244 1439.41773009 2486.29726244 1437.46430613 2486.29728847 C1409.17382595 2486.29769697 1380.88334598 2486.29988705 1352.59286591 2486.30239278 C1340.94278697 2486.30342114 1329.29270803 2486.30441118 1317.64262909 2486.30540903 C1315.71175907 2486.30557492 1315.71175907 2486.30557492 1313.74188159 2486.30574415 C1283.42354921 2486.30834341 1253.1052168 2486.31057627 1222.78688437 2486.31242635 C1222.12630981 2486.31246672 1221.46573526 2486.31250709 1220.7851433 2486.31254868 C1178.6959202 2486.3151115 1136.60669724 2486.31601122 1094.51747407 2486.31574835 C1092.44809907 2486.31573559 1090.37872406 2486.31572363 1088.30934905 2486.31571194 C1073.77155924 2486.3156296 1059.23376944 2486.31552689 1044.69597964 2486.31541906 C1040.52779061 2486.31538829 1036.35960158 2486.31535822 1032.19141255 2486.31532824 C1028.71460133 2486.31530315 1025.23779012 2486.31527736 1021.76097891 2486.31525013 C956.10024408 2486.31473877 890.43951047 2486.31615526 824.77877623 2486.32559754 C824.08759575 2486.3256969 823.39641527 2486.32579626 822.68428993 2486.32589863 C801.088466 2486.32900999 779.49264211 2486.33237648 757.89681822 2486.33579041 C735.73713818 2486.33929195 713.57745814 2486.34276247 691.41777807 2486.34605481 C690.73543256 2486.34615634 690.05308705 2486.34625786 689.3500644 2486.34636247 C646.60273693 2486.35271366 603.8554098 2486.35663389 561.10808188 2486.3579128 C560.44766011 2486.35793283 559.78723834 2486.35795285 559.1068038 2486.35797349 C529.44919574 2486.35886853 499.7915877 2486.35915487 470.13397962 2486.35886348 C459.76036589 2486.358767 449.38675215 2486.35871496 439.01313841 2486.35868475 C436.43246769 2486.35867684 433.85179696 2486.35866664 431.27112623 2486.35865413 C390.16196193 2486.35847786 349.05280109 2486.36417385 307.94363778 2486.37280795 C266.53488514 2486.38146075 225.12613727 2486.38364667 183.71738411 2486.37704663 C177.99208629 2486.37613436 172.26678845 2486.37529108 166.54149061 2486.37448861 C165.41920576 2486.37432852 164.2969209 2486.37416844 163.14062742 2486.3740035 C145.38923392 2486.37165291 127.63784869 2486.37600247 109.88645674 2486.3831598 C92.42010994 2486.39006138 74.95377531 2486.38979407 57.48742877 2486.38196766 C47.25560261 2486.37759536 37.02381239 2486.37863611 26.79198923 2486.38783445 C19.98348392 2486.39340356 13.17500524 2486.39162438 6.36650195 2486.38405166 C2.51547661 2486.37996864 -1.3354784 2486.37882327 -5.18649925 2486.38680235 C-61.95025903 2486.49634181 -115.53392591 2477.35373591 -166.73648256 2452.12997987 C-167.653006 2451.67864686 -168.56952944 2451.22731385 -169.51382631 2450.76230409 C-195.87936224 2437.64100527 -219.65639693 2421.07871182 -241.41226381 2401.23544862 C-243.44922181 2399.39020431 -245.51919103 2397.59916317 -247.61148256 2395.81747987 C-251.14050663 2392.73942642 -254.4806012 2389.49385182 -257.79898256 2386.19247987 C-258.28157534 2385.71447938 -258.76416811 2385.23647889 -259.26138491 2384.74399354 C-263.2821168 2380.70631083 -267.02627381 2376.45279849 -270.73648256 2372.12997987 C-271.27813051 2371.5003534 -271.81977846 2370.87072694 -272.37783998 2370.22202088 C-329.61195338 2303.17882099 -352.16333132 2221.92877177 -351.99129988 2135.20991266 C-351.98583051 2131.29244103 -351.99223453 2127.37498303 -351.99697358 2123.45751287 C-352.0037008 2116.59418465 -352.00313941 2109.7308883 -351.99760649 2102.86755945 C-351.98936119 2092.59290605 -351.99279781 2082.31827811 -351.99837177 2072.04362407 C-352.00753878 2054.52534515 -352.00728791 2037.00707788 -352.00181002 2019.48879792 C-351.9962969 2001.74950211 -351.99515533 1984.01021395 -351.99928469 1966.27091767 C-351.99954303 1965.14819684 -351.99980138 1964.025476 -352.00006755 1962.86873332 C-352.00113416 1958.29565467 -352.00223158 1953.72257603 -352.0033681 1949.14949741 C-352.01393326 1906.60769143 -352.01467015 1864.06589059 -352.0090732 1821.52408387 C-352.00890761 1820.26483493 -352.00874202 1819.00558598 -352.00857141 1817.70817798 C-352.00840555 1816.44690252 -352.00823969 1815.18562706 -352.00806881 1813.88613113 C-352.00301945 1775.43744516 -352.00172104 1736.98876131 -352.00411409 1698.54007508 C-352.00426905 1695.96387785 -352.00442337 1693.38768062 -352.00457703 1690.81148339 C-352.00519798 1680.4584241 -352.00583532 1670.10536481 -352.00649656 1659.75230552 C-352.00833044 1630.8124723 -352.00947174 1601.87263907 -352.01006884 1572.9328058 C-352.01009613 1571.61503083 -352.01012342 1570.29725587 -352.01015154 1568.93954833 C-352.01096991 1526.95896797 -352.00871913 1484.97838836 -352.00436968 1442.99780824 C-352.00429944 1442.31725961 -352.0042292 1441.63671098 -352.00415684 1440.93553966 C-352.00180431 1418.14223128 -351.99929209 1395.34892291 -351.99676358 1372.55561455 C-351.98912313 1303.63391215 -351.98493553 1234.71221248 -351.99699424 1111.62503435 C-351.99952076 1088.83740674 -352.00201787 1066.04977913 -352.00436968 1043.2621515 C-352.00444017 1042.58179273 -352.00451066 1041.90143397 -352.00458328 1041.20045827 C-352.00899564 998.57602339 -352.0109516 955.95158904 -352.01006884 913.32715394 C-352.01004167 912.01035061 -352.0100145 910.69354728 -352.00998651 909.33684082 C-352.00936151 880.42898527 -352.00809415 851.52112978 -352.00624783 822.61327429 C-352.00558957 812.26955406 -352.0049634 801.92583383 -352.00434641 791.58211359 C-352.00419163 789.00894181 -352.00403417 786.43577003 -352.00387402 783.86259825 C-352.00148828 745.42565852 -352.00351691 706.98872118 -352.00857141 668.55178175 C-352.008737 667.29253281 -352.00890259 666.03328387 -352.0090732 664.73587586 C-352.00923856 663.47895705 -352.00940393 662.22203824 -352.0095743 660.92703098 C-352.01509431 618.50620294 -352.0130543 576.08538106 -352.00251171 533.6645539 C-352.00140704 529.10604996 -352.00033363 524.54754601 -351.99928469 519.98904206 C-351.99902427 518.87033234 -351.99876386 517.75162263 -351.99849555 516.59901261 C-351.99455618 498.91020789 -351.99729149 481.22141084 -352.0028227 463.53260681 C-352.0081231 446.12471405 -352.00623823 428.71683417 -351.99679452 411.30894303 C-351.99147419 401.11391786 -351.99153892 390.91892809 -351.99975772 380.72390465 C-352.00467582 373.93733411 -352.00223385 367.1507909 -351.99402401 360.36422363 C-351.98958153 356.52734352 -351.98804551 352.69053345 -351.99565704 348.8536567 C-352.03921802 325.24075218 -351.72621342 301.43716667 -347.54898256 278.12997987 C-347.33540102 276.9027118 -347.12181948 275.67544373 -346.90176577 274.41098573 C-338.73112073 229.1379079 -322.05142241 185.05999493 -295.73648256 147.12997987 C-295.31802065 146.52154237 -294.89955873 145.91310487 -294.46841616 145.28622987 C-285.84419941 132.79575286 -276.60584948 120.88098549 -266.22476381 109.80185487 C-264.15161696 107.57574427 -262.14887791 105.31750369 -260.17398256 103.00497987 C-253.60858365 95.45005911 -246.35890839 88.6003343 -238.73648256 82.12997987 C-237.8276935 81.33205018 -236.91890444 80.53412049 -235.98257631 79.71201112 C-186.89414341 36.90443887 -124.27165159 10.32668903 -59.86148256 2.37997987 C-58.92497866 2.26428651 -57.98847475 2.14859315 -57.02359194 2.02939393 C-38.07243102 -0.11319437 -19.04325332 -0.01686202 0 0 Z M423.26351744 517.12997987 C423.26351744 973.18997987 423.26351744 1429.24997987 423.26351744 1899.12997987 C734.25635001 1908.31147888 734.25635001 1908.31147888 1043.94711119 1894.31747987 C1044.7818144 1894.22442567 1045.61651762 1894.13137147 1046.47651487 1894.03549745 C1141.85777382 1883.23230477 1239.0674719 1860.83481079 1318.40218931 1799.57382752 C1320.20471258 1798.17559528 1322.02099907 1796.7974641 1323.84164244 1795.42294862 C1332.85713871 1788.55705019 1341.12132066 1781.00343331 1349.26351744 1773.12997987 C1350.15425963 1772.26888612 1351.04500181 1771.40779237 1351.96273619 1770.52060487 C1356.63807174 1765.91670908 1361.05405674 1761.16216249 1365.26351744 1756.12997987 C1365.7171063 1755.59018495 1366.17069517 1755.05039002 1366.63802916 1754.49423768 C1413.78384105 1698.17239529 1444.54059282 1629.16879364 1456.07601744 1556.75497987 C1456.27090757 1555.54640321 1456.46579771 1554.33782655 1456.66659361 1553.09262635 C1459.6738218 1533.15002494 1460.64870594 1513.15283792 1460.57601744 1493.00497987 C1460.57419462 1491.94380952 1460.57237181 1490.88263917 1460.57049376 1489.78931214 C1460.5204773 1472.39775957 1459.82443761 1455.35685265 1457.26351744 1438.12997987 C1457.09191099 1436.96353944 1456.92030455 1435.79709901 1456.74349791 1434.5953119 C1448.15240504 1378.20426892 1426.14595238 1324.6610017 1390.26351744 1280.12997987 C1389.54035338 1279.21474549 1388.81718931 1278.29951112 1388.07211119 1277.35654237 C1374.60077429 1260.53544549 1359.30447281 1244.3324417 1342.26351744 1231.12997987 C1341.29285338 1230.33076112 1340.32218931 1229.53154237 1339.32211119 1228.70810487 C1299.71298133 1196.26122402 1252.04920376 1174.66842154 1203.26351744 1160.12997987 C1208.80750002 1156.70306537 1214.42252153 1153.48265748 1220.15536314 1150.38388612 C1245.35789263 1136.73241527 1268.73772674 1120.57055944 1289.93539244 1101.23935487 C1291.99504777 1099.3732242 1294.08740638 1097.55928199 1296.20101744 1095.75497987 C1304.1373548 1088.8307665 1311.5259587 1081.22035552 1318.26351744 1073.12997987 C1318.70888853 1072.6037201 1319.15425963 1072.07746034 1319.61312681 1071.5352533 C1332.85051307 1055.85759856 1344.3271878 1039.07899567 1354.26351744 1021.12997987 C1354.73644224 1020.27984315 1355.20936705 1019.42970643 1355.69662291 1018.55380799 C1376.46952851 980.88812949 1388.89236635 939.89237623 1393.26351744 897.12997987 C1393.460744 895.24472596 1393.460744 895.24472596 1393.66195494 893.32138612 C1401.02028307 805.71750664 1369.05182799 718.71570051 1314.26351744 651.12997987 C1313.83442076 650.59501893 1313.40532408 650.06005799 1312.96322447 649.50888612 C1306.20565475 641.13676642 1298.78151782 633.44192565 1291.20101744 625.81747987 C1289.8362628 624.43882752 1289.8362628 624.43882752 1288.44393736 623.03232362 C1282.35639611 616.97269431 1275.9924462 611.46254284 1269.26351744 606.12997987 C1267.85046005 604.98060529 1266.43767671 603.83089367 1265.02523619 602.68076112 C1198.91877945 549.76184334 1114.40447101 529.1510331 1031.70101744 520.87997987 C1030.94885954 520.8028476 1030.19670164 520.72571534 1029.42175108 520.64624574 C828.38442611 500.38102085 625.31966154 517.12997987 423.26351744 517.12997987 Z " fill="#5A4182" transform="translate(608.7364825624973,45.870020132511854)"/>
<path d="M0 0 C60.039375 -0.020625 120.07875 -0.04125 181.9375 -0.0625 C200.84925537 -0.071604 219.76101074 -0.08070801 239.24584961 -0.09008789 C262.45617676 -0.09460449 262.45617676 -0.09460449 273.34449768 -0.09544373 C280.89971737 -0.09637006 288.45492953 -0.10001165 296.01014709 -0.10557556 C304.75263118 -0.11200414 313.49510812 -0.11482141 322.23759458 -0.11344495 C326.6963557 -0.11285027 331.15510095 -0.11369848 335.61385906 -0.11921513 C364.98265123 -0.15374439 394.31494201 0.2897219 423.625 2.3125 C424.56737518 2.37658051 425.50975037 2.44066101 426.48068237 2.50668335 C475.70367269 5.89922405 525.54459358 14.18020197 568 41 C569.49080078 41.93199219 569.49080078 41.93199219 571.01171875 42.8828125 C616.27748255 72.11325343 647.60181179 119.46996986 659 172 C662.45265868 189.83199828 664.23639067 207.35230713 664.25 225.5 C664.25067474 226.31302582 664.25134949 227.12605164 664.25204468 227.9637146 C664.17409888 287.49755297 645.6536537 344.69811554 604.91796875 388.89453125 C603.34902735 390.61685185 601.88041241 392.36108928 600.4375 394.1875 C597.90936063 397.10458389 595.26360986 399.55192193 592.3203125 402.0390625 C590.70780313 403.40182295 589.12071595 404.79500762 587.5546875 406.2109375 C574.42343389 417.77092999 558.89515878 426.66933046 543.07373047 434.03320312 C541.63126302 434.70569796 540.19306103 435.38738695 538.75830078 436.07617188 C489.80646796 459.56979428 434.35577969 466.52562368 380.6396637 469.09518433 C379.76299038 469.1377901 378.88631706 469.18039588 377.98307789 469.22429274 C359.95265377 470.084934 341.9538021 470.27844198 323.90596215 470.23214546 C319.46802589 470.22315753 315.03009169 470.22635084 310.59214878 470.2277813 C302.04945637 470.2288276 293.50680737 470.21976263 284.96412599 470.20677864 C275.04415467 470.19216401 265.12420802 470.19077761 255.20422363 470.18920898 C229.11530906 470.17878261 203.02640384 470.15086017 176.9375 470.125 C118.548125 470.08375 60.15875 470.0425 0 470 C0 314.9 0 159.8 0 0 Z " fill="#5A4282" transform="translate(1218,1312)"/>
<path d="M0 0 C50.36625 -0.04125 100.7325 -0.0825 152.625 -0.125 C168.42197754 -0.14320801 184.21895508 -0.16141602 200.49462891 -0.18017578 C220.05541992 -0.18920898 220.05541992 -0.18920898 229.26498413 -0.19088745 C235.58262699 -0.1927216 241.90023249 -0.19996712 248.21786499 -0.21115112 C279.48117852 -0.26463035 310.72008252 -0.28229751 341.96630859 0.89501953 C343.02406533 0.93449699 344.08182208 0.97397445 345.17163205 1.0146482 C490.41066485 6.62076571 490.41066485 6.62076571 543 53 C544.49466797 54.29550781 544.49466797 54.29550781 546.01953125 55.6171875 C552.73587611 61.53057152 558.60353638 67.84610397 564 75 C564.39396973 75.51900879 564.78793945 76.03801758 565.19384766 76.57275391 C602.0797375 125.50540285 613.18196453 188.50358244 605.03515625 248.50390625 C597.67897154 296.95829867 575.01742846 340.27765675 535.52001953 370.02416992 C526.13968984 376.89749603 516.33393764 382.69073543 506 388 C505.33774414 388.34869141 504.67548828 388.69738281 503.99316406 389.05664062 C466.66413506 408.56996613 422.59706356 415.01020093 381.125 419.25 C380.025616 419.36556244 380.025616 419.36556244 378.90402222 419.48345947 C372.94363298 420.09892124 366.97522237 420.55497209 361 421 C359.92080009 421.08368017 358.84160017 421.16736034 357.72969723 421.25357628 C323.96941549 423.75591473 290.10177435 423.26378175 256.27319751 423.20679453 C247.35131695 423.19211565 238.4294635 423.19077718 229.50756836 423.18920898 C206.04670479 423.17878531 182.58585163 423.1508629 159.125 423.125 C106.61375 423.08375 54.1025 423.0425 0 423 C0 283.41 0 143.82 0 0 Z " fill="#5A4282" transform="translate(1218,726)"/>
<path d="M0 0 C0.76316528 0.00359528 1.52633057 0.00719055 2.31262207 0.01089478 C3.51253029 0.01067574 3.51253029 0.01067574 4.73667908 0.01045227 C7.39344958 0.01115161 10.05015086 0.01894498 12.70690918 0.02676392 C14.54393984 0.02862802 16.38097099 0.03005196 18.21800232 0.03105164 C23.06284955 0.03487742 27.90766701 0.04470821 32.75250244 0.05575562 C37.69237871 0.06596845 42.63225978 0.07054898 47.57214355 0.07559204 C57.27202646 0.08633042 66.97188722 0.10340756 76.67175293 0.12442017 C79.79685691 7.44960392 82.71350619 14.78933465 85.28112793 22.32754517 C85.60481354 23.26670273 85.92849915 24.20586029 86.26199341 25.17347717 C86.95636779 27.18884013 87.64912882 29.20475957 88.34039307 31.22119141 C90.22056169 36.70373424 92.11449835 42.18151983 94.00769043 47.65957642 C94.39651398 48.78535599 94.78533752 49.91113556 95.1859436 51.07102966 C99.08216704 62.33841695 103.05587805 73.57777373 107.04675293 84.81192017 C108.46105792 88.79490702 109.87510943 92.77798378 111.28894043 96.76113892 C111.64411743 97.7616629 111.99929443 98.76218689 112.36523438 99.79302979 C116.65865778 111.89483671 120.91414246 124.00997879 125.17175293 136.12442017 C131.14999552 153.13217735 137.14662342 170.13321615 143.17175293 187.12442017 C149.99449108 206.36492541 156.7800422 225.61832303 163.54406738 244.87954712 C167.55520467 256.2969749 171.58558698 267.70709942 175.65222168 279.10488892 C176.451749 281.34901239 177.25122906 283.59315269 178.05065918 285.83731079 C179.55986799 290.07353652 181.07511196 294.3075388 182.59362793 298.54043579 C183.26964385 300.43683653 183.9454381 302.3333163 184.62097168 304.22988892 C185.08819893 305.52421089 185.08819893 305.52421089 185.56486511 306.84468079 C185.84465714 307.63333023 186.12444916 308.42197968 186.41271973 309.23452759 C186.65741501 309.91770554 186.90211029 310.60088348 187.15422058 311.30476379 C187.67175293 313.12442017 187.67175293 313.12442017 187.67175293 316.12442017 C163.91175293 316.12442017 140.15175293 316.12442017 115.67175293 316.12442017 C111.17106116 304.87269074 111.17106116 304.87269074 109.47351074 299.23770142 C109.09341858 297.98360474 108.71332642 296.72950806 108.32171631 295.43740845 C107.92259054 294.10396611 107.5236486 292.77046874 107.12487793 291.43692017 C106.70492516 290.04343328 106.28465161 288.65004303 105.86407471 287.25674438 C104.99065928 284.35980016 104.12029798 281.46196272 103.25231934 278.56338501 C102.13872744 274.84508927 101.01860009 271.12880119 99.89638138 267.4131012 C99.03124408 264.54680152 98.16889106 261.67967045 97.30745697 258.81225586 C96.89510576 257.44047463 96.48202847 256.06891145 96.06821442 254.6975708 C95.49353795 252.79119978 94.92287596 250.88361997 94.35241699 248.97598267 C94.02694885 247.89139771 93.70148071 246.80681274 93.3661499 245.68936157 C92.67175293 243.12442017 92.67175293 243.12442017 92.67175293 241.12442017 C55.05175293 241.12442017 17.43175293 241.12442017 -21.32824707 241.12442017 C-21.65824707 243.43442017 -21.98824707 245.74442017 -22.32824707 248.12442017 C-22.92680507 250.4107966 -23.57408768 252.68480664 -24.26184082 254.94595337 C-24.45545197 255.58749863 -24.64906311 256.22904388 -24.84854126 256.89002991 C-25.48265722 258.9866262 -26.12405432 261.08091294 -26.76574707 263.17520142 C-27.21072457 264.64002114 -27.65529831 266.10496356 -28.0994873 267.57002258 C-29.02775115 270.62793738 -29.95936222 273.68480385 -30.89367676 276.74087524 C-32.09221866 280.66141673 -33.28465147 284.58378182 -34.47489929 288.50684834 C-35.39123149 291.52612471 -36.30957969 294.54478452 -37.22866821 297.56322289 C-37.6691895 299.01003555 -38.10935613 300.45695624 -38.54916382 301.90398598 C-39.16245017 303.9198559 -39.7781622 305.93496782 -40.39465332 307.94985962 C-40.74471436 309.09678787 -41.09477539 310.24371613 -41.45544434 311.42539978 C-42.32824707 314.12442017 -42.32824707 314.12442017 -43.32824707 316.12442017 C-62.2862812 316.592592 -81.24313609 316.94475817 -100.20576096 317.1606636 C-109.01174395 317.26360234 -117.814127 317.40378486 -126.61779785 317.63320923 C-134.29567024 317.833199 -141.9709362 317.96172358 -149.65134072 318.00619006 C-153.71607411 318.03217498 -157.77335571 318.09270378 -161.83568573 318.2390213 C-186.47176043 319.09227328 -186.47176043 319.09227328 -192.81202698 314.21296692 C-196.84009595 309.56462469 -199.16810152 304.44084175 -201.27222061 298.71080589 C-203.00267462 294.47263411 -205.52884429 290.78248371 -208.07824707 286.99942017 C-208.62190918 286.14332153 -209.16557129 285.2872229 -209.72570801 284.40518188 C-210.16688965 283.71182739 -210.60807129 283.0184729 -211.06262207 282.30410767 C-214.87673492 276.28045609 -218.60042192 270.20170755 -222.32824707 264.12442017 C-227.40667164 255.84780579 -232.52811747 247.60320292 -237.73693848 239.40811157 C-240.66438037 234.79057971 -243.55312307 230.150537 -246.41418457 225.49160767 C-246.76885803 224.91408752 -247.12353149 224.33656738 -247.48895264 223.74154663 C-249.2366614 220.89383561 -250.98123191 218.04426703 -252.72277832 215.19277954 C-256.11704472 209.65063229 -259.56776332 204.18642838 -263.28381348 198.85342407 C-264.32824707 197.12442017 -264.32824707 197.12442017 -264.32824707 195.12442017 C-275.87824707 195.12442017 -287.42824707 195.12442017 -299.32824707 195.12442017 C-299.32824707 235.05442017 -299.32824707 274.98442017 -299.32824707 316.12442017 C-321.43824707 316.12442017 -343.54824707 316.12442017 -366.32824707 316.12442017 C-366.32824707 212.17442017 -366.32824707 108.22442017 -366.32824707 1.12442017 C-203.44117968 1.12442017 -203.44117968 1.12442017 -170.02746582 32.26895142 C-151.75797844 51.38983239 -148.65094656 76.72853756 -149.02355957 102.02285767 C-149.76242228 125.24512941 -160.38694281 144.69416863 -176.82824707 160.74942017 C-184.37455754 167.6270223 -195.89612909 177.08743031 -206.32824707 178.12442017 C-204.83365913 180.56537628 -203.33271335 183.00206027 -201.82824707 185.43692017 C-201.4183252 186.1078772 -201.00840332 186.77883423 -200.58605957 187.47012329 C-198.16563453 191.37580916 -195.62085473 195.12445916 -192.87902832 198.81192017 C-186.21153253 207.88201086 -180.17929864 217.3964046 -174.01574707 226.81192017 C-165.9547184 239.1165732 -157.86076934 251.38450241 -149.47402954 263.47009277 C-146.69362331 267.48455652 -143.95219378 271.52588516 -141.20324707 275.56192017 C-140.59215088 276.45862427 -139.98105469 277.35532837 -139.35144043 278.27920532 C-131.66879568 289.55532961 -123.99820141 300.83966179 -116.32824707 312.12442017 C-111.59665776 301.58614166 -107.96899734 290.66560842 -104.2326355 279.74673462 C-102.23325639 273.90594923 -100.22003373 268.06993879 -98.20715332 262.23379517 C-97.59134148 260.44739624 -97.59134148 260.44739624 -96.96308899 258.62490845 C-93.04333779 247.26901703 -89.04077597 235.94334455 -85.01574707 224.62442017 C-78.56555154 206.47663174 -72.18133584 188.3063755 -65.82824707 170.12442017 C-59.19974964 151.15567196 -52.53619139 132.19994972 -45.81280518 113.2645874 C-39.87470801 96.53679364 -33.99939586 79.78743516 -28.14176941 63.03134537 C-15.39879873 26.58179802 -15.39879873 26.58179802 -11.2744751 14.90887451 C-10.60058288 13.00018278 -9.92945522 11.09051568 -9.25842285 9.18081665 C-8.87412109 8.09615112 -8.48981934 7.0114856 -8.09387207 5.89395142 C-7.77192871 4.98234253 -7.44998535 4.07073364 -7.11828613 3.13150024 C-5.62217454 -0.66934443 -3.85107704 0.00765756 0 0 Z M35.67175293 53.12442017 C33.39004931 59.8002646 31.32411262 66.52626923 29.32800293 73.29238892 C28.66071482 75.54225907 27.99331023 77.79209469 27.32580566 80.04190063 C26.97509003 81.22572327 26.62437439 82.4095459 26.26303101 83.62924194 C21.02638724 101.3010658 15.74606391 118.95771089 10.32409668 136.57363892 C10.10472569 137.2867819 9.88535469 137.99992489 9.65933609 138.73467827 C7.50931347 145.72326048 5.35488894 152.71044659 3.18883419 159.69407749 C2.58099704 161.65579371 1.97495439 163.61805389 1.36964417 165.58055115 C0.62804739 167.98396434 -0.116868 170.38635688 -0.86561584 172.78755188 C-1.19174362 173.84666275 -1.5178714 174.90577362 -1.85388184 175.99697876 C-2.14013931 176.91981659 -2.42639679 177.84265442 -2.72132874 178.79345703 C-3.45423275 181.20684086 -3.45423275 181.20684086 -3.32824707 184.12442017 C22.74175293 184.12442017 48.81175293 184.12442017 75.67175293 184.12442017 C74.39023017 177.71680636 73.08177711 171.71517803 71.12487793 165.54238892 C70.8773024 164.74698196 70.62972687 163.95157501 70.37464905 163.13206482 C69.56165684 160.52387521 68.74163731 157.91795052 67.92175293 155.31192017 C67.34269783 153.45726573 66.76417697 151.60244442 66.18615723 149.74746704 C64.66209943 144.86019507 63.1324715 139.97468684 61.60113525 135.08969116 C58.88906676 126.43661285 56.18451427 117.78118961 53.48425293 109.12442017 C53.19302551 108.19138062 52.9017981 107.25834106 52.60174561 106.29702759 C47.09200721 88.63057786 41.81082026 70.90198676 36.67175293 53.12442017 C36.34175293 53.12442017 36.01175293 53.12442017 35.67175293 53.12442017 Z M-299.32824707 57.12442017 C-299.32824707 84.51442017 -299.32824707 111.90442017 -299.32824707 140.12442017 C-259.91780361 142.17658282 -259.91780361 142.17658282 -226.38684082 125.31192017 C-217.48074322 115.84813524 -216.60860516 105.15790616 -216.98059082 92.70254517 C-217.49392526 83.70171338 -220.83927867 75.48752495 -227.32824707 69.12442017 C-247.56903128 53.54624518 -275.70688196 57.12442017 -299.32824707 57.12442017 Z " fill="#5A4182" transform="translate(2333.3282470703125,2636.8755798339844)"/>
<path d="M0 0 C148.75840979 0 148.75840979 0 179 11 C180.08667969 11.39058594 181.17335938 11.78117187 182.29296875 12.18359375 C189.2811027 14.88496365 195.11700877 18.37903659 201 23 C201.76054687 23.57234375 202.52109375 24.1446875 203.3046875 24.734375 C216.30429343 35.26000748 222.80079144 50.7475009 225 67 C226.5876653 89.34703979 225.25876198 112.14600001 210.03881836 129.9362793 C201.14399198 139.77419381 190.45207649 147.02166716 177 148 C177 148.66 177 149.32 177 150 C178.051875 150.061875 179.10375 150.12375 180.1875 150.1875 C195.37182175 152.12249321 210.22163418 161.45150279 219.78515625 173.19140625 C221.3327362 175.40393104 222.69158818 177.63857206 224 180 C224.65935547 181.17755859 224.65935547 181.17755859 225.33203125 182.37890625 C236.25412823 203.9921193 235.87810612 231.56767271 229.00390625 254.29296875 C221.86193741 274.97749443 206.3878888 291.36264101 186.89941406 301.04345703 C174.77747929 306.65669222 162.15188691 310.41333411 149 312.6875 C148.31301025 312.80706055 147.62602051 312.92662109 146.91821289 313.04980469 C98.55628178 320.78771366 48.97705193 315 0 315 C0 211.05 0 107.1 0 0 Z M67 56 C67 78.44 67 100.88 67 124 C75.58 124.0825 84.16 124.165 93 124.25 C95.67351562 124.28641602 98.34703125 124.32283203 101.1015625 124.36035156 C125.47594609 124.73992732 125.47594609 124.73992732 146.88671875 114.35546875 C153.86091841 107.1765756 156.20031417 99.24786023 156.4375 89.375 C156.14195445 80.2592668 154.60316219 73.56127587 148.1875 66.8515625 C132.62450466 53.67859859 110.51754354 55.60613165 91.5 55.8125 C83.415 55.874375 75.33 55.93625 67 56 Z M67 178 C67 204.73 67 231.46 67 259 C79.189375 259.061875 79.189375 259.061875 91.625 259.125 C95.42765381 259.15231201 95.42765381 259.15231201 99.30712891 259.18017578 C128.09457469 259.4509509 128.09457469 259.4509509 152.90625 246.25390625 C157.50042308 241.41639773 159.99831335 236.32791265 162 230 C162.19207031 229.40832031 162.38414062 228.81664063 162.58203125 228.20703125 C164.8828645 216.05777156 163.21853668 204.03057248 156.375 193.6875 C147.89083137 183.28960912 133.21431797 179.47294831 120.42236328 178.17456055 C110.86179353 177.48560596 101.2009549 177.80622209 91.625 177.875 C83.49875 177.91625 75.3725 177.9575 67 178 Z " fill="#5A4182" transform="translate(223,2638)"/>
<path d="M0 0 C0.76828125 0.72316406 1.5365625 1.44632813 2.328125 2.19140625 C3.32585937 3.07505859 3.32585937 3.07505859 4.34375 3.9765625 C15.53203345 14.32345065 23.23218852 28.3870154 29.328125 42.19140625 C29.59963379 42.8035498 29.87114258 43.41569336 30.15087891 44.04638672 C37.61648402 61.31549799 41.75934728 80.48831598 43.328125 99.19140625 C43.43769531 100.33351563 43.54726562 101.475625 43.66015625 102.65234375 C47.45210894 148.45913223 42.36480813 201.3697353 12.62890625 238.5 C11.86964844 239.38816406 11.11039063 240.27632812 10.328125 241.19140625 C9.47605469 242.19300781 8.62398437 243.19460938 7.74609375 244.2265625 C-16.78850618 272.3415281 -50.84565216 284.79894476 -87.32324219 287.96435547 C-113.15035884 289.71553792 -138.92393319 288.04266986 -163.671875 280.19140625 C-164.36716309 279.9711377 -165.06245117 279.75086914 -165.77880859 279.52392578 C-180.53283476 274.71077865 -193.99767823 267.46869059 -205.671875 257.19140625 C-206.47753906 256.51722656 -207.28320312 255.84304688 -208.11328125 255.1484375 C-239.21520039 228.42707035 -251.85310859 187.7981964 -255.01171875 148.0859375 C-258.48885207 99.73910811 -252.45904351 46.73305136 -219.71728516 8.75415039 C-218.37760769 7.22548517 -217.02515243 5.70804504 -215.671875 4.19140625 C-214.76115234 3.17046875 -214.76115234 3.17046875 -213.83203125 2.12890625 C-192.6916854 -20.20026101 -159.6879694 -32.0138667 -129.671875 -34.80859375 C-128.51300781 -34.91816406 -127.35414063 -35.02773437 -126.16015625 -35.140625 C-80.99525081 -38.74037836 -34.23739279 -31.81493575 0 0 Z M-161.35205078 42.63916016 C-185.47055765 71.00495126 -186.75680196 112.29810862 -184.359375 147.66015625 C-182.16902376 172.64541132 -174.27175593 197.67201633 -155.671875 215.19140625 C-137.85524996 230.10701401 -116.0535948 232.47425218 -93.671875 231.19140625 C-73.93751906 229.07623219 -58.51583635 219.98228346 -45.859375 204.87890625 C-29.61279021 182.58432274 -26.44533891 153.75833151 -26.421875 127.00390625 C-26.42120026 126.30642273 -26.42052551 125.60893921 -26.41983032 124.89031982 C-26.46452882 95.55891295 -30.38591332 64.01752313 -50.671875 41.19140625 C-58.09745656 33.85129901 -65.86985911 28.76389496 -75.671875 25.19140625 C-76.80367187 24.77890625 -77.93546875 24.36640625 -79.1015625 23.94140625 C-106.76060886 15.52089319 -141.26744545 20.68488158 -161.35205078 42.63916016 Z " fill="#5A4182" transform="translate(1108.671875,2668.80859375)"/>
<path d="M0 0 C0.85980469 0.70769531 1.71960938 1.41539062 2.60546875 2.14453125 C33.67778344 28.88117412 45.84065231 69.36656745 49 109 C49.14427823 112.2531227 49.18595706 115.50175705 49.203125 118.7578125 C49.21018463 119.65557404 49.21724426 120.55333557 49.22451782 121.478302 C49.42245636 154.05096965 47.86578238 185.87894363 34 216 C33.71962891 216.63276855 33.43925781 217.26553711 33.15039062 217.91748047 C23.3066108 240.00079449 6.80888617 259.52419182 -14 272 C-14.62036133 272.37318359 -15.24072266 272.74636719 -15.87988281 273.13085938 C-55.4267087 296.51813531 -106.97973426 298.23363486 -150.765625 287.41015625 C-172.87165417 281.63481566 -191.39659768 270.65781492 -208 255 C-208.67675781 254.38769531 -209.35351562 253.77539062 -210.05078125 253.14453125 C-238.60511264 226.30689313 -248.87045686 183.03956685 -250.20703125 145.21850586 C-250.32434387 140.43704482 -250.33474917 135.6576206 -250.3125 130.875 C-250.30926727 129.60907013 -250.30926727 129.60907013 -250.30596924 128.31756592 C-250.12406925 83.64061471 -240.36534561 39.55738441 -208.25 6.8125 C-197.27902862 -4.03643941 -185.07173184 -11.76916485 -171 -18 C-170.37432129 -18.27827637 -169.74864258 -18.55655273 -169.10400391 -18.84326172 C-117.58928591 -41.18293398 -43.97937376 -36.46914785 0 0 Z M-154 46 C-154.69609375 46.66386719 -155.3921875 47.32773438 -156.109375 48.01171875 C-173.47459047 65.67981589 -179.07884244 95.44165864 -179.203125 119.265625 C-179.20882507 120.13910583 -179.21452515 121.01258667 -179.22039795 121.91253662 C-179.22979956 123.75808523 -179.23636255 125.60365026 -179.24023438 127.44921875 C-179.2498286 130.20084182 -179.28085146 132.9516802 -179.3125 135.703125 C-179.40742246 151.44056221 -178.08833418 167.22661035 -173.3125 182.3125 C-173.05831299 183.13097412 -172.80412598 183.94944824 -172.54223633 184.79272461 C-166.43527172 203.54134359 -155.34286901 219.36049984 -137.6484375 228.78515625 C-117.07453216 238.23614888 -92.25580384 239.10016456 -70.80859375 231.93359375 C-52.78168989 224.95766543 -40.28722491 212.76437076 -32.23828125 195.32421875 C-16.22876111 158.3052671 -15.91609776 108.07801852 -30.65844727 70.50317383 C-37.87634257 52.93197763 -49.2062523 39.59285606 -66.58203125 31.390625 C-95.23520595 19.73287621 -131.93162379 23.35290763 -154 46 Z " fill="#5A4182" transform="translate(754,2664)"/>
<path d="M0 0 C162.50232143 0 162.50232143 0 193.55419922 29.54248047 C210.67340039 46.8004391 217.1385562 70.88459582 217.32958984 94.59057617 C217.3239502 95.79818604 217.31831055 97.0057959 217.3125 98.25 C217.30686035 99.52270752 217.3012207 100.79541504 217.29541016 102.10668945 C217.17201233 111.70178668 216.51304994 120.73312834 214 130 C213.80664062 130.72687012 213.61328125 131.45374023 213.4140625 132.20263672 C206.6466252 156.72937513 192.2398425 174.86096206 170.06494141 187.5222168 C137.86498537 205.15939722 103.20771955 203 67 203 C67 239.96 67 276.92 67 315 C44.89 315 22.78 315 0 315 C0 211.05 0 107.1 0 0 Z M67 56 C67 86.36 67 116.72 67 148 C104.88824914 149.21215034 104.88824914 149.21215034 137.75 132.875 C147.4053141 122.55773765 149.60163138 109.55560399 149.24609375 96.00390625 C148.6959928 84.49010174 144.74637122 74.26300155 136.375 66.1875 C117.48646235 50.90364511 88.3436581 56 67 56 Z " fill="#5A4182" transform="translate(2560,2638)"/>
<path d="M0 0 C0.88026855 0.18804199 1.76053711 0.37608398 2.66748047 0.56982422 C20.705536 4.57226655 37.8872863 11.12383581 55 18 C54.37836544 23.36380293 52.60796406 27.86700496 50.54296875 32.80078125 C50.19873367 33.63659225 49.8544986 34.47240326 49.49983215 35.33354187 C48.40156984 37.99565599 47.29453524 40.65402397 46.1875 43.3125 C45.45452995 45.08766438 44.72210271 46.86305299 43.99023438 48.63867188 C40.75401405 56.47019646 37.4739032 64.27033062 34 72 C33.13503906 71.6596875 32.27007813 71.319375 31.37890625 70.96875 C14.11587679 64.28258005 -3.63999028 57.78036701 -22 55 C-22.76054688 54.87109375 -23.52109375 54.7421875 -24.3046875 54.609375 C-37.95380617 52.65214289 -54.46587458 52.29486221 -66.1875 60.5 C-73.48474908 66.53910269 -77.01258613 72.65697852 -78.27734375 82.0625 C-78.68431451 90.13679993 -75.93003411 97.91407988 -70.84765625 104.1328125 C-67.30965048 107.7082179 -63.2516334 110.34654156 -59 113 C-58.17371094 113.52980469 -57.34742188 114.05960938 -56.49609375 114.60546875 C-47.05286754 120.39236574 -36.92813441 124.87533806 -26.93212891 129.60791016 C5.21485057 144.87036452 39.78787983 162.80914886 53 198 C60.32267366 221.99505868 58.75038308 249.44288969 47.1875 271.8125 C43.98905489 277.32593224 40.19438139 282.21214973 36 287 C35.12794922 288.01513672 35.12794922 288.01513672 34.23828125 289.05078125 C13.90522182 311.05988462 -18.92813719 318.98052637 -47.74658203 320.15234375 C-83.4758471 321.03684097 -114.82237949 315.66137315 -148 302 C-148 280.88 -148 259.76 -148 238 C-139.75 241.3 -131.5 244.6 -123 248 C-117.87958396 249.85717058 -112.79325103 251.67513731 -107.625 253.375 C-107.00510193 253.58067596 -106.38520386 253.78635193 -105.746521 253.9982605 C-80.68751896 262.28178347 -48.95756361 269.57411425 -24 257.3125 C-17.41674073 253.41490025 -13.45073041 248.21367168 -11 241 C-9.35199815 231.43415465 -10.03306553 224.38443663 -14.6875 215.9375 C-27.97658362 199.05677216 -49.32806631 191.19284388 -68.17919922 182.01660156 C-98.69115893 167.13470949 -128.87947299 149.82559665 -140.70703125 115.9765625 C-148.03650037 92.86400342 -146.82887445 66.32561227 -136.31640625 44.33203125 C-125.72083481 24.48460949 -108.78798252 11.79481587 -88 4 C-86.94425781 3.60039062 -85.88851563 3.20078125 -84.80078125 2.7890625 C-58.83666658 -6.05402905 -26.62660923 -5.73149933 0 0 Z " fill="#5A4182" transform="translate(1600,2637)"/>
<path d="M0 0 C78.54 0 157.08 0 238 0 C238 18.81 238 37.62 238 57 C209.95 57 181.9 57 153 57 C153 142.14 153 227.28 153 315 C130.56 315 108.12 315 85 315 C85 229.86 85 144.72 85 57 C56.95 57 28.9 57 0 57 C0 38.19 0 19.38 0 0 Z " fill="#5A4181" transform="translate(1682,2638)"/>
<path d="M0 0 C78.54 0 157.08 0 238 0 C238 18.81 238 37.62 238 57 C209.95 57 181.9 57 153 57 C153 142.14 153 227.28 153 315 C130.56 315 108.12 315 85 315 C85 229.86 85 144.72 85 57 C56.95 57 28.9 57 0 57 C0 38.19 0 19.38 0 0 Z " fill="#5A4181" transform="translate(1186,2638)"/>
</svg>
