<?xml version="1.0" encoding="UTF-8"?>
<svg version="1.1" xmlns="http://www.w3.org/2000/svg" width="1128" height="1024">
<path d="M0 0 C240.9 0 481.8 0 730 0 C730 9.82516629 729.92270981 19.22475698 729.03604126 28.94039917 C728.87984786 30.74593928 728.87984786 30.74593928 728.72049904 32.58795494 C728.43367083 35.88752468 728.14070608 39.18643865 727.84499243 42.48521639 C727.52386841 46.08515384 727.21095179 49.68580666 726.89696312 53.28637218 C726.34771776 59.57199171 725.79338427 65.85714583 725.23562622 72.14201546 C724.40985874 81.44726685 723.59224048 90.75322177 722.77634671 100.05934346 C721.410216 115.63920675 720.03786512 131.21851598 718.66192627 146.79751587 C716.70083995 169.00257402 714.74843645 191.20839025 712.79806063 213.41439141 C712.02123631 222.25861985 711.2441807 231.10282797 710.46713257 239.94703674 C710.38120677 240.92506765 710.29528097 241.90309856 710.20675136 242.91076677 C708.97943006 256.88018896 707.75092091 270.84950627 706.521486 284.8187426 C701.90080496 337.32061974 697.30017603 389.82420456 692.72418934 442.32999623 C692.50031764 444.89869917 692.27642766 447.46740051 692.05253172 450.03610134 C690.11494563 472.26564463 688.17841995 494.49528024 686.24230205 516.72495145 C685.16646918 529.07718915 684.09057043 541.4294211 683.01432153 553.78162256 C682.62567237 558.24235822 682.23719521 562.70310881 681.84884339 567.16387036 C680.62258551 581.2482461 679.39370685 595.33237613 678.1529801 609.41548544 C677.63155324 615.33503357 677.11113853 621.25467074 676.59082031 627.17431641 C676.47931003 628.44216225 676.36779975 629.71000809 676.25291038 631.0162735 C674.76753825 647.92740603 673.34911269 664.84274878 671.9867537 681.76421273 C671.46367417 688.22408424 670.92629514 694.68278087 670.38773715 701.14137834 C669.89951679 707.0172496 669.43558795 712.89432884 668.99153614 718.77369452 C668.72130432 722.27632044 668.42805399 725.77671786 668.12780428 729.27688622 C667.99583092 730.87262151 667.87373233 732.46920943 667.76233244 734.06651282 C667.61121206 736.21787049 667.42574377 738.36349139 667.23104858 740.51127625 C667.09045045 742.29696282 667.09045045 742.29696282 666.94701195 744.11872387 C666 747 666 747 663.0732708 748.85302448 C660.46460037 749.82660648 657.904723 750.75359614 655.22558594 751.5078125 C653.85989471 751.89718239 653.85989471 751.89718239 652.46661377 752.29441833 C651.48247498 752.56851028 650.49833618 752.84260223 649.484375 753.125 C647.90496124 753.57293663 647.90496124 753.57293663 646.29364014 754.02992249 C643.99605693 754.68084752 641.69770266 755.32905561 639.39868164 755.97488403 C635.01765676 757.20575562 630.63956657 758.44684674 626.26159668 759.68853283 C625.61509155 759.87188844 624.96858643 760.05524405 624.30249023 760.24415588 C623.32377457 760.52174838 623.32377457 760.52174838 622.32528687 760.80494881 C620.3069482 761.37709684 618.28839018 761.94846506 616.26977539 762.51963806 C603.01474169 766.27128652 589.77632529 770.07990575 576.54013062 773.8973999 C570.32601373 775.68962773 564.11120859 777.47946678 557.89647484 779.26955414 C555.74210922 779.89011687 553.58776635 780.51075858 551.4334259 781.13140869 C534.613501 785.9768009 517.79067555 790.81210393 500.9679184 795.64765167 C493.40696756 797.82098591 485.84605531 799.9944544 478.28515625 802.16796875 C477.45310165 802.4071553 476.62104706 802.64634186 475.76377869 802.89277649 C462.90328342 806.58977122 450.04327931 810.28847107 437.18359375 813.98828125 C435.91973626 814.35189507 435.91973626 814.35189507 434.6303463 814.72285461 C426.5467138 817.04853673 418.46311743 819.37434436 410.37962818 821.70052433 C407.4473213 822.54432721 404.51498535 823.38802904 401.58264351 824.23171043 C400.24347111 824.61703894 398.90431201 825.00241368 397.56516838 825.38784218 C394.54586901 826.25684587 391.52616193 827.12416309 388.50457764 827.98519897 C386.08672559 828.68532292 383.67521984 829.40761216 381.26934814 830.14785767 C368.62105865 833.97677591 360.98270474 832.76198537 348.44921875 829.14453125 C346.98685617 828.73086341 345.52422229 828.31815365 344.06134033 827.90632629 C340.91902094 827.01960247 337.77863848 826.12641965 334.63961792 825.22808838 C329.60518147 823.78740442 324.56673367 822.36112248 319.52758789 820.93701172 C313.37856312 819.19829816 307.23047693 817.45633948 301.08358669 815.71009445 C290.47362129 812.69633303 279.85678576 809.70786181 269.234375 806.73828125 C268.4784544 806.52693983 267.7225338 806.31559841 266.94370651 806.09785271 C263.13524365 805.03321534 259.3266515 803.96904137 255.51800537 802.90505981 C247.75843437 800.73703007 240.00036784 798.56362471 232.2421875 796.390625 C231.0728108 796.06313106 231.0728108 796.06313106 229.87981033 795.72902107 C218.26967372 792.47748187 206.66046386 789.22264659 195.05185318 785.96566391 C192.44269978 785.23364198 189.83351932 784.5017166 187.22433472 783.76980591 C179.43293063 781.58407942 171.64173119 779.39763448 163.85145378 777.20789528 C159.60946942 776.01560657 155.36729573 774.82399282 151.125 773.6328125 C150.29139072 773.39874569 149.45778145 773.16467888 148.59891129 772.92351913 C136.83558469 769.62197776 125.06327085 766.35430097 113.2838459 763.11069107 C108.48699464 761.78887172 103.69147969 760.46220967 98.89591885 759.13571739 C94.40226413 757.89355241 89.90627401 756.66035041 85.40830421 755.43390846 C82.66990989 754.685086 79.9338235 753.92809857 77.19831848 753.16879654 C75.3389083 752.65546447 73.47667565 752.15239057 71.61437988 751.64962769 C70.51452759 751.34276031 69.41467529 751.03589294 68.28149414 750.71972656 C67.32747208 750.45822815 66.37345001 750.19672974 65.39051819 749.92730713 C62.80834346 748.92565441 61.74200824 748.12009247 60 746 C59.50343317 744.11985362 59.50343317 744.11985362 59.32866573 741.95606422 C59.25512145 741.12838657 59.18157716 740.30070892 59.10580426 739.44795012 C59.00544631 738.0812403 59.00544631 738.0812403 58.90306091 736.68692017 C58.82087144 735.71604281 58.73868196 734.74516545 58.65400189 733.74486756 C58.37925949 730.45926424 58.12422218 727.17241908 57.86889648 723.88525391 C57.67480921 721.51547316 57.47951393 719.14579109 57.28310966 716.77620125 C56.85708396 711.60282512 56.43960328 706.42883088 56.02947426 701.25417328 C55.41837046 693.54470765 54.79141402 685.83658899 54.16109305 678.12867367 C53.09719112 665.11363073 52.045802 652.09760517 51.00128174 639.08099365 C49.56253992 621.15317197 48.10821833 603.2266396 46.64947701 585.3004353 C45.96569228 576.89748257 45.28255066 568.49447755 44.59954834 560.09146118 C44.53104237 559.24868122 44.46253639 558.40590125 44.39195448 557.5375825 C43.33236213 544.50105167 42.27591851 531.46426788 41.22125244 518.42733765 C37.24489934 469.27838392 33.23529863 420.13224263 29.19894388 370.98818046 C28.98048061 368.32826934 28.76203713 365.6683566 28.54359984 363.00844336 C27.24643765 347.21298507 25.94897527 331.41755145 24.65100002 315.62215996 C22.80036055 293.10093555 20.9516682 270.57955229 19.10501669 248.05800053 C18.9083142 245.65911715 18.71159227 243.26023535 18.51486361 240.86135411 C17.18166783 224.60449156 15.84915368 208.34757376 14.51888732 192.09047122 C13.97148072 185.4011156 13.42376611 178.71178521 12.87597656 172.02246094 C12.78673036 170.93249269 12.78673036 170.93249269 12.6956812 169.82050487 C11.00346114 149.15467576 9.29553566 128.49020345 7.57384888 107.82680883 C7.14961862 102.73412226 6.7264883 97.64134527 6.30414391 92.54850197 C6.24567767 91.84350935 6.18721144 91.13851673 6.1269735 90.4121607 C5.83649788 86.90908993 5.54616781 83.40600713 5.2559427 79.9029156 C4.5939436 71.91561129 3.92638215 63.92879695 3.25471973 55.94229794 C2.84705896 51.07981703 2.44449588 46.2169239 2.04334116 41.35390234 C1.85878674 39.12946214 1.6721206 36.90519588 1.48308706 34.68113184 C1.2248394 31.63968351 0.97432842 28.59768639 0.72555542 25.55545044 C0.65106521 24.70052061 0.576575 23.84559078 0.4998275 22.96475399 C-0.11733738 15.24355451 0 7.83463065 0 0 Z " fill="#2377FF" transform="translate(199,191)"/>
<path d="M0 0 C152.13 0 304.26 0 461 0 C461 29.37 461 58.74 461 89 C419.83333333 105.88888889 419.83333333 105.88888889 402.125 113.09375 C393.243091 116.71230552 384.37208374 120.35743778 375.5 124 C363.46011898 128.94314718 351.41549864 133.87392033 339.359375 138.77734375 C328.55255362 143.17577226 317.75986305 147.60851394 306.96664429 152.04019165 C295.20963797 156.86734041 283.44734992 161.6809347 271.671875 166.46289062 C264.76432164 169.27050619 257.88348026 172.13188322 251 175 C314.69 175.33 378.38 175.66 444 176 C442.87409503 195.14038447 442.87409503 195.14038447 442 204.4375 C441.27456421 212.39660505 440.68839407 220.34483579 440.34179688 228.32983398 C440.21367358 231.07827479 440.05507212 233.73027672 439.50390625 236.4296875 C438.7527213 240.26131307 438.6707268 244.10489969 438.5 248 C438.29008234 252.78923265 437.94085463 257.29572687 437 262 C436.76109968 264.9965769 436.63162382 267.99702689 436.5 271 C436.29008234 275.78923265 435.94085463 280.29572687 435 285 C434.76109968 287.9965769 434.63162382 290.99702689 434.5 294 C434.43059373 295.5834911 434.35776956 297.1668367 434.28125 298.75 C434.25095703 299.44609375 434.22066406 300.1421875 434.18945312 300.859375 C434 303 434 303 433.52388 305.24017334 C432.94954952 308.26577573 432.67072576 311.22744285 432.4284668 314.29785156 C432.32323196 315.60155701 432.21799713 316.90526245 432.10957336 318.24847412 C432.05350733 318.95739555 431.99744129 319.66631699 431.93967628 320.39672089 C431.62044147 324.42202007 431.2893749 328.44634684 430.95849609 332.47070312 C430.84829683 333.81268328 430.84829683 333.81268328 430.73587132 335.18177414 C429.71551662 347.53711967 428.61426187 359.8854415 427.51953125 372.234375 C427.41016109 373.4692717 427.30079094 374.7041684 427.18810654 375.97648621 C426.51260718 383.60256336 425.83573335 391.22851793 425.15838623 398.85443115 C424.57429156 405.43283993 423.99130055 412.01134652 423.40820312 418.58984375 C422.27318571 431.39332246 421.13702912 444.19669979 420 457 C418.94461029 457.32980362 417.88922058 457.65960724 416.80184937 457.99940491 C413.9006704 458.90601004 410.99949742 459.8126343 408.09832764 460.7192688 C405.8438286 461.42381318 403.58931652 462.12831566 401.33477783 462.83273315 C396.43071649 464.36509931 391.52754342 465.90028446 386.625 467.4375 C385.85830994 467.67777924 385.09161987 467.91805847 384.30169678 468.1656189 C375.88310897 470.80591748 367.47600274 473.46405031 359.125 476.3125 C352.13406483 478.69400882 345.07037927 480.7610685 337.95361328 482.73364258 C330.63489536 484.7710313 323.39301453 487.03935209 316.14862061 489.32351685 C313.29262465 490.22271382 310.43458762 491.11532099 307.57653809 492.00796509 C303.92527224 493.14874091 300.27509819 494.29299455 296.625 495.4375 C295.85830994 495.67777924 295.09161987 495.91805847 294.30169678 496.1656189 C285.88309135 498.805923 277.47619094 501.46456503 269.125 504.3125 C262.71679126 506.49132225 256.25480487 508.44193573 249.75 510.3125 C248.42572998 510.69498901 248.42572998 510.69498901 247.07470703 511.08520508 C244.72289444 511.75095384 242.36394002 512.37903602 240 513 C239.02933594 513.28230469 238.05867187 513.56460938 237.05859375 513.85546875 C232.183714 514.08582705 227.92436806 512.46833409 223.3125 511 C221.15868489 510.34133638 219.0036871 509.68653039 216.84765625 509.03515625 C215.16567139 508.52686279 215.16567139 508.52686279 213.44970703 508.00830078 C207.75274728 506.34315968 202.00331685 504.89342971 196.25 503.4375 C187.38486314 501.18152679 178.60987693 498.7486071 169.86669922 496.06054688 C164.25883058 494.34642184 158.62824233 492.84789098 152.93041992 491.46582031 C145.6568706 489.69556744 138.46083968 487.66083636 131.25585938 485.63232422 C129.07334011 485.02055745 126.88879334 484.41681514 124.703125 483.81640625 C116.06774901 481.44118832 107.46602777 478.96865319 98.875 476.4375 C90.9582868 474.10705237 83.04070894 471.97535735 75.01953125 470.03515625 C67.72874698 468.21199651 60.55695994 465.9260812 53.37670898 463.71435547 C50.2601399 462.77762397 47.13036747 461.88937099 44 461 C42.65629447 446.00091722 41.32584853 431.00067106 40 416 C39.87809789 414.62188673 39.7561902 413.24377395 39.63427734 411.86566162 C38.90980241 403.67378758 38.1879814 395.48168602 37.47036171 387.28920841 C37.14408027 383.56464407 36.81696629 379.84015825 36.48748779 376.11587524 C36.17101605 372.53794603 35.85735822 368.95977909 35.54545593 365.38144875 C35.37847624 363.47278602 35.20892362 361.56434888 35.03918457 359.65592957 C33.83522025 345.77962993 32.95885104 331.90334001 32 318 C61.7 318 91.4 318 122 318 C122.99 324.93 122.99 324.93 124 332 C124.495 335.09375 124.495 335.09375 125 338.25 C127.53713437 354.74137342 128.74332996 371.37235623 130 388 C131.11391113 388.11698242 132.22782227 388.23396484 133.37548828 388.35449219 C138.34419952 388.97869735 143.13632684 390.1244333 147.9921875 391.328125 C148.93699982 391.55900818 149.88181213 391.78989136 150.85525513 392.027771 C152.85097355 392.51651753 154.84615421 393.0074646 156.84082031 393.50048828 C159.83006067 394.23889896 162.82109254 394.96964332 165.8125 395.69921875 C175.5666939 398.08944083 185.27681858 400.5848637 194.94268799 403.31077576 C200.80412688 404.96071666 206.68746083 406.45902508 212.625 407.8125 C213.52605469 408.02841797 214.42710937 408.24433594 215.35546875 408.46679688 C216.24105469 408.66982422 217.12664062 408.87285156 218.0390625 409.08203125 C218.80428223 409.25968018 219.56950195 409.4373291 220.35791016 409.62036133 C226.53602755 410.50808749 232.2703496 409.94812586 238.36791992 408.77832031 C239.40172035 408.58313309 239.40172035 408.58313309 240.45640564 408.38400269 C242.7158102 407.95563799 244.97307628 407.51695843 247.23046875 407.078125 C248.82770257 406.77318258 250.42506137 406.46889408 252.02253723 406.16522217 C256.22590046 405.36438429 260.42753023 404.55479123 264.62884521 403.74328613 C268.83164614 402.93302309 273.03599969 402.13090888 277.24023438 401.328125 C294.51151 398.0390587 294.51151 398.0390587 311.76416016 394.65429688 C312.73283524 394.46293152 313.70151031 394.27156616 314.69953918 394.07440186 C316.38627719 393.74036065 318.07190416 393.40061586 319.75590515 393.05303955 C324.5883898 392.10141469 329.07279078 391.86233156 334 392 C334.04898437 390.8140625 334.09796875 389.628125 334.1484375 388.40625 C334.52911164 379.91394874 335.07093336 371.52601098 336.20092773 363.09765625 C338.13581018 348.64865261 339.27474756 334.09335543 340.62808228 319.58135986 C341.5379356 309.83382205 342.46472826 300.08811064 343.42996216 290.34588623 C343.62051396 288.42033212 343.8091811 286.4945918 343.99780273 284.56884766 C344.11454346 283.3988623 344.23128418 282.22887695 344.3515625 281.0234375 C344.45291504 280.00169434 344.55426758 278.97995117 344.65869141 277.92724609 C345.00718882 274.93834482 345.50529885 271.96820688 346 269 C241.06 269 136.12 269 28 269 C16 188 16 188 16 183 C34.03008457 174.65682405 52.25885444 166.79360876 70.50439453 158.93701172 C76.81937911 156.21711962 83.12888952 153.4846432 89.4375 150.75 C90.60603516 150.24364014 91.77457031 149.73728027 92.97851562 149.21557617 C105.66941102 143.71470571 118.35251727 138.19589824 131.03659058 132.67932129 C143.72814192 127.1595513 156.42235672 121.64609462 169.12329102 116.14794922 C181.06669572 110.97549097 193.00190729 105.7842031 204.9375 100.59375 C207.08528272 99.65982213 209.23306915 98.7259028 211.38085938 97.79199219 C216.58728233 95.52809309 221.79365967 93.2640891 227 91 C225.89286935 90.99576806 224.7857387 90.99153612 223.64505863 90.98717594 C196.74809913 90.88413699 169.85116727 90.77540879 142.9542551 90.66066074 C129.9472959 90.60530296 116.94033395 90.55181684 103.93334961 90.50268555 C92.60094039 90.45987494 81.26855159 90.41360496 69.93617386 90.36312145 C63.9317402 90.33649527 57.92731067 90.31164166 51.92285347 90.29092598 C46.27835046 90.27139762 40.63388639 90.24726547 34.98941803 90.21950912 C32.91125887 90.21011847 30.83309114 90.20245051 28.75491905 90.19658089 C25.9307315 90.18835377 23.10663933 90.17408697 20.28248596 90.15821838 C19.44884492 90.15724028 18.61520388 90.15626217 17.75630099 90.15525442 C12.11412121 90.11412121 12.11412121 90.11412121 11 89 C10.57768666 86.26421036 10.21094086 83.54012026 9.87890625 80.79296875 C9.77408432 79.95719803 9.66926239 79.12142731 9.56126404 78.2603302 C9.22429433 75.56987313 8.89298878 72.87876027 8.5625 70.1875 C6.76808873 55.55309238 6.76808873 55.55309238 4.48901367 40.98852539 C3.55244878 35.26486545 2.85499554 29.50725463 2.14013672 23.75244141 C1.87269433 21.60649941 1.59862671 19.4614674 1.32421875 17.31640625 C1.15064318 15.93234158 0.97745207 14.54822863 0.8046875 13.1640625 C0.64983887 11.93123535 0.49499023 10.6984082 0.33544922 9.42822266 C0 6 0 6 0 0 Z " fill="#FEFEFF" transform="translate(330,351)"/>
<path d="M0 0 C99 0 198 0 300 0 C300 12.37499934 300 12.37499934 299.48526096 18.24598026 C299.42957265 18.89616079 299.37388434 19.54634132 299.3165085 20.21622428 C299.13139704 22.36405432 298.93957023 24.51122695 298.74769592 26.65846252 C298.61091257 28.22907616 298.47454886 29.79972639 298.33856481 31.37040943 C297.96520735 35.6688482 297.5859313 39.96674692 297.20565617 44.26457846 C296.79490598 48.91882452 296.38970494 53.57355414 295.98381042 58.22822571 C295.27651914 66.33045673 294.56571542 74.4323735 293.85255623 82.53409004 C292.8028831 94.45884842 291.75863425 106.38407729 290.71556585 118.30941498 C288.99844855 137.93943459 287.27704706 157.5690761 285.55297852 177.19848633 C283.92095664 195.78000501 282.2907228 214.36167881 280.66333008 232.94360352 C280.51622239 234.62329829 280.51622239 234.62329829 280.36614282 236.3369263 C279.8719178 241.98019159 279.37773176 247.6234603 278.88356328 253.26673055 C275.51864289 291.69262702 272.14968477 330.11816829 268.77783203 368.54345703 C265.52138899 405.65361495 262.26699026 442.76395134 259.01513672 479.87451172 C258.91445896 481.0234568 258.8137812 482.17240189 258.71005259 483.35616349 C257.52823857 496.84323754 256.34651402 510.33031942 255.16482836 523.81740472 C254.13493944 535.57192481 253.10495503 547.32643652 252.07496643 559.08094788 C250.38325412 578.3872936 248.69160039 597.69364447 247 617 C226.58505334 623.49108543 226.58505334 623.49108543 218.26147461 625.8581543 C217.44646358 626.09226517 216.63145256 626.32637604 215.79174423 626.56758118 C213.16262008 627.32217593 210.53250003 628.0732303 207.90234375 628.82421875 C206.00292962 629.36865037 204.10358351 629.91331931 202.20429993 630.45820618 C198.19272549 631.60859791 194.18071775 632.75746017 190.16833496 633.9050293 C183.84098025 635.7147227 177.5146413 637.5279487 171.18847656 639.34179688 C164.79434671 641.17498269 158.40017115 643.00800753 152.00564575 644.83981323 C135.72456406 649.50383367 119.44744374 654.18146322 103.17337036 658.86987305 C99.27584086 659.99267036 95.37804855 661.11455347 91.48022461 662.23632812 C79.02143602 665.82229244 66.56426 669.41375255 54.10955811 673.0138855 C48.66236478 674.58836421 43.21466824 676.1610985 37.76684952 677.73341179 C33.31166431 679.01941139 28.85716368 680.30774748 24.40317154 681.59787273 C21.67887023 682.38639573 18.95394108 683.17273069 16.22882843 683.9584446 C14.35366684 684.49983324 12.4792837 685.04391582 10.60491943 685.58805847 C9.49392883 685.90793228 8.38293823 686.22780609 7.23828125 686.55737305 C6.26930908 686.83759811 5.30033691 687.11782318 4.30200195 687.40653992 C2 688 2 688 0 688 C0 659.29 0 630.58 0 601 C9.00175131 597.62434326 9.00175131 597.62434326 13.03125 596.3515625 C13.92585937 596.06796875 14.82046875 595.784375 15.7421875 595.4921875 C16.65226563 595.20601562 17.56234375 594.91984375 18.5 594.625 C19.81871094 594.20734375 19.81871094 594.20734375 21.1640625 593.78125 C27.33462282 591.82987622 33.51272609 589.9027121 39.69062805 587.9747467 C44.6242857 586.43359189 49.55325132 584.87801493 54.48046875 583.31640625 C67.88820539 579.07141206 81.28116531 574.83480462 94.83251953 571.06665039 C101.70590903 569.13520981 108.45604651 566.89249196 115.21630859 564.60009766 C121.73705408 562.39666891 128.29437337 560.36918956 134.89404297 558.41674805 C142.67774351 556.11021308 150.43411266 553.71844551 158.1875 551.3125 C160.03214844 550.74136475 160.03214844 550.74136475 161.9140625 550.15869141 C167.71531232 548.3565233 173.49755056 546.5340067 179.22387695 544.50463867 C181 544 181 544 184 544 C183.98971834 543.33866436 183.97943668 542.67732872 183.96884346 541.99595261 C183.90902787 535.13160878 184.26847665 528.39338154 184.88623047 521.55957031 C184.98055359 520.47324814 185.07487671 519.38692596 185.17205811 518.26768494 C185.48259801 514.70408772 185.79985235 511.14112297 186.1171875 507.578125 C186.33701676 505.07065429 186.55642047 502.56314624 186.77542114 500.05560303 C187.29368524 494.13317417 187.81616273 488.21112682 188.34074223 482.2892549 C188.98789143 474.98096682 189.62868244 467.67212443 190.26953125 460.36328125 C190.92770907 452.86112894 191.58644438 445.35902804 192.24874878 437.85723877 C192.34979982 436.71249462 192.45085087 435.56775047 192.55496407 434.38831711 C192.75251562 432.15271346 192.95040697 429.91713981 193.14866447 427.68159866 C193.62952132 422.24952134 194.10179384 416.8169248 194.55767822 411.38269043 C194.64689104 410.32808498 194.73610386 409.27347954 194.8280201 408.18691635 C194.99520575 406.20525813 195.16013543 404.22340773 195.32235527 402.24133682 C195.67371493 398.09263006 196.07542229 394.06848941 197 390 C197.12516516 388.58576268 197.21952234 387.16842279 197.28125 385.75 C197.31863281 384.9765625 197.35601563 384.203125 197.39453125 383.40625 C197.44673828 382.21515625 197.44673828 382.21515625 197.5 381 C197.70991766 376.21076735 198.05914537 371.70427313 199 367 C199.23890032 364.0034231 199.36837618 361.00297311 199.5 358 C199.70991766 353.21076735 200.05914537 348.70427313 201 344 C201.23890032 341.0034231 201.36837618 338.00297311 201.5 335 C201.56940627 333.4165089 201.64223044 331.8331633 201.71875 330.25 C201.74904297 329.55390625 201.77933594 328.8578125 201.81054688 328.140625 C202 326 202 326 202.48852539 323.61083984 C203.05487422 320.71989263 203.27919193 317.91654197 203.46484375 314.9765625 C203.54162354 313.80101807 203.61840332 312.62547363 203.69750977 311.41430664 C203.77670654 310.16383545 203.85590332 308.91336426 203.9375 307.625 C204.56793051 298.09683459 205.23913296 288.57609636 206.0625 279.0625 C206.14169678 278.12937988 206.22089355 277.19625977 206.30249023 276.23486328 C206.41765991 274.9294458 206.41765991 274.9294458 206.53515625 273.59765625 C206.600979 272.85008057 206.66680176 272.10250488 206.73461914 271.33227539 C207.05222601 268.54101652 207.53815879 265.77104726 208 263 C143.65 263 79.3 263 13 263 C16.49804994 260.37646255 19.03417835 259.01434849 23.01953125 257.42578125 C23.61773682 257.18513443 24.21594238 256.94448761 24.83227539 256.69654846 C26.13613596 256.17276644 27.44108443 255.65168627 28.74697876 255.13299561 C31.59259785 254.00261848 34.43288817 252.85911996 37.27360535 251.7164917 C38.79613545 251.10421556 40.31893839 250.49261751 41.84199524 249.88165283 C50.01687005 246.60019012 58.16480164 243.25380444 66.31161499 239.90341187 C70.47399006 238.19176343 74.63735145 236.48251849 78.80078125 234.7734375 C79.60030716 234.44520493 80.39983307 234.11697235 81.22358704 233.77879333 C87.97748486 231.00709234 94.73736339 228.250317 101.5 225.5 C112.50922832 221.02239482 123.50561565 216.51390342 134.5 212 C146.5235028 207.06357713 158.54941016 202.13365964 170.59228516 197.24462891 C176.55913766 194.81942736 182.51781284 192.37578792 188.46929932 189.91314697 C192.04776269 188.4326031 195.62753434 186.95523465 199.20727539 185.4777832 C200.97309652 184.74782859 202.73824471 184.01624374 204.50268555 183.28295898 C206.97669399 182.25488829 209.45294327 181.23239624 211.9296875 180.2109375 C212.67117035 179.90106903 213.4126532 179.59120056 214.17660522 179.27194214 C217.84094271 177.76691127 221.07972031 176.78405594 225 176 C225 146.63 225 117.26 225 87 C72.87 87 -79.26 87 -236 87 C-236.33 88.32 -236.66 89.64 -237 91 C-237 89.35 -237 87.7 -237 86 C-158.79 86 -80.58 86 0 86 C0 57.62 0 29.24 0 0 Z " fill="#3399FF" transform="translate(566,264)"/>
<path d="M0 0 C37.95 0 75.9 0 115 0 C115 16.17 115 32.34 115 49 C113.02170928 50.97829072 109.17672973 50.25503932 106.46484375 50.31640625 C105.71159317 50.33718735 104.95834259 50.35796844 104.18226624 50.37937927 C101.7674401 50.44495425 99.35250202 50.50379621 96.9375 50.5625 C95.30402471 50.6056777 93.6705609 50.64929173 92.03710938 50.69335938 C88.02485536 50.80064362 84.01248836 50.90188821 80 51 C80.7005249 51.88969482 81.4010498 52.77938965 82.12280273 53.69604492 C87.45527656 60.46991287 92.76854015 67.25848374 98.0625 74.0625 C98.60277832 74.75649902 99.14305664 75.45049805 99.69970703 76.16552734 C119.24400061 101.30383206 115 97.02869391 115 139 C78.04 139 41.08 139 3 139 C3 123.82 3 108.64 3 93 C20.325 92.505 20.325 92.505 38 92 C36.288125 89.751875 34.57625 87.50375 32.8125 85.1875 C27.63730302 78.33171989 22.65553873 71.36053922 17.95751953 64.16772461 C15.31388253 60.16246728 12.6911019 56.55900322 9.2890625 53.1640625 C-6.12614901 36.41130552 0 26.3326175 0 0 Z " fill="#050505" transform="translate(664,0)"/>
<path d="M0 0 C37.62 0 75.24 0 114 0 C114 16.5 114 33 114 50 C102.78 50.33 91.56 50.66 80 51 C86.55686145 59.84781304 93.16327846 68.58978151 100.1940918 77.06640625 C119.58918762 100.57332531 114 98.34173787 114 139 C77.37 139 40.74 139 3 139 C3 123.82 3 108.64 3 93 C14.55 93 26.1 93 38 93 C28.69338552 79.67114021 28.69338552 79.67114021 19.33007812 66.38208008 C18.35074363 64.98915751 17.38345168 63.58769841 16.42773438 62.1784668 C14.02451765 58.66784587 11.61683119 55.52754338 8.5859375 52.53515625 C-6.16161442 36.35429425 0 24.81807693 0 0 Z " fill="#030303" transform="translate(507,0)"/>
<path d="M0 0 C104.94 0 209.88 0 318 0 C316.848162 16.12573195 316.848162 16.12573195 316.125 23.875 C316.0002832 25.22827393 316.0002832 25.22827393 315.87304688 26.60888672 C315.58377027 29.7394215 315.29192986 32.86971156 315 36 C314.82078986 37.93110094 314.64158028 39.86220193 314.46238708 41.79330444 C310.52837704 84.15912658 310.52837704 84.15912658 308.9375 96.375 C308.13261902 102.58138695 307.6058121 108.76436538 307.24609375 115.01171875 C307.02042771 117.7519492 306.562824 120.31347233 306 123 C305.0704248 123.14622803 304.14084961 123.29245605 303.18310547 123.44311523 C293.04964788 125.07048082 282.96335655 126.92094606 272.8828125 128.84765625 C272.20908348 128.97642529 271.53535446 129.10519432 270.84120941 129.23786545 C266.64672726 130.04032453 262.45281557 130.84573598 258.25909424 131.65216064 C252.61487969 132.73741889 246.97023415 133.82041292 241.32509995 134.900877 C239.38422456 135.27290554 237.44370801 135.64680459 235.50320435 136.02076721 C229.81503288 137.11087501 224.12360569 138.17738618 218.41748047 139.16967773 C217.02769485 139.4113694 217.02769485 139.4113694 215.60983276 139.65794373 C213 140 213 140 208 140 C208 94.13 208 48.26 208 1 C139.36 1 70.72 1 0 1 C0 0.67 0 0.34 0 0 Z " fill="#3399FF" transform="translate(358,620)"/>
<path d="M0 0 C1.27069163 0.00138269 1.27069163 0.00138269 2.56705379 0.00279331 C3.53605618 0.00141865 4.50505856 0.00004398 5.50342464 -0.00137234 C7.11103413 0.00402058 7.11103413 0.00402058 8.75112057 0.00952244 C10.43383053 0.0093034 10.43383053 0.0093034 12.15053463 0.00907993 C15.87866266 0.00977963 19.60674144 0.01757468 23.3348608 0.02539158 C25.91175973 0.02725556 28.48865902 0.02867955 31.06555843 0.0296793 C37.16770571 0.03311441 43.26983249 0.04100523 49.37197202 0.05102879 C56.31744705 0.06219094 63.26292291 0.06770063 70.20840466 0.07272422 C84.49926579 0.08318787 98.79010589 0.10153294 113.08095455 0.12304783 C113.08095455 15.96304783 113.08095455 31.80304783 113.08095455 48.12304783 C91.63095455 48.12304783 70.18095455 48.12304783 48.08095455 48.12304783 C48.08095455 62.97304783 48.08095455 77.82304783 48.08095455 93.12304783 C69.53095455 93.12304783 90.98095455 93.12304783 113.08095455 93.12304783 C113.08095455 108.30304783 113.08095455 123.48304783 113.08095455 139.12304783 C75.13095455 139.12304783 37.18095455 139.12304783 -1.91904545 139.12304783 C-3.21892439 136.52328994 -3.04493082 134.63848201 -3.04602909 131.72618198 C-3.04884892 130.58055286 -3.05166874 129.43492374 -3.05457401 128.25457859 C-3.05254978 126.99163975 -3.05052555 125.7287009 -3.04843998 124.42749119 C-3.04979445 123.08893378 -3.05157464 121.75037674 -3.05375004 120.41182041 C-3.05831852 116.77148267 -3.05653732 113.1311732 -3.05337095 109.49083495 C-3.05084487 105.68762016 -3.05318554 101.88440785 -3.05475712 98.08119297 C-3.05657786 91.69466815 -3.05417476 85.30815488 -3.04941654 78.92163181 C-3.04397178 71.52802796 -3.04573851 64.13445167 -3.05124295 56.74084848 C-3.05577401 50.4019891 -3.05642473 44.06313803 -3.05380428 37.72427756 C-3.05224176 33.93427806 -3.05204709 30.14429154 -3.05534077 26.35429287 C-3.05821946 22.79290374 -3.05624384 19.23155032 -3.05044651 15.67016506 C-3.04848343 13.73210671 -3.05147268 11.79404536 -3.05457401 9.8559885 C-3.05175419 8.71317921 -3.04893436 7.57036991 -3.04602909 6.39293003 C-3.04565207 5.39353869 -3.04527504 4.39414736 -3.04488659 3.36447144 C-2.88707533 0.55361104 -2.80917657 0.1801224 0 0 Z " fill="#040404" transform="translate(348.9190454483032,-0.1230478286743164)"/>
<path d="M0 0 C-0.66 0 -1.32 0 -2 0 C-2 0.66 -2 1.32 -2 2 C58.06 2 118.12 2 180 2 C180 2.99 180 3.98 180 5 C115.65 5 51.3 5 -15 5 C-5.25210084 -2.31092437 -5.25210084 -2.31092437 0 0 Z " fill="#4CB2FF" transform="translate(594,522)"/>
<path d="M0 0 C-1.65 0.33 -3.3 0.66 -5 1 C-5 1.66 -5 2.32 -5 3 C-8.375 3.625 -8.375 3.625 -12 4 C-12.66 3.34 -13.32 2.68 -14 2 C-12.42085985 1.46658816 -10.83645613 0.94874237 -9.25 0.4375 C-8.36828125 0.14746094 -7.4865625 -0.14257812 -6.578125 -0.44140625 C-3.92165684 -1.01697435 -2.52968894 -0.89248371 0 0 Z " fill="#44A8FF" transform="translate(629,847)"/>
<path d="M0 0 C-1.65 0.33 -3.3 0.66 -5 1 C-5 1.66 -5 2.32 -5 3 C-8.375 3.625 -8.375 3.625 -12 4 C-12.66 3.34 -13.32 2.68 -14 2 C-12.42085985 1.46658816 -10.83645613 0.94874237 -9.25 0.4375 C-8.36828125 0.14746094 -7.4865625 -0.14257812 -6.578125 -0.44140625 C-3.92165684 -1.01697435 -2.52968894 -0.89248371 0 0 Z " fill="#44A8FF" transform="translate(719,819)"/>
<path d="M0 0 C-1.65 0.33 -3.3 0.66 -5 1 C-5 1.66 -5 2.32 -5 3 C-8.375 3.625 -8.375 3.625 -12 4 C-12.66 3.34 -13.32 2.68 -14 2 C-12.42085985 1.46658816 -10.83645613 0.94874237 -9.25 0.4375 C-8.36828125 0.14746094 -7.4865625 -0.14257812 -6.578125 -0.44140625 C-3.92165684 -1.01697435 -2.52968894 -0.89248371 0 0 Z " fill="#40A6FF" transform="translate(613,852)"/>
<path d="M0 0 C-0.66 0 -1.32 0 -2 0 C-2 0.66 -2 1.32 -2 2 C-4.8125 2.625 -4.8125 2.625 -8 3 C-8.99 2.34 -9.98 1.68 -11 1 C-3.57142857 -1.42857143 -3.57142857 -1.42857143 0 0 Z " fill="#44A9FF" transform="translate(581,862)"/>
<path d="M0 0 C-0.66 0 -1.32 0 -2 0 C-2 0.66 -2 1.32 -2 2 C-4.8125 2.625 -4.8125 2.625 -8 3 C-8.99 2.34 -9.98 1.68 -11 1 C-3.57142857 -1.42857143 -3.57142857 -1.42857143 0 0 Z " fill="#44A9FF" transform="translate(642,843)"/>
<path d="M0 0 C-0.66 0 -1.32 0 -2 0 C-2 0.66 -2 1.32 -2 2 C-4.8125 2.625 -4.8125 2.625 -8 3 C-8.99 2.34 -9.98 1.68 -11 1 C-3.57142857 -1.42857143 -3.57142857 -1.42857143 0 0 Z " fill="#44A9FF" transform="translate(732,815)"/>
<path d="M0 0 C-0.66 0 -1.32 0 -2 0 C-2 0.66 -2 1.32 -2 2 C-4.31 2.66 -6.62 3.32 -9 4 C-9.66 3.34 -10.32 2.68 -11 2 C-3.57142857 -1.57142857 -3.57142857 -1.57142857 0 0 Z " fill="#45AAFF" transform="translate(638,504)"/>
<path d="M0 0 C-0.66 0 -1.32 0 -2 0 C-2 0.66 -2 1.32 -2 2 C-4.31 2.66 -6.62 3.32 -9 4 C-9.66 3.34 -10.32 2.68 -11 2 C-3.57142857 -1.57142857 -3.57142857 -1.57142857 0 0 Z " fill="#45AAFF" transform="translate(660,495)"/>
<path d="M0 0 C-0.66 0 -1.32 0 -2 0 C-2 0.66 -2 1.32 -2 2 C-4.31 2.66 -6.62 3.32 -9 4 C-9.66 3.34 -10.32 2.68 -11 2 C-3.57142857 -1.57142857 -3.57142857 -1.57142857 0 0 Z " fill="#45AAFF" transform="translate(682,486)"/>
<path d="M0 0 C-0.66 0 -1.32 0 -2 0 C-2 0.66 -2 1.32 -2 2 C-4.31 2.66 -6.62 3.32 -9 4 C-9.66 3.34 -10.32 2.68 -11 2 C-3.57142857 -1.57142857 -3.57142857 -1.57142857 0 0 Z " fill="#45AAFF" transform="translate(726,468)"/>
<path d="M0 0 C-0.66 0 -1.32 0 -2 0 C-2 0.66 -2 1.32 -2 2 C-4.31 2.66 -6.62 3.32 -9 4 C-9.66 3.34 -10.32 2.68 -11 2 C-3.57142857 -1.57142857 -3.57142857 -1.57142857 0 0 Z " fill="#45AAFF" transform="translate(748,459)"/>
<path d="M0 0 C-0.66 0 -1.32 0 -2 0 C-2 0.66 -2 1.32 -2 2 C-4.8125 2.625 -4.8125 2.625 -8 3 C-8.99 2.34 -9.98 1.68 -11 1 C-3.57142857 -1.42857143 -3.57142857 -1.42857143 0 0 Z " fill="#41A8FF" transform="translate(597,857)"/>
<path d="M0 0 C-0.66 0 -1.32 0 -2 0 C-2 0.66 -2 1.32 -2 2 C-4.8125 2.625 -4.8125 2.625 -8 3 C-8.99 2.34 -9.98 1.68 -11 1 C-3.57142857 -1.42857143 -3.57142857 -1.42857143 0 0 Z " fill="#41A8FF" transform="translate(687,829)"/>
<path d="M0 0 C-0.33 0.66 -0.66 1.32 -1 2 C-3.875 2.75 -3.875 2.75 -7 3 C-7.99 2.34 -8.98 1.68 -10 1 C-8.71073008 0.63720544 -7.41846728 0.28503302 -6.125 -0.0625 C-5.40570312 -0.25972656 -4.68640625 -0.45695313 -3.9453125 -0.66015625 C-2 -1 -2 -1 0 0 Z " fill="#41A8FF" transform="translate(670,834)"/>
</svg>
