<?xml version="1.0" encoding="UTF-8"?>
<svg version="1.1" xmlns="http://www.w3.org/2000/svg" width="2000" height="2000">
<path d="M0 0 C1.16979967 -0.00282738 2.33959934 -0.00565475 3.54484749 -0.00856781 C9.75833477 -0.02348862 15.97179934 -0.03275808 22.18530273 -0.03710938 C27.228021 -0.0414587 32.27056476 -0.05522213 37.31323242 -0.078125 C126.28854044 -0.47406963 213.93619985 11.09307961 461.37890625 95.203125 C462.95575195 95.94127441 462.95575195 95.94127441 464.56445312 96.69433594 C478.49961649 103.22034023 492.10664444 110.16183835 505.55175781 117.64257812 C509.58075162 119.86652704 513.63773882 122.03729191 517.69311523 124.21264648 C527.02479784 129.22606433 536.27429197 134.31081867 545.27539062 139.89794922 C546.81602416 140.85387156 548.3593847 141.80540266 549.90429688 142.75439453 C588.09685614 166.21765284 624.94710891 191.80114623 659.6640625 220.17578125 C662.58988421 222.56602382 665.53902549 224.92390473 668.50390625 227.265625 C677.67037475 234.58028168 686.49115016 242.32956858 695.171875 250.2109375 C697.11516626 251.96505881 699.08250073 253.68285194 701.06640625 255.390625 C710.17069133 263.32911748 718.94167305 271.67110023 727.41796875 280.2734375 C729.28242902 282.10818526 731.2018706 283.81842928 733.19140625 285.515625 C740.87179404 292.1207585 747.98085355 299.43182097 754.5390625 307.14453125 C756.88386921 309.76812602 759.37541263 312.2328097 761.87890625 314.703125 C765.58300417 318.36304504 769.13178393 322.09256296 772.51171875 326.0546875 C774.40677541 328.23519202 776.35842717 330.35695031 778.32373047 332.47412109 C783.06272264 337.58200716 787.57147704 342.80317727 791.94140625 348.234375 C794.80817428 351.72595145 797.77683943 355.11822047 800.75390625 358.515625 C806.3641131 364.94397012 811.69358707 371.54193711 816.90283203 378.29736328 C818.49762104 380.35639785 820.10702916 382.4034139 821.71875 384.44921875 C829.33224426 394.13391433 836.68300634 403.97415756 843.82177734 414.01367188 C845.33223487 416.13750114 846.84930862 418.25647119 848.3671875 420.375 C877.00032319 460.48317502 902.26852858 502.88570211 924.63330078 546.77929688 C925.78885739 549.04580399 926.94863141 551.31016628 928.11279297 553.57226562 C947.95348577 592.14548277 964.22292017 632.22321727 978.37890625 673.203125 C979.02375977 675.04801514 979.02375977 675.04801514 979.68164062 676.93017578 C1006.90066671 754.89151349 1022.81146554 836.57196587 1029.65234375 918.7734375 C1029.71241104 919.49442123 1029.77247833 920.21540497 1029.83436584 920.95823669 C1030.02781155 923.37241818 1030.20370175 925.78755026 1030.37890625 928.203125 C1030.46479004 929.28882278 1030.55067383 930.37452057 1030.63916016 931.49311829 C1031.53192244 943.85994584 1031.56129836 956.21085597 1031.58203125 968.60546875 C1031.58485863 969.76423586 1031.587686 970.92300297 1031.59059906 972.11688423 C1031.60551897 978.27201684 1031.61478894 984.42712652 1031.61914062 990.58227539 C1031.62348944 995.5764918 1031.63725101 1000.57053196 1031.66015625 1005.56469727 C1031.79354631 1035.25975959 1031.38627526 1064.69175741 1028.56339264 1094.2663765 C1028.39405382 1096.04410493 1028.23098949 1097.82242812 1028.06854248 1099.60079956 C1027.52835793 1105.47971051 1026.90172906 1111.34248274 1026.19140625 1117.203125 C1026.0907486 1118.05248627 1025.99009094 1118.90184753 1025.88638306 1119.77694702 C1018.3210705 1183.15380703 1004.59300047 1245.36649918 985.37890625 1306.203125 C985.14623047 1306.94004578 984.91355469 1307.67696655 984.67382812 1308.43621826 C969.95533094 1354.90189887 951.67194153 1400.55369058 929.515625 1443.98828125 C927.79816451 1447.35544075 926.1260002 1450.74334967 924.4609375 1454.13671875 C917.24862556 1468.79290042 909.5855808 1483.08210625 901.37890625 1497.203125 C900.69534605 1498.38541066 900.0120898 1499.56787211 899.32910156 1500.75048828 C891.44770215 1514.38918301 883.54237495 1527.99325816 874.78613281 1541.09521484 C873.21116278 1543.45439098 871.65040736 1545.82267756 870.08984375 1548.19140625 C847.70829902 1582.07244512 823.61790017 1614.73254789 797.25219727 1645.62890625 C794.48229655 1648.87800936 791.79104067 1652.17802363 789.12890625 1655.515625 C784.6351834 1661.04760872 779.78031348 1666.21007339 774.87011719 1671.37036133 C771.76205244 1674.63942943 768.71451449 1677.93705649 765.76171875 1681.34765625 C762.11210931 1685.5539771 758.2071626 1689.40612174 754.22265625 1693.296875 C752.05249966 1695.46165135 750.03368222 1697.72243813 748.03125 1700.04296875 C744.3429136 1704.30028809 740.43469014 1708.29544594 736.44140625 1712.265625 C735.77689453 1712.93400391 735.11238281 1713.60238281 734.42773438 1714.29101562 C730.46890131 1718.24216909 726.39203604 1721.98866431 722.15795898 1725.64233398 C719.96252304 1727.56842456 717.91210786 1729.60736334 715.87890625 1731.703125 C712.55107608 1735.0707074 709.1337887 1738.24126377 705.54296875 1741.32421875 C702.94951731 1743.57593381 700.41503649 1745.88707218 697.87890625 1748.203125 C693.42553694 1752.25996142 688.94646871 1756.27534523 684.37890625 1760.203125 C683.425 1761.02425781 682.47109375 1761.84539062 681.48828125 1762.69140625 C675.37422234 1767.9243629 669.16406142 1773.00344971 662.81079102 1777.94311523 C659.04964078 1780.87223005 655.34495677 1783.8597795 651.66577148 1786.89111328 C642.92070231 1794.08657394 633.90085947 1800.84746642 624.73291016 1807.49316406 C622.48710041 1809.12453219 620.25033706 1810.76753922 618.015625 1812.4140625 C605.74157004 1821.4192039 593.09558845 1829.83908718 580.37890625 1838.203125 C579.62818848 1838.70021973 578.8774707 1839.19731445 578.10400391 1839.70947266 C547.04631179 1860.27400122 514.55036695 1878.30434992 481.37890625 1895.203125 C480.60015137 1895.60080078 479.82139648 1895.99847656 479.01904297 1896.40820312 C475.18024969 1898.36406965 471.32808439 1900.28987113 467.45849609 1902.18408203 C465.97538585 1902.91083739 464.49413802 1903.64139859 463.01416016 1904.37451172 C438.27456844 1916.60473635 412.75773132 1927.25929963 386.90039062 1936.88769531 C384.35688078 1937.83780839 381.81684235 1938.79497755 379.27929688 1939.76074219 C375.62357533 1941.15163177 371.96216614 1942.52656595 368.296875 1943.89202881 C366.87912421 1944.42244801 365.46302388 1944.95730527 364.04882812 1945.49713135 C345.3461198 1952.62033862 324.28568093 1955.64390493 305.1953125 1947.9140625 C292.48964353 1941.32332714 284.80600232 1932.24588327 280.140625 1918.78125 C278.85484009 1914.4293626 278.25424754 1910.43208212 278.26423836 1905.89276981 C278.26409741 1904.83539649 278.26395645 1903.77802317 278.26381123 1902.68860823 C278.26877043 1901.53300585 278.27372963 1900.37740347 278.27883911 1899.18678284 C278.28010138 1897.95411066 278.28136366 1896.72143849 278.28266418 1895.45141262 C278.28711317 1892.031719 278.29605164 1888.61208953 278.30681777 1885.19241345 C278.31730819 1881.50205588 278.32193429 1877.81169076 278.32714844 1874.12132263 C278.3368629 1867.72136711 278.34990788 1861.32142544 278.36487198 1854.92148018 C278.38829371 1844.77675685 278.40126248 1834.63203246 278.41256714 1824.48728943 C278.41656905 1821.0105409 278.4206378 1817.53379246 278.42472649 1814.05704403 C278.42574571 1813.18798506 278.42676494 1812.31892609 278.42781506 1811.423532 C278.43956071 1801.52787624 278.45343352 1791.63222385 278.46826172 1781.73657227 C278.46961415 1780.83214097 278.47096658 1779.92770967 278.47236 1778.99587136 C278.49444907 1764.40209231 278.52431357 1749.80833687 278.55622913 1735.21457649 C278.58879773 1720.19189485 278.60954554 1705.16922535 278.6205014 1690.14651245 C278.62766888 1680.90650422 278.64417882 1671.66661222 278.67330216 1662.42664664 C278.69253193 1656.06530696 278.70038204 1649.7040126 278.69989718 1643.34264422 C278.69995924 1639.69131284 278.70453766 1636.04016237 278.72306442 1632.38887405 C279.0439416 1566.12826695 265.19658995 1497.15516981 217.37890625 1448.203125 C216.46625 1447.53152344 215.55359375 1446.85992188 214.61328125 1446.16796875 C213.8759375 1445.51957031 213.13859375 1444.87117188 212.37890625 1444.203125 C212.37890625 1442.883125 212.37890625 1441.563125 212.37890625 1440.203125 C212.98863785 1440.12288589 213.59836945 1440.04264679 214.22657776 1439.9599762 C261.88091623 1433.66835693 309.05465018 1426.31301159 355.37890625 1413.203125 C356.08666199 1413.0028772 356.79441772 1412.80262939 357.52362061 1412.59631348 C415.03280431 1396.22324792 473.86317759 1370.63076257 519.37890625 1331.203125 C520.40330638 1330.34699033 521.42945549 1329.49294551 522.45703125 1328.640625 C536.97326915 1316.56327115 551.28641782 1303.74743688 563.37890625 1289.203125 C564.04696289 1288.40575928 564.04696289 1288.40575928 564.72851562 1287.59228516 C595.25956015 1251.04784926 618.20836388 1209.96158918 634.37890625 1165.203125 C634.75756836 1164.16833008 635.13623047 1163.13353516 635.52636719 1162.06738281 C654.70828045 1109.14659696 662.59140434 1053.11403323 666.37890625 997.203125 C666.45238281 996.12643555 666.52585937 995.04974609 666.6015625 993.94042969 C668.51798688 963.98100813 668.82328901 933.04654587 665.37890625 903.203125 C665.25531738 902.09146973 665.13172852 900.97981445 665.00439453 899.83447266 C656.47433507 825.33862 627.0893477 752.62107489 577.94140625 695.515625 C577.45140137 694.94529541 576.96139648 694.37496582 576.45654297 693.78735352 C574.37990725 691.39947143 572.27004162 689.0965919 570.0078125 686.8828125 C568.14060922 685.02652853 566.69286993 683.47827286 565.37890625 681.203125 C565.46337891 679.15332031 565.46337891 679.15332031 566.04296875 676.96875 C566.25034668 676.17557373 566.45772461 675.38239746 566.67138672 674.56518555 C567.5019946 671.7921934 568.40243451 669.05970045 569.38330078 666.33642578 C577.05061443 645.04167974 580.78739737 622.61774284 583.37890625 600.203125 C583.48348145 599.30166748 583.58805664 598.40020996 583.69580078 597.47143555 C584.7088612 587.26924661 584.62267231 577.00777464 584.62890625 566.765625 C584.62958099 565.76757843 584.63025574 564.76953186 584.63095093 563.74124146 C584.61309265 547.05242697 583.85881885 530.73262121 581.37890625 514.203125 C581.21261719 513.07841797 581.04632812 511.95371094 580.875 510.79492188 C576.91267313 484.8636938 570.52625871 459.67019534 562.00390625 434.890625 C561.73915497 434.12048065 561.47440369 433.3503363 561.20162964 432.55685425 C560.44785008 430.3776524 559.68554355 428.20172104 558.91796875 426.02734375 C558.69118942 425.37888489 558.4644101 424.73042603 558.23075867 424.06231689 C557.18019667 421.13205489 556.11956682 418.81411585 554.37890625 416.203125 C535.27625838 411.47848231 511.21684068 415.14842807 492.37890625 419.203125 C491.29641602 419.43386719 490.21392578 419.66460937 489.09863281 419.90234375 C440.36601315 430.58424009 393.68227743 451.71504866 350.75683594 476.82470703 C347.97160212 478.43922758 345.15545365 479.99079747 342.33227539 481.53759766 C328.3957456 489.20673774 314.84978026 497.709804 301.75 506.7265625 C300.67234375 507.46382568 299.5946875 508.20108887 298.484375 508.96069336 C296.4155661 510.38427495 294.35642581 511.82203968 292.30859375 513.27563477 C291.37144531 513.92072998 290.43429687 514.5658252 289.46875 515.23046875 C288.65269287 515.80531006 287.83663574 516.38015137 286.99584961 516.97241211 C281.1684633 519.71295268 275.29083422 517.91023982 269.3515625 516.296875 C267.7596966 515.88212704 266.1677324 515.46775622 264.57568359 515.05371094 C263.74075378 514.83356323 262.90582397 514.61341553 262.04559326 514.38659668 C213.23813635 501.57702716 163.58431568 493.86193566 113.37890625 489.203125 C112.48288696 489.11848999 111.58686768 489.03385498 110.66369629 488.94665527 C56.99155175 483.91728593 2.04255829 484.36502393 -51.62109375 489.203125 C-53.29133239 489.34922124 -54.96157972 489.49521815 -56.63183594 489.64111328 C-108.25260473 494.22181977 -159.66638523 503.42217059 -209.73539734 516.76663208 C-215.12432754 518.17792753 -219.33564312 518.93486926 -224.46826172 516.22949219 C-226.55110115 514.91118603 -228.55371086 513.51217318 -230.55859375 512.078125 C-232.159332 510.97477333 -233.76231447 509.87467251 -235.3671875 508.77734375 C-236.64311768 507.90215088 -236.64311768 507.90215088 -237.94482422 507.00927734 C-307.91232745 459.78982935 -405.40796039 404.00450884 -493.62109375 416.203125 C-493.71390625 416.99976563 -493.80671875 417.79640625 -493.90234375 418.6171875 C-494.81431666 423.1671393 -496.45337334 427.25865763 -498.12109375 431.578125 C-509.90982684 463.23305645 -517.24201547 496.61384684 -520.62109375 530.203125 C-520.71535645 531.11924561 -520.80961914 532.03536621 -520.90673828 532.97924805 C-521.86134198 543.55758902 -521.86461631 554.15260993 -521.87109375 564.765625 C-521.87176849 565.76212067 -521.87244324 566.75861633 -521.87313843 567.78530884 C-521.85564613 584.10235669 -521.1906226 600.05896326 -518.62109375 616.203125 C-518.4494873 617.28464844 -518.27788086 618.36617187 -518.10107422 619.48046875 C-514.95040274 638.60411548 -510.55683874 657.80880817 -503.27758789 675.81274414 C-502.55075947 678.4592213 -502.61808084 679.67620677 -503.62109375 682.203125 C-505.51953125 684.5078125 -505.51953125 684.5078125 -507.99609375 687.078125 C-565.09551508 747.84903602 -596.47404606 831.0831146 -603.62109375 913.203125 C-603.76575073 914.85417236 -603.76575073 914.85417236 -603.91333008 916.53857422 C-604.79625974 927.96241038 -604.82078298 939.37589261 -604.80859375 950.828125 C-604.8079895 951.88014099 -604.80738525 952.93215698 -604.8067627 954.01605225 C-604.68013158 1035.82747311 -593.06415097 1118.35663522 -518.62109375 1266.203125 C-518.21826172 1266.74340332 -517.81542969 1267.28368164 -517.40039062 1267.84033203 C-502.18776176 1288.18210002 -485.06235606 1307.79625209 -465.62109375 1324.203125 C-464.71488281 1324.99847656 -463.80867188 1325.79382812 -462.875 1326.61328125 C-453.90357689 1334.43724685 -444.37750832 1341.39382351 -434.62109375 1348.203125 C-433.98977539 1348.6451123 -433.35845703 1349.08709961 -432.70800781 1349.54248047 C-359.96611604 1400.13780498 -273.45855424 1422.45175122 -150.62109375 1441.203125 C-151.47185643 1445.75588779 -154.15433711 1447.90576333 -157.43359375 1450.953125 C-170.12378497 1463.25058303 -179.31423595 1477.69211904 -187.62109375 1493.203125 C-187.98154785 1493.86795898 -188.34200195 1494.53279297 -188.71337891 1495.21777344 C-199.60590656 1515.64842549 -205.82007371 1538.82022204 -210.46484375 1561.375 C-210.66996582 1562.35549316 -210.87508789 1563.33598633 -211.08642578 1564.34619141 C-211.65566017 1567.18923744 -211.65566017 1567.18923744 -211.93310547 1570.04052734 C-212.73470674 1576.40331013 -212.73470674 1576.40331013 -215.17089844 1578.6015625 C-217.32205958 1579.75170951 -219.4327362 1580.55427826 -221.74609375 1581.328125 C-222.58648193 1581.64249512 -223.42687012 1581.95686523 -224.29272461 1582.28076172 C-227.05543352 1583.29752732 -229.8357303 1584.2503754 -232.62109375 1585.203125 C-234.516199 1585.88904118 -236.41072552 1586.5765583 -238.3046875 1587.265625 C-277.32842016 1601.14472791 -320.43153673 1607.64841298 -361.62109375 1601.203125 C-362.41354492 1601.07953613 -363.20599609 1600.95594727 -364.02246094 1600.82861328 C-404.73088215 1594.17822764 -438.02358056 1574.21060325 -467.62109375 1546.203125 C-468.30171875 1545.56503906 -468.98234375 1544.92695312 -469.68359375 1544.26953125 C-474.8103799 1539.32075851 -479.19541863 1533.77538592 -483.62109375 1528.203125 C-484.38164062 1527.27113281 -485.1421875 1526.33914063 -485.92578125 1525.37890625 C-494.54633144 1514.56788839 -501.65155587 1502.76916278 -508.96240234 1491.05371094 C-516.26896056 1479.37390597 -524.20324547 1468.58808564 -533.55859375 1458.453125 C-535.37166469 1456.47522942 -537.09148389 1454.45115683 -538.80859375 1452.390625 C-566.38258301 1420.86839709 -609.45631871 1395.58929505 -651.62109375 1392.203125 C-666.73110201 1391.30299519 -687.28060277 1390.75647174 -699.62109375 1401.203125 C-701.85672086 1404.01362766 -702.64709085 1405.67507348 -702.5859375 1409.26953125 C-700.44601037 1423.4127278 -684.96228905 1434.70179681 -674.1796875 1442.69921875 C-669.76676102 1445.87042876 -665.13956872 1448.68614448 -660.50683594 1451.52124023 C-651.30255814 1457.18447103 -642.94176289 1463.68116118 -634.99609375 1471.015625 C-632.68093166 1473.14801114 -630.31411178 1475.2067986 -627.93359375 1477.265625 C-623.77360379 1480.96903069 -620.20486686 1484.95047479 -616.62109375 1489.203125 C-615.74839844 1490.18796875 -614.87570312 1491.1728125 -613.9765625 1492.1875 C-586.0640559 1523.77590063 -567.02173193 1561.58234823 -551.32397461 1600.41162109 C-548.91230702 1606.33493354 -546.34939092 1611.96732656 -543.05859375 1617.453125 C-542.63368652 1618.16637939 -542.2087793 1618.87963379 -541.77099609 1619.61450195 C-529.57911852 1639.65410094 -513.95288841 1657.63354179 -495.62109375 1672.203125 C-494.18830078 1673.37875 -494.18830078 1673.37875 -492.7265625 1674.578125 C-462.6576868 1698.66410502 -425.24752902 1713.1648731 -387.62109375 1720.203125 C-386.82767578 1720.35330078 -386.03425781 1720.50347656 -385.21679688 1720.65820312 C-379.70467187 1721.67491435 -374.18085469 1722.49527469 -368.62109375 1723.203125 C-367.82380859 1723.30753906 -367.02652344 1723.41195313 -366.20507812 1723.51953125 C-321.43839502 1729.10211683 -273.4445532 1725.31746736 -229.51611328 1715.37158203 C-225.1201157 1714.39026875 -221.11460851 1714.1429425 -216.62109375 1714.203125 C-216.02987339 1763.26490946 -215.50529564 1812.32902049 -215.38891602 1861.39453125 C-215.37860476 1865.58599649 -215.36121723 1869.77733879 -215.33764648 1873.96875 C-215.31032166 1878.91029957 -215.29793704 1883.85166619 -215.29701996 1888.79328918 C-215.2943684 1890.59554024 -215.28671686 1892.39779258 -215.27347565 1894.19999695 C-215.15537332 1911.19346901 -217.21736094 1925.6802861 -229.37109375 1938.578125 C-234.00914642 1942.95927954 -238.63781085 1946.00094449 -244.62109375 1948.203125 C-245.30743896 1948.45916504 -245.99378418 1948.71520508 -246.70092773 1948.97900391 C-262.06857785 1954.20558876 -281.07906432 1952.91208489 -296.11621094 1947.15332031 C-299.10276059 1946.02041083 -302.11391159 1944.96892376 -305.12890625 1943.9140625 C-324.56948761 1937.03277607 -343.63780967 1929.25017596 -362.62109375 1921.203125 C-363.76449219 1920.7184375 -364.90789063 1920.23375 -366.0859375 1919.734375 C-382.06913237 1912.91487852 -397.73491203 1905.4689689 -413.33154297 1897.81640625 C-416.24872132 1896.38574612 -419.17052579 1894.96512149 -422.09375 1893.546875 C-432.83631316 1888.29750081 -443.25658315 1882.5656887 -453.62890625 1876.62109375 C-457.68763871 1874.29543071 -461.76512031 1872.00935976 -465.86328125 1869.75390625 C-478.88331373 1862.57929439 -491.54915661 1855.03110765 -504.00097656 1846.91015625 C-506.58426899 1845.22711668 -509.17561028 1843.55722665 -511.76953125 1841.890625 C-533.38684978 1827.97159767 -554.59033053 1813.40956495 -574.85742188 1797.57666016 C-576.84075809 1796.03205197 -578.83219809 1794.49823432 -580.82421875 1792.96484375 C-599.1774703 1778.80907096 -617.09840276 1764.09548403 -634.18359375 1748.42578125 C-636.263821 1746.52890736 -638.36666273 1744.66919557 -640.49609375 1742.828125 C-648.64804694 1735.73290648 -656.61975344 1728.39937204 -664.1328125 1720.62890625 C-665.58296717 1719.09893302 -665.58296717 1719.09893302 -667.62109375 1718.203125 C-667.62109375 1717.543125 -667.62109375 1716.883125 -667.62109375 1716.203125 C-668.50510864 1715.80697998 -668.50510864 1715.80697998 -669.40698242 1715.40283203 C-671.70556524 1714.15735448 -673.21048892 1712.85760286 -675.046875 1711.0078125 C-675.6749707 1710.37842773 -676.30306641 1709.74904297 -676.95019531 1709.10058594 C-677.6047168 1708.43317383 -678.25923828 1707.76576172 -678.93359375 1707.078125 C-679.6100293 1706.39524414 -680.28646484 1705.71236328 -680.98339844 1705.00878906 C-684.76251128 1701.17111369 -688.41330962 1697.27420927 -691.88671875 1693.15625 C-694.19007522 1690.5623801 -696.6531673 1688.13848653 -699.12109375 1685.703125 C-702.84367591 1682.02498598 -706.41234359 1678.27595492 -709.8125 1674.296875 C-712.03618393 1671.72258864 -714.32686429 1669.21470251 -716.62109375 1666.703125 C-720.67793017 1662.24975569 -724.69331398 1657.77068746 -728.62109375 1653.203125 C-729.85279297 1651.77226562 -729.85279297 1651.77226562 -731.109375 1650.3125 C-736.34233165 1644.19844109 -741.42141846 1637.98828017 -746.36108398 1631.63500977 C-749.2901988 1627.87385953 -752.27774825 1624.16917552 -755.30908203 1620.48999023 C-762.50454269 1611.74492106 -769.26543517 1602.72507822 -775.91113281 1593.55712891 C-777.54250094 1591.31131916 -779.18550797 1589.07455581 -780.83203125 1586.83984375 C-789.83717265 1574.56578879 -798.25705593 1561.9198072 -806.62109375 1549.203125 C-807.11818848 1548.45240723 -807.6152832 1547.70168945 -808.12744141 1546.92822266 C-828.27691159 1516.49737474 -846.06401897 1484.70871983 -862.62109375 1452.203125 C-863.01490234 1451.43210449 -863.40871094 1450.66108398 -863.81445312 1449.86669922 C-865.7588146 1446.05184741 -867.67152481 1442.22286724 -869.5546875 1438.37744141 C-870.32971961 1436.79721338 -871.1089207 1435.21902794 -871.890625 1433.64208984 C-892.32230242 1392.3542741 -908.97872965 1349.17902758 -922.94976807 1305.30700684 C-923.59934942 1303.27127002 -924.25472784 1301.23748905 -924.91162109 1299.20410156 C-944.90000102 1237.13481981 -957.50566952 1172.4881121 -964.43359375 1107.703125 C-964.53305298 1106.7784845 -964.63251221 1105.85384399 -964.73498535 1104.90118408 C-965.32729833 1099.32067651 -965.86528671 1093.73721068 -966.35836792 1088.14706421 C-966.53265676 1086.19409384 -966.71432784 1084.24176738 -966.90359497 1082.29019165 C-969.24970418 1057.70622045 -968.96160938 1033.03135747 -968.93676758 1008.36108398 C-968.9321489 1003.40037946 -968.93902228 998.43992084 -968.95727539 993.47924805 C-969.06627446 963.58054408 -968.56019605 933.96921058 -965.62109375 904.203125 C-965.54506613 903.4253344 -965.46903851 902.64754379 -965.39070702 901.84618378 C-956.57610898 811.8990808 -935.87399302 723.46752632 -838.62109375 503.203125 C-837.65372601 501.5495028 -836.68638916 499.89586232 -835.71989441 498.24172974 C-806.11755183 447.6135855 -772.58487509 399.40321195 -734.4921875 354.77514648 C-731.74140573 351.5490752 -729.0727135 348.27073301 -726.43359375 344.953125 C-721.73213204 339.16344069 -716.61667036 333.78383452 -711.46801758 328.39160156 C-708.21820747 324.98509202 -705.02515862 321.55433371 -701.94140625 317.99609375 C-699.28509696 314.9313816 -696.52854871 312.03406799 -693.62109375 309.203125 C-690.75183134 306.36822501 -687.97622664 303.53191841 -685.37109375 300.453125 C-678.17026268 292.05500611 -670.11971794 284.17835661 -661.67578125 277.0390625 C-658.87674985 274.53802684 -656.25851033 271.87268535 -653.62109375 269.203125 C-649.77955937 265.3194086 -645.89736627 261.5775774 -641.734375 258.03515625 C-639.56463408 256.15417937 -637.45639132 254.21384391 -635.35205078 252.26025391 C-630.2215757 247.49983523 -624.97820351 242.96464018 -619.5234375 238.57421875 C-616.23145847 235.88480923 -613.02114881 233.11130546 -609.80859375 230.328125 C-603.53574443 224.91687451 -597.09483724 219.76321078 -590.54296875 214.6953125 C-588.47845516 213.09237715 -586.42426899 211.47680442 -584.37109375 209.859375 C-574.78690584 202.32684169 -565.05026482 195.05016132 -555.11767578 187.98364258 C-553.22955249 186.63706687 -551.34588292 185.28424338 -549.46435547 183.9284668 C-541.16733056 177.95597002 -532.7601393 172.1739305 -524.24609375 166.515625 C-523.2781488 165.87157211 -523.2781488 165.87157211 -522.29064941 165.21450806 C-493.9266602 146.36092533 -464.69576203 129.18350746 -434.62109375 113.203125 C-433.62287598 112.66977539 -432.6246582 112.13642578 -431.59619141 111.58691406 C-415.20858229 102.84860528 -398.53923594 94.85879318 -381.62109375 87.203125 C-380.10757324 86.51186523 -380.10757324 86.51186523 -378.56347656 85.80664062 C-298.53782454 49.32239994 -213.24868992 24.95292881 -50.71875 2.03515625 C-49.93739685 1.96555191 -49.1560437 1.89594757 -48.35101318 1.82423401 C-45.77535865 1.60233284 -43.19876221 1.40028965 -40.62109375 1.203125 C-38.97540154 1.07099106 -38.97540154 1.07099106 -37.29646301 0.93618774 C-24.86956325 0.03782853 -12.45471863 0.02063026 0 0 Z " fill="#9E9E9E" transform="translate(968.62109375,-0.203125)"/>
</svg>
