<?xml version="1.0" encoding="UTF-8"?>
<svg version="1.1" xmlns="http://www.w3.org/2000/svg" width="863" height="1000">
<path d="M0 0 C284.79 0 569.58 0 863 0 C863 287.43 863 574.86 863 871 C578.21 871 293.42 871 0 871 C0 583.57 0 296.14 0 0 Z " fill="#EFDA4F" transform="translate(0,71)"/>
<path d="M0 0 C1.3614917 0.04568115 1.3614917 0.04568115 2.75048828 0.09228516 C27.81867954 1.11379113 52.03309239 8.44821718 72 24 C72.92554688 24.7115625 73.85109375 25.423125 74.8046875 26.15625 C80.51477191 30.67479918 85.44613552 35.32894914 90 41 C90.63421875 41.75925781 91.2684375 42.51851563 91.921875 43.30078125 C102.43818267 56.0793179 102.43818267 56.0793179 106 63 C105.74185034 65.44162853 105.41962392 66.6147368 103.59570312 68.28930664 C102.99693359 68.65918701 102.39816406 69.02906738 101.78125 69.41015625 C101.10465332 69.8371582 100.42805664 70.26416016 99.73095703 70.70410156 C98.99474121 71.15237305 98.25852539 71.60064453 97.5 72.0625 C95.94509512 73.03741379 94.39041397 74.01268451 92.8359375 74.98828125 C92.03510742 75.48537598 91.23427734 75.9824707 90.40917969 76.49462891 C86.61626101 78.86462653 82.87291674 81.30972272 79.125 83.75 C73.68935206 87.27122907 68.24451938 90.77674852 62.765625 94.23046875 C60.61346422 95.60748687 58.48351021 97.00657277 56.359375 98.42578125 C55.415177 99.05009033 55.415177 99.05009033 54.4519043 99.68701172 C53.21925693 100.50283028 51.99128642 101.32577285 50.76879883 102.15673828 C47.45434197 104.33849032 46.09776066 105 42 105 C40.10546875 102.65625 40.10546875 102.65625 38.1875 99.5 C30.0167834 86.69469645 19.9494712 76.93820621 4.66186523 73.46948242 C-7.96580422 71.24229648 -22.26607593 71.55062857 -33.28515625 78.42578125 C-39.76355087 82.97594226 -44.9213052 88.7289311 -46.55078125 96.69140625 C-48.33438899 109.82806498 -47.76581979 119.81490135 -40 131 C-27.1527915 146.69044317 -1.49818709 154.90413573 16.76269531 162.09985352 C19.78796152 163.31702467 22.73729567 164.67438629 25.6875 166.0625 C28.92027318 167.58025279 32.15041654 169.06392703 35.4375 170.4609375 C42.10456224 173.34122536 48.55078966 176.66643171 55 180 C55.73782715 180.38075684 56.4756543 180.76151367 57.23583984 181.15380859 C68.67450613 187.11823824 78.91979867 193.96576666 89 202 C90.11569254 202.86613392 91.23156908 203.7320309 92.34765625 204.59765625 C99.22435395 210.0833658 104.68421779 216.01171717 110 223 C110.52980469 223.61875 111.05960938 224.2375 111.60546875 224.875 C119.20862615 234.0069424 124.20608544 246.55341671 127 258 C127.37680908 259.41575317 127.37680908 259.41575317 127.76123047 260.86010742 C130.04719557 270.21005639 130.43337012 279.04746475 130.33618164 288.63232422 C130.31246287 291.12890772 130.31566327 293.62442484 130.32226562 296.12109375 C130.27673688 323.13169395 121.86132194 346.65241386 104 367 C103.27039063 367.83144531 102.54078125 368.66289063 101.7890625 369.51953125 C80.19333322 392.43990564 43.85341832 405.64500174 12.90393066 407.09843445 C10.68537476 407.14702116 8.46908176 407.16472628 6.25 407.16796875 C5.02543091 407.17296135 5.02543091 407.17296135 3.77612305 407.17805481 C2.05501869 407.18308926 0.33390468 407.18546422 -1.38720703 407.18530273 C-3.96534199 407.18747085 -6.54303526 407.20561315 -9.12109375 407.22460938 C-22.52329332 407.2704737 -35.57061383 406.58670882 -48.49609375 402.71484375 C-50.9685743 402.00897177 -53.40770155 401.51553839 -55.9375 401.0625 C-78.28103137 396.69169965 -100.01712169 384.9480634 -117 370 C-117.82886719 369.29230469 -118.65773438 368.58460938 -119.51171875 367.85546875 C-130.51178114 358.27142695 -139.20076531 347.94242506 -146.95458984 335.64013672 C-147.86492441 334.21191915 -148.81405122 332.80857405 -149.76953125 331.41015625 C-153.02010013 326.60146344 -153.02010013 326.60146344 -152.93310547 323.99829102 C-151.56697958 321.07266558 -149.68243076 320.27718719 -146.8828125 318.71484375 C-145.81023193 318.10729248 -144.73765137 317.49974121 -143.63256836 316.8737793 C-142.46345906 316.22820768 -141.29426776 315.58278456 -140.125 314.9375 C-138.93226962 314.26672064 -137.74029802 313.59459036 -136.54907227 312.92114258 C-134.15615874 311.5699498 -131.75999628 310.22484073 -129.36083984 308.88476562 C-124.86138643 306.36146326 -120.39754855 303.77957193 -115.9375 301.1875 C-115.18726563 300.75590576 -114.43703125 300.32431152 -113.6640625 299.87963867 C-109.81722668 297.66292471 -106.00720881 295.40079643 -102.23046875 293.06640625 C-101.45646729 292.59372314 -100.68246582 292.12104004 -99.88500977 291.6340332 C-98.42083067 290.73736784 -96.96371814 289.8290173 -95.51538086 288.90698242 C-92.73602437 287.21396119 -90.57274631 286.0288849 -87.2890625 285.86328125 C-83.94838913 287.52221632 -82.72649282 289.8007327 -80.75 292.9375 C-76.67356226 299.16370518 -72.23083413 304.6802061 -67 310 C-66.24203125 310.77085937 -65.4840625 311.54171875 -64.703125 312.3359375 C-45.90575371 330.33472765 -23.05944071 333.75707831 2.0703125 333.31640625 C9.21207291 333.0474367 15.36474112 331.75715798 22 329 C22.90492188 328.63777344 23.80984375 328.27554687 24.7421875 327.90234375 C34.70422267 323.43608178 41.85899975 316.54693523 46.73828125 306.765625 C49.73938143 297.80878111 49.57499879 287.6341944 45.9375 278.875 C39.48156043 267.04815273 28.87813199 259.64387326 17.25 253.375 C16.37166504 252.89699951 15.49333008 252.41899902 14.58837891 251.92651367 C8.97006733 248.92027845 3.35598928 246.36890728 -2.65625 244.23828125 C-6.89603367 242.66817445 -11.0008064 240.84927349 -15.125 239 C-16.29289062 238.47672119 -16.29289062 238.47672119 -17.484375 237.94287109 C-22.40006647 235.73269093 -27.30774931 233.50483971 -32.203125 231.25 C-34.28227 230.32077318 -36.37914972 229.43102343 -38.484375 228.5625 C-59.61105938 219.80661492 -79.43603749 207.83029467 -96 192 C-97.11955078 190.99259766 -97.11955078 190.99259766 -98.26171875 189.96484375 C-105.16557522 183.51883465 -110.03947963 175.96263744 -115 168 C-115.51691406 167.195625 -116.03382813 166.39125 -116.56640625 165.5625 C-130.62558299 142.2921385 -133.16001175 107.19583051 -126.8125 81.375 C-124.92203123 74.23600179 -122.52915865 67.50555751 -119 61 C-118.57203125 60.12859375 -118.1440625 59.2571875 -117.703125 58.359375 C-104.36176901 32.12637165 -80.43195178 15.13238283 -53 6 C-51.28876953 5.4121875 -51.28876953 5.4121875 -49.54296875 4.8125 C-33.55822421 -0.24902563 -16.63171822 -0.60484558 0 0 Z " fill="#333330" transform="translate(667,466)"/>
<path d="M0 0 C27.06 0 54.12 0 82 0 C82.11049885 37.39349148 82.2027144 74.78682734 82.25532665 112.18043571 C82.2615792 116.60824649 82.26805091 121.03605692 82.2746582 125.46386719 C82.27662553 126.78595596 82.27662553 126.78595596 82.2786326 128.1347536 C82.30031147 142.3533012 82.33969088 156.57174637 82.38576398 170.79023348 C82.43273909 185.41045307 82.46033956 200.0306195 82.47044247 214.65091145 C82.47725831 223.65190656 82.49867996 232.652612 82.53958233 241.6535178 C82.56628163 247.84950715 82.57394054 254.04534966 82.56750689 260.24139218 C82.56434554 263.80117938 82.56872843 267.36046533 82.59602737 270.92016029 C82.84023488 308.35574244 75.93938408 343.27951916 49.6796875 371.375 C37.25356057 383.5475325 21.74648324 392.04973476 5.00878906 396.46923828 C2.97514799 397.00656639 0.95311895 397.57789088 -1.0703125 398.15234375 C-36.17174918 407.72281374 -77.99788497 403.81712207 -109.76953125 385.921875 C-112.9186418 384.03600765 -115.97274157 382.07471591 -119 380 C-119.7321875 379.49855469 -120.464375 378.99710938 -121.21875 378.48046875 C-136.77506817 367.27621578 -148.42062907 353.0287505 -158.0625 336.625 C-158.48144531 335.9345459 -158.90039062 335.2440918 -159.33203125 334.53271484 C-162.10886205 329.67920451 -162.10886205 329.67920451 -161.640625 326.7578125 C-159.29223714 324.24168265 -156.71624586 322.880604 -153.6875 321.25 C-152.41041793 320.54876645 -151.13439856 319.84559452 -149.859375 319.140625 C-149.21291016 318.78548828 -148.56644531 318.43035156 -147.90039062 318.06445312 C-142.82870775 315.22368522 -137.93378219 312.07152127 -133 309 C-125.19460799 304.16228307 -117.35821229 299.37637824 -109.5 294.625 C-108.63882568 294.10067383 -107.77765137 293.57634766 -106.89038086 293.03613281 C-106.07061768 292.54209961 -105.25085449 292.04806641 -104.40625 291.5390625 C-103.31280273 290.87704834 -103.31280273 290.87704834 -102.19726562 290.20166016 C-99.85877201 288.92276398 -97.49108886 287.9420865 -95 287 C-94.29037109 288.30710937 -94.29037109 288.30710937 -93.56640625 289.640625 C-84.46683933 306.13635719 -74.611118 320.67535901 -56.29077148 327.38037109 C-51.98716443 328.54445025 -47.682531 328.48563401 -43.25 328.4375 C-42.27716064 328.42992676 -41.30432129 328.42235352 -40.30200195 328.41455078 C-32.96281194 328.24659471 -26.62305501 327.34814787 -20 324 C-19.17371094 323.5875 -18.34742188 323.175 -17.49609375 322.75 C-8.73436924 317.66906585 -4.95921005 309.53127519 -2.33768249 300.02306741 C0.25949968 289.11119742 -0.42193981 277.62698293 -0.45119452 266.48791969 C-0.45618705 262.90323537 -0.43799596 259.31865393 -0.42277527 255.73400879 C-0.39957516 249.53986205 -0.39070973 243.34583202 -0.39188385 237.15164375 C-0.39356019 228.19617505 -0.37314646 219.24086093 -0.34752855 210.28543364 C-0.30654583 195.75206421 -0.28315969 181.21872278 -0.27099609 166.68530273 C-0.25914988 152.57655144 -0.23891906 138.46785277 -0.20751953 124.35913086 C-0.20558343 123.48788201 -0.20364733 122.61663316 -0.20165256 121.71898282 C-0.19188728 117.34770915 -0.1819583 112.97643586 -0.17194796 108.60516274 C-0.08925638 72.40345019 -0.03845858 36.20179186 0 0 Z " fill="#333430" transform="translate(387,471)"/>
</svg>
