<?xml version="1.0" encoding="UTF-8"?>
<svg version="1.1" xmlns="http://www.w3.org/2000/svg" width="500" height="500">
<path d="M0 0 C0.97163086 0.44230957 0.97163086 0.44230957 1.96289062 0.89355469 C23.67235412 10.91054529 43.2849433 24.52072452 60.69921875 40.8515625 C62.72869891 42.74666282 64.80704224 44.53350269 66.9375 46.3125 C106.11641004 80.53407856 129.29631872 131.61870721 139.1875 181.6875 C139.35467529 182.51830078 139.52185059 183.34910156 139.6940918 184.20507812 C142.09608663 196.84741674 142.1864801 209.57651844 142.18530273 222.39916992 C142.18747637 225.03385915 142.20566593 227.66811941 142.22460938 230.30273438 C142.27843039 246.16402853 141.36607841 262.00900715 137.75 277.5 C137.53239014 278.45592041 137.31478027 279.41184082 137.09057617 280.39672852 C129.88807715 311.27881637 117.7074025 341.21691944 99 367 C98.55688477 367.61536621 98.11376953 368.23073242 97.65722656 368.86474609 C91.96368016 376.73948746 86.1193134 384.29748247 79.44921875 391.375 C77.46676245 393.49973785 75.56543039 395.65691164 73.671875 397.859375 C63.22907148 409.83248056 50.96988832 419.89934818 38 429 C37.3723877 429.44182617 36.74477539 429.88365234 36.09814453 430.33886719 C14.23615884 445.60412249 -9.51896451 456.7806138 -35.04858398 464.390625 C-37.1140737 465.03562216 -39.14382986 465.75851034 -41.18359375 466.48046875 C-46.90739376 468.39958933 -52.76488219 469.50216315 -58.6875 470.625 C-59.76966797 470.8415625 -60.85183594 471.058125 -61.96679688 471.28125 C-75.76379075 473.93105795 -89.52936809 474.18659129 -103.52954102 474.18530273 C-106.16634447 474.18748251 -108.80272347 474.20569664 -111.43945312 474.22460938 C-127.15485925 474.2779192 -142.61747813 473.10153717 -158 469.75 C-159.50300659 469.42902344 -159.50300659 469.42902344 -161.03637695 469.1015625 C-170.56043588 466.99769992 -179.80351213 464.23488923 -189 461 C-190.66289062 460.41798828 -190.66289062 460.41798828 -192.359375 459.82421875 C-195.60903888 458.62415252 -198.80369362 457.33598424 -202 456 C-203.07556152 455.55430664 -203.07556152 455.55430664 -204.17285156 455.09960938 C-263.22233048 430.38802389 -311.74574531 381.37281375 -336.64208984 322.48291016 C-342.72712534 307.56212701 -347.27278214 292.84988784 -350.6875 277.125 C-350.89036621 276.20501221 -351.09323242 275.28502441 -351.30224609 274.3371582 C-354.57535418 258.49252594 -355.38540902 242.51206626 -355.3125 226.375 C-355.31034485 225.50703796 -355.3081897 224.63907593 -355.30596924 223.74481201 C-355.0597439 161.59497438 -332.29743635 101.76006594 -289.3046875 56.48046875 C-286.97058469 54.03304699 -286.97058469 54.03304699 -284.91796875 51.375 C-283.19863643 49.24596934 -281.52461599 47.56603806 -279.4375 45.8125 C-277.1407313 43.85940837 -274.8905079 41.89609423 -272.703125 39.8203125 C-238.59203169 7.51011542 -192.12173764 -13.60929559 -146 -21 C-145.2280127 -21.12842285 -144.45602539 -21.2568457 -143.66064453 -21.38916016 C-95.01207605 -29.0423453 -44.42172192 -20.31186027 0 0 Z " fill="#672B7A" transform="translate(356,24)"/>
<path d="M0 0 C0.97163086 0.44230957 0.97163086 0.44230957 1.96289062 0.89355469 C23.67235412 10.91054529 43.2849433 24.52072452 60.69921875 40.8515625 C62.72869891 42.74666282 64.80704224 44.53350269 66.9375 46.3125 C106.11641004 80.53407856 129.29631872 131.61870721 139.1875 181.6875 C139.35467529 182.51830078 139.52185059 183.34910156 139.6940918 184.20507812 C142.09608663 196.84741674 142.1864801 209.57651844 142.18530273 222.39916992 C142.18747637 225.03385915 142.20566593 227.66811941 142.22460938 230.30273438 C142.27843039 246.16402853 141.36607841 262.00900715 137.75 277.5 C137.53239014 278.45592041 137.31478027 279.41184082 137.09057617 280.39672852 C129.88807715 311.27881637 117.7074025 341.21691944 99 367 C98.55688477 367.61536621 98.11376953 368.23073242 97.65722656 368.86474609 C91.96368016 376.73948746 86.1193134 384.29748247 79.44921875 391.375 C77.46676245 393.49973785 75.56543039 395.65691164 73.671875 397.859375 C63.22907148 409.83248056 50.96988832 419.89934818 38 429 C37.3723877 429.44182617 36.74477539 429.88365234 36.09814453 430.33886719 C14.23615884 445.60412249 -9.51896451 456.7806138 -35.04858398 464.390625 C-37.1140737 465.03562216 -39.14382986 465.75851034 -41.18359375 466.48046875 C-46.90739376 468.39958933 -52.76488219 469.50216315 -58.6875 470.625 C-59.76966797 470.8415625 -60.85183594 471.058125 -61.96679688 471.28125 C-75.76379075 473.93105795 -89.52936809 474.18659129 -103.52954102 474.18530273 C-106.16634447 474.18748251 -108.80272347 474.20569664 -111.43945312 474.22460938 C-127.15485925 474.2779192 -142.61747813 473.10153717 -158 469.75 C-159.50300659 469.42902344 -159.50300659 469.42902344 -161.03637695 469.1015625 C-170.56043588 466.99769992 -179.80351213 464.23488923 -189 461 C-190.66289062 460.41798828 -190.66289062 460.41798828 -192.359375 459.82421875 C-195.60903888 458.62415252 -198.80369362 457.33598424 -202 456 C-203.07556152 455.55430664 -203.07556152 455.55430664 -204.17285156 455.09960938 C-263.22233048 430.38802389 -311.74574531 381.37281375 -336.64208984 322.48291016 C-342.72712534 307.56212701 -347.27278214 292.84988784 -350.6875 277.125 C-350.89036621 276.20501221 -351.09323242 275.28502441 -351.30224609 274.3371582 C-354.57535418 258.49252594 -355.38540902 242.51206626 -355.3125 226.375 C-355.31034485 225.50703796 -355.3081897 224.63907593 -355.30596924 223.74481201 C-355.0597439 161.59497438 -332.29743635 101.76006594 -289.3046875 56.48046875 C-286.97058469 54.03304699 -286.97058469 54.03304699 -284.91796875 51.375 C-283.19863643 49.24596934 -281.52461599 47.56603806 -279.4375 45.8125 C-277.1407313 43.85940837 -274.8905079 41.89609423 -272.703125 39.8203125 C-238.59203169 7.51011542 -192.12173764 -13.60929559 -146 -21 C-145.2280127 -21.12842285 -144.45602539 -21.2568457 -143.66064453 -21.38916016 C-95.01207605 -29.0423453 -44.42172192 -20.31186027 0 0 Z M-146 15 C-146.84691406 15.17160645 -147.69382813 15.34321289 -148.56640625 15.52001953 C-167.22023418 19.36273556 -185.00164917 25.41399987 -202 34 C-203.08410156 34.54269531 -204.16820312 35.08539063 -205.28515625 35.64453125 C-223.63818465 45.16669787 -240.11169766 57.72237842 -255 72 C-255.79688232 72.75603516 -255.79688232 72.75603516 -256.60986328 73.52734375 C-273.24399327 89.37595943 -286.05525338 107.86356141 -297 128 C-297.53367187 128.97195312 -298.06734375 129.94390625 -298.6171875 130.9453125 C-302.6455952 138.6055489 -305.47258648 146.55417149 -308.21435547 154.73779297 C-308.77612924 156.35538022 -309.36709088 157.96294853 -309.97705078 159.56298828 C-312.50575742 166.20990827 -314.23832637 172.78014044 -315.625 179.75 C-315.82867187 180.719375 -316.03234375 181.68875 -316.2421875 182.6875 C-319.04075678 196.39331367 -320.33288823 209.64457883 -320.26074219 223.59790039 C-320.24999537 226.06356289 -320.26072171 228.52849961 -320.2734375 230.99414062 C-320.28271074 240.49903627 -319.69225347 249.62006024 -318 259 C-317.82307617 260.00893311 -317.64615234 261.01786621 -317.46386719 262.05737305 C-315.0670967 275.15647948 -311.91829966 287.62534765 -307 300 C-306.60039062 301.03769531 -306.20078125 302.07539063 -305.7890625 303.14453125 C-302.38458766 311.67856717 -298.25679636 319.86550614 -294 328 C-293.53037842 328.90153809 -293.53037842 328.90153809 -293.05126953 329.82128906 C-285.51740362 344.10731748 -275.4105855 356.71433719 -265 369 C-264.32324219 369.80050781 -263.64648438 370.60101563 -262.94921875 371.42578125 C-259.24954485 375.70016177 -255.42153166 379.56631149 -251.09765625 383.20703125 C-249.65671093 384.43867725 -248.24886467 385.70978843 -246.87109375 387.01171875 C-234.74744075 398.43790271 -220.75922579 407.18778988 -206.06787109 414.91113281 C-204.18811762 415.90094397 -202.3220104 416.91242615 -200.45703125 417.9296875 C-191.39132629 422.71229856 -181.97593893 426.05674776 -172.25634766 429.25390625 C-170.36615712 429.87892489 -168.48464669 430.53011209 -166.60546875 431.1875 C-156.36150023 434.62453269 -145.64712208 436.29658008 -135 438 C-133.93322021 438.17724609 -132.86644043 438.35449219 -131.76733398 438.53710938 C-127.38591022 439.07545293 -123.09343329 439.19832361 -118.68359375 439.23828125 C-117.79786179 439.24793915 -116.91212982 439.25759705 -115.9995575 439.26754761 C-113.14549558 439.29230297 -110.29165759 439.30493096 -107.4375 439.3125 C-106.46802429 439.31545074 -105.49854858 439.31840149 -104.49969482 439.32144165 C-91.030767 439.33079759 -78.12384933 438.87349219 -65.00732422 435.51269531 C-62.08793333 434.76704695 -59.13540313 434.18423957 -56.1875 433.5625 C-44.33442585 430.68855673 -32.97718893 427.38097496 -22 422 C-20.58547898 421.39082671 -19.16883254 420.78656263 -17.75 420.1875 C2.77760291 410.99549374 21.12253763 398.23125467 37.6875 383.08984375 C39.64985514 381.31643159 41.64661409 379.61849755 43.6875 377.9375 C47.55119785 374.62703371 50.75031876 370.9055802 54 367 C54.68473389 366.19973389 54.68473389 366.19973389 55.38330078 365.38330078 C64.36275098 354.88190987 71.92285348 343.85655184 79 332 C79.41185547 331.31534668 79.82371094 330.63069336 80.24804688 329.92529297 C85.44729481 321.26339799 85.44729481 321.26339799 89.30078125 311.953125 C90.15655973 309.56268231 91.26423508 307.34554913 92.375 305.0625 C97.07977465 294.84520325 99.92620075 283.57081542 102.2421875 272.58984375 C102.79520737 269.97012591 103.40657085 267.40685855 104.0703125 264.81640625 C107.17454067 251.67400497 107.40842248 238.62131364 107.4375 225.1875 C107.44349213 224.26942566 107.44948425 223.35135132 107.45565796 222.40545654 C107.502518 211.60548098 106.92495617 201.30624887 104.75683594 190.71240234 C103.99197119 186.9606174 103.39201907 183.22155645 102.8125 179.4375 C100.0971883 165.07493022 95.39730168 150.29367325 88.32421875 137.46484375 C87.00498253 135.00927427 85.94427318 132.49697758 84.86401367 129.92993164 C79.93372827 118.91724271 73.42071056 108.47855466 66 99 C65.42765625 98.236875 64.8553125 97.47375 64.265625 96.6875 C60.44871606 91.6449781 56.32701203 86.94555867 52.05859375 82.28125 C50.44781227 80.49624738 48.92623343 78.69722649 47.4375 76.8125 C44.25595434 73.14148577 40.70371799 70.13159895 37 67 C36.07316406 66.1853125 35.14632813 65.370625 34.19140625 64.53125 C20.28892154 52.38129132 5.31622121 42.59301374 -11 34 C-12.38251953 33.24783203 -12.38251953 33.24783203 -13.79296875 32.48046875 C-21.20401569 28.57011735 -29.10881135 25.77470934 -37 23 C-38.32862061 22.52397339 -38.32862061 22.52397339 -39.68408203 22.03833008 C-47.39137339 19.35811727 -55.1423566 17.4773525 -63.125 15.8125 C-64.92130859 15.42288086 -64.92130859 15.42288086 -66.75390625 15.02539062 C-79.67062916 12.28783763 -92.14925547 11.75941337 -105.3125 11.75 C-106.16037079 11.74932526 -107.00824158 11.74865051 -107.88180542 11.74795532 C-120.81880063 11.76429898 -133.30767764 12.30314461 -146 15 Z " fill="#00A0E0" transform="translate(356,24)"/>
<path d="M0 0 C18 0 18 0 21.7421875 3.05078125 C22.88183594 5.07666016 22.88183594 5.07666016 23.875 7.3125 C24.73032535 8.89010747 25.58715038 10.46690259 26.4453125 12.04296875 C26.86200195 12.86458496 27.27869141 13.68620117 27.70800781 14.53271484 C29.81233595 18.55129763 32.29191414 22.31648176 34.75 26.125 C35.75486044 27.71945113 36.75874236 29.3145193 37.76171875 30.91015625 C41.3012565 36.50080512 44.93285608 42.03010937 48.5625 47.5625 C53.53163719 55.14210235 58.3984265 62.76677926 63.06079102 70.53930664 C67.22689684 77.46731936 71.61820942 84.18388131 76 91 C76.33 60.97 76.66 30.94 77 0 C81.29 0 85.58 0 90 0 C90 36.63 90 73.26 90 111 C74 111 74 111 70.63671875 108.31640625 C69.59838867 106.5324707 69.59838867 106.5324707 68.6875 104.5625 C67.90743979 103.17120725 67.12614362 101.7806069 66.34375 100.390625 C65.9621875 99.66423828 65.580625 98.93785156 65.1875 98.18945312 C63.23568153 94.59078781 60.94719395 91.22277391 58.6875 87.8125 C57.76237846 86.38276672 56.83924233 84.95174705 55.91796875 83.51953125 C52.79091665 78.67169427 49.64590654 73.83561511 46.5 69 C44.33298718 65.6668916 42.16642806 62.33348849 40 59 C39.53094238 58.27844727 39.06188477 57.55689453 38.57861328 56.81347656 C32.80217908 47.92313455 27.07317173 39.00322174 21.375 30.0625 C20.75826416 29.09586426 20.14152832 28.12922852 19.50610352 27.13330078 C18.93432373 26.23466309 18.36254395 25.33602539 17.7734375 24.41015625 C17.26216309 23.60715088 16.75088867 22.80414551 16.22412109 21.97680664 C15 20 15 20 14 18 C13.67 48.69 13.34 79.38 13 111 C8.71 111 4.42 111 0 111 C0 74.37 0 37.74 0 0 Z " fill="#FAF9FB" transform="translate(118,223)"/>
<path d="M0 0 C18.48 0 36.96 0 56 0 C56 3.96 56 7.92 56 12 C41.81 12 27.62 12 13 12 C13 24.21 13 36.42 13 49 C26.2 49 39.4 49 53 49 C53 52.63 53 56.26 53 60 C39.8 60 26.6 60 13 60 C13 72.87 13 85.74 13 99 C28.18 99 43.36 99 59 99 C59 102.96 59 106.92 59 111 C39.53 111 20.06 111 0 111 C0 74.37 0 37.74 0 0 Z " fill="#FBFAFB" transform="translate(233,223)"/>
<path d="M0 0 C25.74 0 51.48 0 78 0 C78 3.96 78 7.92 78 12 C67.11 12 56.22 12 45 12 C45 44.67 45 77.34 45 111 C40.71 111 36.42 111 32 111 C32 78.33 32 45.66 32 12 C21.44 12 10.88 12 0 12 C0 8.04 0 4.08 0 0 Z " fill="#FAF8FB" transform="translate(304,223)"/>
<path d="M0 0 C2.31 0 4.62 0 7 0 C10.64027776 7.08669458 14.18936801 14.19621105 17.375 21.5 C17.85710937 22.6034375 18.33921875 23.706875 18.8359375 24.84375 C19.96983325 27.91820558 20.58005781 30.75765562 21 34 C21.66 34 22.32 34 23 34 C23.25007813 32.84242188 23.50015625 31.68484375 23.7578125 30.4921875 C24.8797332 26.01041991 26.71571587 22.18812615 28.875 18.125 C31.93752242 12.19932371 34.70754953 6.27407498 37 0 C39.31 0 41.62 0 44 0 C44 14.19 44 28.38 44 43 C42.35 43 40.7 43 39 43 C38.67 32.11 38.34 21.22 38 10 C36.06125 14.33125 34.1225 18.6625 32.125 23.125 C31.51672363 24.47996582 30.90844727 25.83493164 30.28173828 27.23095703 C29.79946777 28.31231934 29.31719727 29.39368164 28.8203125 30.5078125 C28.08192139 32.15740967 28.08192139 32.15740967 27.32861328 33.84033203 C26.05985666 36.85765069 24.99019849 39.88149107 24 43 C22.15234375 42.765625 22.15234375 42.765625 20 42 C18.69140625 40.171875 18.69140625 40.171875 17.5625 37.75 C17.14226562 36.84894531 16.72203125 35.94789063 16.2890625 35.01953125 C14.50776011 30.84696534 12.87591351 26.62834638 11.30859375 22.37109375 C9.68475138 18.18788191 7.82247709 14.10057345 6 10 C5.67 20.89 5.34 31.78 5 43 C3.35 43 1.7 43 0 43 C0 28.81 0 14.62 0 0 Z " fill="#F1EBF2" transform="translate(118,166)"/>
<path d="M0 0 C3.54273558 1.96684981 6.18131401 4.36262803 8 8 C9.04465723 21.35791213 9.04465723 21.35791213 6.3125 25.6875 C2.21236678 29.78763322 -1.11132009 31.44001359 -6.9375 31.5 C-10.85071494 31.40373395 -13.52642772 31.22885783 -16.625 28.75 C-21.29552421 23.3420246 -21.43486083 19.18472432 -21.31640625 12.140625 C-20.90715238 8.07840142 -19.84495138 5.92184195 -17 3 C-11.5836196 -0.83698989 -6.45230433 -1.08248699 0 0 Z " fill="#F2EDF4" transform="translate(254,178)"/>
<path d="M0 0 C4.02585249 1.8643708 6.35824537 4.93193542 8 9 C8.95767115 16.05652425 8.51706121 21.5973363 4.38671875 27.4765625 C2.18993554 29.88992997 0.50420991 30.94469492 -2.7421875 31.30078125 C-4.29292969 31.30658203 -4.29292969 31.30658203 -5.875 31.3125 C-6.90367187 31.32925781 -7.93234375 31.34601563 -8.9921875 31.36328125 C-13.59589189 30.80724942 -16.00677581 28.96937318 -19.27734375 25.77734375 C-22.58469271 20.44508726 -21.7813428 14.02560976 -21 8 C-16.9761239 -0.81566749 -8.52237339 -1.03650487 0 0 Z " fill="#F2EDF3" transform="translate(313,178)"/>
<path d="M0 0 C2.69244516 0.66130232 4.90608696 1.6113497 6.9296875 3.53515625 C9.44402937 8.11582998 8.83511932 13.49851511 8.00390625 18.4921875 C6.06640625 21.8046875 6.06640625 21.8046875 3.00390625 23.4921875 C-0.18985239 24.21987934 -2.80906613 24.27597729 -5.99609375 23.4921875 C-9.61995329 20.75580377 -10.67642253 19.27547737 -11.46875 14.85546875 C-11.7064855 10.3872605 -11.61785383 6.55897659 -8.99609375 2.8046875 C-5.8726777 0.3970543 -3.97018666 -0.37667805 0 0 Z " fill="#6B2F7D" transform="translate(248.99609375,181.5078125)"/>
<path d="M0 0 C2.8100346 1.79363911 4.50940468 3.01880935 6 6 C6.51124099 11.20460087 6.86132441 15.56445931 4.125 20.125 C0.79733455 23.0611754 -1.57535332 23.33336794 -6.02734375 23.29296875 C-8 23 -8 23 -10.4375 21.125 C-14.04659623 16.21662912 -13.67630059 10.90583423 -13 5 C-9.77942335 -0.23343706 -5.79966973 -1.300532 0 0 Z " fill="#6A2F7D" transform="translate(310,182)"/>
<path d="M0 0 C0.33 1.65 0.66 3.3 1 5 C-1.31 5.33 -3.62 5.66 -6 6 C-6.33 8.97 -6.66 11.94 -7 15 C-4.69 15 -2.38 15 0 15 C0 16.65 0 18.3 0 20 C-2.31 20 -4.62 20 -7 20 C-7 28.58 -7 37.16 -7 46 C-8.98 46 -10.96 46 -13 46 C-13 37.42 -13 28.84 -13 20 C-14.65 20 -16.3 20 -18 20 C-18 18.35 -18 16.7 -18 15 C-16.35 15 -14.7 15 -13 15 C-13.12375 13.824375 -13.2475 12.64875 -13.375 11.4375 C-13.36695605 6.92484586 -11.86533497 4.50280483 -8.80078125 1.27734375 C-5.91707485 -0.76814864 -3.3854337 -0.47396072 0 0 Z " fill="#E4D9E7" transform="translate(342,163)"/>
<path d="M0 0 C1.32 0 2.64 0 4 0 C4 2.64 4 5.28 4 8 C6.64 8 9.28 8 12 8 C12 9.65 12 11.3 12 13 C9.36 13 6.72 13 4 13 C4.33 19.6 4.66 26.2 5 33 C7.31 33.66 9.62 34.32 12 35 C12 36.32 12 37.64 12 39 C10.56344146 39.08131463 9.1255517 39.13933559 7.6875 39.1875 C6.48673828 39.23970703 6.48673828 39.23970703 5.26171875 39.29296875 C3 39 3 39 1.26953125 37.67578125 C-1.006713 34.67113884 -1.12076328 31.95983529 -1.09765625 28.33203125 C-1.09443359 27.43935547 -1.09121094 26.54667969 -1.08789062 25.62695312 C-1.07951172 24.69818359 -1.07113281 23.76941406 -1.0625 22.8125 C-1.05798828 21.87212891 -1.05347656 20.93175781 -1.04882812 19.96289062 C-1.03704626 17.64186288 -1.02059558 15.32096356 -1 13 C-2.65 13 -4.3 13 -6 13 C-6 11.35 -6 9.7 -6 8 C-4.35 8 -2.7 8 -1 8 C-1.020625 6.865625 -1.04125 5.73125 -1.0625 4.5625 C-1 1 -1 1 0 0 Z " fill="#F1ECF3" transform="translate(350,170)"/>
<path d="M0 0 C0.66 0.33 1.32 0.66 2 1 C2 2.32 2 3.64 2 5 C-1.3 5 -4.6 5 -8 5 C-8.33 6.65 -8.66 8.3 -9 10 C-8.09507812 10.58007812 -8.09507812 10.58007812 -7.171875 11.171875 C2.17490494 17.26235741 2.17490494 17.26235741 4 20 C4 23.8316925 3.66668907 26.10844193 1.35546875 29.19921875 C-1.79028794 31.60418365 -3.77281481 31.43962863 -7.6875 31.3125 C-8.84636719 31.28800781 -10.00523437 31.26351562 -11.19921875 31.23828125 C-14 31 -14 31 -15 30 C-15.04063832 28.33382885 -15.042721 26.66611905 -15 25 C-14.01 25.33 -13.02 25.66 -12 26 C-10.43881572 26.06740865 -8.8749748 26.08514456 -7.3125 26.0625 C-6.50425781 26.05347656 -5.69601562 26.04445312 -4.86328125 26.03515625 C-4.24839844 26.02355469 -3.63351562 26.01195312 -3 26 C-2.63954705 23.63172243 -2.63954705 23.63172243 -3 21 C-4.85029317 19.19825461 -4.85029317 19.19825461 -7.3125 17.875 C-12.97951515 14.49851754 -12.97951515 14.49851754 -15 12 C-15.63109197 7.74012918 -15.45683283 5.71570476 -13.125 2.0625 C-8.79361251 -0.79621574 -5.06037384 -0.62694897 0 0 Z " fill="#F1ECF3" transform="translate(283,178)"/>
<path d="M0 0 C1.09570312 0.00902344 2.19140625 0.01804688 3.3203125 0.02734375 C4.16335937 0.03894531 5.00640625 0.05054688 5.875 0.0625 C6.205 1.7125 6.535 3.3625 6.875 5.0625 C6.13894531 5.00449219 5.40289062 4.94648438 4.64453125 4.88671875 C-1.60550109 4.5967091 -1.60550109 4.5967091 -7.3125 6.875 C-10.00125441 11.60349913 -9.9288867 15.75366404 -9.125 21.0625 C-8.15105268 24.44700832 -8.15105268 24.44700832 -5.125 26.0625 C-1.09026594 26.459535 2.83557971 26.34830804 6.875 26.0625 C6.545 27.7125 6.215 29.3625 5.875 31.0625 C3.97989301 31.14410748 2.08375496 31.20196459 0.1875 31.25 C-1.39611328 31.30220703 -1.39611328 31.30220703 -3.01171875 31.35546875 C-7.70040071 30.91425025 -10.20954019 29.00270197 -13.4375 25.6875 C-16.00537374 20.17132678 -16.23570974 15.02984253 -15.125 9.0625 C-11.25930832 2.41551846 -7.57329237 -0.08056694 0 0 Z " fill="#F3EFF5" transform="translate(200.125,177.9375)"/>
<path d="M0 0 C3.69879153 1.16443437 5.24663599 1.8273867 7.375 5.0625 C8.07931054 9.28836325 7.78306635 12.03957097 5.3125 15.5 C2.375 18.0625 2.375 18.0625 -1.125 18.8125 C-4.86700707 18.01064134 -6.51139621 16.98556002 -8.734375 13.84375 C-10.33188161 10.64873678 -10.31817444 8.52837218 -9.625 5.0625 C-6.48302168 1.38408636 -4.88568266 0.08423591 0 0 Z " fill="#F8F5F8" transform="translate(91.625,317.9375)"/>
<path d="M0 0 C1.98 0 3.96 0 6 0 C6.33 0.99 6.66 1.98 7 3 C7.350625 2.505 7.70125 2.01 8.0625 1.5 C10.94374289 -0.73063966 13.47009026 -0.19980621 17 0 C17 1.65 17 3.3 17 5 C13.97265625 5.24414062 13.97265625 5.24414062 10.9453125 5.48828125 C8.60480784 5.87393036 8.60480784 5.87393036 7 9 C6.6336141 11.41713479 6.6336141 11.41713479 6.5859375 14.10546875 C6.54726562 15.08837891 6.50859375 16.07128906 6.46875 17.08398438 C6.42234375 18.62022461 6.42234375 18.62022461 6.375 20.1875 C6.33632812 21.22326172 6.29765625 22.25902344 6.2578125 23.32617188 C6.16351704 25.88393622 6.07791798 28.44169287 6 31 C4.02 31 2.04 31 0 31 C0 20.77 0 10.54 0 0 Z " fill="#E2D7E6" transform="translate(214,178)"/>
<path d="M0 0 C3.5 0.625 3.5 0.625 6.5 2.6875 C8.5 5.625 8.5 5.625 8.5625 9.1875 C7.39590149 12.9617893 6.82199976 14.49551297 3.5 16.625 C0.69302681 17.23596336 -1.69913769 17.28503927 -4.5 16.625 C-7.49097304 14.08267292 -8.34202557 12.4675303 -9.0625 8.625 C-8.05291578 3.24055083 -5.30860823 0.94796576 0 0 Z " fill="#9A72A7" transform="translate(373.5,171.375)"/>
<path d="M0 0 C1.65 0 3.3 0 5 0 C5 10.23 5 20.46 5 31 C3.35 31 1.7 31 0 31 C0 20.77 0 10.54 0 0 Z " fill="#EEE7F0" transform="translate(172,178)"/>
<path d="M0 0 C1.98 0 3.96 0 6 0 C6.97001682 3.39505887 7 6.47064557 7 10 C6.34 10 5.68 10 5 10 C4.34 9.01 3.68 8.02 3 7 C2.67 7.99 2.34 8.98 2 10 C1.34 10 0.68 10 0 10 C0 6.7 0 3.4 0 0 Z " fill="#DBCDDF" transform="translate(370,175)"/>
<path d="M0 0 C2.86724686 0.57344937 3.8614515 0.8614515 6 3 C6.125 6.125 6.125 6.125 6 9 C4.68 9 3.36 9 2 9 C2 6.66666667 2 4.33333333 2 2 C1.34 1.34 0.68 0.68 0 0 Z " fill="#703681" transform="translate(374,174)"/>
<path d="M0 0 C1.65 0 3.3 0 5 0 C5.33 1.65 5.66 3.3 6 5 C4.34385343 5.38218767 2.67542976 5.71395102 1 6 C0 5 0 5 -0.0625 2.4375 C-0.041875 1.633125 -0.02125 0.82875 0 0 Z " fill="#ECE5EE" transform="translate(172,165)"/>
<path d="M0 0 C1.98 0.495 1.98 0.495 4 1 C3.625 2.9375 3.625 2.9375 3 5 C2.01 5.495 2.01 5.495 1 6 C0.34 5.67 -0.32 5.34 -1 5 C-0.67 3.35 -0.34 1.7 0 0 Z " fill="#B091BA" transform="translate(373,175)"/>
</svg>
