<?xml version="1.0" encoding="UTF-8"?>
<svg version="1.1" xmlns="http://www.w3.org/2000/svg" width="750" height="750">
<path d="M0 0 C3.30670691 3.05615467 4.91716557 6.6695926 6.8125 10.6875 C9.70705512 16.62447349 12.6224452 22.00618749 17 27 C17.65484375 27.75023437 18.3096875 28.50046875 18.984375 29.2734375 C22.14668235 32.8282298 25.36089577 36.32681021 28.63671875 39.77734375 C65.67966695 79.14538427 83.51521242 131.90420562 82.14794922 185.41113281 C80.39792292 227.86226589 59.98964315 268.89407504 29.0793457 297.74584961 C18.94131033 307 18.94131033 307 16 307 C13.11557919 313.79899192 11.70202278 320.00911424 11.5859375 327.33984375 C11.56657135 328.10680069 11.5472052 328.87375763 11.5272522 329.66395569 C11.46797442 332.08836106 11.42128089 334.51281528 11.375 336.9375 C11.33677238 338.59181638 11.29771794 340.24611387 11.2578125 341.90039062 C11.16231637 345.93343844 11.07809693 349.96657927 11 354 C9.35 354 7.7 354 6 354 C6 353.34 6 352.68 6 352 C4.02 351.67 2.04 351.34 0 351 C-0.68722996 345.58806408 -1.0938868 340.39930219 -0.9375 334.9453125 C-0.91434461 332.78096515 -0.91434461 332.78096515 -2 330 C-2.15104313 328.29377207 -2.27270171 326.58484293 -2.375 324.875 C-3.04749645 315.80563763 -3.04749645 315.80563763 -7.75390625 308.40234375 C-9.46707407 307.21523958 -11.23067394 306.10165585 -13 305 C-13 304.34 -13 303.68 -13 303 C-13.56847656 302.75894531 -14.13695312 302.51789063 -14.72265625 302.26953125 C-17.44788908 300.75031912 -19.26690339 298.92581019 -21.4375 296.6875 C-22.22382812 295.88183594 -23.01015625 295.07617188 -23.8203125 294.24609375 C-24.53960937 293.50488281 -25.25890625 292.76367188 -26 292 C-26.928125 291.0925 -27.85625 290.185 -28.8125 289.25 C-31.05177397 286.94674677 -33.00233103 284.51319645 -35 282 C-35.66 281.34 -36.32 280.68 -37 280 C-49.84433502 267.15566498 -59.06935411 249.12942464 -65.9375 232.5625 C-66.32752197 231.62656006 -66.71754395 230.69062012 -67.11938477 229.72631836 C-68.70283995 225.79114813 -70.13027015 222.13159636 -70.62890625 217.90234375 C-70.75136719 216.94457031 -70.87382813 215.98679687 -71 215 C-71.66 214.67 -72.32 214.34 -73 214 C-74.00361499 210.4106825 -74.43276017 206.6804631 -75 203 C-75.17660156 201.95199219 -75.35320312 200.90398437 -75.53515625 199.82421875 C-76.9963866 190.61305561 -77.58247634 181.43257603 -77.92089844 172.12402344 C-77.98714837 170.34509007 -78.07322358 168.56690987 -78.1640625 166.7890625 C-78.38646242 159.57117433 -77.30475564 152.67304132 -76.06738281 145.58398438 C-75.38215806 141.64841797 -74.941085 138.00621987 -75 134 C-74.34561559 131.99594773 -73.67939174 129.99571323 -73 128 C-73 126.68 -73 125.36 -73 124 C-72.34 124 -71.68 124 -71 124 C-70.87625 122.88625 -70.7525 121.7725 -70.625 120.625 C-70.01542458 115.69539009 -69.02526315 110.85755745 -68 106 C-67.34 106 -66.68 106 -66 106 C-65.91105469 105.19820313 -65.82210937 104.39640625 -65.73046875 103.5703125 C-64.806262 99.0530667 -63.13695972 95.09506197 -61.3125 90.875 C-60.95526855 90.03694824 -60.59803711 89.19889648 -60.22998047 88.33544922 C-57.75816974 82.59585833 -55.11827689 76.98641885 -52.2265625 71.4453125 C-50.94872685 69.00915082 -50.94872685 69.00915082 -50.0234375 66.3671875 C-48.95261575 63.8904013 -47.92339312 62.83853754 -46 61 C-44.80624802 59.22626474 -43.64315165 57.43176087 -42.5 55.625 C-37.87276369 48.58614697 -32.53602469 42.33401024 -27 36 C-26.34773438 35.22398437 -25.69546875 34.44796875 -25.0234375 33.6484375 C-20.60594653 28.42409886 -15.73629121 23.86019534 -10.30078125 19.69921875 C-3.42705096 14.38376485 -1.41717563 8.22334809 0 0 Z " fill="#4DA83F" transform="translate(97,313)"/>
<path d="M0 0 C18.89007695 -0.04688091 37.78014198 -0.08206726 56.6702652 -0.10362434 C65.44279433 -0.11390314 74.21528715 -0.12789791 82.98779297 -0.15087891 C90.64077547 -0.17091744 98.29373166 -0.18374107 105.94673967 -0.18817699 C109.99269911 -0.19076679 114.0385833 -0.19678168 118.08451843 -0.21146011 C121.90612813 -0.22521011 125.72763282 -0.22918817 129.54926491 -0.22621536 C131.59301226 -0.22701314 133.63674865 -0.23768234 135.6804657 -0.24884033 C148.06563142 -0.22179167 160.46098006 0.88104009 172.4375 4.1875 C173.22334473 4.40108154 174.00918945 4.61466309 174.81884766 4.8347168 C205.52413924 13.51925936 230.13347171 32.66027836 246.18823242 60.25952148 C263.62665976 91.72367635 265.52670715 131.46485443 256.30664062 165.7890625 C250.28611937 186.68046117 240.20530971 203.64603503 225 219 C224.32453125 219.73605469 223.6490625 220.47210937 222.953125 221.23046875 C207.20878982 238.08498141 183.75722778 249.49412028 161.6953125 255.2734375 C159.05630221 255.88893074 159.05630221 255.88893074 157 257 C156.01 256.67 155.02 256.34 154 256 C153.67 256.66 153.34 257.32 153 258 C150.26171875 258.59765625 150.26171875 258.59765625 146.6875 259.0625 C145.42808594 259.2275 144.16867187 259.3925 142.87109375 259.5625 C138.36219011 260.07208346 133.85573658 260.45731137 129.328125 260.75390625 C126.97837668 260.8646806 126.97837668 260.8646806 125 262 C123.65138838 262.08982173 122.29836945 262.11751197 120.94677734 262.11303711 C120.08855377 262.11211563 119.2303302 262.11119415 118.34609985 262.11024475 C116.91794449 262.10014626 116.91794449 262.10014626 115.4609375 262.08984375 C114.45058441 262.08605209 113.44023132 262.08226044 112.39926147 262.07835388 C99.27371839 262.01270594 86.14902734 261.82427672 73.02490234 261.62768555 C70.10956184 261.58406691 67.19420491 261.54239769 64.27880859 261.50268555 C43.17758901 261.21505232 22.09152469 260.70483313 1 260 C0.03003632 255.80387192 0.15004879 253.46207855 1.625 249.375 C1.94726562 248.43398438 2.26953125 247.49296875 2.6015625 246.5234375 C4.33493797 243.39561472 5.75718398 242.46043369 9 241 C11.83203125 240.41015625 11.83203125 240.41015625 14.8125 240.0625 C20.00603587 239.2748244 24.83514129 238.38873019 29 235 C30.53146378 231.99405579 30.53146378 231.99405579 31 229 C31.33 228.34 31.66 227.68 32 227 C33.1751755 216.2139987 33.14419775 205.36232214 33.12939453 194.52734375 C33.13075335 192.83207665 33.13253596 191.13680984 33.13470459 189.44154358 C33.139219 184.88631449 33.13751506 180.33110834 33.1343255 175.77587891 C33.13177398 170.98925724 33.13414686 166.20263738 33.13571167 161.41601562 C33.13752386 153.39045869 33.13515062 145.364911 33.13037109 137.33935547 C33.12491544 128.07164683 33.12670439 118.80396014 33.1321975 109.53625202 C33.13673807 101.554588 33.13737499 93.57293058 33.13475883 85.59126568 C33.13320317 80.83434883 33.1329831 76.0774423 33.13629532 71.32052612 C33.13918826 66.85527455 33.13717218 62.3900513 33.13140106 57.92480278 C33.13008174 56.2893726 33.13045349 54.65394003 33.13266373 53.01851082 C33.13540747 50.78183986 33.13195503 48.54525901 33.12698364 46.30859375 C33.12660662 45.05876709 33.12622959 43.80894043 33.12584114 42.52124023 C32.89197536 35.9772946 32.5313846 30.9734709 28 26 C20.76760649 22.08226738 12.91877939 20.89109429 4.875 19.75 C3.72773438 19.57726562 2.58046875 19.40453125 1.3984375 19.2265625 C-1.39962373 18.80685331 -4.19881805 18.39824804 -7 18 C-6.7757789 12.95502529 -5.43029692 9.6578623 -2.9453125 5.23828125 C-2.39633301 4.25512939 -1.84735352 3.27197754 -1.28173828 2.2590332 C-0.85876465 1.51355225 -0.43579102 0.76807129 0 0 Z M78 23.625 C75.67871737 29.13804624 75.87412663 35.59205223 75.86628723 41.48699951 C75.86402167 42.19590623 75.86175612 42.90481295 75.85942191 43.63520169 C75.85314239 45.9869614 75.85390735 48.33866258 75.85473633 50.69042969 C75.85174104 52.38640415 75.84833766 54.08237793 75.84455872 55.77835083 C75.83575171 60.36944916 75.83338198 64.96052883 75.83274293 69.55163479 C75.8320305 72.4249001 75.82989252 75.29816072 75.82724571 78.17142487 C75.81800288 88.20933837 75.81390945 98.24723863 75.81469727 108.28515625 C75.81529762 117.61909637 75.80475135 126.95297861 75.7889536 136.2869041 C75.77584639 144.31946099 75.77051471 152.35199905 75.77115268 160.38456655 C75.77140675 165.17362204 75.76860594 169.96262607 75.75797462 174.75167084 C75.74824008 179.25954726 75.74825092 183.7673236 75.75549126 188.2752037 C75.7565305 189.92143018 75.75421384 191.56766307 75.7481308 193.21387863 C75.35739616 213.49931655 75.35739616 213.49931655 84.625 230.75 C100.35098685 242.26435892 125.11698771 241.52321532 143.5625 238.9375 C163.86446986 235.64506621 182.31553326 224.08687697 194.59375 207.59375 C202.47158029 196.5314532 208.57642742 184.43981158 211 171 C211.32661621 170.2061792 211.65323242 169.4123584 211.98974609 168.59448242 C222.48012152 141.6536367 216.48517323 103.36920021 205.59375 77.68359375 C200.24545401 66.28875201 192.80722848 55.02409603 183 47 C182.34 47 181.68 47 181 47 C180.71382812 46.16082031 180.71382812 46.16082031 180.421875 45.3046875 C178.37967978 41.99453591 175.44749008 40.20736541 172.25 38.125 C171.5796875 37.68591309 170.909375 37.24682617 170.21875 36.79443359 C157.27564124 28.5377277 142.15510841 23.06506402 126.7578125 22.17578125 C125 22 125 22 124 21 C116.56178628 19.74995455 108.95630779 19.8170376 101.4375 19.8125 C100.36564453 19.80025391 99.29378906 19.78800781 98.18945312 19.77539062 C87.48822932 19.52382917 87.48822932 19.52382917 78 23.625 Z " fill="#93785C" transform="translate(208,371)"/>
<path d="M0 0 C1.04684967 -0.00426498 2.09369934 -0.00852997 3.17227173 -0.01292419 C4.33108353 -0.01247101 5.48989532 -0.01201782 6.68382263 -0.0115509 C7.89697144 -0.01490952 9.11012024 -0.01826813 10.36003113 -0.02172852 C13.70186776 -0.02963018 17.04364225 -0.03290817 20.38548398 -0.0335443 C22.47865073 -0.03425471 24.57181098 -0.03638913 26.66497612 -0.03904152 C33.98425076 -0.04831336 41.30350716 -0.05237525 48.62278748 -0.05158997 C55.41340864 -0.05099284 62.20394941 -0.06146745 68.99455029 -0.07733363 C74.84106043 -0.09049994 80.68754466 -0.09576989 86.53406948 -0.09513456 C90.01774246 -0.09488166 93.50134447 -0.09761423 96.98500252 -0.10831261 C125.61211259 -0.19011505 153.87806418 0.44731922 175.79100037 21.53215027 C187.85835446 34.75066643 189.82027331 50.71467123 189.2978363 67.82609558 C189.04145188 72.31377248 188.0579119 76.0775691 186.16600037 80.13371277 C185.76381287 81.00769714 185.36162537 81.88168152 184.94725037 82.78215027 C180.98620066 90.63823219 175.51882204 100.49229671 167.16600037 104.13371277 C166.29975037 104.83496277 165.43350037 105.53621277 164.54100037 106.25871277 C162.16600037 108.13371277 162.16600037 108.13371277 160.16600037 108.13371277 C159.83600037 108.79371277 159.50600037 109.45371277 159.16600037 110.13371277 C156.85634189 111.1872412 154.52302297 112.19090373 152.16600037 113.13371277 C153.26557068 113.49722839 154.36514099 113.86074402 155.49803162 114.23527527 C175.50548891 120.98076319 193.02742279 130.85231078 203.16600037 150.13371277 C203.75381287 151.23006042 203.75381287 151.23006042 204.35350037 152.34855652 C212.0670272 168.03083717 210.28491935 187.2639769 205.09959412 203.46574402 C202.39676067 210.41461284 198.63508329 216.20120219 194.16600037 222.13371277 C193.50600037 223.12371277 192.84600037 224.11371277 192.16600037 225.13371277 C191.50600037 225.13371277 190.84600037 225.13371277 190.16600037 225.13371277 C189.89787537 225.77308777 189.62975037 226.41246277 189.35350037 227.07121277 C188.16600037 229.13371277 188.16600037 229.13371277 185.16600037 230.13371277 C185.16600037 230.79371277 185.16600037 231.45371277 185.16600037 232.13371277 C183.13874611 233.79624362 181.12073626 235.31896005 178.97850037 236.82121277 C178.35298279 237.2638446 177.72746521 237.70647644 177.08299255 238.16252136 C161.28288978 249.13371277 161.28288978 249.13371277 156.16600037 249.13371277 C155.83600037 249.79371277 155.50600037 250.45371277 155.16600037 251.13371277 C153.20506287 251.98527527 153.20506287 251.98527527 150.79100037 252.75871277 C149.99951599 253.01910339 149.20803162 253.27949402 148.39256287 253.54777527 C146.16600037 254.13371277 146.16600037 254.13371277 143.16600037 254.13371277 C142.83600037 254.79371277 142.50600037 255.45371277 142.16600037 256.13371277 C93.54945459 269.03095186 38.90592558 261.61655633 -10.83399963 260.13371277 C-11.59223221 256.68458833 -11.95015639 254.50891734 -10.83399963 251.13371277 C-10.6496637 250.38992371 -10.46532776 249.64613464 -10.27540588 248.87980652 C-9.14476992 245.91000271 -8.20162498 244.29887103 -5.83399963 242.13371277 C-0.75308058 240.38342514 4.75919232 240.0834214 10.06687927 239.43742371 C14.26316413 238.83028503 17.78798351 237.70532481 21.16600037 235.13371277 C23.82909277 229.44347256 24.66494844 224.50126255 24.84066772 218.27255249 C24.87365398 217.44729858 24.90664024 216.62204466 24.94062608 215.77178305 C25.25981113 207.15439746 25.34012354 198.53469619 25.37132263 189.91227722 C25.38093837 188.1853565 25.39095036 186.45843795 25.40132141 184.73152161 C25.42797729 180.11090741 25.44919549 175.4902834 25.4693234 170.86963677 C25.49143033 166.01568405 25.51869626 161.16176014 25.54537964 156.30783081 C25.59497689 147.14636872 25.64003574 137.98489034 25.683402 128.82339686 C25.73305911 118.38057237 25.78787015 107.93777683 25.84308159 97.49498045 C25.95639447 76.04125162 26.06334068 54.58749505 26.16600037 33.13371277 C25.17600037 32.63871277 25.17600037 32.63871277 24.16600037 32.13371277 C24.01131287 30.98902527 24.01131287 30.98902527 23.85350037 29.82121277 C22.90051252 26.09589665 21.35059437 25.23835099 18.16600037 23.13371277 C15.60115959 22.42440946 13.27332341 21.90426551 10.66600037 21.50871277 C9.97055115 21.39100525 9.27510193 21.27329773 8.55857849 21.15202332 C6.42999023 20.79620757 4.29889118 20.46264885 2.16600037 20.13371277 C0.86662537 19.92617371 -0.43274963 19.71863464 -1.77149963 19.50480652 C-4.79022647 19.03147545 -7.81027718 18.57380936 -10.83399963 18.13371277 C-11.56395039 11.4181658 -9.1901575 6.87769443 -5.83399963 1.13371277 C-4.18505881 -0.51522806 -2.27150335 0.00416105 0 0 Z M69.16600037 23.13371277 C68.00445504 26.61834874 67.95410598 29.47971077 67.84959412 33.15715027 C67.8287677 33.87503723 67.80794128 34.59292419 67.78648376 35.33256531 C67.71974099 37.72449919 67.66107797 40.11654171 67.60350037 42.50871277 C67.58232147 43.32841553 67.56114258 44.14811829 67.5393219 44.99266052 C66.99492497 66.37022378 67.06981553 87.75108324 67.16600037 109.13371277 C71.7956874 110.2978114 76.27695022 110.29520567 81.01756287 110.30168152 C82.29958084 110.30667412 82.29958084 110.30667412 83.60749817 110.31176758 C85.41459111 110.31682015 87.22169334 110.31917642 89.02879333 110.3190155 C91.76088855 110.32118882 94.49257094 110.33932578 97.22459412 110.35832214 C117.7075513 110.50524351 117.7075513 110.50524351 135.42771912 101.15715027 C143.91473588 92.27794235 147.25918295 80.97570501 147.13084412 68.79777527 C146.92274846 65.55148307 146.59450356 62.35788731 146.16600037 59.13371277 C146.01324646 57.92908386 146.01324646 57.92908386 145.85740662 56.70011902 C144.27157885 47.52847596 139.33267767 39.02631411 132.16600037 33.13371277 C131.17600037 33.13371277 130.18600037 33.13371277 129.16600037 33.13371277 C129.16600037 32.47371277 129.16600037 31.81371277 129.16600037 31.13371277 C122.66087044 27.63201517 116.3545262 24.87374928 109.16600037 23.13371277 C108.34486755 22.92746277 107.52373474 22.72121277 106.67771912 22.50871277 C99.56133713 21.02570408 92.4697378 20.92602619 85.22850037 20.88371277 C84.22085632 20.87444763 83.21321228 20.8651825 82.17503357 20.8556366 C81.21427917 20.85974548 80.25352478 20.86385437 79.26365662 20.86808777 C77.97213684 20.87147156 77.97213684 20.87147156 76.65452576 20.87492371 C73.80840306 21.17090036 71.70289533 21.80992338 69.16600037 23.13371277 Z M67.16600037 132.13371277 C67.14264677 141.11462725 67.12496957 150.095531 67.11418819 159.07646942 C67.10900906 163.24839362 67.1020038 167.42029677 67.09056091 171.59220886 C67.07955276 175.63172609 67.07368631 179.6712233 67.07112312 183.71075439 C67.06930069 185.23821324 67.06574366 186.76567121 67.06027031 188.29312134 C66.2934171 212.42174492 66.2934171 212.42174492 76.21287537 233.62590027 C81.42551036 237.65005449 87.95541568 238.67672114 94.35350037 239.32121277 C95.09398621 239.39944275 95.83447205 239.47767273 96.59739685 239.55827332 C115.51544926 241.4290653 133.72537685 239.8601478 148.97850037 227.50871277 C160.12821539 216.80337044 164.20904555 202.16900029 164.66600037 187.13371277 C164.17628597 171.03632665 159.31334784 157.8204356 147.74412537 146.27824402 C146.0861543 144.84016332 146.0861543 144.84016332 143.16600037 145.13371277 C143.16600037 144.47371277 143.16600037 143.81371277 143.16600037 143.13371277 C124.59346675 131.98392867 105.11574896 130.0019302 83.85350037 129.88371277 C82.66595154 129.87436707 81.47840271 129.86502136 80.25486755 129.85539246 C79.13628357 129.85958191 78.01769958 129.86377136 76.86521912 129.86808777 C75.86321472 129.87034363 74.86121033 129.87259949 73.82884216 129.87492371 C71.09510463 130.14060279 69.55296699 130.85295664 67.16600037 132.13371277 Z " fill="#93795D" transform="translate(503.83399963378906,370.8662872314453)"/>
<path d="M0 0 C1.72237589 2.58356384 3.08543615 5.16267689 4.46069336 7.93701172 C9.86074327 18.65073233 16.90426192 27.08779378 25.5 35.4375 C53.61579126 62.95188396 70.13532698 102.10981648 78 140 C78.14550293 140.69899414 78.29100586 141.39798828 78.44091797 142.11816406 C86.28414773 182.42799033 76.68732835 228.22700151 54.11181641 262.359375 C43.94486804 277.36198655 31.31699973 293.86569199 16 304 C12.6907884 304 11.38419626 303.34926933 8.9375 301.125 C-1.63148111 284.07825628 0.74049487 261.4611315 1.82226562 242.25097656 C2.66276649 226.87719973 3.08020181 211.49758587 3.0546875 196.1015625 C3.05411283 195.36835596 3.05353817 194.63514942 3.05294609 193.8797245 C3.03170013 169.73444978 2.82988501 145.58938851 2.64418191 121.44491678 C2.63873811 120.73694923 2.63329431 120.02898167 2.62768555 119.29956055 C2.62223215 118.59050676 2.61677875 117.88145297 2.6111601 117.1509127 C2.56723528 111.39934117 2.52722817 105.64774697 2.48800808 99.89614171 C2.44914293 94.22701576 2.40720749 88.55791725 2.36312145 82.88882953 C2.33724128 79.55334682 2.31283418 76.2178729 2.29092598 72.88236046 C2.1291401 48.59263855 1.84573442 24.23017314 0 0 Z " fill="#429934" transform="translate(99,316)"/>
<path d="M0 0 C0 4.95 0 9.9 0 15 C3.37197291 13.11796861 6.67277949 11.21491737 9.90234375 9.09375 C20.32640055 2.32127188 30.76249165 -2.59589682 43.35546875 -0.6328125 C52.32104206 1.39660409 58.78426171 7.63759129 64 15 C67.74505049 13.63755332 70.82382902 11.90963151 74.125 9.6875 C84.8070908 2.77725258 96.61416064 -3.14933534 109.5859375 -0.46484375 C118.98991002 2.11913068 125.31773299 7.10796249 131 15 C139.57446688 31.39236315 137.14365768 51.8567278 136.80810547 69.67773438 C136.74790277 73.10028154 136.71226257 76.52240715 136.6796875 79.9453125 C136.65276825 80.99631134 136.625849 82.04731018 136.59811401 83.13015747 C136.46062953 88.72623086 136.46062953 88.72623086 138.81787109 93.62548828 C141.71981023 95.45340474 144.39399935 96.07879987 147.75 96.75 C149.50570312 97.11351562 149.50570312 97.11351562 151.296875 97.484375 C152.18890625 97.65453125 153.0809375 97.8246875 154 98 C154.125 104.625 154.125 104.625 153 108 C135.18 108 117.36 108 99 108 C98 100 98 100 99 98 C102.33241108 96.89367535 105.70296958 96.00800708 109.09375 95.09765625 C110.0528125 94.73542969 111.011875 94.37320313 112 94 C113.00685387 90.97943839 113.15372686 88.86445386 113.20532227 85.70239258 C113.22526749 84.62149857 113.24521271 83.54060455 113.26576233 82.42695618 C113.28247482 81.26125595 113.29918732 80.09555573 113.31640625 78.89453125 C113.3475779 77.10301888 113.3475779 77.10301888 113.37937927 75.27531433 C113.44484276 71.45443557 113.5037451 67.63348724 113.5625 63.8125 C113.60568824 61.22460214 113.64930263 58.63671135 113.69335938 56.04882812 C113.80052092 49.69929261 113.9022934 43.34968766 114 37 C113.34 36.67 112.68 36.34 112 36 C111.814375 34.6696875 111.814375 34.6696875 111.625 33.3125 C110.48218109 27.2555598 106.99995706 23.42102325 102 20 C101.34 20 100.68 20 100 20 C100 19.34 100 18.68 100 18 C89.6746107 17.4573518 81.26711233 18.17770005 72.31640625 23.63671875 C70 25 70 25 68 25 C68.03029297 25.58861816 68.06058594 26.17723633 68.09179688 26.78369141 C68.65600522 38.19589023 69.04886944 49.585714 68.99609375 61.01171875 C68.99079147 62.28952209 68.99079147 62.28952209 68.98538208 63.59313965 C68.96440104 67.85032814 68.92818144 72.10686556 68.875 76.36376953 C68.86305708 77.94693843 68.85132859 79.53010896 68.83984375 81.11328125 C68.82634384 81.836259 68.81284393 82.55923676 68.79893494 83.30412292 C68.77919708 87.30876472 69.09203206 90.4445076 71 94 C72.97334221 95.20432327 72.97334221 95.20432327 75.3125 95.75 C76.11171875 95.97816406 76.9109375 96.20632813 77.734375 96.44140625 C80.14680703 97.03619553 82.54613831 97.60421586 85 98 C85.125 105.75 85.125 105.75 84 108 C66.18 108 48.36 108 30 108 C29 101 29 101 30 98 C32.87109375 97.15625 32.87109375 97.15625 36.4375 96.5 C39.92686655 95.91253063 39.92686655 95.91253063 43 95 C47.17665231 88.73502153 46.15791823 79.75649844 46.16796875 72.40625 C46.17129715 71.53407837 46.17462555 70.66190674 46.17805481 69.76330566 C46.18307621 67.93481975 46.18546463 66.10632483 46.18530273 64.27783203 C46.18749472 61.50668087 46.20571675 58.7359251 46.22460938 55.96484375 C46.22754338 54.17448051 46.22952813 52.3841154 46.23046875 50.59375 C46.24124702 49.37298767 46.24124702 49.37298767 46.25224304 48.12756348 C46.21982211 39.82568336 45.03423735 32.33497701 41 25 C41 24.34 41 23.68 41 23 C40.34 23 39.68 23 39 23 C38.443125 22.38125 37.88625 21.7625 37.3125 21.125 C33.5485625 17.66624662 29.56710403 17.0854784 24.5625 16.8125 C20.62815863 17.0195706 16.88489331 17.33019081 13 18 C12.67 18.66 12.34 19.32 12 20 C10.36408573 20.91168139 8.69109879 21.7577868 7 22.5625 C3.77672865 23.95256517 3.77672865 23.95256517 1 26 C0.89534676 28.03939464 0.86143961 30.08244466 0.85473633 32.12451172 C0.84835648 33.43612274 0.84197662 34.74773376 0.83540344 36.09909058 C0.83387473 37.54262251 0.83276079 38.98615494 0.83203125 40.4296875 C0.82882009 41.90080804 0.82545613 43.37192825 0.82194519 44.8430481 C0.81594684 47.9316685 0.81410597 51.0202609 0.81469727 54.10888672 C0.81479883 58.06913976 0.8011562 62.02921326 0.78392506 65.98942375 C0.77281178 69.02972236 0.77077786 72.0699775 0.77130699 75.11029434 C0.77012549 76.57035057 0.76569419 78.03040788 0.75797462 79.49044418 C0.74819062 81.53250578 0.75231291 83.57461975 0.75708008 85.61669922 C0.75565506 86.77950409 0.75423004 87.94230896 0.75276184 89.14035034 C0.78640044 92.20065037 0.78640044 92.20065037 3 95 C6.10176346 96.0241328 6.10176346 96.0241328 9.625 96.6875 C10.81351563 96.93886719 12.00203125 97.19023437 13.2265625 97.44921875 C14.14179687 97.63097656 15.05703125 97.81273437 16 98 C16.125 105.75 16.125 105.75 15 108 C-2.82 108 -20.64 108 -39 108 C-40 101 -40 101 -39 98 C-35.69594524 97.06947029 -32.38415367 96.53137259 -29.00390625 95.94140625 C-25.91600724 95.31414206 -25.91600724 95.31414206 -24.65234375 93.02734375 C-24.43707031 92.35832031 -24.22179687 91.68929687 -24 91 C-23.67 90.34 -23.34 89.68 -23 89 C-22.86751094 86.96456437 -22.79888074 84.92486128 -22.75952148 82.88549805 C-22.72090248 80.95790901 -22.72090248 80.95790901 -22.6815033 78.99137878 C-22.59207672 73.11206877 -22.5314516 67.23257495 -22.48510742 61.3527832 C-22.45834534 58.24724321 -22.40959761 55.14323479 -22.34155273 52.03833008 C-22.25957839 48.28812899 -22.21692242 44.53938793 -22.20204353 40.78833961 C-22.18979969 39.36045769 -22.16377389 37.93262376 -22.12359428 36.50525475 C-21.60346408 28.73319766 -21.60346408 28.73319766 -24.73208618 22.03318787 C-26.79485102 20.7155259 -28.69802456 19.81528915 -31 19 C-31.9796875 18.55011719 -32.959375 18.10023438 -33.96875 17.63671875 C-34.8040625 17.32347656 -35.639375 17.01023438 -36.5 16.6875 C-37.3559375 16.36136719 -38.211875 16.03523438 -39.09375 15.69921875 C-39.7228125 15.46847656 -40.351875 15.23773438 -41 15 C-41 13.35 -41 11.7 -41 10 C-33.6822733 7.39635217 -26.30061607 5.58692573 -18.72851562 3.89453125 C-14.52785234 2.92963859 -10.53861583 1.89104869 -6.53515625 0.28125 C-3 -1 -3 -1 0 0 Z " fill="#4A3427" transform="translate(64,189)"/>
<path d="M0 0 C7.77254822 2.70893101 17.47353415 3.69160052 25.25 0.4375 C26.178125 -0.09875 27.10625 -0.635 28.0625 -1.1875 C28.866875 -1.579375 29.67125 -1.97125 30.5 -2.375 C31.015625 -2.643125 31.53125 -2.91125 32.0625 -3.1875 C33.31897663 3.09488314 33.28928347 8.10960839 30.0625 13.8125 C24.48321018 18.57814339 19.16927745 18.27514736 12.0625 17.8125 C12.30033203 18.555 12.30033203 18.555 12.54296875 19.3125 C14.65046245 29.45382306 14.02010077 41.65798852 9.0625 50.8125 C6.31502694 54.43281648 3.32066668 57.65033823 0.0625 60.8125 C-0.38867188 61.32683594 -0.83984375 61.84117187 -1.3046875 62.37109375 C-9.27938607 69.41095924 -21.8566435 73.53363665 -32.3125 74.25 C-35.54966844 74.51509096 -36.80386175 74.72858761 -39.625 76.5 C-41.39601591 79.62036137 -40.86053401 81.42804195 -39.9375 84.8125 C-30.72404299 87.24368401 -21.3405762 87.72313846 -11.87475586 88.41430664 C15.02359771 90.40840884 15.02359771 90.40840884 24.75 100.4375 C29.89460176 106.62014779 31.39818305 112.84883901 31 120.8125 C29.48850693 133.37075622 22.83411328 144.80973763 13.0625 152.8125 C-3.84184493 165.25926607 -23.87426527 171.4861486 -44.9375 168.8125 C-50.82427703 167.4163723 -56.39095235 165.19872281 -61.9375 162.8125 C-61.9375 162.1525 -61.9375 161.4925 -61.9375 160.8125 C-62.5253125 160.54695312 -63.113125 160.28140625 -63.71875 160.0078125 C-70.28387559 156.47096667 -74.17694973 150.54824265 -76.9375 143.8125 C-77.5871875 142.2965625 -77.5871875 142.2965625 -78.25 140.75 C-79.66415733 134.7076914 -77.9068149 130.05828966 -74.9375 124.8125 C-72.59765625 122.14453125 -72.59765625 122.14453125 -70 119.625 C-69.14535156 118.78582031 -68.29070312 117.94664062 -67.41015625 117.08203125 C-61.66899742 111.8125 -61.66899742 111.8125 -58.9375 111.8125 C-58.9375 111.1525 -58.9375 110.4925 -58.9375 109.8125 C-54.55288462 106.8125 -54.55288462 106.8125 -51.9375 106.8125 C-51.9375 106.1525 -51.9375 105.4925 -51.9375 104.8125 C-52.80375 104.585625 -53.67 104.35875 -54.5625 104.125 C-61.09236258 101.585609 -64.25942931 97.92749239 -67.37109375 91.875 C-68.16604338 88.98028685 -68.07291716 87.62093715 -66.9375 84.8125 C-64.62877087 82.97660794 -62.50923626 81.49459959 -60 80 C-59.35353516 79.59330078 -58.70707031 79.18660156 -58.04101562 78.76757812 C-53.25825893 75.8125 -53.25825893 75.8125 -50.9375 75.8125 C-50.9375 75.1525 -50.9375 74.4925 -50.9375 73.8125 C-50.2775 73.8125 -49.6175 73.8125 -48.9375 73.8125 C-48.9375 73.1525 -48.9375 72.4925 -48.9375 71.8125 C-49.65679688 71.70550781 -50.37609375 71.59851563 -51.1171875 71.48828125 C-54.19182591 70.75156041 -56.36181405 69.63114824 -59.0625 68 C-59.91070313 67.49855469 -60.75890625 66.99710937 -61.6328125 66.48046875 C-63.97985078 64.78184952 -65.41483741 63.26567862 -66.9375 60.8125 C-66.9375 60.1525 -66.9375 59.4925 -66.9375 58.8125 C-67.5975 58.8125 -68.2575 58.8125 -68.9375 58.8125 C-74.19705484 45.06252091 -76.2323915 32.77817891 -70.3125 18.75 C-69.85875 17.780625 -69.405 16.81125 -68.9375 15.8125 C-68.2775 15.8125 -67.6175 15.8125 -66.9375 15.8125 C-66.68871094 15.23371094 -66.43992187 14.65492188 -66.18359375 14.05859375 C-60.76191004 4.28596637 -49.43376331 0.06106378 -39.32641602 -2.95385742 C-25.43857019 -6.84064725 -13.44404677 -5.08449144 0 0 Z M-47.1875 13.25 C-52.2656942 20.68592722 -52.62439853 29.7245135 -51.3125 38.4375 C-49.54808166 46.53512856 -46.38599652 53.59283813 -39.68359375 58.6953125 C-34.46703122 62.0329789 -28.97581252 62.50755756 -22.9375 61.8125 C-17.710521 59.90264229 -13.77973177 57.00324543 -10.9609375 52.12109375 C-7.10196691 42.90644903 -7.50667641 30.04271314 -10.4375 20.625 C-13.05110354 14.57929785 -17.42774884 10.54405498 -23.2890625 7.65234375 C-32.57783845 4.70678795 -40.62209512 6.13747804 -47.1875 13.25 Z M-54.6875 120.9375 C-57.55425876 125.23763814 -57.50295174 129.83652473 -56.9375 134.8125 C-55.06756509 141.03059681 -51.29720871 145.2778193 -45.9375 148.8125 C-34.17617576 155.12689878 -19.04597296 156.07897401 -6.25 152.25 C0.17308169 149.66280066 5.10554638 146.39573087 8.47265625 140.23046875 C10.91965931 134.29959693 11.81736972 129.05340992 10.0625 122.8125 C9.43069077 121.46230027 8.77221755 120.12342457 8.0625 118.8125 C7.4025 118.8125 6.7425 118.8125 6.0625 118.8125 C5.82273437 118.19632813 5.58296875 117.58015625 5.3359375 116.9453125 C2.60372466 112.36927504 -3.61194854 111.44544826 -8.4921875 110.1171875 C-15.31986958 108.71207032 -22.23861837 108.51991213 -29.1875 108.375 C-30.58983887 108.32327637 -30.58983887 108.32327637 -32.02050781 108.27050781 C-42.28674166 108.20842102 -48.30614995 113.1887178 -54.6875 120.9375 Z " fill="#4B3427" transform="translate(575.9375,193.1875)"/>
<path d="M0 0 C9.40243628 8.71346466 12.46982396 20.02999145 13.17321777 32.50073242 C13.5000204 42.36377225 13.4829747 52.2341561 13.51123047 62.1015625 C13.52684839 65.87258174 13.55978768 69.6431713 13.59375 73.4140625 C13.59072876 74.57645447 13.58770752 75.73884644 13.58459473 76.9364624 C13.59470581 78.00898254 13.60481689 79.08150269 13.61523438 80.18652344 C13.61728882 81.12945251 13.61934326 82.07238159 13.62145996 83.04388428 C14.07208281 85.88399983 14.70832605 86.74159198 17 88.4296875 C20.18049951 89.442794 20.18049951 89.442794 23.6875 90.1171875 C24.86699219 90.36855469 26.04648437 90.61992187 27.26171875 90.87890625 C28.16535156 91.06066406 29.06898438 91.24242187 30 91.4296875 C31.20577428 96.37336204 30.6290678 99.63831162 29 104.4296875 C27.86691406 104.3575 26.73382813 104.2853125 25.56640625 104.2109375 C12.28731349 103.44177201 -0.94433627 103.35440789 -14.23999023 103.46679688 C-14.94488083 103.47102661 -15.64977142 103.47525635 -16.37602234 103.47961426 C-18.31418682 103.49152568 -20.25231294 103.50926337 -22.19042969 103.52734375 C-25 103.4296875 -25 103.4296875 -26 102.4296875 C-26.09823937 100.76539699 -26.12973631 99.09686819 -26.125 97.4296875 C-26.12886719 96.0684375 -26.12886719 96.0684375 -26.1328125 94.6796875 C-26 92.4296875 -26 92.4296875 -25 91.4296875 C-22.81980521 91.03302523 -20.6303537 90.68653513 -18.4375 90.3671875 C-16.64119141 90.10228516 -16.64119141 90.10228516 -14.80859375 89.83203125 C-13.88175781 89.69925781 -12.95492187 89.56648438 -12 89.4296875 C-11.9301819 81.89255152 -11.87702838 74.3554495 -11.84456348 66.81806278 C-11.82897401 63.31731219 -11.80786059 59.81678448 -11.77368164 56.31616211 C-11.73454795 52.28236879 -11.72023538 48.24880594 -11.70703125 44.21484375 C-11.69154739 42.97074234 -11.67606354 41.72664093 -11.66011047 40.44483948 C-11.65882848 33.76566724 -11.82056953 27.45726988 -15 21.4296875 C-17.53099205 19.01824269 -17.53099205 19.01824269 -20 17.4296875 C-20 16.7696875 -20 16.1096875 -20 15.4296875 C-28.46877373 12.18245831 -38.20646339 11.92739506 -46.6875 15.3046875 C-48.13988916 15.98196742 -49.57930665 16.68822087 -51 17.4296875 C-51.72832031 17.72101563 -52.45664062 18.01234375 -53.20703125 18.3125 C-55.14316223 19.25878287 -55.14316223 19.25878287 -55.60397339 21.15975952 C-56.05912381 23.76857074 -56.12718931 26.21646632 -56.12939453 28.86572266 C-56.13412277 30.49859726 -56.13412277 30.49859726 -56.13894653 32.16445923 C-56.1369223 33.33737518 -56.13489807 34.51029114 -56.1328125 35.71875 C-56.13376923 36.93235199 -56.13472595 38.14595398 -56.13571167 39.39633179 C-56.1363924 41.96685844 -56.13454559 44.53738681 -56.13037109 47.10791016 C-56.12504912 51.01859469 -56.13030537 54.92916292 -56.13671875 58.83984375 C-56.13605741 61.34114608 -56.13477508 63.84244835 -56.1328125 66.34375 C-56.13483673 67.50452057 -56.13686096 68.66529114 -56.13894653 69.86123657 C-56.12020562 76.44576269 -55.81002061 82.89351977 -55 89.4296875 C-54.00097656 89.56246094 -53.00195312 89.69523437 -51.97265625 89.83203125 C-50.68230469 90.00863281 -49.39195312 90.18523437 -48.0625 90.3671875 C-46.77472656 90.54121094 -45.48695313 90.71523438 -44.16015625 90.89453125 C-41 91.4296875 -41 91.4296875 -40 92.4296875 C-39.90176004 93.90617626 -39.87026481 95.38744167 -39.875 96.8671875 C-39.87113281 98.07181641 -39.87113281 98.07181641 -39.8671875 99.30078125 C-40 101.4296875 -40 101.4296875 -41 103.4296875 C-48.81452752 103.45495313 -56.62904458 103.47251855 -64.44360352 103.48461914 C-67.10441481 103.48966133 -69.76522332 103.49649486 -72.42602539 103.50512695 C-76.24105516 103.51719759 -80.05604844 103.52291679 -83.87109375 103.52734375 C-85.66793861 103.53508568 -85.66793861 103.53508568 -87.50108337 103.54298401 C-89.15268211 103.54309731 -89.15268211 103.54309731 -90.83764648 103.54321289 C-91.81249496 103.5454335 -92.78734344 103.54765411 -93.79173279 103.54994202 C-96 103.4296875 -96 103.4296875 -97 102.4296875 C-97.07205511 100.74359784 -97.08386068 99.05468091 -97.0625 97.3671875 C-97.05347656 96.44808594 -97.04445313 95.52898437 -97.03515625 94.58203125 C-97.02355469 93.87175781 -97.01195312 93.16148437 -97 92.4296875 C-95.989375 92.1409375 -94.97875 91.8521875 -93.9375 91.5546875 C-93.30457031 91.37035156 -92.67164063 91.18601562 -92.01953125 90.99609375 C-90.06708212 90.44850163 -88.09592408 89.96902397 -86.125 89.4921875 C-85.09375 89.1415625 -84.0625 88.7909375 -83 88.4296875 C-81.70403224 84.54178422 -81.63265432 80.74382709 -81.4453125 76.68359375 C-81.40326691 75.80200089 -81.36122131 74.92040802 -81.31790161 74.01210022 C-80.89984949 64.43828697 -80.84859009 54.86842785 -80.86962891 45.28686523 C-80.87510459 42.3103349 -80.8695818 39.33394835 -80.86328125 36.35742188 C-80.86394028 34.45312467 -80.86521778 32.54882755 -80.8671875 30.64453125 C-80.86516327 29.76030991 -80.86313904 28.87608856 -80.86105347 27.96507263 C-80.86420563 27.14893997 -80.86735779 26.33280731 -80.87060547 25.49194336 C-80.87140106 24.77727402 -80.87219666 24.06260468 -80.87301636 23.32627869 C-80.9350259 21.20436737 -80.9350259 21.20436737 -82 18.4296875 C-84.92079805 16.35438363 -86.37546731 15.4296875 -90 15.4296875 C-90 14.7696875 -90 14.1096875 -90 13.4296875 C-90.721875 13.3265625 -91.44375 13.2234375 -92.1875 13.1171875 C-95.35761946 12.34226941 -97.44663103 11.47238268 -100 9.4296875 C-100.5 6.8671875 -100.5 6.8671875 -100 4.4296875 C-96.83651118 2.32069495 -94.76912949 1.79557061 -91.08203125 1.02734375 C-89.90962891 0.77662109 -88.73722656 0.52589844 -87.52929688 0.26757812 C-85.68948242 -0.11624023 -85.68948242 -0.11624023 -83.8125 -0.5078125 C-74.46650923 -2.34724562 -74.46650923 -2.34724562 -65.44921875 -5.32421875 C-62 -6.5703125 -62 -6.5703125 -57 -5.5703125 C-56.505 1.3596875 -56.505 1.3596875 -56 8.4296875 C-55.17757812 7.83800781 -54.35515625 7.24632812 -53.5078125 6.63671875 C-36.90780128 -5.17367454 -18.44029466 -14.4785126 0 0 Z " fill="#4B3427" transform="translate(459,194.5703125)"/>
<path d="M0 0 C10.85701456 8.94970119 15.51823542 20.33813788 18.3125 33.84375 C19.61225536 51.3904474 17.0343083 67.85487126 5.25 81.53125 C-5.76750143 92.96968587 -18.42941017 99.76556605 -34.4375 101.21875 C-35.14648438 101.28964844 -35.85546875 101.36054688 -36.5859375 101.43359375 C-50.20847049 102.08601391 -63.15511797 98.70829205 -73.34375 89.62890625 C-78.25323603 85.00594736 -82.71292453 80.44635107 -85.4375 74.21875 C-85.4375 73.22875 -85.4375 72.23875 -85.4375 71.21875 C-86.0975 70.88875 -86.7575 70.55875 -87.4375 70.21875 C-88.25390625 67.7421875 -88.25390625 67.7421875 -89 64.59375 C-89.24878906 63.57023437 -89.49757813 62.54671875 -89.75390625 61.4921875 C-92.62381237 47.74943705 -92.69163532 35.28023499 -87.4375 22.21875 C-87.07852174 20.89209123 -86.73464875 19.56061121 -86.4375 18.21875 C-85.7775 18.21875 -85.1175 18.21875 -84.4375 18.21875 C-84.18871094 17.49429688 -83.93992187 16.76984375 -83.68359375 16.0234375 C-78.62950451 4.64777582 -66.97421705 -2.09537243 -55.9375 -6.59375 C-36.55566885 -13.55015693 -16.90804436 -12.35587857 0 0 Z M-59.6875 9.28125 C-68.49489228 20.46447834 -68.33011328 35.60028712 -66.75 49.03125 C-64.79091292 61.63516686 -60.0934129 73.77229228 -50.125 82.09375 C-42.83184591 87.35018715 -35.39041928 89.28732424 -26.4375 88.21875 C-21.35820001 86.99332448 -17.17271284 84.95396284 -13.4375 81.21875 C-13.4375 80.22875 -13.4375 79.23875 -13.4375 78.21875 C-12.7775 78.21875 -12.1175 78.21875 -11.4375 78.21875 C-10.78615075 76.65854133 -10.14167036 75.09546421 -9.5 73.53125 C-9.14035156 72.66113281 -8.78070312 71.79101562 -8.41015625 70.89453125 C-3.37687211 57.04794636 -4.99022256 37.67868937 -10.4375 24.21875 C-12.15576398 20.66557748 -13.90342251 17.25964298 -16.4375 14.21875 C-17.4275 13.88875 -18.4175 13.55875 -19.4375 13.21875 C-19.4375 12.55875 -19.4375 11.89875 -19.4375 11.21875 C-20.0975 11.21875 -20.7575 11.21875 -21.4375 11.21875 C-21.68628906 10.60386719 -21.93507813 9.98898438 -22.19140625 9.35546875 C-23.66180611 6.83412479 -24.75126453 6.22829877 -27.375 5.03125 C-28.06464844 4.70769531 -28.75429688 4.38414062 -29.46484375 4.05078125 C-40.01346847 -0.39844066 -51.70354991 1.06015287 -59.6875 9.28125 Z " fill="#4B3427" transform="translate(710.4375,198.78125)"/>
<path d="M0 0 C11.2340613 8.94326577 18.14852978 20.63519639 20.39453125 34.90625 C21.58956493 53.54137862 18.97608427 69.85601728 6.68359375 84.51953125 C-4.39805634 96.07394799 -20.67397446 102.80930375 -36.66796875 103.21875 C-44.80594538 102.94041529 -52.85860091 101.3711625 -60.60546875 98.90625 C-60.60546875 98.24625 -60.60546875 97.58625 -60.60546875 96.90625 C-61.49363281 96.65746094 -62.38179688 96.40867187 -63.296875 96.15234375 C-72.67359495 92.62085182 -79.22378979 83.58803412 -83.60546875 74.90625 C-89.67953269 59.77664562 -91.91087634 40.37907823 -86.0546875 24.82421875 C-78.97758285 10.57463069 -68.55761462 0.70857526 -53.60546875 -5.09375 C-35.49105136 -10.90628833 -16.10410084 -11.39600539 0 0 Z M-54.60546875 8.90625 C-55.15589844 9.37933594 -55.70632813 9.85242188 -56.2734375 10.33984375 C-64.1963276 18.18448308 -65.00492787 29.24061634 -65.10546875 39.78125 C-64.95975191 55.14136619 -61.5183889 69.83663517 -50.73046875 81.34375 C-43.58657794 88.02232991 -36.12962006 90.29939735 -26.4921875 90.18359375 C-20.45565411 89.60362911 -16.14328559 87.37571943 -11.79296875 83.21875 C-2.47949125 69.11548407 -2.14474254 52.91862653 -5.25 36.72363281 C-6.41516661 31.16481712 -8.17827396 26.03169686 -10.60546875 20.90625 C-11.26546875 20.90625 -11.92546875 20.90625 -12.60546875 20.90625 C-12.74984375 20.2875 -12.89421875 19.66875 -13.04296875 19.03125 C-13.536991 16.87366678 -13.536991 16.87366678 -14.60546875 14.90625 C-15.26546875 14.90625 -15.92546875 14.90625 -16.60546875 14.90625 C-16.60546875 14.24625 -16.60546875 13.58625 -16.60546875 12.90625 C-17.26546875 12.90625 -17.92546875 12.90625 -18.60546875 12.90625 C-18.60546875 12.24625 -18.60546875 11.58625 -18.60546875 10.90625 C-20.75011661 9.34336967 -20.75011661 9.34336967 -23.41796875 7.84375 C-24.31128906 7.31652344 -25.20460938 6.78929687 -26.125 6.24609375 C-34.86623954 1.52444783 -47.2657856 2.05704687 -54.60546875 8.90625 Z " fill="#4B3427" transform="translate(323.60546875,197.09375)"/>
<path d="M0 0 C0.33 0 0.66 0 1 0 C1.14695312 1.97419922 1.14695312 1.97419922 1.296875 3.98828125 C2.37327117 21.37775064 2.37327117 21.37775064 11 36 C11.66 36.33 12.32 36.66 13 37 C12.566875 38.0209375 12.566875 38.0209375 12.125 39.0625 C9.75308718 45.25582792 8.68994668 50.77171389 8.5859375 57.33984375 C8.56657135 58.10680069 8.5472052 58.87375763 8.5272522 59.66395569 C8.46797442 62.08836106 8.42128089 64.51281528 8.375 66.9375 C8.33677238 68.59181638 8.29771794 70.24611387 8.2578125 71.90039062 C8.16231637 75.93343844 8.07809693 79.96657927 8 84 C6.35 84 4.7 84 3 84 C3 83.34 3 82.68 3 82 C1.02 81.67 -0.96 81.34 -3 81 C-3.68722996 75.58806408 -4.0938868 70.39930219 -3.9375 64.9453125 C-3.91434461 62.78096515 -3.91434461 62.78096515 -5 60 C-5.19887925 58.19075124 -5.36209601 56.37741502 -5.5 54.5625 C-5.7914861 50.69053579 -5.7914861 50.69053579 -6.546875 46.89453125 C-7.85686182 41.41743117 -5.81559324 35.10586044 -4.5625 29.75 C-2.93020519 22.4962411 -2.24131672 15.24941649 -1.64672852 7.84472656 C-1.57510498 6.97170898 -1.50348145 6.09869141 -1.4296875 5.19921875 C-1.37022949 4.41377686 -1.31077148 3.62833496 -1.24951172 2.8190918 C-1 1 -1 1 0 0 Z " fill="#9F9E87" transform="translate(100,583)"/>
<path d="M0 0 C0.33 0 0.66 0 1 0 C1.14695312 1.97419922 1.14695312 1.97419922 1.296875 3.98828125 C2.08399067 13.55469398 3.00183572 22.15557599 7 31 C8.32365626 34.97096878 7.24318252 37.06325535 6 41 C5.835 41.763125 5.67 42.52625 5.5 43.3125 C5 45 5 45 3 47 C2.54188325 48.97235333 2.54188325 48.97235333 2.375 51.125 C2.25125 52.40375 2.1275 53.6825 2 55 C0.02 55.495 0.02 55.495 -2 56 C-2.33 58.31 -2.66 60.62 -3 63 C-5.16816982 59.74774526 -5.31995904 58.36574864 -5.5625 54.5625 C-5.81028864 50.69030654 -5.81028864 50.69030654 -6.54296875 46.89453125 C-7.86294053 41.42285338 -5.8147341 35.10218838 -4.5625 29.75 C-2.93020519 22.4962411 -2.24131672 15.24941649 -1.64672852 7.84472656 C-1.57510498 6.97170898 -1.50348145 6.09869141 -1.4296875 5.19921875 C-1.37022949 4.41377686 -1.31077148 3.62833496 -1.24951172 2.8190918 C-1 1 -1 1 0 0 Z " fill="#A4A985" transform="translate(100,583)"/>
<path d="M0 0 C0.33 0 0.66 0 1 0 C1.33 11.88 1.66 23.76 2 36 C0.35 36 -1.3 36 -3 36 C-3 35.34 -3 34.68 -3 34 C-4.65 33.67 -6.3 33.34 -8 33 C-8 28.05 -8 23.1 -8 18 C-7.34 18.33 -6.68 18.66 -6 19 C-3.86902904 12.70018779 -1.75019778 6.41739187 0 0 Z " fill="#D1CFB9" transform="translate(106,631)"/>
<path d="M0 0 C3.12267307 2.55491433 4.17079051 5.0801006 5 9 C4.1875 12.625 4.1875 12.625 3 16 C2.835 16.763125 2.67 17.52625 2.5 18.3125 C2 20 2 20 0 22 C-0.45811675 23.97235333 -0.45811675 23.97235333 -0.625 26.125 C-0.74875 27.40375 -0.8725 28.6825 -1 30 C-2.32 30.33 -3.64 30.66 -5 31 C-5.33 33.31 -5.66 35.62 -6 38 C-8.49118953 34.2632157 -8.2065226 32.25548181 -8.125 27.8125 C-8.10695313 26.54019531 -8.08890625 25.26789062 -8.0703125 23.95703125 C-8.04710938 22.98121094 -8.02390625 22.00539063 -8 21 C-7.01 21 -6.02 21 -5 21 C-4.67 20.34 -4.34 19.68 -4 19 C-4.33 18.01 -4.66 17.02 -5 16 C-4.34 15.01 -3.68 14.02 -3 13 C-2.65977214 11.00116131 -2.32670903 9.00109278 -2 7 C-1.34870203 5.65909241 -0.68486725 4.32407669 0 3 C0 2.01 0 1.02 0 0 Z " fill="#AFAE91" transform="translate(103,608)"/>
<path d="M0 0 C0.33 0 0.66 0 1 0 C1.33 8.91 1.66 17.82 2 27 C0.35 27 -1.3 27 -3 27 C-3.66 25.68 -4.32 24.36 -5 23 C-4.34 23 -3.68 23 -3 23 C-1.52474645 17.51351987 -1.04057274 13.63663517 -2 8 C-1.52386399 5.24843505 -0.78770854 2.68747621 0 0 Z " fill="#DBD7C7" transform="translate(106,640)"/>
<path d="M0 0 C0.66 0.33 1.32 0.66 2 1 C-1.96 4.96 -5.92 8.92 -10 13 C-10 8.83248505 -7.76127698 6.85829482 -5 4 C-3.36927384 2.62294236 -1.7133562 1.27277889 0 0 Z " fill="#412F23" transform="translate(255,200)"/>
<path d="M0 0 C0.66 0 1.32 0 2 0 C1.67 4.95 1.34 9.9 1 15 C0.34 15 -0.32 15 -1 15 C-2.27835522 10.65359226 -1.5168072 8.19352578 0 4 C0 2.68 0 1.36 0 0 Z " fill="#366A28" transform="translate(24,437)"/>
<path d="M0 0 C0.66 0.33 1.32 0.66 2 1 C2.29296875 7.0546875 2.29296875 7.0546875 2 9 C1.01 9.66 0.02 10.32 -1 11 C-0.67 7.37 -0.34 3.74 0 0 Z " fill="#509040" transform="translate(97,313)"/>
<path d="M0 0 C0.33 0 0.66 0 1 0 C1 4.62 1 9.24 1 14 C-2.125 7.75 -2.125 7.75 -1.0625 3.875 C-0.86785156 3.15054688 -0.67320313 2.42609375 -0.47265625 1.6796875 C-0.31667969 1.12539063 -0.16070312 0.57109375 0 0 Z " fill="#E2E0CC" transform="translate(106,640)"/>
<path d="" fill="#74634F" transform="translate(0,0)"/>
<path d="" fill="#74634F" transform="translate(0,0)"/>
<path d="" fill="#74634F" transform="translate(0,0)"/>
</svg>
