<?xml version="1.0" encoding="UTF-8"?>
<!-- Generator: visioncortex VTracer 0.6.3 -->
<svg version="1.1" xmlns="http://www.w3.org/2000/svg" width="512" height="512">
<path d="M0 0 C2.59 -0.02 5.19 -0.04 7.78 -0.08 C32.76 -0.45 55.42 3.43 79.06 11.35 C79.86 11.61 80.65 11.87 81.46 12.14 C94.03 16.32 105.55 21.83 117.06 28.35 C117.77 28.75 118.47 29.14 119.19 29.55 C126.41 33.64 133.26 37.95 139.62 43.33 C141.67 45.02 143.74 46.59 145.88 48.16 C150.04 51.27 153.85 54.66 157.63 58.23 C158.31 58.87 158.99 59.51 159.69 60.17 C164.65 64.9 169.47 69.75 174.19 74.73 C175.09 75.67 175.09 75.67 176.02 76.63 C179.7 80.58 182.75 84.7 185.68 89.23 C188.2 93.08 191.09 96.64 193.92 100.26 C195.95 103.19 197.48 106.05 199.02 109.25 C200.08 111.38 201.25 113.39 202.48 115.42 C214.76 136.03 222.64 159.8 227.06 183.35 C227.23 184.25 227.4 185.14 227.58 186.07 C228.08 189.42 228.22 192.61 228.26 196 C228.27 197.31 228.29 198.61 228.31 199.96 C228.32 201.38 228.33 202.8 228.34 204.22 C228.35 205.31 228.35 205.31 228.35 206.42 C228.38 210.29 228.4 214.15 228.42 218.02 C228.43 221.17 228.46 224.32 228.5 227.46 C228.73 245.99 228.32 263.4 223.06 281.35 C222.72 282.58 222.37 283.82 222.02 285.09 C221.15 288 220.2 290.86 219.19 293.73 C218.85 294.72 218.51 295.71 218.15 296.73 C217.15 299.61 216.11 302.48 215.06 305.35 C214.63 306.55 214.63 306.55 214.18 307.78 C210.25 318.41 205.07 327.93 199.14 337.57 C197.8 339.79 196.58 342.06 195.38 344.35 C193.26 348.21 190.7 351.55 187.94 354.97 C185.94 357.51 184.1 360.14 182.25 362.79 C178.72 367.69 174.77 371.83 170.43 376.02 C168.38 378.04 166.53 380.09 164.69 382.29 C156.2 392.19 145.9 400.2 135.06 407.35 C133.44 408.49 131.81 409.64 130.19 410.79 C121.54 416.83 112.64 421.78 103.13 426.35 C101.26 427.26 99.39 428.18 97.53 429.1 C77.14 438.68 54.35 444.5 32.06 447.35 C30.92 447.5 30.92 447.5 29.76 447.65 C-0.26 451.15 -29.94 447.12 -58.94 439.35 C-59.7 439.15 -60.47 438.94 -61.27 438.73 C-83.95 432.61 -106.05 421.24 -124.94 407.35 C-125.55 407.72 -126.16 408.08 -126.79 408.46 C-134.85 413.23 -143.04 417.72 -151.28 422.17 C-152.2 422.67 -153.11 423.17 -154.06 423.68 C-154.88 424.12 -155.69 424.56 -156.54 425.02 C-158.26 425.97 -159.95 426.98 -161.61 428.02 C-163.94 429.35 -163.94 429.35 -165.94 429.35 C-165.77 430.08 -165.61 430.82 -165.45 431.57 C-162.7 444.13 -159.98 456.68 -157.75 469.35 C-156.01 484.03 -156.01 484.03 -148.94 496.35 C-149.93 496.68 -150.92 497.01 -151.94 497.35 C-151.61 499.66 -151.28 501.97 -150.94 504.35 C-154.72 503.81 -156.49 502.23 -158.94 499.35 C-158.94 498.69 -158.94 498.03 -158.94 497.35 C-160.61 497.62 -160.61 497.62 -162.32 497.9 C-174.83 499.93 -187.36 501.65 -199.93 503.27 C-201.98 503.53 -204.03 503.8 -206.09 504.06 C-210.35 504.61 -214.61 505.16 -218.87 505.7 C-224.3 506.4 -229.73 507.1 -235.17 507.81 C-239.39 508.36 -243.61 508.9 -247.83 509.44 C-249.83 509.7 -251.84 509.96 -253.84 510.22 C-273.79 512.83 -273.79 512.83 -283.94 512.35 C-284.12 507.63 -284.12 507.63 -282.43 505.1 C-281.75 504.38 -281.07 503.66 -280.37 502.91 C-279.64 502.13 -278.91 501.35 -278.15 500.55 C-275.75 498.17 -273.26 496.01 -270.65 493.87 C-268.74 492.18 -267.14 490.36 -265.5 488.41 C-262.56 484.95 -259.38 482.07 -255.91 479.14 C-253.21 476.69 -250.93 473.96 -248.58 471.17 C-246.76 469.15 -244.72 467.56 -242.59 465.88 C-240.34 463.79 -238.53 461.44 -236.62 459.04 C-233.08 454.6 -229.37 450.91 -225.06 447.25 C-222.32 444.8 -220.04 442.08 -217.68 439.28 C-215.29 436.64 -212.61 434.43 -209.9 432.13 C-207.92 430.33 -206.22 428.45 -204.5 426.41 C-201.99 423.45 -199.37 420.89 -196.44 418.35 C-192.89 415.28 -189.84 412.06 -186.81 408.48 C-183.83 405.09 -180.57 401.98 -177.35 398.8 C-175.22 396.63 -173.22 394.42 -171.25 392.1 C-168.56 388.94 -165.69 386.32 -162.42 383.77 C-160.67 382.09 -159.8 380.61 -158.94 378.35 C-159.44 375.67 -159.44 375.67 -160.94 373.35 C-161.52 373.1 -162.1 372.84 -162.7 372.58 C-165.92 370.81 -167.81 368.1 -170 365.23 C-170.71 364.3 -170.71 364.3 -171.44 363.35 C-180.41 351.58 -188.26 339.61 -194.89 326.37 C-195.85 324.51 -196.88 322.7 -197.92 320.88 C-224.3 274.06 -225.15 212.1 -211.11 161.62 C-207.36 148.73 -202.92 136.37 -196.94 124.35 C-196.62 123.7 -196.3 123.05 -195.97 122.38 C-188.09 106.52 -177.93 90.4 -165.94 77.35 C-165.28 77.35 -164.62 77.35 -163.94 77.35 C-163.56 76.51 -163.56 76.51 -163.19 75.64 C-158.57 67.18 -150.11 60.59 -142.94 54.35 C-141.85 53.37 -141.85 53.37 -140.74 52.37 C-136.97 49 -133.19 46.1 -128.94 43.35 C-127.27 42.1 -125.6 40.85 -123.94 39.6 C-118.65 35.73 -113.13 32.47 -107.42 29.3 C-103.3 26.99 -99.26 24.55 -95.24 22.09 C-65.74 6.57 -32.94 0.15 0 0 Z " fill="#F15C27" transform="translate(283.93505859375,-0.35009765625)"/>
<path d="M0 0 C10.1 8.21 14.44 18.6 16.57 31.2 C16.84 32.74 16.84 32.74 17.11 34.32 C19.1 46.94 16.24 61.79 8.82 72.32 C7.44 73.98 6.02 75.61 4.57 77.2 C3.88 78 3.18 78.81 2.47 79.64 C-5.48 88.36 -18.64 95.4 -30.62 96.37 C-43.44 96.7 -53.82 96.15 -65.43 90.2 C-65.34 91.96 -65.34 91.96 -65.25 93.76 C-65.35 107.42 -70.15 119.42 -75.42 131.77 C-76.1 133.4 -76.76 135.05 -77.38 136.7 C-79.67 142.75 -82.53 148.03 -86.06 153.45 C-86.59 154.27 -87.11 155.09 -87.66 155.93 C-95.07 167.37 -102.93 178.08 -111.88 188.35 C-113.03 189.72 -114.15 191.1 -115.25 192.51 C-121.44 200.32 -128.26 207.33 -135.33 214.35 C-137.31 216.32 -139.27 218.3 -141.24 220.28 C-147.64 226.68 -154.07 232.81 -161.19 238.42 C-163.28 240.07 -165.27 241.79 -167.25 243.57 C-188.29 262.11 -211.97 278.02 -235.6 293.03 C-239.14 295.28 -242.66 297.55 -246.18 299.82 C-246.86 300.25 -247.53 300.68 -248.22 301.13 C-251.95 303.53 -255.58 306.02 -259.18 308.61 C-264.78 312.55 -270.7 315.75 -276.75 318.95 C-278.85 320.06 -280.95 321.18 -283.05 322.3 C-284.42 323.03 -284.42 323.03 -285.82 323.77 C-287.63 324.76 -289.4 325.79 -291.15 326.88 C-293.43 328.2 -293.43 328.2 -295.43 328.2 C-295.27 328.93 -295.11 329.66 -294.95 330.42 C-292.2 342.98 -289.48 355.53 -287.25 368.2 C-285.5 382.88 -285.5 382.88 -278.43 395.2 C-279.42 395.53 -280.41 395.86 -281.43 396.2 C-281.1 398.51 -280.77 400.82 -280.43 403.2 C-284.22 402.65 -285.99 401.08 -288.43 398.2 C-288.43 397.54 -288.43 396.88 -288.43 396.2 C-290.11 396.47 -290.11 396.47 -291.82 396.75 C-304.33 398.77 -316.86 400.5 -329.43 402.11 C-331.48 402.38 -333.53 402.64 -335.58 402.91 C-339.85 403.46 -344.11 404 -348.37 404.55 C-353.8 405.24 -359.23 405.95 -364.66 406.66 C-368.89 407.21 -373.11 407.75 -377.33 408.29 C-379.33 408.54 -381.34 408.8 -383.34 409.06 C-403.29 411.67 -403.29 411.67 -413.43 411.2 C-413.62 406.48 -413.62 406.48 -411.93 403.95 C-411.25 403.23 -410.57 402.5 -409.87 401.76 C-409.14 400.98 -408.41 400.2 -407.65 399.39 C-405.25 397.02 -402.75 394.86 -400.14 392.72 C-398.24 391.02 -396.64 389.2 -395 387.26 C-392.06 383.79 -388.88 380.91 -385.41 377.98 C-382.71 375.54 -380.43 372.8 -378.07 370.02 C-376.26 368 -374.22 366.4 -372.09 364.73 C-369.83 362.64 -368.03 360.29 -366.12 357.88 C-362.58 353.45 -358.87 349.76 -354.55 346.09 C-351.82 343.65 -349.54 340.93 -347.18 338.13 C-344.79 335.49 -342.11 333.27 -339.4 330.97 C-337.42 329.18 -335.72 327.3 -334 325.26 C-331.49 322.3 -328.87 319.73 -325.93 317.2 C-322.39 314.12 -319.34 310.91 -316.31 307.33 C-313.32 303.94 -310.07 300.82 -306.85 297.65 C-304.71 295.48 -302.72 293.26 -300.75 290.95 C-298.04 287.78 -295.14 285.14 -291.93 282.5 C-290.29 281.16 -290.29 281.16 -288.81 279.01 C-287.43 277.2 -287.43 277.2 -285.14 275.86 C-282.27 274.1 -280.18 272.19 -277.82 269.81 C-276.96 268.95 -276.11 268.1 -275.23 267.21 C-274.35 266.32 -273.47 265.43 -272.56 264.51 C-271.69 263.63 -270.81 262.76 -269.91 261.86 C-266.21 258.13 -262.58 254.39 -259.15 250.41 C-255.32 246 -251.24 241.87 -247.09 237.76 C-246.33 236.99 -245.56 236.23 -244.77 235.44 C-242.35 233.02 -239.92 230.61 -237.5 228.2 C-235.84 226.55 -234.19 224.9 -232.53 223.25 C-228.5 219.23 -224.47 215.21 -220.43 211.2 C-229.39 212.29 -238.33 213.41 -247.25 214.76 C-248.1 214.88 -248.96 215.01 -249.84 215.14 C-251.07 215.32 -251.07 215.32 -252.33 215.51 C-253.05 215.62 -253.77 215.73 -254.51 215.84 C-256.64 216.19 -256.64 216.19 -259.43 217.2 C-261.47 217.47 -263.52 217.7 -265.56 217.91 C-266.76 218.04 -267.96 218.17 -269.2 218.3 C-271.73 218.56 -274.27 218.83 -276.81 219.09 C-278.6 219.28 -278.6 219.28 -280.44 219.48 C-281.54 219.59 -282.64 219.7 -283.78 219.82 C-286.4 220.05 -286.4 220.05 -288.43 221.2 C-290.77 221.24 -293.1 221.24 -295.43 221.2 C-290.6 215.36 -285.37 210.03 -279.98 204.71 C-278.12 202.87 -276.27 201.03 -274.42 199.19 C-271.52 196.32 -268.63 193.45 -265.73 190.58 C-262.91 187.8 -260.1 185 -257.29 182.21 C-256.44 181.37 -255.58 180.53 -254.7 179.67 C-248.84 173.83 -243.59 167.66 -238.43 161.2 C-236.52 158.89 -234.58 156.6 -232.62 154.32 C-231.87 153.44 -231.87 153.44 -231.1 152.55 C-226.18 146.85 -221.08 141.31 -215.93 135.81 C-214.42 134.19 -212.93 132.55 -211.43 130.91 C-202.16 120.76 -192.85 110.89 -182.06 102.33 C-179.52 100.27 -177.14 98.11 -174.75 95.88 C-163.09 85.33 -150.23 76.68 -136.43 69.2 C-135.47 68.67 -134.51 68.15 -133.52 67.61 C-119.74 60.75 -105.55 59.56 -90.43 60.2 C-90.76 59.12 -90.76 59.12 -91.09 58.03 C-95.44 42.47 -94.25 27.79 -86.48 13.56 C-78.54 0.51 -65.93 -9.28 -51.16 -13.45 C-31.19 -16.07 -16.19 -12.01 0 0 Z " fill="#FBF8F6" transform="translate(413.43359375,100.8046875)"/>
<path d="M0 0 C0.69 -0.01 1.37 -0.02 2.08 -0.03 C6.05 -0 9.28 0.25 12.75 2.25 C13.88 4.33 13.88 4.33 14.75 6.25 C14.26 6.73 13.78 7.22 13.28 7.71 C8.2 12.77 3.12 17.84 -1.96 22.9 C-3.85 24.79 -5.74 26.67 -7.63 28.56 C-10.36 31.27 -13.09 34 -15.82 36.72 C-16.66 37.55 -17.49 38.39 -18.36 39.24 C-19.16 40.05 -19.96 40.85 -20.78 41.67 C-21.48 42.36 -22.17 43.06 -22.89 43.77 C-24.85 45.83 -26.72 47.93 -28.58 50.08 C-32.05 54.07 -35.7 57.83 -39.45 61.55 C-40.13 62.23 -40.82 62.91 -41.52 63.61 C-42.99 65.08 -44.46 66.54 -45.93 68 C-48.26 70.32 -50.59 72.64 -52.91 74.96 C-58.69 80.73 -64.48 86.49 -70.26 92.25 C-75.16 97.13 -80.06 102.01 -84.95 106.9 C-87.24 109.18 -89.52 111.45 -91.81 113.72 C-93.22 115.13 -94.64 116.54 -96.05 117.95 C-96.68 118.57 -97.3 119.2 -97.95 119.84 C-102.25 124.14 -106.29 128.63 -110.25 133.25 C-114.06 130.07 -117.71 126.85 -121.19 123.31 C-123.83 120.63 -126.52 118.08 -129.38 115.62 C-130.67 114.5 -131.96 113.38 -133.25 112.25 C-133.87 111.71 -134.48 111.17 -135.12 110.62 C-136.81 109.06 -136.81 109.06 -139.25 106.25 C-139.05 102.41 -136.81 100.38 -134.25 97.69 C-131.07 94.26 -128.03 90.79 -125.12 87.12 C-115.96 75.85 -105.65 65.56 -95.43 55.26 C-94.04 53.86 -92.66 52.45 -91.28 51.05 C-85.98 45.75 -80.51 40.86 -74.65 36.17 C-71.99 34.04 -69.44 31.81 -66.88 29.56 C-61.34 24.94 -55.49 20.88 -49.5 16.88 C-48.61 16.28 -47.73 15.68 -46.81 15.07 C-37.22 8.74 -28.39 5.17 -17.25 2.25 C-16.48 2.02 -15.71 1.79 -14.91 1.55 C-9.98 0.21 -5.09 0.05 0 0 Z " fill="#F79328" transform="translate(315.25,167.75)"/>
<path d="M0 0 C2.36 2.07 2.36 2.07 4.75 4.56 C5.95 5.8 5.95 5.8 7.17 7.07 C7.78 7.7 8.38 8.34 9 9 C7.46 13.05 4.92 14.88 1.5 17.44 C0.92 17.87 0.34 18.31 -0.25 18.75 C-1.52 19.69 -2.78 20.63 -4.05 21.56 C-5.94 22.96 -7.82 24.36 -9.7 25.77 C-19.77 33.23 -30.15 40.22 -40.56 47.19 C-41.25 47.65 -41.93 48.11 -42.64 48.59 C-52.87 55.46 -63.32 61.86 -74 68 C-74.61 68.35 -75.22 68.7 -75.85 69.06 C-79.17 70.98 -82.5 72.88 -85.84 74.77 C-87.47 75.7 -89.11 76.63 -90.75 77.56 C-93.83 79.31 -96.92 81.06 -100 82.81 C-100.99 83.38 -101.98 83.94 -103.01 84.52 C-107.62 87.13 -112.22 89.7 -117 92 C-116.49 98.99 -115.3 105.54 -113.56 112.31 C-111.83 119.31 -110.37 126.18 -109.4 133.33 C-109.03 135.8 -108.51 138.15 -107.88 140.56 C-107 144 -107 144 -107 148 C-107.66 148 -108.32 148 -109 148 C-109.54 147.32 -110.07 146.64 -110.62 145.94 C-112.49 143.63 -114.01 142.07 -116.24 140.22 C-123.01 134.37 -129.2 127.9 -135.5 121.56 C-136.81 120.25 -138.12 118.93 -139.44 117.61 C-142.63 114.41 -145.81 111.21 -149 108 C-147.34 103.91 -144.45 100.99 -141.46 97.84 C-140.86 97.2 -140.26 96.56 -139.64 95.9 C-129.19 84.89 -118.33 74.27 -107.56 63.56 C-103.62 59.64 -99.67 55.71 -95.73 51.78 C-94.17 50.24 -92.62 48.69 -91.06 47.14 C-86.37 42.48 -81.8 37.77 -77.5 32.74 C-73.93 28.59 -70.12 24.66 -66.3 20.73 C-65.31 19.7 -64.32 18.66 -63.35 17.61 C-56.6 10.37 -51.1 6.34 -41 5 C-39.47 4.73 -39.47 4.73 -37.91 4.45 C-34.78 3.9 -31.64 3.41 -28.5 2.94 C-26.41 2.61 -24.31 2.29 -22.22 1.96 C-20.69 1.73 -20.69 1.73 -19.12 1.5 C-16.98 1.15 -14.83 0.79 -12.69 0.4 C-11.63 0.21 -10.56 0.01 -9.47 -0.18 C-8.51 -0.36 -7.56 -0.54 -6.58 -0.73 C-4 -1 -2.41 -0.91 0 0 Z " fill="#999999" transform="translate(227,333)"/>
<path d="M0 0 C1.3 0 1.3 0 2.63 0.01 C12.38 0.25 19.98 3.38 28.25 8.5 C26.77 11.95 24.82 14.17 22.17 16.81 C21.33 17.65 20.49 18.49 19.62 19.36 C18.71 20.25 17.8 21.15 16.87 22.08 C15.94 23 15.01 23.93 14.05 24.89 C11.59 27.34 9.12 29.79 6.64 32.24 C4.12 34.75 1.6 37.26 -0.92 39.77 C-5.86 44.68 -10.8 49.59 -15.75 54.5 C-14.04 58.21 -12.18 60.02 -8.94 62.56 C-7.95 63.34 -6.97 64.13 -5.96 64.93 C-5.43 65.35 -4.91 65.76 -4.37 66.19 C-1.58 68.45 1.14 70.79 3.88 73.12 C9.87 78.23 16.03 83.07 22.31 87.81 C22.95 88.37 23.59 88.93 24.25 89.5 C24.25 90.16 24.25 90.82 24.25 91.5 C22.38 92.32 20.5 93.13 18.62 93.94 C17.58 94.39 16.54 94.84 15.46 95.31 C4.16 99.5 -7.89 98.33 -18.75 93.5 C-33.17 86.06 -41.5 75.83 -46.75 60.5 C-50.07 47.29 -47.64 34.13 -40.99 22.39 C-31.44 8.35 -17.02 -0.12 0 0 Z " fill="#999999" transform="translate(374.75,93.5)"/>
<path d="M0 0 C2.61 1.29 4.04 2.56 5.81 4.9 C7.78 15.69 4.7 23.21 -1.25 31.9 C-5.14 37.29 -9.21 42.25 -14.07 46.79 C-15.91 48.62 -17.57 50.48 -19.25 52.45 C-23.42 57.23 -27.87 61.69 -32.38 66.15 C-33.67 67.43 -33.67 67.43 -34.99 68.74 C-38.64 72.38 -42.3 76.01 -45.96 79.64 C-48.64 82.31 -51.32 84.98 -54 87.65 C-54.82 88.45 -55.64 89.26 -56.48 90.1 C-60.63 94.23 -64.6 98.45 -68.42 102.89 C-74.09 109.31 -80.28 115.29 -86.31 121.36 C-88.03 123.1 -89.75 124.85 -91.47 126.6 C-93.95 129.14 -96.45 131.66 -98.95 134.18 C-99.72 134.97 -100.49 135.76 -101.28 136.57 C-102 137.29 -102.71 138 -103.45 138.74 C-104.08 139.38 -104.71 140.01 -105.35 140.67 C-107.19 141.9 -107.19 141.9 -109.32 141.68 C-113.08 140.11 -115.67 136.93 -118.5 134.08 C-119.16 133.45 -119.82 132.82 -120.5 132.18 C-121.12 131.56 -121.73 130.95 -122.37 130.31 C-123.22 129.48 -123.22 129.48 -124.08 128.62 C-125.19 126.9 -125.19 126.9 -125.1 125.15 C-123.75 121.8 -121.3 119.62 -118.76 117.14 C-118.19 116.57 -117.63 116.01 -117.04 115.43 C-115.17 113.56 -113.28 111.7 -111.4 109.85 C-110.09 108.55 -108.78 107.25 -107.48 105.94 C-104.03 102.52 -100.58 99.1 -97.12 95.68 C-91.61 90.22 -86.1 84.75 -80.6 79.28 C-78.68 77.38 -76.76 75.48 -74.84 73.58 C-73.65 72.4 -72.46 71.22 -71.27 70.04 C-70.74 69.52 -70.22 69 -69.67 68.47 C-66.39 65.21 -63.39 61.81 -60.49 58.21 C-60.06 57.78 -59.63 57.34 -59.19 56.9 C-58.53 56.9 -57.87 56.9 -57.19 56.9 C-56.85 56.07 -56.85 56.07 -56.51 55.23 C-54.79 52.19 -52.62 50.05 -50.16 47.56 C-49.65 47.04 -49.14 46.52 -48.62 45.99 C-46.93 44.28 -45.24 42.58 -43.54 40.88 C-42.37 39.69 -41.19 38.51 -40.02 37.32 C-37.55 34.84 -35.09 32.37 -32.62 29.9 C-29.45 26.72 -26.3 23.53 -23.15 20.34 C-20.73 17.89 -18.29 15.45 -15.86 13.01 C-14.69 11.84 -13.53 10.66 -12.37 9.48 C-10.75 7.84 -9.12 6.21 -7.48 4.58 C-6.55 3.65 -5.63 2.72 -4.67 1.76 C-2.19 -0.1 -2.19 -0.1 0 0 Z " fill="#696969" transform="translate(335.1920471191406,180.1039581298828)"/>
<path d="M0 0 C3.55 1.51 5.8 3.58 8.48 6.32 C9.76 7.62 9.76 7.62 11.07 8.94 C11.95 9.85 12.84 10.75 13.75 11.69 C19.05 17.09 24.33 22.39 30.08 27.31 C33.52 30.34 36.76 33.57 40 36.81 C40.68 37.48 41.36 38.15 42.06 38.83 C42.7 39.47 43.34 40.11 44 40.77 C44.58 41.34 45.16 41.92 45.75 42.51 C47 44 47 44 47 46 C46.03 46.1 45.06 46.21 44.05 46.32 C30.87 47.75 17.71 49.36 4.55 50.98 C0.84 51.43 -2.88 51.89 -6.6 52.35 C-19.08 53.88 -31.56 55.44 -44.02 57.11 C-44.9 57.23 -45.78 57.35 -46.69 57.47 C-47.45 57.57 -48.22 57.68 -49.01 57.78 C-51 58 -51 58 -54 58 C-52.55 54.65 -50.72 52.5 -48.11 49.95 C-47.34 49.19 -46.57 48.43 -45.77 47.64 C-44.96 46.85 -44.15 46.06 -43.31 45.25 C-36.83 38.95 -36.83 38.95 -30.75 32.26 C-25.42 26.03 -19.45 20.39 -13.62 14.62 C-11.26 12.29 -8.9 9.95 -6.54 7.6 C-6 7.07 -5.46 6.53 -4.9 5.99 C-2.1 3.26 -2.1 3.26 0 0 Z " fill="#F15E29" transform="translate(71,445)"/>
<path d="M0 0 C4.63 3.69 7.13 6.39 9.75 11.88 C10.32 13.05 10.89 14.22 11.48 15.43 C16.23 26.62 17.11 39.45 12.94 51 C9.26 59.25 3.89 66.22 -2 73 C-6.83 71.49 -9.93 68.74 -13.62 65.44 C-14.87 64.35 -16.12 63.26 -17.36 62.17 C-17.98 61.63 -18.59 61.1 -19.23 60.54 C-25.72 54.9 -32.45 49.56 -39.42 44.51 C-39.94 44.01 -40.46 43.51 -41 43 C-41 40 -41 40 -39.53 38.45 C-38.86 37.91 -38.19 37.37 -37.5 36.81 C-33.1 33.11 -29.05 29.17 -25 25.1 C-24.28 24.38 -23.56 23.65 -22.81 22.91 C-20.54 20.63 -18.27 18.35 -16 16.06 C-14.45 14.5 -12.89 12.95 -11.34 11.39 C-7.56 7.6 -3.78 3.8 0 0 Z " fill="#6B6B6B" transform="translate(409,107)"/>
<path d="M0 0 C1.19 3.58 0.47 4.67 -1.15 7.94 C-1.49 8.6 -1.83 9.26 -2.19 9.94 C-2.55 10.64 -2.91 11.34 -3.28 12.06 C-11.72 28.21 -21.39 42.95 -33 57 C-33.51 57.62 -34.02 58.24 -34.55 58.88 C-45.64 72.29 -57.47 86.02 -70.75 97.31 C-75.09 101.03 -79.24 104.94 -83.39 108.86 C-86 111 -86 111 -91 113 C-93.97 110.03 -96.94 107.06 -100 104 C-98.12 100.24 -96.62 98.4 -93.68 95.52 C-92.38 94.24 -92.38 94.24 -91.06 92.93 C-90.15 92.05 -89.25 91.16 -88.31 90.25 C-86.54 88.51 -84.76 86.76 -82.99 85.02 C-82.2 84.25 -81.41 83.47 -80.6 82.68 C-78.57 80.59 -76.66 78.47 -74.76 76.26 C-70.66 71.54 -66.26 67.15 -61.81 62.75 C-60.95 61.89 -60.09 61.03 -59.2 60.15 C-55.55 56.52 -51.89 52.88 -48.23 49.25 C-45.55 46.59 -42.87 43.92 -40.19 41.25 C-39.37 40.44 -38.55 39.63 -37.71 38.8 C-33.5 34.61 -29.48 30.33 -25.6 25.83 C-23.21 23.09 -20.65 20.53 -18.07 17.97 C-17.54 17.45 -17.02 16.93 -16.48 16.39 C-14.84 14.76 -13.2 13.13 -11.56 11.5 C-10.44 10.38 -9.31 9.26 -8.19 8.14 C-5.46 5.42 -2.73 2.71 0 0 Z " fill="#9B9A9A" transform="translate(332,225)"/>
<path d="M0 0 C3.84 1.58 6.28 4.03 9.2 6.94 C9.69 7.42 10.17 7.9 10.67 8.39 C11.68 9.41 12.69 10.42 13.7 11.44 C15.25 13 16.81 14.55 18.38 16.1 C19.36 17.09 20.34 18.07 21.33 19.06 C22.22 19.96 23.12 20.86 24.04 21.79 C26 24 26 24 26 26 C25.1 26.14 24.2 26.27 23.27 26.41 C19.84 26.93 16.41 27.45 12.98 27.97 C11.45 28.2 9.93 28.43 8.41 28.66 C-2.41 30.29 -2.41 30.29 -13.21 32 C-14.5 32.21 -14.5 32.21 -15.82 32.42 C-17.35 32.67 -18.87 32.93 -20.39 33.19 C-24.3 33.83 -28.04 34.12 -32 34 C-27.9 29.1 -23.63 24.53 -19.06 20.06 C-14.67 15.72 -10.4 11.34 -6.4 6.62 C-4.38 4.29 -2.21 2.15 0 0 Z " fill="#F1602C" transform="translate(170,278)"/>
<path d="M0 0 C3.81 1.73 5.39 3.72 8 7 C9.83 8.61 11.7 10.15 13.61 11.67 C14.07 12.11 14.53 12.55 15 13 C15 13.66 15 14.32 15 15 C-7.38 20.49 -7.38 20.49 -18 20 C-16.57 16.74 -14.83 14.6 -12.3 12.11 C-11.23 11.05 -11.23 11.05 -10.14 9.96 C-9.39 9.23 -8.64 8.5 -7.88 7.75 C-7.12 7 -6.37 6.26 -5.59 5.49 C-3.73 3.66 -1.87 1.83 0 0 Z " fill="#6E6E6E" transform="translate(204,311)"/>
<path d="M0 0 C1.21 0.03 1.21 0.03 2.44 0.06 C6.64 9.31 6.6 20.48 3.44 30.06 C2.25 32.53 0.92 34.74 -0.56 37.06 C-1.88 36.73 -3.2 36.4 -4.56 36.06 C-5.25 33.88 -5.25 33.88 -5.56 31.06 C-5.08 30.37 -4.6 29.69 -4.1 28.98 C-1.92 24.84 -2.2 21.22 -2.31 16.62 C-2.32 15.79 -2.32 14.96 -2.33 14.1 C-2.38 9.64 -2.81 5.47 -3.56 1.06 C-2.56 0.06 -2.56 0.06 0 0 Z " fill="#F5F5F5" transform="translate(409.5625,125.9375)"/>
<path d="M0 0 C0 0.99 0 1.98 0 3 C-1.32 4.32 -2.64 5.64 -4 7 C3.26 6.67 10.52 6.34 18 6 C18 6.33 18 6.66 18 7 C14.23 7.5 10.46 8 6.69 8.5 C5.62 8.64 4.54 8.79 3.44 8.93 C1.9 9.14 1.9 9.14 0.32 9.34 C-0.62 9.47 -1.57 9.6 -2.55 9.72 C-5 10 -5 10 -8 10 C-6.35 5.71 -3.26 3.12 0 0 Z " fill="#F48155" transform="translate(25,493)"/>
<path d="M0 0 C0.66 0.33 1.32 0.66 2 1 C-1.96 4.96 -5.92 8.92 -10 13 C-10.66 12.67 -11.32 12.34 -12 12 C-8.28 7.58 -4.7 3.42 0 0 Z " fill="#AAAAAA" transform="translate(348,101)"/>
<path d="M0 0 C3.96 0 7.92 0 12 0 C8.84 2.11 7.49 2.34 3.81 2.62 C2.46 2.74 2.46 2.74 1.08 2.85 C0.05 2.93 0.05 2.93 -1 3 C-0.67 2.01 -0.34 1.02 0 0 Z " fill="#BAB8B8" transform="translate(185,330)"/>
</svg>
