<?xml version="1.0" encoding="UTF-8"?>
<!DOCTYPE svg PUBLIC "-//W3C//DTD SVG 1.1//EN" "http://www.w3.org/Graphics/SVG/1.1/DTD/svg11.dtd">
<svg xmlns="http://www.w3.org/2000/svg" version="1.1" width="860px" height="817px" style="shape-rendering:geometricPrecision; text-rendering:geometricPrecision; image-rendering:optimizeQuality; fill-rule:evenodd; clip-rule:evenodd" xmlns:xlink="http://www.w3.org/1999/xlink">
<g><path style="opacity:0.11" fill="#f6f6f6" d="M 549.5,38.5 C 586.367,35.848 610.2,52.1813 621,87.5C 623.859,97.3211 625.859,107.321 627,117.5C 629.386,150.641 626.552,183.308 618.5,215.5C 643.58,223.928 667.913,234.428 691.5,247C 711.802,257.972 728.635,272.806 742,291.5C 756.716,318.877 754.216,344.543 734.5,368.5C 714.711,389.105 691.711,405.272 665.5,417C 650.43,423.523 635.097,429.357 619.5,434.5C 628.603,468.695 631.103,503.362 627,538.5C 618.284,599.965 584.284,622.632 525,606.5C 489.595,591.403 458.262,570.403 431,543.5C 404.64,569.028 374.64,589.361 341,604.5C 279.412,624.465 243.246,602.631 232.5,539C 232.833,538.667 233.167,538.333 233.5,538C 230.186,514.148 230.853,490.481 235.5,467C 235.355,466.228 235.022,465.561 234.5,465C 237.059,455.202 239.225,445.369 241,435.5C 206.172,425.421 174.338,409.755 145.5,388.5C 138.874,382.376 132.374,376.042 126,369.5C 121.115,362.89 116.615,356.057 112.5,349C 103.688,324.365 107.855,301.865 125,281.5C 146.088,259.068 170.921,242.235 199.5,231C 213.221,225.76 227.055,220.927 241,216.5C 238.163,200.323 235.33,183.823 232.5,167C 232.833,166.667 233.167,166.333 233.5,166C 229.405,137.711 231.571,109.878 240,82.5C 253.031,48.8911 277.531,34.7244 313.5,40C 337.737,44.8544 360.07,54.1878 380.5,68C 398.173,79.8335 414.84,93.0001 430.5,107.5C 459.203,78.9051 492.37,57.2384 530,42.5C 530.333,42.8333 530.667,43.1667 531,43.5C 537.131,41.3794 543.298,39.7127 549.5,38.5 Z M 397.5,458.5 C 418.649,457.532 440.316,457.366 462.5,458C 452.756,471.414 442.256,484.248 431,496.5C 419.596,483.936 408.429,471.27 397.5,458.5 Z M 583.5,442.5 C 585.766,442.141 587.599,442.808 589,444.5C 589.901,451.373 591.401,458.206 593.5,465C 593.355,465.772 593.022,466.439 592.5,467C 594.476,473.212 595.809,479.545 596.5,486C 597.519,499.078 597.519,511.911 596.5,524.5C 595.44,540.038 590.94,554.705 583,568.5C 574.375,578.373 563.542,581.873 550.5,579C 533.33,575.057 517.33,568.39 502.5,559C 485.829,547.673 469.995,535.173 455,521.5C 454.333,520.5 454.333,519.5 455,518.5C 472.944,498.222 489.777,477.055 505.5,455C 510.78,453.898 516.113,453.065 521.5,452.5C 522.442,452.608 523.275,452.941 524,453.5C 528.343,451.974 532.843,450.974 537.5,450.5C 539.826,451.31 542.159,450.977 544.5,449.5C 554.28,448.564 564.113,446.897 574,444.5C 574.333,444.833 574.667,445.167 575,445.5C 577.87,444.307 580.704,443.307 583.5,442.5 Z M 272.5,442.5 C 288.317,446.626 304.484,449.293 321,450.5C 331.315,451.98 341.315,453.646 351,455.5C 352.388,454.446 353.888,454.28 355.5,455C 371.211,477.375 388.378,498.542 407,518.5C 407.667,519.5 407.667,520.5 407,521.5C 386.473,541.508 363.307,557.675 337.5,570C 323.897,576.652 309.563,579.652 294.5,579C 285.422,577.243 278.589,572.41 274,564.5C 267.84,551.193 264.507,537.193 264,522.5C 263.283,510.14 263.616,497.807 265,485.5C 267.18,471.1 269.68,456.767 272.5,442.5 Z M 298.5,364.5 C 299.376,364.369 300.043,364.702 300.5,365.5C 309.29,381.777 318.79,398.11 329,414.5C 330.541,416.477 331.041,418.477 330.5,420.5C 313.942,418.186 297.608,415.02 281.5,411C 287.067,395.466 292.734,379.966 298.5,364.5 Z M 560.5,363.5 C 563.772,369.113 566.772,374.947 569.5,381C 569.167,381.333 568.833,381.667 568.5,382C 572.745,391.062 576.412,400.396 579.5,410C 562.848,414.831 545.848,417.831 528.5,419C 539.81,400.881 550.477,382.381 560.5,363.5 Z M 609.5,248.5 C 642.273,256.716 672.273,271.216 699.5,292C 706.848,298.007 712.681,305.173 717,313.5C 721.261,324.789 719.594,335.123 712,344.5C 705.462,352.706 697.962,359.872 689.5,366C 665.42,382.091 639.42,394.258 611.5,402.5C 601.946,376.169 591.613,350.169 580.5,324.5C 591.322,299.713 600.989,274.379 609.5,248.5 Z M 249.5,247.5 C 254.889,260.231 259.723,273.565 264,287.5C 269.123,300.217 274.623,312.717 280.5,325C 269.19,350.95 258.69,377.117 249,403.5C 214.977,394.075 184.477,378.242 157.5,356C 151.814,350.124 146.98,343.624 143,336.5C 138.524,324.888 140.191,314.221 148,304.5C 158.679,292.08 171.179,281.913 185.5,274C 206.102,263.193 227.435,254.359 249.5,247.5 Z M 528.5,232.5 C 534.652,231.748 540.818,232.415 547,234.5C 547.333,234.167 547.667,233.833 548,233.5C 557.485,235.632 567.319,237.632 577.5,239.5C 573.147,255.546 567.647,271.213 561,286.5C 551.968,270.813 542.968,255.147 534,239.5C 532.303,236.98 530.47,234.647 528.5,232.5 Z M 329.5,230.5 C 330.289,230.783 330.956,231.283 331.5,232C 319.964,249.559 309.298,267.725 299.5,286.5C 292.444,271.331 286.777,255.664 282.5,239.5C 298.266,236.375 313.933,233.375 329.5,230.5 Z M 397.5,224.5 C 417.877,225.068 437.711,225.068 457,224.5C 462.632,226.146 467.965,226.479 473,225.5C 477.5,226 482,226.5 486.5,227C 507.805,257.657 526.638,289.824 543,323.5C 543.667,324.5 543.667,325.5 543,326.5C 526.556,360.227 507.723,392.394 486.5,423C 479.897,424.163 473.23,424.83 466.5,425C 435.82,425.803 405.153,425.469 374.5,424C 365.714,412.264 357.547,400.098 350,387.5C 338.085,367.343 326.918,346.677 316.5,325.5C 332.457,291.57 350.957,259.236 372,228.5C 374.166,226.879 376.666,226.045 379.5,226C 385.681,225.828 391.681,225.328 397.5,224.5 Z M 429.5,154.5 C 431.017,154.511 432.184,155.177 433,156.5C 442.637,168.142 452.304,179.809 462,191.5C 462.688,192.332 462.521,192.998 461.5,193.5C 440.486,192.574 419.486,192.24 398.5,192.5C 408.1,179.234 418.433,166.567 429.5,154.5 Z M 552.5,70.5 C 556.92,71.6703 561.087,71.6703 565,70.5C 574.584,72.457 581.584,77.7903 586,86.5C 591.394,98.8092 594.228,111.643 594.5,125C 595.167,129.333 595.833,133.667 596.5,138C 595.236,161.87 592.236,185.37 587.5,208.5C 560.394,202.927 533.061,198.76 505.5,196C 489.464,173.463 472.131,151.963 453.5,131.5C 475.019,108.818 500.019,90.985 528.5,78C 536.807,75.0557 544.807,72.5557 552.5,70.5 Z M 295.5,70.5 C 313.032,71.9308 330.365,77.0975 347.5,86C 369.327,98.5786 389.327,113.579 407.5,131C 397.961,141.204 388.794,151.704 380,162.5C 371.5,173.667 363,184.833 354.5,196C 327.533,198.352 300.866,202.519 274.5,208.5C 273.914,208.291 273.414,207.957 273,207.5C 265.045,177.281 262.378,146.614 265,115.5C 266.709,101.692 271.542,89.1924 279.5,78C 283.209,74.9589 287.376,72.7922 292,71.5C 293.313,72.2871 294.48,71.9538 295.5,70.5 Z"/></g>
<g><path style="opacity:0.911" fill="#4ec0de" d="M 295.5,40.5 C 301.502,40.9092 307.502,41.4092 313.5,42C 330.301,45.0554 346.301,50.7221 361.5,59C 385.495,72.8134 408.328,89.6467 430,109.5C 443.062,98.0984 456.395,87.0984 470,76.5C 483.942,66.9955 498.942,58.3288 515,50.5C 523.158,47.1309 532.325,44.2976 542.5,42C 577.506,35.1665 602.172,47.8331 616.5,80C 616.167,80.3333 615.833,80.6667 615.5,81C 619.985,89.4994 622.818,98.9994 624,109.5C 627.617,135.207 626.783,160.707 621.5,186C 621.024,195.954 619.357,206.121 616.5,216.5C 616.833,217.167 617.167,217.833 617.5,218.5C 643.997,226.47 669.497,237.137 694,250.5C 712.496,260.963 728.162,275.296 741,293.5C 755.224,320.064 752.224,345.064 732,368.5C 711.272,389.935 687.605,405.602 661,415.5C 659.287,417.193 657.287,418.526 655,419.5C 654.667,419.167 654.333,418.833 654,418.5C 652.665,420.605 650.998,421.271 649,420.5C 639.399,425.411 628.566,429.577 616.5,433C 618.004,434.491 618.837,436.324 619,438.5C 628.222,475.591 629.555,512.924 623,550.5C 619.967,564.947 613.634,578.614 604,591.5C 587.729,608.227 566.563,613.727 540.5,608C 515.598,601.501 492.598,590.501 471.5,575C 457.791,564.472 444.457,553.306 431.5,541.5C 408.537,562.832 384.037,580.499 358,594.5C 352.898,596.361 347.565,598.694 342,601.5C 340.853,600.542 339.853,600.875 339,602.5C 323.394,608.449 306.894,610.616 289.5,609C 265.9,604.269 250.9,591.603 244.5,571C 241.478,566.628 239.478,562.128 238.5,557.5C 232.389,527.918 231.889,497.918 237,467.5C 239.105,456.14 241.272,444.807 243.5,433.5C 210.829,424.771 179.996,410.437 151,390.5C 138.986,381.497 128.986,371.163 121,359.5C 104.017,330.358 107.017,303.358 130,278.5C 153.232,256.174 178.899,240.508 207,231.5C 207.388,230.572 208.055,229.905 209,229.5C 220.862,226.112 232.696,221.946 244.5,217C 234.898,183.27 231.731,148.436 235,112.5C 237.075,90.1383 245.241,70.9716 259.5,55C 263.827,51.6488 267.993,48.8155 272,46.5C 273.016,47.6341 273.683,47.3008 274,45.5C 274.333,45.8333 274.667,46.1667 275,46.5C 275.772,45.1509 276.939,44.3176 278.5,44C 284.229,42.4321 289.896,41.2654 295.5,40.5 Z M 397.5,458.5 C 408.429,471.27 419.596,483.936 431,496.5C 442.256,484.248 452.756,471.414 462.5,458C 440.316,457.366 418.649,457.532 397.5,458.5 Z M 583.5,442.5 C 580.704,443.307 577.87,444.307 575,445.5C 574.667,445.167 574.333,444.833 574,444.5C 564.113,446.897 554.28,448.564 544.5,449.5C 542.159,450.977 539.826,451.31 537.5,450.5C 532.843,450.974 528.343,451.974 524,453.5C 523.275,452.941 522.442,452.608 521.5,452.5C 516.113,453.065 510.78,453.898 505.5,455C 489.777,477.055 472.944,498.222 455,518.5C 454.333,519.5 454.333,520.5 455,521.5C 469.995,535.173 485.829,547.673 502.5,559C 517.33,568.39 533.33,575.057 550.5,579C 563.542,581.873 574.375,578.373 583,568.5C 590.94,554.705 595.44,540.038 596.5,524.5C 597.519,511.911 597.519,499.078 596.5,486C 595.809,479.545 594.476,473.212 592.5,467C 593.022,466.439 593.355,465.772 593.5,465C 591.401,458.206 589.901,451.373 589,444.5C 587.599,442.808 585.766,442.141 583.5,442.5 Z M 272.5,442.5 C 269.68,456.767 267.18,471.1 265,485.5C 263.616,497.807 263.283,510.14 264,522.5C 264.507,537.193 267.84,551.193 274,564.5C 278.589,572.41 285.422,577.243 294.5,579C 309.563,579.652 323.897,576.652 337.5,570C 363.307,557.675 386.473,541.508 407,521.5C 407.667,520.5 407.667,519.5 407,518.5C 388.378,498.542 371.211,477.375 355.5,455C 353.888,454.28 352.388,454.446 351,455.5C 341.315,453.646 331.315,451.98 321,450.5C 304.484,449.293 288.317,446.626 272.5,442.5 Z M 298.5,364.5 C 292.734,379.966 287.067,395.466 281.5,411C 297.608,415.02 313.942,418.186 330.5,420.5C 331.041,418.477 330.541,416.477 329,414.5C 318.79,398.11 309.29,381.777 300.5,365.5C 300.043,364.702 299.376,364.369 298.5,364.5 Z M 560.5,363.5 C 550.477,382.381 539.81,400.881 528.5,419C 545.848,417.831 562.848,414.831 579.5,410C 576.412,400.396 572.745,391.062 568.5,382C 568.833,381.667 569.167,381.333 569.5,381C 566.772,374.947 563.772,369.113 560.5,363.5 Z M 609.5,248.5 C 600.989,274.379 591.322,299.713 580.5,324.5C 591.613,350.169 601.946,376.169 611.5,402.5C 639.42,394.258 665.42,382.091 689.5,366C 697.962,359.872 705.462,352.706 712,344.5C 719.594,335.123 721.261,324.789 717,313.5C 712.681,305.173 706.848,298.007 699.5,292C 672.273,271.216 642.273,256.716 609.5,248.5 Z M 249.5,247.5 C 227.435,254.359 206.102,263.193 185.5,274C 171.179,281.913 158.679,292.08 148,304.5C 140.191,314.221 138.524,324.888 143,336.5C 146.98,343.624 151.814,350.124 157.5,356C 184.477,378.242 214.977,394.075 249,403.5C 258.69,377.117 269.19,350.95 280.5,325C 274.623,312.717 269.123,300.217 264,287.5C 259.723,273.565 254.889,260.231 249.5,247.5 Z M 528.5,232.5 C 530.47,234.647 532.303,236.98 534,239.5C 542.968,255.147 551.968,270.813 561,286.5C 567.647,271.213 573.147,255.546 577.5,239.5C 567.319,237.632 557.485,235.632 548,233.5C 547.667,233.833 547.333,234.167 547,234.5C 540.818,232.415 534.652,231.748 528.5,232.5 Z M 329.5,230.5 C 313.933,233.375 298.266,236.375 282.5,239.5C 286.777,255.664 292.444,271.331 299.5,286.5C 309.298,267.725 319.964,249.559 331.5,232C 330.956,231.283 330.289,230.783 329.5,230.5 Z M 397.5,224.5 C 391.681,225.328 385.681,225.828 379.5,226C 376.666,226.045 374.166,226.879 372,228.5C 350.957,259.236 332.457,291.57 316.5,325.5C 326.918,346.677 338.085,367.343 350,387.5C 357.547,400.098 365.714,412.264 374.5,424C 405.153,425.469 435.82,425.803 466.5,425C 473.23,424.83 479.897,424.163 486.5,423C 507.723,392.394 526.556,360.227 543,326.5C 543.667,325.5 543.667,324.5 543,323.5C 526.638,289.824 507.805,257.657 486.5,227C 482,226.5 477.5,226 473,225.5C 467.965,226.479 462.632,226.146 457,224.5C 437.711,225.068 417.877,225.068 397.5,224.5 Z M 429.5,154.5 C 418.433,166.567 408.1,179.234 398.5,192.5C 419.486,192.24 440.486,192.574 461.5,193.5C 462.521,192.998 462.688,192.332 462,191.5C 452.304,179.809 442.637,168.142 433,156.5C 432.184,155.177 431.017,154.511 429.5,154.5 Z M 552.5,70.5 C 544.807,72.5557 536.807,75.0557 528.5,78C 500.019,90.985 475.019,108.818 453.5,131.5C 472.131,151.963 489.464,173.463 505.5,196C 533.061,198.76 560.394,202.927 587.5,208.5C 592.236,185.37 595.236,161.87 596.5,138C 595.833,133.667 595.167,129.333 594.5,125C 594.228,111.643 591.394,98.8092 586,86.5C 581.584,77.7903 574.584,72.457 565,70.5C 561.087,71.6703 556.92,71.6703 552.5,70.5 Z M 295.5,70.5 C 294.48,71.9538 293.313,72.2871 292,71.5C 287.376,72.7922 283.209,74.9589 279.5,78C 271.542,89.1924 266.709,101.692 265,115.5C 262.378,146.614 265.045,177.281 273,207.5C 273.414,207.957 273.914,208.291 274.5,208.5C 300.866,202.519 327.533,198.352 354.5,196C 363,184.833 371.5,173.667 380,162.5C 388.794,151.704 397.961,141.204 407.5,131C 389.327,113.579 369.327,98.5786 347.5,86C 330.365,77.0975 313.032,71.9308 295.5,70.5 Z"/></g>
<g><path style="opacity:1" fill="#50c1df" d="M 551.5,43.5 C 580.471,41.2304 600.971,53.5637 613,80.5C 617.511,93.0429 620.678,105.876 622.5,119C 622.486,133.607 622.486,148.274 622.5,163C 620.513,178.263 618.179,193.263 615.5,208C 613.879,212.016 613.379,216.183 614,220.5C 646.619,229.897 677.119,243.73 705.5,262C 716.559,270.27 726.392,279.77 735,290.5C 751.394,316.075 750.061,340.742 731,364.5C 713.668,383.162 693.501,397.995 670.5,409C 652.588,416.967 634.422,424.134 616,430.5C 615.362,431.609 614.862,432.775 614.5,434C 625.01,474.115 626.51,513.949 619,553.5C 614.434,572.832 604.267,588.332 588.5,600C 573.774,606.673 558.441,608.34 542.5,605C 525.473,601.214 509.473,594.881 494.5,586C 472.493,573.004 452.493,557.338 434.5,539C 432.5,538.333 430.5,538.333 428.5,539C 403.289,564.204 374.289,583.871 341.5,598C 323.441,605.424 304.774,607.757 285.5,605C 263.227,598.057 249.06,583.224 243,560.5C 235.538,530.414 234.538,500.08 240,469.5C 242.401,457.174 244.401,444.84 246,432.5C 222.16,424.436 198.994,414.603 176.5,403C 156.301,392.138 139.135,377.638 125,359.5C 108.31,332.942 109.977,307.609 130,283.5C 149.148,264.036 171.314,248.869 196.5,238C 213,231.66 229.5,225.493 246,219.5C 246.5,218.5 247,217.5 247.5,216.5C 237.569,180.703 234.736,144.37 239,107.5C 248.44,52.9674 279.44,33.6341 332,49.5C 366.546,63.1845 397.046,83.0179 423.5,109C 425.519,110.866 427.852,112.033 430.5,112.5C 437.471,108.317 443.804,103.15 449.5,97C 472.218,77.2977 497.551,61.631 525.5,50C 534.14,47.1732 542.807,45.0065 551.5,43.5 Z M 397.5,458.5 C 408.429,471.27 419.596,483.936 431,496.5C 442.256,484.248 452.756,471.414 462.5,458C 440.316,457.366 418.649,457.532 397.5,458.5 Z M 583.5,442.5 C 580.704,443.307 577.87,444.307 575,445.5C 574.667,445.167 574.333,444.833 574,444.5C 564.113,446.897 554.28,448.564 544.5,449.5C 542.159,450.977 539.826,451.31 537.5,450.5C 532.843,450.974 528.343,451.974 524,453.5C 523.275,452.941 522.442,452.608 521.5,452.5C 516.113,453.065 510.78,453.898 505.5,455C 489.777,477.055 472.944,498.222 455,518.5C 454.333,519.5 454.333,520.5 455,521.5C 469.995,535.173 485.829,547.673 502.5,559C 517.33,568.39 533.33,575.057 550.5,579C 563.542,581.873 574.375,578.373 583,568.5C 590.94,554.705 595.44,540.038 596.5,524.5C 597.519,511.911 597.519,499.078 596.5,486C 595.809,479.545 594.476,473.212 592.5,467C 593.022,466.439 593.355,465.772 593.5,465C 591.401,458.206 589.901,451.373 589,444.5C 587.599,442.808 585.766,442.141 583.5,442.5 Z M 272.5,442.5 C 269.68,456.767 267.18,471.1 265,485.5C 263.616,497.807 263.283,510.14 264,522.5C 264.507,537.193 267.84,551.193 274,564.5C 278.589,572.41 285.422,577.243 294.5,579C 309.563,579.652 323.897,576.652 337.5,570C 363.307,557.675 386.473,541.508 407,521.5C 407.667,520.5 407.667,519.5 407,518.5C 388.378,498.542 371.211,477.375 355.5,455C 353.888,454.28 352.388,454.446 351,455.5C 341.315,453.646 331.315,451.98 321,450.5C 304.484,449.293 288.317,446.626 272.5,442.5 Z M 298.5,364.5 C 292.734,379.966 287.067,395.466 281.5,411C 297.608,415.02 313.942,418.186 330.5,420.5C 331.041,418.477 330.541,416.477 329,414.5C 318.79,398.11 309.29,381.777 300.5,365.5C 300.043,364.702 299.376,364.369 298.5,364.5 Z M 560.5,363.5 C 550.477,382.381 539.81,400.881 528.5,419C 545.848,417.831 562.848,414.831 579.5,410C 576.412,400.396 572.745,391.062 568.5,382C 568.833,381.667 569.167,381.333 569.5,381C 566.772,374.947 563.772,369.113 560.5,363.5 Z M 609.5,248.5 C 600.989,274.379 591.322,299.713 580.5,324.5C 591.613,350.169 601.946,376.169 611.5,402.5C 639.42,394.258 665.42,382.091 689.5,366C 697.962,359.872 705.462,352.706 712,344.5C 719.594,335.123 721.261,324.789 717,313.5C 712.681,305.173 706.848,298.007 699.5,292C 672.273,271.216 642.273,256.716 609.5,248.5 Z M 249.5,247.5 C 227.435,254.359 206.102,263.193 185.5,274C 171.179,281.913 158.679,292.08 148,304.5C 140.191,314.221 138.524,324.888 143,336.5C 146.98,343.624 151.814,350.124 157.5,356C 184.477,378.242 214.977,394.075 249,403.5C 258.69,377.117 269.19,350.95 280.5,325C 274.623,312.717 269.123,300.217 264,287.5C 259.723,273.565 254.889,260.231 249.5,247.5 Z M 528.5,232.5 C 530.47,234.647 532.303,236.98 534,239.5C 542.968,255.147 551.968,270.813 561,286.5C 567.647,271.213 573.147,255.546 577.5,239.5C 567.319,237.632 557.485,235.632 548,233.5C 547.667,233.833 547.333,234.167 547,234.5C 540.818,232.415 534.652,231.748 528.5,232.5 Z M 329.5,230.5 C 313.933,233.375 298.266,236.375 282.5,239.5C 286.777,255.664 292.444,271.331 299.5,286.5C 309.298,267.725 319.964,249.559 331.5,232C 330.956,231.283 330.289,230.783 329.5,230.5 Z M 397.5,224.5 C 391.681,225.328 385.681,225.828 379.5,226C 376.666,226.045 374.166,226.879 372,228.5C 350.957,259.236 332.457,291.57 316.5,325.5C 326.918,346.677 338.085,367.343 350,387.5C 357.547,400.098 365.714,412.264 374.5,424C 405.153,425.469 435.82,425.803 466.5,425C 473.23,424.83 479.897,424.163 486.5,423C 507.723,392.394 526.556,360.227 543,326.5C 543.667,325.5 543.667,324.5 543,323.5C 526.638,289.824 507.805,257.657 486.5,227C 482,226.5 477.5,226 473,225.5C 467.965,226.479 462.632,226.146 457,224.5C 437.711,225.068 417.877,225.068 397.5,224.5 Z M 429.5,154.5 C 418.433,166.567 408.1,179.234 398.5,192.5C 419.486,192.24 440.486,192.574 461.5,193.5C 462.521,192.998 462.688,192.332 462,191.5C 452.304,179.809 442.637,168.142 433,156.5C 432.184,155.177 431.017,154.511 429.5,154.5 Z M 552.5,70.5 C 544.807,72.5557 536.807,75.0557 528.5,78C 500.019,90.985 475.019,108.818 453.5,131.5C 472.131,151.963 489.464,173.463 505.5,196C 533.061,198.76 560.394,202.927 587.5,208.5C 592.236,185.37 595.236,161.87 596.5,138C 595.833,133.667 595.167,129.333 594.5,125C 594.228,111.643 591.394,98.8092 586,86.5C 581.584,77.7903 574.584,72.457 565,70.5C 561.087,71.6703 556.92,71.6703 552.5,70.5 Z M 295.5,70.5 C 294.48,71.9538 293.313,72.2871 292,71.5C 287.376,72.7922 283.209,74.9589 279.5,78C 271.542,89.1924 266.709,101.692 265,115.5C 262.378,146.614 265.045,177.281 273,207.5C 273.414,207.957 273.914,208.291 274.5,208.5C 300.866,202.519 327.533,198.352 354.5,196C 363,184.833 371.5,173.667 380,162.5C 388.794,151.704 397.961,141.204 407.5,131C 389.327,113.579 369.327,98.5786 347.5,86C 330.365,77.0975 313.032,71.9308 295.5,70.5 Z"/></g>
<g><path style="opacity:0.067" fill="#f5f6f6" d="M 588.5,439.5 C 590.381,443.109 592.048,446.942 593.5,451C 592.521,452.779 592.854,454.445 594.5,456C 593.902,459.906 594.568,463.739 596.5,467.5C 596.167,468.167 595.833,468.833 595.5,469.5C 596.793,475.418 597.626,481.418 598,487.5C 601.371,511.638 598.871,535.138 590.5,558C 587.381,570.028 578.215,578.195 563,582.5C 560.484,581.227 557.984,581.227 555.5,582.5C 553.038,580.934 550.538,580.601 548,581.5C 545.395,579.68 542.728,579.014 540,579.5C 508.563,567.36 479.063,547.694 451.5,520.5C 470.507,498.949 488.174,476.449 504.5,453C 519.897,451.291 535.063,449.458 550,447.5C 563.05,445.258 575.884,442.591 588.5,439.5 Z M 583.5,442.5 C 580.704,443.307 577.87,444.307 575,445.5C 574.667,445.167 574.333,444.833 574,444.5C 564.113,446.897 554.28,448.564 544.5,449.5C 542.159,450.977 539.826,451.31 537.5,450.5C 532.843,450.974 528.343,451.974 524,453.5C 523.275,452.941 522.442,452.608 521.5,452.5C 516.113,453.065 510.78,453.898 505.5,455C 489.777,477.055 472.944,498.222 455,518.5C 454.333,519.5 454.333,520.5 455,521.5C 469.995,535.173 485.829,547.673 502.5,559C 517.33,568.39 533.33,575.057 550.5,579C 563.542,581.873 574.375,578.373 583,568.5C 590.94,554.705 595.44,540.038 596.5,524.5C 597.519,511.911 597.519,499.078 596.5,486C 595.809,479.545 594.476,473.212 592.5,467C 593.022,466.439 593.355,465.772 593.5,465C 591.401,458.206 589.901,451.373 589,444.5C 587.599,442.808 585.766,442.141 583.5,442.5 Z"/></g>
<g><path style="opacity:0.259" fill="#f8f8f8" d="M 394.5,456.5 C 418.33,455.337 442.33,455.17 466.5,456C 455.423,471.081 443.59,485.581 431,499.5C 418.341,485.467 406.174,471.134 394.5,456.5 Z M 397.5,458.5 C 408.429,471.27 419.596,483.936 431,496.5C 442.256,484.248 452.756,471.414 462.5,458C 440.316,457.366 418.649,457.532 397.5,458.5 Z"/></g>
<g><path style="opacity:0.2" fill="#f7f7f7" d="M 271.5,440.5 C 299.923,446.537 328.589,451.037 357.5,454C 372.444,475.689 389.277,496.522 408,516.5C 409.289,518.055 409.956,519.721 410,521.5C 387.927,542.661 363.594,559.994 337,573.5C 336.667,573.167 336.333,572.833 336,572.5C 292.528,593.602 268.194,580.269 263,532.5C 260.55,501.089 263.384,470.422 271.5,440.5 Z M 272.5,442.5 C 269.68,456.767 267.18,471.1 265,485.5C 263.616,497.807 263.283,510.14 264,522.5C 264.507,537.193 267.84,551.193 274,564.5C 278.589,572.41 285.422,577.243 294.5,579C 309.563,579.652 323.897,576.652 337.5,570C 363.307,557.675 386.473,541.508 407,521.5C 407.667,520.5 407.667,519.5 407,518.5C 388.378,498.542 371.211,477.375 355.5,455C 353.888,454.28 352.388,454.446 351,455.5C 341.315,453.646 331.315,451.98 321,450.5C 304.484,449.293 288.317,446.626 272.5,442.5 Z"/></g>
<g><path style="opacity:0.11" fill="#f4f6f6" d="M 297.5,360.5 C 298.189,359.226 299.023,359.226 300,360.5C 311.036,382.212 322.869,402.378 335.5,421C 334.892,421.87 334.059,422.37 333,422.5C 315.012,420.085 297.179,417.085 279.5,413.5C 279.665,411.173 280.331,409.007 281.5,407C 281.167,406.667 280.833,406.333 280.5,406C 282.728,402.728 284.395,399.062 285.5,395C 285.167,394.667 284.833,394.333 284.5,394C 285.428,393.612 286.095,392.945 286.5,392C 289.98,381.388 293.98,371.055 298.5,361C 298.272,360.601 297.938,360.435 297.5,360.5 Z M 298.5,364.5 C 292.734,379.966 287.067,395.466 281.5,411C 297.608,415.02 313.942,418.186 330.5,420.5C 331.041,418.477 330.541,416.477 329,414.5C 318.79,398.11 309.29,381.777 300.5,365.5C 300.043,364.702 299.376,364.369 298.5,364.5 Z"/></g>
<g><path style="opacity:0.231" fill="#f5f6f6" d="M 608.5,245.5 C 631.022,252.21 651.522,260.544 670,270.5C 688.224,279.155 704.391,292.322 718.5,310C 717.366,311.016 717.699,311.683 719.5,312C 719.167,312.333 718.833,312.667 718.5,313C 722.289,320.713 722.456,328.546 719,336.5C 714.649,344.521 709.149,351.688 702.5,358C 683.776,373.14 664.276,384.64 644,392.5C 634.018,396.852 623.018,400.852 611,404.5C 608.167,398.667 605.333,392.833 602.5,387C 602.833,386.667 603.167,386.333 603.5,386C 597.455,369.786 591.122,354.119 584.5,339C 582.496,335.879 581.163,332.879 580.5,330C 576.955,326.155 577.288,321.822 581.5,317C 582.163,314.121 583.496,311.121 585.5,308C 585.167,307.667 584.833,307.333 584.5,307C 586.193,305.287 587.526,303.287 588.5,301C 588.167,300.667 587.833,300.333 587.5,300C 589.605,298.665 590.271,296.998 589.5,295C 591.605,293.665 592.271,291.998 591.5,290C 593.605,288.665 594.271,286.998 593.5,285C 595.868,281.259 597.868,277.259 599.5,273C 602.366,264.558 605.366,255.391 608.5,245.5 Z M 609.5,248.5 C 600.989,274.379 591.322,299.713 580.5,324.5C 591.613,350.169 601.946,376.169 611.5,402.5C 639.42,394.258 665.42,382.091 689.5,366C 697.962,359.872 705.462,352.706 712,344.5C 719.594,335.123 721.261,324.789 717,313.5C 712.681,305.173 706.848,298.007 699.5,292C 672.273,271.216 642.273,256.716 609.5,248.5 Z"/></g>
<g><path style="opacity:0.244" fill="#f4f5f6" d="M 560.5,358.5 C 562.254,360.573 563.92,362.739 565.5,365C 564.911,366.873 565.578,368.54 567.5,370C 567.167,370.333 566.833,370.667 566.5,371C 567.474,373.287 568.807,375.287 570.5,377C 570.045,379.951 571.045,382.617 573.5,385C 573.045,387.951 574.045,390.617 576.5,393C 576.167,393.333 575.833,393.667 575.5,394C 576.607,397.68 578.274,401.014 580.5,404C 580.167,404.333 579.833,404.667 579.5,405C 581.16,407.633 581.66,410.466 581,413.5C 580.586,413.043 580.086,412.709 579.5,412.5C 561.709,417.133 543.709,419.8 525.5,420.5C 538.76,399.162 550.426,378.496 560.5,358.5 Z M 560.5,363.5 C 550.477,382.381 539.81,400.881 528.5,419C 545.848,417.831 562.848,414.831 579.5,410C 576.412,400.396 572.745,391.062 568.5,382C 568.833,381.667 569.167,381.333 569.5,381C 566.772,374.947 563.772,369.113 560.5,363.5 Z"/></g>
<g><path style="opacity:0.26" fill="#f3f5f6" d="M 249.5,245.5 C 252.462,245.117 253.462,246.117 252.5,248.5C 261.392,275.836 271.725,301.669 283.5,326C 281.699,326.317 281.366,326.984 282.5,328C 279.356,334.226 276.023,340.893 272.5,348C 265.432,365.433 258.599,384.266 252,404.5C 249.568,405.293 247.234,405.626 245,405.5C 244.147,403.875 243.147,403.542 242,404.5C 241.147,402.875 240.147,402.542 239,403.5C 238.147,401.875 237.147,401.542 236,402.5C 234.333,401.5 232.667,400.5 231,399.5C 230.667,399.833 230.333,400.167 230,400.5C 228.665,398.395 226.998,397.729 225,398.5C 223.54,396.578 221.873,395.911 220,396.5C 218.54,394.578 216.873,393.911 215,394.5C 213.287,392.807 211.287,391.474 209,390.5C 198.233,386.497 187.9,380.831 178,373.5C 162.672,364.84 150.339,352.507 141,336.5C 136.774,327.518 137.107,318.852 142,310.5C 152.491,294.64 165.825,282.64 182,274.5C 194.531,267.057 206.865,261.057 219,256.5C 221.388,255.895 223.721,254.562 226,252.5C 227.147,253.458 228.147,253.125 229,251.5C 230.147,252.458 231.147,252.125 232,250.5C 234.184,251.108 236.184,250.441 238,248.5C 239.147,249.458 240.147,249.125 241,247.5C 241.333,247.833 241.667,248.167 242,248.5C 244.567,247.413 247.067,246.413 249.5,245.5 Z M 249.5,247.5 C 227.435,254.359 206.102,263.193 185.5,274C 171.179,281.913 158.679,292.08 148,304.5C 140.191,314.221 138.524,324.888 143,336.5C 146.98,343.624 151.814,350.124 157.5,356C 184.477,378.242 214.977,394.075 249,403.5C 258.69,377.117 269.19,350.95 280.5,325C 274.623,312.717 269.123,300.217 264,287.5C 259.723,273.565 254.889,260.231 249.5,247.5 Z"/></g>
<g><path style="opacity:0.224" fill="#f4f5f6" d="M 332.5,228.5 C 333.289,228.783 333.956,229.283 334.5,230C 322.271,249.733 310.438,270.233 299,291.5C 292.334,274.922 285.834,257.422 279.5,239C 281.004,237.212 282.671,236.712 284.5,237.5C 300.544,234.051 316.544,231.051 332.5,228.5 Z M 329.5,230.5 C 313.933,233.375 298.266,236.375 282.5,239.5C 286.777,255.664 292.444,271.331 299.5,286.5C 309.298,267.725 319.964,249.559 331.5,232C 330.956,231.283 330.289,230.783 329.5,230.5 Z"/></g>
<g><path style="opacity:0.11" fill="#f5f6f6" d="M 409.5,222.5 C 435.535,222.269 461.535,223.102 487.5,225C 511.177,259.825 530.844,293.492 546.5,326C 544.699,326.317 544.366,326.984 545.5,328C 543.368,328.918 542.701,330.251 543.5,332C 541.697,333.262 540.364,334.929 539.5,337C 524.85,367.226 507.517,397.059 487.5,426.5C 486.393,425.978 485.226,425.645 484,425.5C 446.806,429.363 409.64,429.197 372.5,425C 350.849,394.058 332.849,363.392 318.5,333C 316.903,330.473 315.57,327.806 314.5,325C 330.707,290.685 350.04,257.351 372.5,225C 384.992,224.192 397.325,223.359 409.5,222.5 Z M 397.5,224.5 C 391.681,225.328 385.681,225.828 379.5,226C 376.666,226.045 374.166,226.879 372,228.5C 350.957,259.236 332.457,291.57 316.5,325.5C 326.918,346.677 338.085,367.343 350,387.5C 357.547,400.098 365.714,412.264 374.5,424C 405.153,425.469 435.82,425.803 466.5,425C 473.23,424.83 479.897,424.163 486.5,423C 507.723,392.394 526.556,360.227 543,326.5C 543.667,325.5 543.667,324.5 543,323.5C 526.638,289.824 507.805,257.657 486.5,227C 482,226.5 477.5,226 473,225.5C 467.965,226.479 462.632,226.146 457,224.5C 437.711,225.068 417.877,225.068 397.5,224.5 Z"/></g>
<g><path style="opacity:0.067" fill="#f5f6f6" d="M 525.5,228.5 C 543.2,231.206 560.866,234.372 578.5,238C 579.428,238.388 580.095,239.055 580.5,240C 577.889,248.502 574.889,256.836 571.5,265C 571.833,265.333 572.167,265.667 572.5,266C 569.206,271.718 566.206,278.051 563.5,285C 563.833,285.333 564.167,285.667 564.5,286C 563,286.833 561.833,288 561,289.5C 548.915,269.772 537.081,249.438 525.5,228.5 Z M 528.5,232.5 C 530.47,234.647 532.303,236.98 534,239.5C 542.968,255.147 551.968,270.813 561,286.5C 567.647,271.213 573.147,255.546 577.5,239.5C 567.319,237.632 557.485,235.632 548,233.5C 547.667,233.833 547.333,234.167 547,234.5C 540.818,232.415 534.652,231.748 528.5,232.5 Z"/></g>
<g><path style="opacity:0.26" fill="#f7f7f7" d="M 418.5,265.5 C 445.999,262.503 467.165,272.503 482,295.5C 495.874,326.5 489.707,352.667 463.5,374C 448.257,384.158 431.591,386.824 413.5,382C 390.383,374.822 376.216,359.322 371,335.5C 368.129,299.243 383.962,275.909 418.5,265.5 Z"/></g>
<g><path style="opacity:1" fill="#50c1df" d="M 418.5,267.5 C 436.59,265.439 452.256,269.272 465.5,279C 488.248,300.318 493.081,325.151 480,353.5C 463.441,377.509 441.274,386.343 413.5,380C 393.295,372.799 380.961,360.799 376.5,344C 367.271,313.697 375.771,290.197 402,273.5C 407.173,271.489 412.673,269.489 418.5,267.5 Z"/></g>
<g><path style="opacity:0.251" fill="#f5f7f7" d="M 429.5,151.5 C 441.883,164.051 453.383,177.384 464,191.5C 464.49,192.793 464.657,194.127 464.5,195.5C 441.525,194.349 418.525,194.349 395.5,195.5C 395.491,193.692 395.991,192.025 397,190.5C 407.841,177.469 418.675,164.469 429.5,151.5 Z M 429.5,154.5 C 418.433,166.567 408.1,179.234 398.5,192.5C 419.486,192.24 440.486,192.574 461.5,193.5C 462.521,192.998 462.688,192.332 462,191.5C 452.304,179.809 442.637,168.142 433,156.5C 432.184,155.177 431.017,154.511 429.5,154.5 Z"/></g>
<g><path style="opacity:0.2" fill="#f6f7f7" d="M 291.5,69.5 C 313.895,69.2772 333.728,74.9438 351,86.5C 360.669,91.5993 369.335,97.2659 377,103.5C 388.491,111.278 399.325,120.445 409.5,131C 390.258,152.485 372.592,174.485 356.5,197C 345.431,198.507 334.431,200.34 323.5,202.5C 321.135,201.711 318.801,202.044 316.5,203.5C 315.833,203.167 315.167,202.833 314.5,202.5C 300.169,205.166 285.836,207.833 271.5,210.5C 263.461,178.667 260.461,146.5 262.5,114C 264.404,107.556 266.237,101.056 268,94.5C 271.164,82.2238 278.997,73.8905 291.5,69.5 Z M 295.5,70.5 C 294.48,71.9538 293.313,72.2871 292,71.5C 287.376,72.7922 283.209,74.9589 279.5,78C 271.542,89.1924 266.709,101.692 265,115.5C 262.378,146.614 265.045,177.281 273,207.5C 273.414,207.957 273.914,208.291 274.5,208.5C 300.866,202.519 327.533,198.352 354.5,196C 363,184.833 371.5,173.667 380,162.5C 388.794,151.704 397.961,141.204 407.5,131C 389.327,113.579 369.327,98.5786 347.5,86C 330.365,77.0975 313.032,71.9308 295.5,70.5 Z"/></g>
<g><path style="opacity:0.067" fill="#f5f6f6" d="M 553.5,68.5 C 560.283,67.9374 566.783,68.9374 573,71.5C 573.333,71.1667 573.667,70.8333 574,70.5C 577.969,73.8928 581.803,77.3928 585.5,81C 585.167,81.3333 584.833,81.6667 584.5,82C 586.268,84.884 588.268,87.5506 590.5,90C 590.167,90.3333 589.833,90.6667 589.5,91C 590.787,94.8695 592.453,98.5362 594.5,102C 594.043,102.414 593.709,102.914 593.5,103.5C 594.676,108.405 596.009,113.238 597.5,118C 599.065,149.843 596.065,181.01 588.5,211.5C 582.062,209.926 575.062,208.259 567.5,206.5C 565.836,207.223 564.169,206.89 562.5,205.5C 560.037,205.413 557.537,205.413 555,205.5C 553.155,203.65 551.155,203.317 549,204.5C 533.939,201.471 518.772,198.971 503.5,197C 487.384,174.466 469.717,152.466 450.5,131C 476.506,104.275 506.173,84.6083 539.5,72C 544.295,70.8011 548.962,69.6345 553.5,68.5 Z M 552.5,70.5 C 544.807,72.5557 536.807,75.0557 528.5,78C 500.019,90.985 475.019,108.818 453.5,131.5C 472.131,151.963 489.464,173.463 505.5,196C 533.061,198.76 560.394,202.927 587.5,208.5C 592.236,185.37 595.236,161.87 596.5,138C 595.833,133.667 595.167,129.333 594.5,125C 594.228,111.643 591.394,98.8092 586,86.5C 581.584,77.7903 574.584,72.457 565,70.5C 561.087,71.6703 556.92,71.6703 552.5,70.5 Z"/></g>
<g><path style="opacity:0.11" fill="#f5f6f4" d="M 605.5,672.5 C 612.508,672.334 619.508,672.5 626.5,673C 627.31,678.751 627.81,684.584 628,690.5C 628.414,690.957 628.914,691.291 629.5,691.5C 636.262,691.024 642.929,691.024 649.5,691.5C 649.81,697.758 649.476,703.924 648.5,710C 641.586,710.186 634.753,710.686 628,711.5C 627.138,725.204 627.472,738.871 629,752.5C 633.334,757.869 638.501,758.702 644.5,755C 646.167,754.333 647.833,754.333 649.5,755C 652.044,759.76 654.044,764.76 655.5,770C 652.789,774.346 648.789,776.679 643.5,777C 636.797,777.416 630.297,777.583 624,777.5C 613.901,774.401 607.568,767.734 605,757.5C 604.667,742.167 604.333,726.833 604,711.5C 599.667,710.833 595.333,710.167 591,709.5C 590.333,703.833 590.333,698.167 591,692.5C 591.75,691.874 592.584,691.374 593.5,691C 597.152,690.501 600.818,690.335 604.5,690.5C 604.211,684.409 604.545,678.409 605.5,672.5 Z"/></g>
<g><path style="opacity:1" fill="#4fc1df" d="M 606.5,674.5 C 613.167,674.5 619.833,674.5 626.5,674.5C 626.5,680.5 626.5,686.5 626.5,692.5C 633.508,692.334 640.508,692.5 647.5,693C 648.833,698.333 648.833,703.667 647.5,709C 640.508,709.5 633.508,709.666 626.5,709.5C 626.333,723.837 626.5,738.171 627,752.5C 628.966,756.801 632.299,759.134 637,759.5C 638.79,758.715 640.457,758.715 642,759.5C 642.853,757.875 643.853,757.542 645,758.5C 645.667,757.167 646.667,756.167 648,755.5C 648.792,760.279 650.625,764.946 653.5,769.5C 652.15,771.735 650.65,773.068 649,773.5C 648.667,773.167 648.333,772.833 648,772.5C 646.902,773.967 645.402,774.801 643.5,775C 633.683,776.608 624.35,775.275 615.5,771C 611.896,768.292 609.396,764.792 608,760.5C 606.543,743.57 606.043,726.57 606.5,709.5C 601.821,709.666 597.155,709.499 592.5,709C 593.814,703.864 593.814,698.697 592.5,693.5C 597.12,692.507 601.786,692.173 606.5,692.5C 606.5,686.5 606.5,680.5 606.5,674.5 Z"/></g>
<g><path style="opacity:0.11" fill="#f1f5f6" d="M 222.5,664.5 C 236.042,665.115 249.542,665.115 263,664.5C 298.706,666.186 313.706,684.519 308,719.5C 304.338,728.828 298.171,735.995 289.5,741C 297.226,751.728 304.559,762.728 311.5,774C 311.355,774.772 311.022,775.439 310.5,776C 303.586,776.186 296.753,776.686 290,777.5C 288.933,776.809 287.766,776.309 286.5,776C 279.167,766 271.833,756 264.5,746C 256.507,745.5 248.507,745.334 240.5,745.5C 240.666,755.506 240.5,765.506 240,775.5C 239,776.167 238,776.833 237,777.5C 230,776.833 223,776.167 216,775.5C 215.333,739.167 215.333,702.833 216,666.5C 218.277,665.883 220.444,665.216 222.5,664.5 Z M 240.5,686.5 C 248.84,686.334 257.173,686.5 265.5,687C 277.652,687.484 284.319,693.818 285.5,706C 284.052,717.114 277.719,723.114 266.5,724C 257.84,724.5 249.173,724.666 240.5,724.5C 240.5,711.833 240.5,699.167 240.5,686.5 Z"/></g>
<g><path style="opacity:1" fill="#50c1df" d="M 217.5,667.5 C 233.328,666.339 249.328,666.172 265.5,667C 298.679,669.497 312.179,686.997 306,719.5C 301.719,728.613 295.219,735.613 286.5,740.5C 294.416,751.335 302.083,762.335 309.5,773.5C 301.855,774.665 294.188,774.831 286.5,774C 280.29,764.01 273.29,754.01 265.5,744C 256.506,743.5 247.506,743.334 238.5,743.5C 238.5,753.833 238.5,764.167 238.5,774.5C 231.833,774.5 225.167,774.5 218.5,774.5C 218.832,738.663 218.498,702.996 217.5,667.5 Z M 240.5,686.5 C 240.5,699.167 240.5,711.833 240.5,724.5C 249.173,724.666 257.84,724.5 266.5,724C 277.719,723.114 284.052,717.114 285.5,706C 284.319,693.818 277.652,687.484 265.5,687C 257.173,686.5 248.84,686.334 240.5,686.5 Z"/></g>
<g><path style="opacity:0.244" fill="#f8f8f8" d="M 238.5,684.5 C 247.506,684.334 256.506,684.5 265.5,685C 282.766,686.888 289.433,696.221 285.5,713C 286.634,714.016 286.301,714.683 284.5,715C 284.833,715.333 285.167,715.667 285.5,716C 280.571,722.023 274.571,725.357 267.5,726C 258.167,726.667 248.833,726.667 239.5,726C 238.51,712.246 238.177,698.412 238.5,684.5 Z M 240.5,686.5 C 240.5,699.167 240.5,711.833 240.5,724.5C 249.173,724.666 257.84,724.5 266.5,724C 277.719,723.114 284.052,717.114 285.5,706C 284.319,693.818 277.652,687.484 265.5,687C 257.173,686.5 248.84,686.334 240.5,686.5 Z"/></g>
<g><path style="opacity:0.245" fill="#f5f6f6" d="M 355.5,689.5 C 379.171,687.242 395.671,696.909 405,718.5C 406.66,726.023 406.827,733.523 405.5,741C 384.931,742.018 364.264,742.518 343.5,742.5C 349.972,754.395 359.972,758.895 373.5,756C 378.297,754.538 382.631,752.204 386.5,749C 388.235,748.349 389.902,748.515 391.5,749.5C 395.417,753.245 398.75,757.412 401.5,762C 397.703,768.122 392.369,772.455 385.5,775C 374.099,778.39 362.433,778.723 350.5,776C 327.216,767.738 316.55,751.405 318.5,727C 323.027,706.641 335.36,694.141 355.5,689.5 Z M 359.5,709.5 C 370.382,708.45 378.382,712.95 383.5,723C 376.829,724.151 369.996,724.651 363,724.5C 356.5,724.167 350,723.833 343.5,723.5C 346.45,716.037 351.783,711.37 359.5,709.5 Z"/></g>
<g><path style="opacity:1" fill="#4fc1df" d="M 355.5,691.5 C 388.605,690.111 405.105,705.778 405,738.5C 404.5,739 404,739.5 403.5,740C 382.836,740.5 362.169,740.667 341.5,740.5C 342.831,747.157 346.831,752.323 353.5,756C 362.138,759.527 370.305,759.693 378,756.5C 379.016,757.634 379.683,757.301 380,755.5C 381,755.5 382,755.5 383,755.5C 384.473,753.315 386.473,751.649 389,750.5C 392.472,754.307 395.972,758.141 399.5,762C 394.882,767.93 388.882,771.93 381.5,774C 363.923,778.406 347.923,775.406 333.5,765C 320.246,750.527 317.246,733.527 324.5,714C 331.362,701.628 341.695,694.128 355.5,691.5 Z M 359.5,709.5 C 351.783,711.37 346.45,716.037 343.5,723.5C 350,723.833 356.5,724.167 363,724.5C 369.996,724.651 376.829,724.151 383.5,723C 378.382,712.95 370.382,708.45 359.5,709.5 Z"/></g>
<g><path style="opacity:0.605" fill="#b6e1ec" d="M 385.5,725.5 C 385.611,726.117 385.944,726.617 386.5,727C 383.961,727.796 381.628,727.629 379.5,726.5C 381.621,726.675 383.621,726.341 385.5,725.5 Z"/></g>
<g><path style="opacity:0.245" fill="#f5f7f7" d="M 385.5,725.5 C 383.621,726.341 381.621,726.675 379.5,726.5C 370.473,726.251 361.473,726.584 352.5,727.5C 348.514,726.89 344.514,726.39 340.5,726C 346.626,708.825 357.793,703.658 374,710.5C 374.333,710.167 374.667,709.833 375,709.5C 377.179,712.011 379.679,714.178 382.5,716C 382.167,716.333 381.833,716.667 381.5,717C 383.353,719.571 385.019,722.238 386.5,725C 386.272,725.399 385.938,725.565 385.5,725.5 Z M 359.5,709.5 C 351.783,711.37 346.45,716.037 343.5,723.5C 350,723.833 356.5,724.167 363,724.5C 369.996,724.651 376.829,724.151 383.5,723C 378.382,712.95 370.382,708.45 359.5,709.5 Z"/></g>
<g><path style="opacity:0.11" fill="#f6f7f6" d="M 442.5,689.5 C 455.744,687.927 468.077,690.427 479.5,697C 486.401,703.303 490.235,711.136 491,720.5C 491.825,739.074 491.659,757.574 490.5,776C 483.5,776.667 476.5,776.667 469.5,776C 468.91,774.491 468.244,772.991 467.5,771.5C 457.523,777.833 446.856,779.667 435.5,777C 416.395,771.978 409.229,760.144 414,741.5C 418.765,731.75 426.598,726.25 437.5,725C 447.167,724.667 456.833,724.333 466.5,724C 466.767,717.228 463.434,712.895 456.5,711C 445.983,709.065 436.317,711.065 427.5,717C 425.559,717.743 423.726,717.576 422,716.5C 420.587,713.339 418.92,710.339 417,707.5C 415.85,705.246 415.516,702.913 416,700.5C 423.831,694.174 432.665,690.507 442.5,689.5 Z M 445.5,741.5 C 452.508,741.334 459.508,741.5 466.5,742C 468.123,749.08 465.457,754.08 458.5,757C 453.269,759.584 447.936,759.918 442.5,758C 437.076,755.983 435.242,752.15 437,746.5C 439.523,744.173 442.357,742.507 445.5,741.5 Z"/></g>
<g><path style="opacity:1" fill="#50c1df" d="M 442.5,691.5 C 448.842,691.334 455.175,691.5 461.5,692C 477.06,694.565 486.227,703.398 489,718.5C 489.5,737.164 489.667,755.83 489.5,774.5C 483.167,774.5 476.833,774.5 470.5,774.5C 470.799,772.396 470.466,770.396 469.5,768.5C 454.394,777.979 439.061,778.479 423.5,770C 413.807,760.577 411.973,749.744 418,737.5C 423.095,731.534 429.595,728.034 437.5,727C 448.077,726.181 458.577,726.348 469,727.5C 469.611,720.054 466.944,714.054 461,709.5C 460.667,709.833 460.333,710.167 460,710.5C 452.721,707.526 445.221,707.526 437.5,710.5C 433.196,711.394 429.029,713.394 425,716.5C 421.619,711.511 418.785,706.678 416.5,702C 420.003,698.825 423.837,696.992 428,696.5C 432.61,693.978 437.444,692.312 442.5,691.5 Z M 445.5,741.5 C 442.357,742.507 439.523,744.173 437,746.5C 435.242,752.15 437.076,755.983 442.5,758C 447.936,759.918 453.269,759.584 458.5,757C 465.457,754.08 468.123,749.08 466.5,742C 459.508,741.5 452.508,741.334 445.5,741.5 Z"/></g>
<g><path style="opacity:0.226" fill="#f8f8f7" d="M 447.5,739.5 C 454.833,739.5 462.167,739.5 469.5,739.5C 470.618,749.214 466.785,756.214 458,760.5C 457.667,760.167 457.333,759.833 457,759.5C 451.233,761.639 445.4,761.473 439.5,759C 432.744,752.633 432.911,746.466 440,740.5C 440.333,740.833 440.667,741.167 441,741.5C 443.277,740.883 445.444,740.216 447.5,739.5 Z M 445.5,741.5 C 442.357,742.507 439.523,744.173 437,746.5C 435.242,752.15 437.076,755.983 442.5,758C 447.936,759.918 453.269,759.584 458.5,757C 465.457,754.08 468.123,749.08 466.5,742C 459.508,741.5 452.508,741.334 445.5,741.5 Z"/></g>
<g><path style="opacity:0.3" fill="#f5f6f6" d="M 543.5,689.5 C 557.544,687.904 570.211,691.238 581.5,699.5C 585.361,703.137 587.527,707.471 588,712.5C 582.913,715.917 577.579,718.917 572,721.5C 568.511,718.68 565.011,715.847 561.5,713C 549.671,708.045 539.838,710.879 532,721.5C 527.915,731.749 528.915,741.415 535,750.5C 542.678,756.421 551.178,757.921 560.5,755C 564.345,751.82 568.178,748.653 572,745.5C 577.579,748.083 582.913,751.083 588,754.5C 588.552,757.419 587.885,760.086 586,762.5C 574.448,775.758 559.948,780.592 542.5,777C 522.655,774.119 510.655,763.119 506.5,744C 502.208,724.886 507.874,709.22 523.5,697C 529.878,693.379 536.545,690.879 543.5,689.5 Z"/></g>
<g><path style="opacity:1" fill="#50c1df" d="M 543.5,691.5 C 549.176,691.334 554.843,691.501 560.5,692C 563.435,692.308 566.268,693.475 569,695.5C 569.333,695.167 569.667,694.833 570,694.5C 572.071,695.364 573.738,696.697 575,698.5C 575.333,698.167 575.667,697.833 576,697.5C 579.89,701.385 583.39,705.552 586.5,710C 586.241,711.261 585.574,712.261 584.5,713C 580.077,715.606 575.911,717.773 572,719.5C 560.008,706.128 547.008,705.128 533,716.5C 531.291,719.418 529.458,722.252 527.5,725C 524.968,738.732 529.468,749.565 541,757.5C 541.333,757.167 541.667,756.833 542,756.5C 552.443,760.409 561.61,758.409 569.5,750.5C 570.386,749.675 570.719,748.675 570.5,747.5C 572.124,747.36 573.29,748.027 574,749.5C 574.333,749.167 574.667,748.833 575,748.5C 576.333,749.833 577.667,751.167 579,752.5C 579.333,752.167 579.667,751.833 580,751.5C 581.435,753.211 583.269,754.378 585.5,755C 586.022,755.561 586.355,756.228 586.5,757C 581.52,766.706 573.187,772.873 561.5,775.5C 542.625,778.492 527.125,773.159 515,759.5C 505.501,744.432 504.334,728.932 511.5,713C 516.421,704.14 524.088,697.806 534.5,694C 537.678,693.34 540.678,692.507 543.5,691.5 Z"/></g>
</svg>
