<?xml version="1.0" encoding="UTF-8"?>
<!DOCTYPE svg PUBLIC "-//W3C//DTD SVG 1.1//EN" "http://www.w3.org/Graphics/SVG/1.1/DTD/svg11.dtd">
<svg xmlns="http://www.w3.org/2000/svg" version="1.1" width="512px" height="512px" style="shape-rendering:geometricPrecision; text-rendering:geometricPrecision; image-rendering:optimizeQuality; fill-rule:evenodd; clip-rule:evenodd" xmlns:xlink="http://www.w3.org/1999/xlink">
<g><path style="opacity:1" fill="#0d7ad6" d="M 434.5,51.5 C 434.427,53.0269 435.094,54.0269 436.5,54.5C 440.336,57.6783 443.002,61.6783 444.5,66.5C 444.41,69.1522 445.076,71.4855 446.5,73.5C 447.665,195.43 447.831,317.43 447,439.5C 444.475,450.707 438.642,459.874 429.5,467C 410.029,480.732 388.696,490.732 365.5,497C 319.882,508.766 273.548,513.099 226.5,510C 189.304,507.828 153.304,500.161 118.5,487C 100.559,480.052 85.0592,469.552 72,455.5C 67.382,449.652 64.7154,442.986 64,435.5C 63.3333,315.167 63.3333,194.833 64,74.5C 64.4829,67.5232 66.9829,61.5232 71.5,56.5C 72.9063,56.0269 73.573,55.0269 73.5,53.5C 75.1667,51.1667 77.1667,49.1667 79.5,47.5C 81.7488,46.9202 83.4154,45.5869 84.5,43.5C 93.8094,35.836 104.143,29.6694 115.5,25C 168.695,4.9765 223.695,-3.0235 280.5,1C 317.665,2.69957 353.665,10.0329 388.5,23C 405.71,29.7565 421.043,39.2565 434.5,51.5 Z M 374.5,49.5 C 374.973,50.9063 375.973,51.573 377.5,51.5C 384.702,55.732 389.368,61.8986 391.5,70C 390.499,73.835 388.832,77.335 386.5,80.5C 384.5,81.8333 382.833,83.5 381.5,85.5C 362.62,96.4047 342.286,103.238 320.5,106C 275.112,113.441 229.778,113.108 184.5,105C 166.553,102.129 149.553,96.4622 133.5,88C 126.19,84.043 121.524,78.043 119.5,70C 120.449,63.7685 123.449,58.7685 128.5,55C 143.552,45.5351 159.885,39.2018 177.5,36C 233.724,25.2057 289.724,26.2057 345.5,39C 355.394,41.9504 365.061,45.4504 374.5,49.5 Z M 191.5,223.5 C 192.814,231.932 192.814,240.265 191.5,248.5C 181.704,243.173 171.371,241.673 160.5,244C 156.708,246.053 155.542,249.219 157,253.5C 164.346,259.258 172.512,263.591 181.5,266.5C 181.973,267.906 182.973,268.573 184.5,268.5C 184.973,269.906 185.973,270.573 187.5,270.5C 198.839,280.873 201.506,293.206 195.5,307.5C 194.094,307.973 193.427,308.973 193.5,310.5C 185.832,319.001 176.165,323.834 164.5,325C 151.145,326.353 138.145,324.853 125.5,320.5C 125.173,311.318 125.507,302.318 126.5,293.5C 136.873,301.51 148.54,304.343 161.5,302C 165.423,297.739 165.423,293.406 161.5,289C 155.101,285.468 148.434,282.468 141.5,280C 123.212,268.416 119.379,253.25 130,234.5C 136.857,226.987 145.357,222.487 155.5,221C 167.649,219.931 179.649,220.764 191.5,223.5 Z M 300.5,242.5 C 300.932,243.71 301.599,244.71 302.5,245.5C 310.78,264.305 310.447,282.972 301.5,301.5C 300.094,301.973 299.427,302.973 299.5,304.5C 294.408,311.254 288.075,316.588 280.5,320.5C 290.865,330.199 301.531,339.533 312.5,348.5C 300.345,349.495 288.011,349.829 275.5,349.5C 268.891,341.554 261.891,333.887 254.5,326.5C 217.27,319.401 201.77,297.067 208,259.5C 217.071,231.036 236.571,218.203 266.5,221C 281.285,222.883 292.618,230.05 300.5,242.5 Z M 323.5,221.5 C 333.833,221.5 344.167,221.5 354.5,221.5C 354.5,247.833 354.5,274.167 354.5,300.5C 366.167,300.5 377.833,300.5 389.5,300.5C 389.5,308.167 389.5,315.833 389.5,323.5C 367.5,323.5 345.5,323.5 323.5,323.5C 323.5,289.5 323.5,255.5 323.5,221.5 Z"/></g>
<g><path style="opacity:1" fill="#71a7e5" d="M 84.5,43.5 C 83.4154,45.5869 81.7488,46.9202 79.5,47.5C 80.5846,45.4131 82.2512,44.0798 84.5,43.5 Z"/></g>
<g><path style="opacity:1" fill="#92c0ed" d="M 374.5,49.5 C 376.027,49.427 377.027,50.0937 377.5,51.5C 375.973,51.573 374.973,50.9063 374.5,49.5 Z"/></g>
<g><path style="opacity:1" fill="#93bbed" d="M 434.5,51.5 C 435.906,51.9731 436.573,52.9731 436.5,54.5C 435.094,54.0269 434.427,53.0269 434.5,51.5 Z"/></g>
<g><path style="opacity:1" fill="#90baec" d="M 73.5,53.5 C 73.573,55.0269 72.9063,56.0269 71.5,56.5C 71.427,54.9731 72.0937,53.9731 73.5,53.5 Z"/></g>
<g><path style="opacity:1" fill="#74aee8" d="M 444.5,66.5 C 445.924,68.5145 446.59,70.8478 446.5,73.5C 445.076,71.4855 444.41,69.1522 444.5,66.5 Z"/></g>
<g><path style="opacity:1" fill="#71a6e5" d="M 386.5,80.5 C 385.833,83.1667 384.167,84.8333 381.5,85.5C 382.833,83.5 384.5,81.8333 386.5,80.5 Z"/></g>
<g><path style="opacity:1" fill="#daecf9" d="M 191.5,223.5 C 192.825,227.445 193.492,231.778 193.5,236.5C 193.167,240.833 192.833,245.167 192.5,249.5C 191.893,249.376 191.56,249.043 191.5,248.5C 192.814,240.265 192.814,231.932 191.5,223.5 Z"/></g>
<g><path style="opacity:1" fill="#93b7eb" d="M 300.5,242.5 C 302.048,242.821 302.715,243.821 302.5,245.5C 301.599,244.71 300.932,243.71 300.5,242.5 Z"/></g>
<g><path style="opacity:1" fill="#1b7dd7" d="M 268.5,249.5 C 268.427,251.027 269.094,252.027 270.5,252.5C 272.746,254.649 274.246,257.316 275,260.5C 277.704,271.566 276.704,282.232 272,292.5C 266.643,299.085 259.809,301.251 251.5,299C 249.934,298.392 248.6,297.558 247.5,296.5C 246.118,294.451 244.452,292.785 242.5,291.5C 239.204,285.808 237.87,279.641 238.5,273C 237.408,262.857 240.741,254.523 248.5,248C 255.523,244.52 262.19,245.02 268.5,249.5 Z"/></g>
<g><path style="opacity:1" fill="#99c0ee" d="M 268.5,249.5 C 269.906,249.973 270.573,250.973 270.5,252.5C 269.094,252.027 268.427,251.027 268.5,249.5 Z"/></g>
<g><path style="opacity:1" fill="#94c1ed" d="M 181.5,266.5 C 183.027,266.427 184.027,267.094 184.5,268.5C 182.973,268.573 181.973,267.906 181.5,266.5 Z"/></g>
<g><path style="opacity:1" fill="#8bb8eb" d="M 184.5,268.5 C 186.027,268.427 187.027,269.094 187.5,270.5C 185.973,270.573 184.973,269.906 184.5,268.5 Z"/></g>
<g><path style="opacity:1" fill="#94bbec" d="M 242.5,291.5 C 244.452,292.785 246.118,294.451 247.5,296.5C 244.856,295.856 243.189,294.189 242.5,291.5 Z"/></g>
<g><path style="opacity:1" fill="#7bb9e9" d="M 126.5,293.5 C 125.507,302.318 125.173,311.318 125.5,320.5C 124.178,311.325 124.178,301.992 125.5,292.5C 126.107,292.624 126.44,292.957 126.5,293.5 Z"/></g>
<g><path style="opacity:1" fill="#8ebeed" d="M 301.5,301.5 C 301.573,303.027 300.906,304.027 299.5,304.5C 299.427,302.973 300.094,301.973 301.5,301.5 Z"/></g>
<g><path style="opacity:1" fill="#9dc8ef" d="M 195.5,307.5 C 195.573,309.027 194.906,310.027 193.5,310.5C 193.427,308.973 194.094,307.973 195.5,307.5 Z"/></g>
<g><path style="opacity:1" fill="#bedef5" d="M 312.5,348.5 C 313.289,348.783 313.956,349.283 314.5,350C 301.327,350.827 288.327,350.66 275.5,349.5C 288.011,349.829 300.345,349.495 312.5,348.5 Z"/></g>
</svg>
