<?xml version="1.0" encoding="UTF-8"?>
<svg version="1.1" xmlns="http://www.w3.org/2000/svg" width="997" height="1092">
<path d="M0 0 C2.71989992 7.06160353 5.04381663 14.22118275 7.3125 21.4375 C24.48550808 75.68797189 49.6542131 127.37370334 77.71875 176.7890625 C78.14704102 177.54493652 78.57533203 178.30081055 79.01660156 179.07958984 C79.81021934 180.47611835 80.60866972 181.8699174 81.41308594 183.26025391 C84 187.7818882 84 187.7818882 84 190 C85.28511475 190.18622925 85.28511475 190.18622925 86.59619141 190.3762207 C136.42238454 197.66777972 185.97224205 206.47639606 235 218 C235.83521179 218.19531311 236.67042358 218.39062622 237.53094482 218.59185791 C323.91655589 238.82053717 412.42606426 268.431166 545 377 C545.89238203 378.01767055 546.78568697 379.03453222 547.6796875 380.05078125 C561.1231338 395.41058637 572.72344287 412.00385036 584 429 C584.67337402 430.00466309 585.34674805 431.00932617 586.04052734 432.04443359 C587.01626709 433.5287085 587.01626709 433.5287085 588.01171875 435.04296875 C588.60815186 435.94426514 589.20458496 436.84556152 589.8190918 437.77416992 C590.2087915 438.50869385 590.59849121 439.24321777 591 440 C590.67 440.66 590.34 441.32 590 442 C586.92627703 442.64822902 583.904545 443.17014525 580.80078125 443.62890625 C578.81109749 443.93965672 576.82143371 444.25053511 574.83178711 444.56152344 C573.77168427 444.72390503 572.71158142 444.88628662 571.61935425 445.05358887 C545.93198516 449.00676827 520.45266699 453.76096986 495 459 C493.96734009 459.21164795 492.93468018 459.4232959 491.87072754 459.64135742 C413.36652497 475.74462935 335.55132051 495.35263999 213.66699219 529.95458984 C212.95014252 530.16533646 212.23329285 530.37608307 211.49472046 530.59321594 C209.61588098 531.1458332 207.7383016 531.70272982 205.86083984 532.26000977 C203 533 203 533 200 533 C200.13575439 533.857146 200.27150879 534.71429199 200.41137695 535.59741211 C202.96732426 551.90117584 205.30161476 568.1814257 206.75 584.625 C206.86512939 585.93073975 206.98025879 587.23647949 207.09887695 588.58178711 C208.30527537 602.89534411 209.16014268 617.12778701 209.16796875 631.49609375 C209.17120401 632.94116748 209.1745695 634.38624093 209.17805481 635.83131409 C209.18398597 638.84563957 209.18590149 641.85993669 209.18530273 644.87426758 C209.18522234 647.88604858 209.19203529 650.89767465 209.20581055 653.90942383 C209.33780037 683.28926147 207.86490946 712.39271427 204.8125 741.625 C204.7080658 742.63796143 204.60363159 743.65092285 204.49603271 744.69458008 C200.92032873 779.07394761 196.11928411 813.37607203 188 847 C187.84055908 847.66378662 187.68111816 848.32757324 187.5168457 849.01147461 C172.66647113 910.57450285 149.03242058 969.84954692 122 1027 C121.55060059 1027.95374512 121.10120117 1028.90749023 120.63818359 1029.89013672 C114.76895519 1042.31873172 108.73152184 1054.66639883 102.62509155 1066.97998047 C101.92443138 1068.39438072 101.22567636 1069.80972655 100.52896118 1071.22607422 C98.94316215 1074.44625087 97.33899616 1077.65200831 95.66552734 1080.82763672 C94.69368702 1082.67872045 93.75445449 1084.54901401 92.90087891 1086.45751953 C91.88671875 1088.390625 91.88671875 1088.390625 89 1091 C84.41632546 1091.95611398 79.90198484 1091.79736253 75.25 1091.625 C73.82840048 1091.59568803 72.40676712 1091.56797956 70.98510742 1091.54174805 C2.48104281 1089.96237509 -66.94955651 1079.67488756 -134 1066 C-134.66358521 1065.86527283 -135.32717041 1065.73054565 -136.01086426 1065.59173584 C-144.38034817 1063.88691981 -152.70183384 1062.02276535 -161 1060 C-162.10263184 1059.73316406 -163.20526367 1059.46632813 -164.34130859 1059.19140625 C-229.96008208 1043.07679445 -297.51566607 1018.7239086 -350 975 C-350.79639893 974.33895264 -350.79639893 974.33895264 -351.60888672 973.66455078 C-377.89820975 951.76543346 -401.34427416 925.09363159 -406 890 C-408.41813739 851.32402616 -388.7257337 818.92843203 -363.97485352 790.68945312 C-358.37182698 784.4187625 -352.56848568 778.38535589 -346.625 772.4375 C-345.32175781 771.11588867 -345.32175781 771.11588867 -343.9921875 769.76757812 C-338.72391667 764.48761735 -333.27175466 759.64282137 -327.45068359 754.98071289 C-324.50562738 752.60043385 -321.75612061 750.09588104 -319 747.5 C-314.47324232 743.28540718 -309.79390945 739.3241095 -304.98046875 735.44140625 C-295.87457164 727.98244728 -287.08385587 720.14162457 -278.40625 712.19140625 C-276.31434877 710.28628191 -274.20036615 708.41560939 -272.0625 706.5625 C-267.20955924 702.33828031 -262.48002718 697.98072791 -257.75268555 693.61724854 C-256.61848033 692.57068789 -255.48359639 691.52486213 -254.34790039 690.47991943 C-244.7345295 681.62607553 -235.38121248 672.53896459 -226.15380859 663.28417969 C-223.97738731 661.10233092 -221.79557761 658.92597087 -219.61328125 656.75 C-218.20019963 655.33625848 -216.78742777 653.92220726 -215.375 652.5078125 C-214.7363501 651.87118683 -214.0977002 651.23456116 -213.43969727 650.5786438 C-209.66578795 646.78528839 -206.07502629 642.88051504 -202.58554077 638.82365417 C-200.01512703 635.86722074 -197.31269917 633.03685601 -194.625 630.1875 C-189.95316099 625.19454716 -185.50199685 620.09431243 -181.2265625 614.75390625 C-179.23322386 612.28846108 -177.19045019 609.87471717 -175.12207031 607.47216797 C-131.3184991 556.48231692 -95.60398823 495.83082066 -84 429 C-83.86722656 428.23961426 -83.73445313 427.47922852 -83.59765625 426.69580078 C-73.69588783 366.04746921 -88.92908125 300.31237304 -124.4375 250.55078125 C-126.57331034 247.65483008 -128.76072984 244.81648605 -131 242 C-131.71542969 241.0925 -132.43085938 240.185 -133.16796875 239.25 C-142.04017375 228.19507554 -151.83001618 218.01521598 -161.85546875 208.01171875 C-162.85205825 207.01445233 -163.84849955 206.01703781 -164.84480286 205.01948547 C-166.90948828 202.95334403 -168.9759241 200.88897493 -171.04370117 198.82592773 C-173.6725738 196.20278138 -176.29688806 193.57512746 -178.91991711 190.94613934 C-180.96775124 188.89466801 -183.01799012 186.84561322 -185.06893349 184.79725075 C-186.50141527 183.36574395 -187.93191301 181.93225261 -189.36235046 180.498703 C-193.83247416 176.04450361 -198.35498825 171.73422528 -203.14170837 167.62254333 C-208.36513531 163.06177556 -213.22301859 158.08311643 -218.14624023 153.20385742 C-219.50712397 151.85957578 -220.87335688 150.52068792 -222.24487305 149.18725586 C-239.48919737 132.41707315 -239.48919737 132.41707315 -240.75 120.9375 C-240.41616626 114.85218787 -237.05173447 111.26793374 -233 107 C-232.47148437 106.40574219 -231.94296875 105.81148438 -231.3984375 105.19921875 C-216.08804994 88.79523208 -193.56578011 78.31216239 -174 68 C-173.15050781 67.55188965 -172.30101562 67.1037793 -171.42578125 66.64208984 C-130.34745888 45.15557975 -86.51126344 28.79091532 -43 13 C-42.32676697 12.75531982 -41.65353394 12.51063965 -40.9598999 12.25854492 C-36.45551069 10.62206355 -31.94775344 8.99525234 -27.4375 7.375 C-26.32020508 6.97297363 -25.20291016 6.57094727 -24.05175781 6.15673828 C-6.17335214 -0.21350728 -6.17335214 -0.21350728 0 0 Z M-12.01171875 11.7109375 C-13.58373047 12.3289624 -13.58373047 12.3289624 -15.1875 12.95947266 C-16.92 13.66015869 -16.92 13.66015869 -18.6875 14.375 C-19.90050781 14.85888184 -21.11351562 15.34276367 -22.36328125 15.84130859 C-46.80087308 25.63927403 -71.10662938 35.93973701 -95 47 C-96.42968029 47.65366161 -97.85936786 48.30730728 -99.2890625 48.9609375 C-116.30196642 56.79531778 -132.67645144 65.83384967 -149 75 C-145.63882963 76.947821 -142.57834963 77.52638696 -138.74926758 78.078125 C-137.46996368 78.26630295 -136.19065979 78.4544809 -134.87258911 78.64836121 C-134.18630558 78.74600454 -133.50002205 78.84364788 -132.79294205 78.94425011 C-130.60025578 79.25630104 -128.40892104 79.57666279 -126.21774292 79.89912415 C-123.06334804 80.36265119 -119.90850164 80.82290593 -116.75326538 81.28067017 C-108.42835565 82.49029404 -100.10819825 83.73182176 -91.7890625 84.98046875 C-90.95043104 85.10630026 -90.11179958 85.23213177 -89.24775505 85.36177635 C-73.02279608 87.80187095 -56.84694373 90.46880721 -40.6875 93.3125 C-39.57275299 93.50674561 -38.45800598 93.70099121 -37.30947876 93.90112305 C-23.46600247 96.32088889 -9.71647458 99.04904847 4.00056458 102.10505676 C5.11823715 102.35164536 6.23590973 102.59823395 7.38745117 102.85229492 C8.37605637 103.07382736 9.36466156 103.2953598 10.38322449 103.52360535 C13.21258822 104.11940673 13.21258822 104.11940673 17 104 C15.7267573 96.57207293 13.66263044 89.62856277 11.25 82.5 C3.5999293 59.10519809 -0.50027808 35.29135842 -4 11 C-7.65645939 9.7811802 -8.50033987 10.31892099 -12.01171875 11.7109375 Z M-160 85 C-157.37582045 88.36223005 -154.75516764 91.30388336 -151.5 94.0625 C-147.05735022 97.84043513 -142.99198023 101.94910861 -138.91992188 106.11743164 C-136.1147343 108.9673736 -133.25515209 111.67774861 -130.21875 114.28125 C-124.29940853 119.39624076 -118.90824642 125.04768924 -113.421875 130.6171875 C-109.69762015 134.37571463 -105.98878849 138.07767261 -101.9609375 141.51171875 C-98.92430255 144.11030425 -96.1589283 146.86404336 -93.4140625 149.76953125 C-92.62773437 150.59517578 -91.84140625 151.42082031 -91.03125 152.27148438 C-89.42097222 153.97194817 -87.82461924 155.68570228 -86.2421875 157.41210938 C-80.79853248 163.06479363 -76.85371933 165.49714819 -69 166 C-67.74574219 166.1959375 -66.49148438 166.391875 -65.19921875 166.59375 C-59.36973858 166.40743952 -54.47026525 162.64169197 -49.6619873 159.64978027 C-46.46481898 157.66218022 -43.23105987 155.73525358 -40.00390625 153.796875 C-39.34051239 153.39607727 -38.67711853 152.99527954 -37.99362183 152.58233643 C-31.17123764 148.46993387 -24.23241541 144.58276071 -17.25 140.75 C-16.65697083 140.42370605 -16.06394165 140.09741211 -15.45294189 139.76123047 C-3.07976668 132.961531 9.43332905 126.43467064 22 120 C22 119.67 22 119.34 22 119 C20.7521875 118.86464844 19.504375 118.72929688 18.21875 118.58984375 C-29.69385903 113.20566376 -77.31723854 105.25908131 -124.25 94.1875 C-125.00275208 94.01067688 -125.75550415 93.83385376 -126.53106689 93.65167236 C-135.10356632 91.62227697 -143.53239892 89.32588068 -151.9006958 86.56474304 C-154.73625235 85.63979237 -156.99355901 85 -160 85 Z M-171 89 C-179.56312473 95.14905233 -187.35982096 101.74849286 -195 109 C-195.680625 109.60457031 -196.36125 110.20914063 -197.0625 110.83203125 C-203.01789158 116.29557129 -208.76081164 124.09604684 -209.9375 132.25 C-209.958125 133.1575 -209.97875 134.065 -210 135 C-202.76580791 138.58227655 -195.35411997 140.76988201 -187.5625 142.8125 C-186.92415222 142.9816391 -186.28580444 143.1507782 -185.62811279 143.32504272 C-170.2344482 147.38949159 -154.65832988 150.58768218 -139.03039551 153.60650635 C-137.62817462 153.87825883 -136.2264271 154.1524612 -134.82507324 154.4286499 C-132.65249 154.8568263 -130.47876899 155.27872376 -128.3046875 155.69921875 C-127.02319824 155.94889404 -125.74170898 156.19856934 -124.42138672 156.45581055 C-121.52679407 156.91621065 -118.91904188 157.11613392 -116 157 C-118.5265505 152.42939997 -121.68373853 148.56745278 -125 144.5625 C-129.20501764 139.43981115 -133.36779588 134.29334728 -137.4375 129.0625 C-142.11170864 123.06743159 -146.93029892 117.19977109 -151.78417969 111.34960938 C-156.14526982 106.07965746 -160.39448281 100.73262967 -164.53710938 95.2890625 C-166.56970662 92.6526922 -168.19783007 90.86811329 -171 89 Z M21.4375 132.75 C6.28031884 145.72884012 -10.05675917 157.17257141 -27.34204102 167.13354492 C-30.75018584 168.97776532 -30.75018584 168.97776532 -33 172 C-21.72722006 173.85207072 -10.45306765 175.69552015 0.82292557 177.52793217 C6.05860054 178.37903753 11.29375346 179.23312126 16.52783203 180.09399414 C21.57764981 180.92444869 26.62868174 181.74710219 31.68065643 182.56432915 C33.60924468 182.87771706 35.53737634 183.19392809 37.46503448 183.51298714 C40.16206404 183.95889798 42.86053265 184.39480416 45.55957031 184.82836914 C46.35870346 184.96287476 47.15783661 185.09738037 47.98118591 185.23596191 C51.6493631 185.81500543 54.44569317 186.05954045 58 185 C57.45214844 184.03707031 56.90429688 183.07414062 56.33984375 182.08203125 C50.74332895 172.16372989 45.41044045 162.11873235 40.1875 152 C39.86780243 151.38097809 39.54810486 150.76195618 39.21871948 150.12417603 C35.42662459 142.77560092 31.67512962 135.4078665 28 128 C25.70237486 128 23.17276118 131.24124303 21.4375 132.75 Z M-191 158 C-187.44826221 161.65021481 -183.73136277 164.99540086 -179.8125 168.25 C-174.09459352 173.04688518 -168.50813873 177.96257178 -163 183 C-161.91289655 183.98192157 -160.82564868 184.96368327 -159.73828125 185.9453125 C-154.45869314 190.73505748 -149.30227309 195.48505652 -144.72265625 200.96484375 C-142.64031413 203.424935 -140.44508324 205.76502788 -138.25 208.125 C-124.4183763 223.33560733 -112.45399046 240.3204573 -102 258 C-100.57155049 254.17219717 -101.45204509 251.55967377 -102.59765625 247.71875 C-102.78261658 247.08869049 -102.9675769 246.45863098 -103.15814209 245.80947876 C-103.7808569 243.70249223 -104.41975066 241.60095728 -105.0625 239.5 C-105.28352386 238.77455994 -105.50454773 238.04911987 -105.73226929 237.30169678 C-106.69050123 234.15882552 -107.64959875 231.01626576 -108.61775208 227.87643433 C-110.32314446 222.31926446 -111.92519221 216.7400626 -113.47865295 211.13861084 C-114.60478495 207.11244268 -115.77664821 203.10038173 -116.95626831 199.08959961 C-117.52469907 197.12147622 -118.07448831 195.14786803 -118.60501099 193.16918945 C-121.08703716 182.39994141 -121.08703716 182.39994141 -127.63549805 174.06176758 C-131.09222852 172.96095612 -134.40500772 172.48907178 -138 172 C-141.24812519 171.19117918 -144.45342978 170.24081754 -147.66796875 169.30859375 C-149.40206996 168.83061632 -151.13711381 168.35604668 -152.87304688 167.88476562 C-153.74695068 167.64669189 -154.62085449 167.40861816 -155.52124023 167.16333008 C-156.40110596 166.92380615 -157.28097168 166.68428223 -158.1875 166.4375 C-161.70224364 165.47939886 -165.21653951 164.51967733 -168.73046875 163.55859375 C-169.55884247 163.33255463 -170.38721619 163.1065155 -171.24069214 162.87362671 C-176.26295088 161.49707272 -181.25696674 160.05698677 -186.21606445 158.46508789 C-188.17656674 157.87386183 -188.17656674 157.87386183 -191 158 Z M-113 179 C-111.27192025 184.59412054 -109.21833128 189.91368089 -106.79052734 195.23950195 C-95.69509344 219.61636878 -87.5561692 245.34022615 -80 271 C-75.33204768 268.11726159 -71.76269403 264.90537844 -68 260.9375 C-61.98616569 254.76618537 -55.56926879 249.4605679 -48.69238281 244.28662109 C-47.08615946 243.06550207 -45.50700154 241.80902031 -43.9296875 240.55078125 C-29.53657935 229.12096007 -13.79172978 219.70622458 2.13012695 210.58105469 C3.09781006 210.02579102 4.06549316 209.47052734 5.0625 208.8984375 C6.34833984 208.16633057 6.34833984 208.16633057 7.66015625 207.41943359 C9.89189804 206.06557855 11.92507228 204.57966272 14 203 C-3.26754872 199.49902184 -20.56350534 196.1627079 -37.8760376 192.89245605 C-78.8113001 185.15883279 -78.8113001 185.15883279 -98.67163086 180.87939453 C-99.8653833 180.62528809 -101.05913574 180.37118164 -102.2890625 180.109375 C-103.28631348 179.89249023 -104.28356445 179.67560547 -105.31103516 179.45214844 C-107.9312437 179.01156135 -110.34897214 178.91422968 -113 179 Z M22.703125 209.11328125 C21.83341064 209.77908203 20.96369629 210.44488281 20.06762695 211.13085938 C19.13781006 211.85080078 18.20799316 212.57074219 17.25 213.3125 C16.3014917 214.04146484 15.3529834 214.77042969 14.37573242 215.52148438 C6.87572043 221.2951265 -0.58847994 227.11324578 -8 233 C-8.886875 233.70382813 -9.77375 234.40765625 -10.6875 235.1328125 C-13.13161303 237.08046507 -15.56691493 239.0385954 -18 241 C-18.87011719 241.69480469 -19.74023438 242.38960937 -20.63671875 243.10546875 C-27.09386993 248.30987733 -33.25883625 253.78082864 -39.31982422 259.4375 C-41.15474447 261.14390651 -43.00074728 262.83783011 -44.84765625 264.53125 C-54.40202514 273.30301689 -54.40202514 273.30301689 -63 283 C-59.93791046 285.04139303 -57.62830912 285.8153907 -54.10864258 286.8125 C-52.89078568 287.16046631 -51.67292877 287.50843262 -50.41816711 287.86694336 C-49.76470118 288.05094696 -49.11123524 288.23495056 -48.4379673 288.42453003 C-46.35662447 289.01067526 -44.27722179 289.60330721 -42.19816589 290.19750977 C-37.73794378 291.47090227 -33.27530993 292.7357126 -28.8125 294 C-23.02580185 295.64044678 -17.24054359 297.28585591 -11.45703125 298.9375 C-10.74152225 299.141474 -10.02601326 299.345448 -9.28882217 299.55560303 C3.25336819 303.13706398 15.70967203 306.96661544 28.12895203 310.95288086 C29.38359756 311.3525708 30.6382431 311.75226074 31.9309082 312.1640625 C33.03425003 312.51936035 34.13759186 312.8746582 35.27436829 313.24072266 C38.0100919 314.13417584 38.0100919 314.13417584 41 314 C42.07085652 309.62429571 42.17676722 305.33859988 42.203125 300.859375 C42.21371445 299.67330406 42.21371445 299.67330406 42.22451782 298.46327209 C42.43933111 267.21709586 40.60558482 235.41460027 29 206 C26.12083742 206 24.9732232 207.36663713 22.703125 209.11328125 Z M41 207 C41.48096255 208.44589545 41.96218252 209.89170528 42.44351196 211.33747864 C42.71146387 212.14262311 42.97941578 212.94776758 43.25548744 213.77731037 C44.03106934 216.09275533 44.83198236 218.39788601 45.6484375 220.69921875 C55.87941902 250.03547174 59.37946893 279.03172818 60 310 C60.66 310.33 61.32 310.66 62 311 C64.36069877 309.75834379 64.36069877 309.75834379 67.00390625 307.90625 C68.04192383 307.21297607 69.07994141 306.51970215 70.14941406 305.80541992 C70.70471802 305.43001068 71.26002197 305.05460144 71.83215332 304.66781616 C74.77650982 302.68066113 77.74138241 300.72471412 80.70703125 298.76953125 C81.61967239 298.16737541 81.61967239 298.16737541 82.55075073 297.55305481 C98.70218504 286.938334 115.51308078 277.39277035 132.56152344 268.30517578 C134.77064585 267.12276004 136.96897388 265.92304691 139.1640625 264.71484375 C151.38994125 258.03839595 164.06650627 252.31580889 176.72070312 246.50976562 C181.24259894 244.42791603 185.74851015 242.31303987 190.25 240.1875 C190.95253906 239.85613037 191.65507813 239.52476074 192.37890625 239.18334961 C193.91960057 238.4562647 195.45986303 237.72826477 197 237 C193.26249418 234.80300186 189.25461709 234.02848674 185.0625 233.14453125 C184.2311554 232.9660968 183.39981079 232.78766235 182.54327393 232.6038208 C179.69724794 231.99815598 176.84897417 231.404136 174 230.8125 C172.50333801 230.49960526 172.50333801 230.49960526 170.97644043 230.1803894 C147.81737829 225.36432137 124.53526926 221.21458678 101.25 217.0625 C99.86557709 216.81524359 99.86557709 216.81524359 98.45318604 216.5629921 C93.03382697 215.59525473 87.61376714 214.63160041 82.19264984 213.67375946 C80.53135361 213.38010399 78.87017854 213.08576197 77.20914459 212.79062653 C65.16814197 210.6540744 53.10073735 208.76632483 41 207 Z M202.4375 248.125 C201.85643494 248.43789978 201.27536987 248.75079956 200.67669678 249.07318115 C188.28003245 255.75940887 176.10986673 262.80791026 164 270 C163.13181641 270.51272461 162.26363281 271.02544922 161.36914062 271.55371094 C135.2115605 287.00497945 109.74720693 303.64684647 84.8125 321 C84.10569092 321.4861377 83.39888184 321.97227539 82.6706543 322.47314453 C81.07580809 323.59672567 79.53094298 324.79079257 78 326 C78 326.66 78 327.32 78 328 C78.89904053 328.39155273 79.79808105 328.78310547 80.72436523 329.18652344 C130.41949734 350.85621262 130.41949734 350.85621262 152.74487305 363.90087891 C153.63988525 364.42214355 154.53489746 364.9434082 155.45703125 365.48046875 C156.6322937 366.17499146 156.6322937 366.17499146 157.83129883 366.88354492 C159.90012505 367.94858402 161.72682316 368.54627015 164 369 C199.0669974 308.91842033 199.0669974 308.91842033 215 242 C211.11978649 242 205.7774297 246.32526718 202.4375 248.125 Z M228 244 C227.01601488 249.81815346 226.04438488 255.63602446 225.17578125 261.47265625 C220.08136144 294.9877907 210.57774905 331.40368783 193.79467773 361.13525391 C192.68654196 363.16435527 192.68654196 363.16435527 194 366 C194.97195313 365.6189209 195.94390625 365.2378418 196.9453125 364.84521484 C262.6718167 339.12368126 329.38273633 319.37806088 398 303 C359.19748639 277.13165759 274.60088418 244 228 244 Z M-101 258 C-100 260 -100 260 -100 260 Z M-70 313 C-69.53045862 322.0695624 -68.86591542 331.07632801 -67.74853516 340.09130859 C-66.10390098 353.78151493 -65.83373859 367.42066273 -65.875 381.1875 C-65.87588623 382.04119171 -65.87677246 382.89488342 -65.87768555 383.77444458 C-65.89284424 396.20559029 -66.09678141 408.59687324 -67 421 C-60.68542525 416.6028106 -55.35576773 411.56907007 -50 406.0625 C-45.07749577 401.02659337 -40.14501165 396.11625146 -34.77539062 391.55444336 C-32.93332071 389.94161894 -31.21333563 388.24823359 -29.5 386.5 C-26.55399785 383.50765625 -23.47016993 380.74675828 -20.2890625 378.0078125 C-18.06426861 376.05637213 -15.88829499 374.05816352 -13.71899414 372.04541016 C-8.51773336 367.22141283 -3.19147215 362.64359932 2.3359375 358.19140625 C5.89188484 355.26635279 9.2914208 352.1853277 12.6953125 349.0859375 C15.74430706 346.32633903 18.86340547 343.65928666 22 341 C20.30835994 337.61671988 16.36890049 337.17909344 12.953125 336.0234375 C12.12270691 335.73694336 11.29228882 335.45044922 10.43670654 335.15527344 C7.71086974 334.21924878 4.98091671 333.29609071 2.25 332.375 C1.3228418 332.06008606 0.39568359 331.74517212 -0.55957031 331.42071533 C-16.55832699 325.99567861 -32.6132992 321.12829677 -49 317 C-49.92312988 316.76571289 -50.84625977 316.53142578 -51.79736328 316.29003906 C-60.78909796 313.88508571 -60.78909796 313.88508571 -70 313 Z M400.42651367 315.21484375 C399.51557449 315.48417725 398.60463531 315.75351074 397.66609192 316.03100586 C396.67671127 316.33014893 395.68733063 316.62929199 394.66796875 316.9375 C393.62529343 317.24888916 392.5826181 317.56027832 391.50834656 317.88110352 C388.06571721 318.91311755 384.62631516 319.95535056 381.1875 321 C380.0040802 321.35835938 378.8206604 321.71671875 377.60137939 322.0859375 C315.4151113 340.95605144 254.35558921 363.51622813 195 390 C197.9664696 394.04912273 201.32013084 396.96539676 205.3125 399.9375 C213.37101846 406.12319722 220.72091639 412.92334745 228 420 C228.78165527 420.75974121 229.56331055 421.51948242 230.36865234 422.30224609 C239.43762165 431.1575346 248.26097131 439.94649545 256 450 C256.93290074 451.14722035 257.86935969 452.29155273 258.80859375 453.43359375 C264.7692024 460.71537317 270.32150705 468.10644203 275.34716797 476.07299805 C276.72911925 478.25406338 276.72911925 478.25406338 279 481 C282.81686435 481.4311699 282.81686435 481.4311699 284.48876953 479.73754883 C284.94880371 479.14997803 285.40883789 478.56240723 285.8828125 477.95703125 C286.40488281 477.3021875 286.92695312 476.64734375 287.46484375 475.97265625 C288.01269531 475.25980469 288.56054688 474.54695312 289.125 473.8125 C289.70121094 473.08289063 290.27742187 472.35328125 290.87109375 471.6015625 C292.59480098 469.41157527 294.30046711 467.20878104 296 465 C296.45213867 464.41395996 296.90427734 463.82791992 297.37011719 463.22412109 C299.38957352 460.60293951 301.40013072 457.97515322 303.40625 455.34375 C306.90238176 450.79877871 310.55381662 446.37967202 314.18359375 441.94140625 C317.52606496 437.84392978 320.79405501 433.70520058 324 429.5 C327.74368174 424.58945642 331.59100949 419.77979681 335.5 415 C339.42612389 410.19823703 343.3019453 405.37017564 347.0625 400.4375 C350.64593412 395.73896159 354.2969648 391.10475593 358 386.5 C362.93990211 380.34774668 367.80980245 374.14740828 372.58056641 367.86279297 C373.58386511 366.54611442 374.59181113 365.23297095 375.60302734 363.92236328 C383.72921647 353.389439 391.42123664 342.61927366 398.8125 331.5625 C399.40695923 330.6772464 399.40695923 330.6772464 400.01342773 329.77410889 C401.1461611 328.08367952 402.27050254 326.38763613 403.39453125 324.69140625 C404.04268799 323.71373291 404.69084473 322.73605957 405.35864258 321.72875977 C406.87972419 319.19995876 407.99935002 316.76984203 409 314 C405.58293094 314 403.60306596 314.26705748 400.42651367 315.21484375 Z M423 317 C422.69932617 317.64211426 422.39865234 318.28422852 422.08886719 318.94580078 C406.19601344 352.76766755 388.34071532 385.4369157 364 414 C363.06757871 415.10666163 362.13529513 416.2134393 361.203125 417.3203125 C360.19862738 418.5058109 359.19342501 419.69071253 358.1875 420.875 C357.75042725 421.3915918 357.31335449 421.90818359 356.86303711 422.44042969 C345.81067786 435.34493249 333.80754735 447.29586637 321.75 459.25 C318.5752858 462.39820038 315.40386757 465.54966883 312.234375 468.703125 C311.50643738 469.42276428 310.77849976 470.14240356 310.02850342 470.8838501 C309.3665094 471.54254089 308.70451538 472.20123169 308.02246094 472.87988281 C307.43688416 473.46022278 306.85130737 474.04056274 306.24798584 474.63848877 C304.88738247 475.81503893 304.88738247 475.81503893 305 477 C311.36320056 476.39982589 317.41425601 475.35328748 323.62890625 473.8828125 C325.54091926 473.44139554 327.45303362 473.00041741 329.36523438 472.55981445 C330.37158936 472.32638336 331.37794434 472.09295227 332.41479492 471.85244751 C402.87513062 455.56877592 474.17774048 443.39470292 546.19096375 436.65203857 C554.8015805 435.84127886 563.40059855 434.92106539 572 434 C568.83771606 430.28303024 565.67696146 426.57828164 562.3359375 423.01953125 C561.69462891 422.33616699 561.05332031 421.65280273 560.39257812 420.94873047 C559.39387695 419.89129639 559.39387695 419.89129639 558.375 418.8125 C557.32602539 417.70092529 557.32602539 417.70092529 556.25585938 416.56689453 C544.6091641 404.26402926 544.6091641 404.26402926 532.1171875 392.8359375 C529.92818712 390.93772684 527.8024964 388.97829543 525.68017578 387.00610352 C519.9875512 381.7218823 514.13245584 376.77268957 508 372 C506.98808594 371.19304687 505.97617187 370.38609375 504.93359375 369.5546875 C466.82521751 335.71909916 466.82521751 335.71909916 423 317 Z M56 354 C55.731875 354.98613281 55.46375 355.97226562 55.1875 356.98828125 C54.08371231 361.02324923 52.95586881 365.05122763 51.82128906 369.07763672 C51.26199823 371.06774115 50.70682049 373.05900506 50.15527344 375.05126953 C42.76796809 401.61857199 32.85893539 426.46678327 20.01879883 450.83056641 C18.85830807 452.90226153 18.85830807 452.90226153 19 455 C22.93956826 453.545648 26.41503384 451.68575475 30.0234375 449.54296875 C30.59720627 449.20392014 31.17097504 448.86487152 31.76213074 448.51554871 C32.99345923 447.7877797 34.22393977 447.05857446 35.4536438 446.32806396 C38.73064373 444.38275677 42.01591362 442.45151355 45.30078125 440.51953125 C46.29050179 439.93709656 46.29050179 439.93709656 47.30021667 439.34289551 C68.2985743 426.99837194 89.63229726 415.10183424 111.453125 404.265625 C112.05489059 403.96672363 112.65665619 403.66782227 113.2766571 403.35986328 C116.15058564 401.93576604 119.02965904 400.52330897 121.9152832 399.12304688 C122.93452881 398.62353516 123.95377441 398.12402344 125.00390625 397.609375 C125.89924072 397.17592773 126.7945752 396.74248047 127.71704102 396.29589844 C129.88299339 395.06641761 131.35489442 393.85171596 133 392 C122.44448208 385.98356534 111.80669861 380.17753603 101 374.625 C100.29598053 374.26237061 99.59196106 373.89974121 98.86660767 373.52612305 C78.10955024 361.93963151 78.10955024 361.93963151 56 354 Z M33 359 C23.78945111 365.98676911 14.76974245 373.18420307 5.82470703 380.50732422 C4.21776304 381.82186202 2.60720809 383.13198302 0.99609375 384.44140625 C-5.50535822 389.7315251 -11.91907956 395.11965823 -18.29980469 400.55419922 C-20.01177095 402.0100097 -21.72832839 403.46026933 -23.4453125 404.91015625 C-30.17071283 410.60936057 -36.72487886 416.45301143 -43.15625 422.48242188 C-46.20328978 425.33858787 -49.27229037 428.1488946 -52.4375 430.875 C-56.1444003 434.06949939 -59.58934232 437.49341757 -63 441 C-60.21469608 444.33819196 -56.45739331 446.00440937 -52.6875 448 C-40.92506605 454.44800093 -30.95525479 462.48439301 -21.81738281 472.29223633 C-20.59765412 473.58022703 -19.30369619 474.79707259 -18 476 C-17.01 476 -16.02 476 -15 476 C-13.35437054 473.67363578 -11.95224654 471.41380578 -10.5625 468.9375 C-9.91269165 467.80151367 -9.91269165 467.80151367 -9.24975586 466.64257812 C-7.81316944 464.10565477 -6.40259274 461.55586708 -5 459 C-4.51789063 458.12230957 -4.03578125 457.24461914 -3.5390625 456.34033203 C11.08689864 429.48254029 22.76035423 401.48706953 31.125 372.0625 C31.43276367 370.98355469 31.74052734 369.90460938 32.05761719 368.79296875 C32.32993164 367.80039062 32.60224609 366.8078125 32.8828125 365.78515625 C33.12402832 364.90738525 33.36524414 364.02961426 33.61376953 363.12524414 C34.22763799 360.9553299 34.22763799 360.9553299 33 359 Z M166 412 C161.7629982 417.34723222 157.95418453 423.04636886 154.11523438 428.68359375 C144.11685959 443.35931983 133.33623614 457.3354699 122 471 C121.26668457 471.88413574 121.26668457 471.88413574 120.51855469 472.78613281 C114.99394632 479.42545425 109.34072731 485.91841814 103.484375 492.26953125 C101.51610044 494.4327764 99.58595998 496.61692759 97.66796875 498.82421875 C88.68249372 509.1204279 79.14189945 518.94536094 69.5 528.625 C68.86650635 529.26308594 68.2330127 529.90117188 67.58032227 530.55859375 C63.78323461 534.34323193 59.85511432 537.91493609 55.79882812 541.41943359 C53.59787403 543.35333381 51.5397042 545.39753568 49.5 547.5 C45.50632215 551.54924206 41.33771457 555.32417103 37 559 C41.1491248 560.3830416 43.90473192 558.84878323 47.828125 557.37890625 C48.62769623 557.08820755 49.42726746 556.79750885 50.25106812 556.4980011 C51.99746212 555.86250234 53.74243043 555.22307548 55.48614502 554.58026123 C60.24596633 552.82750589 65.01794635 551.10844014 69.7890625 549.38671875 C71.28806595 548.84479889 71.28806595 548.84479889 72.81735229 548.29193115 C90.54275091 541.89999943 108.40778559 535.90404579 126.27246094 529.91479492 C128.84370845 529.05241894 131.41409227 528.18751186 133.984375 527.32226562 C176.1886087 513.1440066 219.07116339 500.78188227 262 489 C258.10856318 480.76165381 249.83587858 474.83160928 243 469 C241.95906143 468.09571238 240.91874817 467.19070469 239.87890625 466.28515625 C218.93912744 448.1075828 196.52610475 431.67851801 173.5 416.25 C172.85861084 415.81929199 172.21722168 415.38858398 171.55639648 414.94482422 C168.98268808 412.89978241 168.98268808 412.89978241 166 412 Z M127 422 C124.78584271 422.9160375 122.70655167 423.89173469 120.578125 424.98046875 C119.9304718 425.3043457 119.2828186 425.62822266 118.61553955 425.96191406 C116.48931884 427.0286625 114.36953827 428.10754225 112.25 429.1875 C110.78071444 429.92967203 109.3113127 430.67161408 107.84179688 431.41333008 C97.00002189 436.90399803 86.29800073 442.62343796 75.67480469 448.52587891 C72.84860644 450.08343504 70.00875248 451.61321257 67.1640625 453.13671875 C55.84752931 459.20013157 44.67064401 465.44622387 33.609375 471.96459961 C27.50150028 475.56034828 21.34654614 479.04279148 15.125 482.4375 C8.78446489 485.90484845 2.76771022 489.62349627 -3 494 C-1.50488316 498.80011197 0.09844961 503.29869403 2.3125 507.8125 C11.01974316 526.70011507 14.01072076 547.39570141 15 568 C22.71009901 560.37192332 29.85041881 552.30846615 36.66015625 543.87109375 C39.18733747 540.77012849 41.77629779 537.728379 44.375 534.6875 C48.62157215 529.7017508 52.7095559 524.61223833 56.73168945 519.44433594 C60.28088567 514.8910289 63.90844712 510.40694653 67.5625 505.9375 C72.34967244 500.07270479 77.03385771 494.14328758 81.62109375 488.12109375 C83.98046478 485.02562995 86.36478404 481.95057115 88.75 478.875 C95.31571247 470.36127646 101.65835354 461.68113216 108 453 C108.58281738 452.20271484 109.16563477 451.40542969 109.76611328 450.58398438 C116.38253714 441.51916765 122.88930121 432.41527607 129 423 C128.01 422.505 128.01 422.505 127 422 Z M-77 472 C-79.76197406 477.96586397 -82.18874766 484.01779295 -84.49951172 490.17138672 C-90.75340612 506.81832077 -97.59396012 522.18798324 -106.96435547 537.31591797 C-107.45822754 538.11400879 -107.95209961 538.91209961 -108.4609375 539.734375 C-108.90228027 540.43788086 -109.34362305 541.14138672 -109.79833984 541.86621094 C-111.09996873 544.17751457 -112.06580717 546.52002437 -113 549 C-109.17511522 547.33700662 -106.10000873 544.84131958 -102.875 542.25 C-101.61621209 541.25089036 -100.35708084 540.25221321 -99.09765625 539.25390625 C-98.43137207 538.7242627 -97.76508789 538.19461914 -97.07861328 537.64892578 C-87.3005138 529.89213885 -77.43527322 522.26275755 -67.375 514.875 C-66.20324219 514.01334229 -66.20324219 514.01334229 -65.0078125 513.13427734 C-61.09693215 510.26212291 -57.1765512 507.4038908 -53.24609375 504.55859375 C-51.76800387 503.47687029 -50.29012924 502.39485261 -48.8125 501.3125 C-48.12269043 500.81927246 -47.43288086 500.32604492 -46.72216797 499.81787109 C-45.09234169 498.61750046 -43.53730572 497.31678186 -42 496 C-42 495.01 -42 494.02 -42 493 C-43.32285591 491.61165208 -43.32285591 491.61165208 -45.15625 490.3984375 C-45.84195068 489.91213867 -46.52765137 489.42583984 -47.23413086 488.92480469 C-47.98186768 488.41336914 -48.72960449 487.90193359 -49.5 487.375 C-50.25869385 486.8480957 -51.0173877 486.32119141 -51.79907227 485.77832031 C-63.62134684 476.73915997 -63.62134684 476.73915997 -77 472 Z M-22 515 C-23.8141844 517.10273488 -25.62675789 519.20680275 -27.4375 521.3125 C-27.98301514 521.94679932 -28.52853027 522.58109863 -29.09057617 523.23461914 C-32.39394563 527.08846955 -35.62962815 530.98369034 -38.8125 534.9375 C-41.77824309 538.59257797 -44.84274535 541.97549796 -48.23535156 545.234375 C-49.9212063 546.9211627 -51.45644663 548.66428081 -52.99609375 550.484375 C-57.40989372 555.56175974 -62.15104274 560.3013768 -66.9152832 565.0456543 C-68.43491668 566.5599258 -69.94912517 568.0794743 -71.46289062 569.59960938 C-76.26983281 574.40984045 -81.12516105 579.11531437 -86.29467773 583.53979492 C-88.69011927 585.59092389 -90.99625085 587.73526128 -93.3125 589.875 C-97.80498638 593.97199927 -102.41907282 597.86120426 -107.15234375 601.67578125 C-109.599312 603.67296384 -111.9964574 605.7160043 -114.38354492 607.78393555 C-122.8131837 615.05872043 -131.73305829 621.65609947 -140.67822266 628.27880859 C-143.87895403 630.65159053 -147.06521902 633.04337915 -150.25 635.4375 C-151.83333333 636.625 -153.41666667 637.8125 -155 639 C-154.34 639.33 -153.68 639.66 -153 640 C-150.81726353 639.21177552 -150.81726353 639.21177552 -148.35546875 637.9296875 C-147.38480469 637.45249268 -146.41414063 636.97529785 -145.4140625 636.48364258 C-144.34929687 635.95279053 -143.28453125 635.42193848 -142.1875 634.875 C-139.88029815 633.74844697 -137.57164876 632.62485472 -135.26171875 631.50390625 C-134.66169037 631.21245224 -134.06166199 630.92099823 -133.44345093 630.62071228 C-97.20549794 613.06656478 -59.5301568 598.43969971 -22.04711914 583.79998779 C-18.86895649 582.55800276 -15.69234753 581.31207019 -12.515625 580.06640625 C-7.34542874 578.0399506 -2.17350421 576.01799477 3 574 C1.29389575 553.34376799 -6.91299381 533.75698585 -19 517 C-19.99 516.34 -20.98 515.68 -22 515 Z M-52 524 C-76.60579609 540.34338575 -76.60579609 540.34338575 -101 557 C-101.8161377 557.56380371 -102.63227539 558.12760742 -103.47314453 558.70849609 C-109.34244979 562.76790314 -115.18573729 566.86212537 -121 571 C-122.14106201 571.81114258 -122.14106201 571.81114258 -123.30517578 572.63867188 C-134.42478708 580.59551219 -142.67253633 588.87490308 -150.94335938 599.78100586 C-158.65163306 609.87413571 -167.19435408 619.33875869 -175.95458984 628.52539062 C-179.34723716 632.12672451 -182.18918404 635.92635368 -185 640 C-181.28625731 638.64180036 -178.18056115 636.95475259 -174.89453125 634.76171875 C-173.92008057 634.11315918 -172.94562988 633.46459961 -171.94165039 632.79638672 C-170.90903076 632.1004541 -169.87641113 631.40452148 -168.8125 630.6875 C-167.74185303 629.96836426 -166.67120605 629.24922852 -165.56811523 628.50830078 C-150.78254392 618.53060574 -136.57264602 608.13757113 -122.93701172 596.6328125 C-120.65108965 594.7058845 -118.35149549 592.79583096 -116.04907227 590.88867188 C-103.84086106 580.61714121 -92.41761835 569.58335912 -81.15917969 558.28955078 C-79.10986489 556.23482492 -77.05518737 554.18556897 -75 552.13671875 C-73.66894975 550.80500835 -72.33820939 549.47298812 -71.0078125 548.140625 C-70.10604782 547.24189667 -70.10604782 547.24189667 -69.18606567 546.32501221 C-64.9289136 542.04464968 -60.93483587 537.57696992 -57 533 C-54.66666667 530.33333333 -52.33333333 527.66666667 -50 525 C-50.99 524.505 -50.99 524.505 -52 524 Z M173 541 C165.23350407 543.44796607 157.46830921 545.90000519 149.70457649 548.35671902 C146.09627826 549.49838113 142.48760846 550.63883271 138.87792969 551.77612305 C120.48226776 557.57312862 102.18468473 563.56515087 84 570 C86.47668388 572.57870964 88.89854898 574.7623663 91.88452148 576.72631836 C92.63803894 577.22506973 93.3915564 577.72382111 94.16790771 578.23768616 C94.97745911 578.76639816 95.7870105 579.29511017 96.62109375 579.83984375 C97.46891418 580.39856674 98.31673462 580.95728973 99.19024658 581.53294373 C101.93588319 583.33977593 104.68634135 585.13908907 107.4375 586.9375 C109.32594576 588.17591653 111.21437347 589.41436057 113.1027832 590.65283203 C125.28537141 598.62990177 137.50155806 606.52434397 150 614 C150.928125 614.55848633 151.85625 615.11697266 152.8125 615.69238281 C155.76704168 617.46802349 158.7260301 619.23594128 161.6875 621 C162.57332764 621.52899902 163.45915527 622.05799805 164.37182617 622.60302734 C170.12682799 626.0014058 175.98374356 629.0896611 182 632 C182.26140367 621.77766438 181.48591581 611.62511657 180.75 601.4375 C180.68475128 600.52401794 180.61950256 599.61053589 180.55227661 598.66937256 C179.61004832 585.62363729 178.44610112 572.6176213 176.9375 559.625 C176.81477722 558.5409639 176.81477722 558.5409639 176.6895752 557.43502808 C176.45726085 555.40612417 176.21138621 553.37878667 175.96484375 551.3515625 C175.8268335 550.21541504 175.68882324 549.07926758 175.54663086 547.90869141 C175.03751238 545.19960809 174.27687112 543.40373807 173 541 Z M61 578 C60.96036133 579.04414062 60.92072266 580.08828125 60.87988281 581.1640625 C59.97583888 604.29811825 58.49419544 627.09496754 55 650 C54.82629883 651.14694336 54.65259766 652.29388672 54.47363281 653.47558594 C51.18639103 674.57834143 46.08514334 695.27376034 41 716 C49.24057853 713.48729901 56.99254417 710.01514779 64.8125 706.4375 C65.52131317 706.11419708 66.23012634 705.79089417 66.9604187 705.45779419 C92.05551045 693.98763414 116.87090139 681.90599782 140.45556641 667.54785156 C142.89227527 666.06553202 145.3404384 664.60438894 147.79296875 663.1484375 C158.83890195 656.5481631 169.45327251 649.36717339 180 642 C177.93288524 639.7461576 176.11231449 638.40106409 173.32421875 637.16015625 C172.59058105 636.82604736 171.85694336 636.49193848 171.10107422 636.14770508 C169.90635498 635.61052856 169.90635498 635.61052856 168.6875 635.0625 C158.5083208 630.35743548 148.70671125 625.07776043 138.9140625 619.62109375 C135.95855693 617.97694521 132.99546166 616.3471416 130.03125 614.71875 C115.15226809 606.50715796 100.62981391 597.78264417 86.13720703 588.91650391 C81.74951142 586.23608285 77.35310917 583.57167954 72.9375 580.9375 C72.25945312 580.5259668 71.58140625 580.11443359 70.8828125 579.69042969 C66.15261947 576.77743262 66.15261947 576.77743262 61 578 Z M25.8125 590.375 C25.17483704 590.60809875 24.53717407 590.84119751 23.88018799 591.08135986 C10.47370493 595.99459076 -2.83009714 601.16869152 -16.125 606.375 C-17.61886734 606.95951935 -17.61886734 606.95951935 -19.14291382 607.55584717 C-29.472127 611.60089985 -39.7933787 615.65258619 -50 620 C-43.25443929 641.6164559 -31.22700025 660.55594684 -17 678 C-16.56671387 678.53625 -16.13342773 679.0725 -15.68701172 679.625 C-9.40121765 687.35294979 -2.64093122 694.55572381 4.375 701.625 C5.13619141 702.39545654 5.89738281 703.16591309 6.68164062 703.9597168 C10.5648907 707.82115567 14.29878958 711.17927375 19 714 C22.33093131 706.29680856 24.72453707 698.48009797 26.875 690.375 C27.04541809 689.73459778 27.21583618 689.09419556 27.39141846 688.43438721 C31.44043953 673.11512802 34.48274272 657.63979037 37 642 C37.14695312 641.08702148 37.29390625 640.17404297 37.4453125 639.23339844 C40.09588148 621.70157651 39.18782906 603.67904924 39 586 C34.7320519 586 29.82961246 588.90452639 25.8125 590.375 Z M-72.4609375 628.87109375 C-76.17443102 631.98471524 -77.09434386 635.55381851 -78.625 640.0625 C-79.31870875 641.98329577 -80.01682929 643.90250242 -80.71875 645.8203125 C-81.08742188 646.83254883 -81.45609375 647.84478516 -81.8359375 648.88769531 C-98.43505228 693.26804665 -120.31329257 738.52903153 -146.10742188 778.30957031 C-148.28944208 781.40208189 -148.28944208 781.40208189 -149 785 C-141.73870196 783.08116823 -134.57364722 780.96878046 -127.4375 778.62890625 C-126.46102005 778.31087036 -125.4845401 777.99283447 -124.47846985 777.66516113 C-121.31786425 776.63431794 -118.15877143 775.59894905 -115 774.5625 C-113.36265396 774.02603348 -113.36265396 774.02603348 -111.69223022 773.47872925 C-84.20538766 764.46813431 -56.88672814 755.1448106 -29.75 745.125 C-28.77141022 744.76383087 -27.79282043 744.40266174 -26.78457642 744.0305481 C-15.45762925 739.84327367 -4.18170071 735.56249837 7 731 C5.77888662 727.33665986 4.55154818 726.68204396 1.5 724.375 C-10.63888446 714.67657011 -21.51248224 703.28421143 -31 691 C-31.86181026 689.94824246 -32.72656077 688.89888943 -33.59375 687.8515625 C-41.0227966 678.79194216 -47.17092054 669.15212438 -53 659 C-53.38317383 658.33291016 -53.76634766 657.66582031 -54.16113281 656.97851562 C-58.44430265 649.43433936 -62.10528927 641.84237548 -65.01098633 633.6574707 C-65.5941669 632.07326699 -66.28898387 630.53109668 -67 629 C-69.91592642 627.68654617 -69.91592642 627.68654617 -72.4609375 628.87109375 Z M-110.45703125 645.38671875 C-112.19823242 646.16583618 -112.19823242 646.16583618 -113.97460938 646.96069336 C-115.25401636 647.53605079 -116.53331014 648.11166 -117.8125 648.6875 C-118.46114014 648.97899933 -119.10978027 649.27049866 -119.77807617 649.5708313 C-139.28193386 658.33950535 -158.668471 667.3517646 -177.9375 676.625 C-178.87541382 677.07527054 -178.87541382 677.07527054 -179.83227539 677.53463745 C-181.60695181 678.38753734 -183.37968752 679.24447177 -185.15234375 680.1015625 C-186.16288818 680.58963379 -187.17343262 681.07770508 -188.21459961 681.58056641 C-193.38086387 683.92440266 -193.38086387 683.92440266 -197.07421875 687.92578125 C-205.21163933 719.5943416 -201.5874524 755.74267829 -185.1015625 784.19140625 C-184.55628906 785.08666016 -184.55628906 785.08666016 -184 786 C-180.53165298 781.86870553 -177.66629285 777.49939181 -174.8125 772.9375 C-174.04244629 771.71051392 -174.04244629 771.71051392 -173.25683594 770.45874023 C-151.51125599 735.6741317 -131.11210416 700.21034187 -112.63650513 663.56854248 C-111.96830976 662.24336057 -111.29847872 660.91900199 -110.62692261 659.59552002 C-109.69521668 657.75570085 -108.77206017 655.91185369 -107.8515625 654.06640625 C-107.05999756 652.4877478 -107.05999756 652.4877478 -106.25244141 650.87719727 C-105.09274057 648.21305022 -104.434238 645.86208305 -104 643 C-106.17935989 643 -108.53324027 644.52527271 -110.45703125 645.38671875 Z M177.59692383 656.35131836 C144.51063041 681.91669625 107.63417495 702.72099326 70.88378906 722.44482422 C66.07354094 725.03890486 61.28630326 727.67456978 56.5 730.3125 C55.20763428 731.0245459 55.20763428 731.0245459 53.88916016 731.75097656 C51.92573816 732.83331853 49.9626511 733.91626094 48 735 C52.28457488 739.57353458 57.34073418 742.47264974 62.68457031 745.63037109 C64.35367335 746.6176832 66.01927016 747.61093131 67.68261719 748.60791016 C100.06855693 767.98019857 133.77611093 783.16979643 170 794 C172.28459993 790.57310011 172.56769809 788.43626343 173.1484375 784.37890625 C173.24583221 783.70353821 173.34322693 783.02817017 173.443573 782.33233643 C173.7640776 780.07699966 174.07064041 777.82006926 174.375 775.5625 C174.48227417 774.7828891 174.58954834 774.0032782 174.70007324 773.20004272 C176.5823285 759.43853012 178.00493372 745.6449765 179.25 731.8125 C179.37408234 730.4380925 179.37408234 730.4380925 179.50067139 729.03591919 C181.1866814 710.167303 182.15250711 691.37582456 182.5625 672.4375 C182.60584195 670.53970718 182.64946026 668.64192064 182.69335938 666.74414062 C182.79874592 662.16282638 182.90043818 657.58144437 183 653 C180.85342578 653 179.23358676 655.08357069 177.59692383 656.35131836 Z M-232.49609375 704.2734375 C-233.90930908 705.00844482 -233.90930908 705.00844482 -235.35107422 705.75830078 C-236.36959473 706.29181152 -237.38811523 706.82532227 -238.4375 707.375 C-239.47922363 707.9201123 -240.52094727 708.46522461 -241.59423828 709.02685547 C-250.81462704 713.87055778 -259.94839173 718.84830876 -269 724 C-269.72413086 724.40959961 -270.44826172 724.81919922 -271.19433594 725.24121094 C-294.18273408 738.28868016 -316.10300701 754.48497206 -333 775 C-333.80308594 775.90363281 -334.60617187 776.80726563 -335.43359375 777.73828125 C-352.65726176 797.21298179 -371.59148901 824.2382911 -373 851 C-367.32661005 850.32884112 -361.99102932 849.03032462 -356.4921875 847.5 C-355.05533096 847.10463295 -355.05533096 847.10463295 -353.58944702 846.70127869 C-350.34964436 845.80670488 -347.11217089 844.90404862 -343.875 844 C-342.7449353 843.68563995 -341.61487061 843.37127991 -340.45056152 843.0473938 C-316.93919569 836.4973012 -293.5132627 829.65310252 -270.09653473 822.77355957 C-267.26800175 821.94278732 -264.43916828 821.11304469 -261.61029053 820.28344727 C-257.07853066 818.95390107 -252.54797621 817.62031757 -248.0182991 816.28369331 C-246.3459477 815.7905953 -244.67331021 815.2984662 -243.00034714 814.80744743 C-231.5789561 811.45310513 -220.27020089 807.83187458 -209 804 C-209.24339961 803.46247038 -209.48679922 802.92494076 -209.73757458 802.37112236 C-210.05751039 801.66429377 -210.37744619 800.95746517 -210.70707703 800.22921753 C-211.18239129 799.17929029 -211.18239129 799.17929029 -211.66730785 798.10815239 C-216.13413227 788.21263045 -220.47600913 778.27504588 -224 768 C-224.2273584 767.34257813 -224.4547168 766.68515625 -224.68896484 766.0078125 C-231.16503595 746.17640028 -228.72405463 722.52658222 -227 702 C-228.96038582 702 -230.8053525 703.39359984 -232.49609375 704.2734375 Z M31 747 C30.78496826 747.64622314 30.56993652 748.29244629 30.34838867 748.95825195 C17.18355462 788.29385031 0.49539028 826.59509225 -18.8125 863.31640625 C-19.42101807 864.47382324 -20.02953613 865.63124023 -20.65649414 866.82373047 C-21.82146239 869.02399538 -22.99480684 871.21985091 -24.17749023 873.41064453 C-24.69512939 874.38243652 -25.21276855 875.35422852 -25.74609375 876.35546875 C-26.20685303 877.20778076 -26.6676123 878.06009277 -27.14233398 878.93823242 C-27.56687866 879.95880737 -27.56687866 879.95880737 -28 881 C-27.67 881.66 -27.34 882.32 -27 883 C26.415753 863.44662809 79.4722718 842.80985762 131.5625 819.9375 C132.23980164 819.6410257 132.91710327 819.34455139 133.6149292 819.03909302 C143.5730648 814.66957545 153.30470696 809.92280124 163 805 C164.99929478 803.99859081 166.99903809 802.99807387 169 802 C169 801.67 169 801.34 169 801 C168.24420654 800.82049805 167.48841309 800.64099609 166.7097168 800.45605469 C119.90545307 789.19919995 75.40895949 771.71142999 33.55273438 747.81933594 C32.14520395 746.92221898 32.14520395 746.92221898 31 747 Z M3 756 C1.85563477 756.47719482 0.71126953 756.95438965 -0.46777344 757.44604492 C-25.75049109 767.97005611 -51.0766912 778.15627872 -77 787 C-77.81261292 787.27739014 -78.62522583 787.55478027 -79.46246338 787.84057617 C-108.02904513 797.56437219 -136.90313665 806.01797652 -166 814 C-165.06659318 815.25761694 -164.13132838 816.51385497 -163.1953125 817.76953125 C-162.67469238 818.46925049 -162.15407227 819.16896973 -161.61767578 819.88989258 C-158.91496632 823.41532541 -155.97891293 826.70722748 -153 830 C-152.32976807 830.74588379 -152.32976807 830.74588379 -151.64599609 831.50683594 C-143.8584718 840.18775813 -143.8584718 840.18775813 -135.29296875 848.08203125 C-133.41150735 849.65579198 -131.57127613 851.2575633 -129.73828125 852.88671875 C-110.65743306 869.78653416 -89.66576527 883.6581391 -68 897 C-65.16388314 894.33865254 -63.11618402 891.81382571 -61.22265625 888.421875 C-60.46263306 887.07029297 -60.46263306 887.07029297 -59.68725586 885.69140625 C-59.15108643 884.72074219 -58.61491699 883.75007812 -58.0625 882.75 C-57.49474854 881.73292969 -56.92699707 880.71585938 -56.34204102 879.66796875 C-54.55153531 876.45063454 -52.77345102 873.22676338 -51 870 C-50.44538086 868.99130859 -49.89076172 867.98261719 -49.31933594 866.94335938 C-41.3453682 852.40119784 -33.57855902 837.75192775 -26 823 C-25.51176758 822.0522168 -25.02353516 821.10443359 -24.52050781 820.12792969 C-16.07695027 803.68052525 -8.37389345 786.95021629 -1 770 C-0.49710449 768.85982422 0.00579102 767.71964844 0.52392578 766.54492188 C0.99169434 765.46275391 1.45946289 764.38058594 1.94140625 763.265625 C2.36236572 762.29915039 2.7833252 761.33267578 3.21704102 760.33691406 C3.47541748 759.56573242 3.73379395 758.79455078 4 758 C3.67 757.34 3.34 756.68 3 756 Z M161.234375 815.53515625 C159.703573 816.36696411 159.703573 816.36696411 158.1418457 817.21557617 C157.02253662 817.82506104 155.90322754 818.4345459 154.75 819.0625 C133.86432368 830.36292747 112.8359536 841.332378 91.33691406 851.42724609 C88.21794132 852.89727992 85.10475815 854.37875593 81.99327087 855.86453247 C63.59231633 864.64989729 45.08880211 873.15243735 26.43344116 881.38345337 C25.70646027 881.70421844 24.97947937 882.02498352 24.23046875 882.35546875 C23.51629791 882.67051361 22.80212708 882.98555847 22.0663147 883.31015015 C14.94042707 886.45866356 7.85925948 889.70167583 0.78759766 892.9699707 C-4.73704521 895.51872802 -10.27913353 898.02340042 -15.83984375 900.4921875 C-16.50811691 900.78940201 -17.17639008 901.08661652 -17.86491394 901.39283752 C-21.15287803 902.85495869 -24.44272433 904.31252416 -27.73608398 905.76245117 C-28.91372314 906.28556885 -30.0913623 906.80868652 -31.3046875 907.34765625 C-32.35640137 907.81179932 -33.40811523 908.27594238 -34.49169922 908.75415039 C-37.09213309 909.87963871 -37.09213309 909.87963871 -39 912 C8.7171706 934.04030996 58.854924 949.23979626 110.3125 959.6875 C112.18929443 960.07180176 112.18929443 960.07180176 114.10400391 960.46386719 C115.81015869 960.79692871 115.81015869 960.79692871 117.55078125 961.13671875 C118.53731689 961.32967529 119.52385254 961.52263184 120.5402832 961.72143555 C123.13229709 962.18977635 123.13229709 962.18977635 126 961 C126.99028371 958.72526404 127.76796664 956.57498171 128.49609375 954.21484375 C128.7254361 953.50455521 128.95477844 952.79426666 129.19107056 952.06245422 C129.95250273 949.69129305 130.69544293 947.3147901 131.4375 944.9375 C131.96939099 943.2605582 132.50187198 941.58380344 133.03491211 939.90722656 C134.71170221 934.61151702 136.35829582 929.30667331 138 924 C138.38919617 922.74609467 138.38919617 922.74609467 138.78625488 921.46685791 C148.34538093 890.65486611 157.04341845 859.59449297 164.6875 828.25 C165.05367432 826.76028687 165.05367432 826.76028687 165.42724609 825.24047852 C165.74749756 823.89167603 165.74749756 823.89167603 166.07421875 822.515625 C166.25557373 821.75540039 166.43692871 820.99517578 166.6237793 820.21191406 C167.03863608 817.77284695 167.06442923 815.46951544 167 813 C164.96734563 813 162.95468289 814.59595197 161.234375 815.53515625 Z M-217.25848389 826.79278564 C-218.12865646 826.99428223 -218.99882904 827.19577881 -219.89537048 827.40338135 C-220.84867752 827.63281433 -221.80198456 827.86224731 -222.78417969 828.09863281 C-224.29556267 828.45229919 -224.29556267 828.45229919 -225.83747864 828.81311035 C-229.20078959 829.60215298 -232.56126652 830.40265707 -235.921875 831.203125 C-238.29347247 831.76184092 -240.66524086 832.3198318 -243.03717041 832.87713623 C-249.33374281 834.35858659 -255.62799997 835.84965388 -261.92181396 837.34277344 C-268.13279074 838.81468809 -274.34573116 840.27825705 -280.55859375 841.7421875 C-287.88331274 843.46860833 -295.20774999 845.19618709 -302.53088379 846.92932129 C-314.36865485 849.73064868 -326.20876189 852.5209951 -338.05664062 855.27929688 C-339.16445515 855.53743038 -340.27226967 855.79556389 -341.41365433 856.06151962 C-346.63390793 857.27768083 -351.8547358 858.49126982 -357.07659912 859.70050049 C-358.90818579 860.12673071 -360.73975047 860.55305541 -362.57128906 860.97949219 C-363.82024334 861.26712559 -363.82024334 861.26712559 -365.09442902 861.56056976 C-369.15368939 862.4669163 -369.15368939 862.4669163 -373 864 C-375.35123593 885.7358699 -359.81721637 909.81610377 -347.0625 926.125 C-345.71924742 927.75903331 -344.36528243 929.38432793 -343 931 C-342.39414062 931.71800781 -341.78828125 932.43601562 -341.1640625 933.17578125 C-335.80707261 939.30561751 -330.05535197 945.04673119 -324.3125 950.8125 C-323.49225342 951.63741943 -322.67200684 952.46233887 -321.8269043 953.31225586 C-314.94104147 961.25896769 -314.94104147 961.25896769 -306 965 C-304.30348215 962.83887241 -302.82525448 960.72179771 -301.3515625 958.4140625 C-300.90258606 957.73008392 -300.45360962 957.04610535 -299.99102783 956.34140015 C-299.0276856 954.87207611 -298.06889941 953.39975698 -297.11419678 951.92480469 C-294.63403754 948.09463132 -292.12023928 944.28664801 -289.609375 940.4765625 C-289.1182724 939.72957092 -288.6271698 938.98257935 -288.1211853 938.21295166 C-283.12142213 930.62586086 -277.8285253 923.27701014 -272.43701172 915.96533203 C-269.89365539 912.48690552 -267.4168611 908.96168618 -264.9375 905.4375 C-264.44483643 904.73810303 -263.95217285 904.03870605 -263.44458008 903.31811523 C-261.96217411 901.21269382 -260.4808935 899.10648547 -259 897 C-257.02212564 894.18658795 -255.04318654 891.37393305 -253.0625 888.5625 C-252.32265869 887.51219604 -252.32265869 887.51219604 -251.56787109 886.44067383 C-248.47464087 882.05968461 -245.34516055 877.7068836 -242.19262695 873.3684082 C-235.48490065 864.13712215 -228.99748084 854.7723849 -222.58740234 845.33251953 C-219.96770966 841.48315874 -217.32761124 837.64787259 -214.6875 833.8125 C-214.21296387 833.12269043 -213.73842773 832.43288086 -213.24951172 831.72216797 C-212.16655895 830.14796212 -211.0833159 828.57395597 -210 827 C-213.20947781 825.93017406 -214.08577635 826.04298187 -217.25848389 826.79278564 Z M-188 834 C-193.89276711 840.9281318 -199.75040845 847.87863183 -205.49609375 854.9296875 C-212.88551657 863.99066463 -220.2981727 873.03232003 -227.875 881.9375 C-231.59242114 886.30878897 -235.22691517 890.73477187 -238.79296875 895.23046875 C-241.56873576 898.71368788 -244.3771628 902.16965382 -247.1875 905.625 C-247.74219971 906.30796143 -248.29689941 906.99092285 -248.8684082 907.69458008 C-251.67186161 911.14470585 -254.48175223 914.58923011 -257.3046875 918.0234375 C-268.97772454 932.25109731 -279.90129041 947.00653884 -290.55810547 962.00830078 C-291.52091476 963.33823614 -292.50998933 964.64953783 -293.52392578 965.94091797 C-296.18423955 969.14574283 -296.18423955 969.14574283 -296.94116211 973.07641602 C-296.12812667 975.21489292 -296.12812667 975.21489292 -293.74459839 976.19818115 C-290.52802742 977.13788411 -289.26827328 976.85822363 -286.14526367 975.75268555 C-285.19744522 975.426306 -284.24962677 975.09992645 -283.27308655 974.76365662 C-282.24839767 974.39176712 -281.2237088 974.01987762 -280.16796875 973.63671875 C-278.54495094 973.06988121 -278.54495094 973.06988121 -276.8891449 972.49159241 C-273.31616044 971.23932719 -269.75205035 969.96355478 -266.1875 968.6875 C-263.67872091 967.80290609 -261.16951827 966.91962445 -258.65966797 966.03808594 C-253.53770533 964.23634779 -248.41980443 962.42352464 -243.30517578 960.60107422 C-236.8629605 958.30563259 -230.4152601 956.02618111 -223.96484375 953.75390625 C-216.29798525 951.05052235 -208.63580483 948.33425756 -200.9765625 945.609375 C-191.84654098 942.36145689 -182.71068931 939.1303485 -173.57188034 935.90726471 C-169.20829292 934.36809408 -164.84515661 932.82764485 -160.48196602 931.2873497 C-156.93574436 930.03560329 -153.38925533 928.78462665 -149.84210205 927.53552246 C-136.26060099 922.75216088 -122.68926448 917.94258793 -109.1875 912.9375 C-108.17864746 912.56729736 -107.16979492 912.19709473 -106.13037109 911.81567383 C-104.75679443 911.30170044 -104.75679443 911.30170044 -103.35546875 910.77734375 C-102.55778076 910.48077881 -101.76009277 910.18421387 -100.93823242 909.87866211 C-98.82145153 909.05616193 -98.82145153 909.05616193 -97 907 C-97.6077124 906.63874023 -98.2154248 906.27748047 -98.84155273 905.90527344 C-119.16222979 893.78598106 -138.15974573 881.08163301 -155.67578125 865.10546875 C-157.71273925 863.26022445 -159.78270847 861.4691833 -161.875 859.6875 C-169.65596655 852.90085575 -177.00821292 845.47101038 -183.59765625 837.5234375 C-185.11984104 835.74930154 -185.11984104 835.74930154 -188 834 Z M-56 928 C-57.70813442 930.17250403 -59.19839045 932.30155766 -60.68359375 934.62109375 C-61.13521378 935.30771591 -61.5868338 935.99433807 -62.05213928 936.70176697 C-63.02003958 938.17549991 -63.98329613 939.65229104 -64.94238281 941.1317749 C-66.93715172 944.20804796 -68.95470481 947.26908973 -70.97171021 950.33081055 C-71.96472815 951.83839068 -72.95665701 953.34668877 -73.94747925 954.85571289 C-79.10788442 962.70986339 -84.46892583 970.40298981 -90 978 C-90.55059082 978.75877441 -91.10118164 979.51754883 -91.66845703 980.29931641 C-102.75345833 995.54844377 -114.36904483 1010.29409472 -126.28564453 1024.89746094 C-129.29978131 1028.59409237 -132.30560084 1032.29748109 -135.3125 1036 C-136.41272526 1037.35419523 -137.5129823 1038.70836464 -138.61328125 1040.0625 C-139.79470703 1041.5165625 -139.79470703 1041.5165625 -141 1043 C-136.81900336 1045.78733109 -133.71029867 1044.9323806 -129 1044 C-123.42400353 1042.59428863 -117.91666648 1040.9760816 -112.40234375 1039.34765625 C-110.72841171 1038.85926314 -109.05429351 1038.37150767 -107.38000488 1037.88433838 C-102.84431247 1036.56241828 -98.31145293 1035.23102127 -93.77912521 1033.89761734 C-89.9624908 1032.77595726 -86.14432345 1031.65956796 -82.32612705 1030.54323864 C-71.25250204 1027.30560094 -60.18303657 1024.05391601 -49.11474609 1020.7980957 C-43.0954545 1019.02762773 -37.07514401 1017.26064246 -31.0546875 1015.49414062 C43.31341063 993.84032761 43.31341063 993.84032761 117 970 C114.37447151 967.37447151 112.84543704 967.55753039 109.17578125 967.17578125 C107.93932861 967.03809326 106.70287598 966.90040527 105.42895508 966.75854492 C104.76086823 966.6867099 104.09278137 966.61487488 103.40444946 966.54086304 C73.55331791 963.28223027 44.0353073 957.62547833 15 950 C13.97970703 949.73783691 12.95941406 949.47567383 11.90820312 949.20556641 C-4.82957482 944.88028625 -21.12862719 939.35993075 -37.44140625 933.671875 C-38.08629501 933.44708969 -38.73118378 933.22230438 -39.39561462 932.9907074 C-42.71557786 931.82581416 -46.00662996 930.60891513 -49.28491211 929.33300781 C-52.81278916 927.83113647 -52.81278916 927.83113647 -56 928 Z M-92.1706543 930.06616211 C-93.05435196 930.33007248 -93.93804962 930.59398285 -94.848526 930.8658905 C-95.83050461 931.16667007 -96.81248322 931.46744965 -97.82421875 931.77734375 C-100.0085505 932.43091746 -102.19296272 933.08422227 -104.37744141 933.73730469 C-106.15263153 934.27212463 -106.15263153 934.27212463 -107.96368408 934.81774902 C-114.4911041 936.7805434 -121.02735153 938.71310982 -127.56640625 940.63671875 C-128.27703972 940.84583012 -128.98767319 941.05494148 -129.719841 941.27038956 C-149.78854533 947.16624521 -169.9570499 952.70532282 -190.125 958.25 C-191.53036766 958.63655825 -191.53036766 958.63655825 -192.96412659 959.03092575 C-222.28873455 967.09628648 -251.6270742 975.11223295 -281 983 C-281 983.66 -281 984.32 -281 985 C-278.43385836 986.86287505 -275.87304878 988.57207128 -273.1875 990.25 C-272.34509766 990.77650146 -271.50269531 991.30300293 -270.63476562 991.84545898 C-243.39382424 1008.55281205 -214.27701273 1019.86945967 -184.3125 1030.5625 C-183.31575256 1030.91842224 -182.31900513 1031.27434448 -181.29205322 1031.64105225 C-178.42177373 1032.66304436 -175.54931539 1033.67860544 -172.67578125 1034.69140625 C-171.38978279 1035.14848213 -171.38978279 1035.14848213 -170.07780457 1035.61479187 C-165.09574782 1037.35940991 -160.14099286 1038.798944 -155 1040 C-154.35998047 1038.95779297 -154.35998047 1038.95779297 -153.70703125 1037.89453125 C-151.91950632 1034.98657832 -150.13007506 1032.07981431 -148.33935547 1029.17382812 C-147.41611423 1027.67537023 -146.4932874 1026.17665695 -145.57080078 1024.67773438 C-138.28102937 1012.83806669 -130.89067074 1001.06768368 -123.41015625 989.34765625 C-118.73873052 982.02869372 -114.10839409 974.68389758 -109.4765625 967.33984375 C-107.96493281 964.94443057 -106.45147795 962.55017961 -104.9375 960.15625 C-98.59358731 950.12364118 -92.27988028 940.07281682 -86 930 C-88.61115161 928.69442419 -89.4113891 929.22833208 -92.1706543 930.06616211 Z M114.62890625 978.9140625 C41.25446542 1011.71191398 -33.65847209 1031.61562033 -112 1049 C-109.10889373 1051.89110627 -105.72726935 1052.02987427 -101.8359375 1052.7421875 C-100.97090103 1052.90631134 -100.10586456 1053.07043518 -99.21461487 1053.23953247 C-96.26977188 1053.79422949 -93.32265417 1054.33545096 -90.375 1054.875 C-89.33860382 1055.06674805 -88.30220764 1055.25849609 -87.23440552 1055.45605469 C-43.84879596 1063.472068 -0.29840442 1070.68097953 43.37327194 1076.95318604 C45.42028345 1077.24752444 47.46700767 1077.54379976 49.51370239 1077.84033203 C53.29842745 1078.38585272 57.08437972 1078.92160574 60.87109375 1079.453125 C61.9739975 1079.61186096 63.07690125 1079.77059692 64.21322632 1079.93414307 C70.20807593 1080.75940762 75.94854476 1081.15634999 82 1081 C84.75071759 1075.66101025 87.16151706 1070.33054912 89.29296875 1064.71875 C89.59664368 1063.9274469 89.9003186 1063.1361438 90.2131958 1062.32086182 C91.21004347 1059.71593532 92.19947476 1057.10828463 93.1875 1054.5 C93.52927277 1053.60091919 93.87104553 1052.70183838 94.22317505 1051.7755127 C100.1489925 1036.1675789 105.84569989 1020.48039605 111.4375 1004.75 C111.81184174 1003.70126709 112.18618347 1002.65253418 112.5718689 1001.57202148 C113.63580531 998.58650928 114.69231763 995.59848645 115.74609375 992.609375 C116.06201477 991.72364807 116.37793579 990.83792114 116.70343018 989.925354 C118.20848786 985.62442552 119.43778621 981.5476849 120 977 C118.09920467 977 116.32899093 978.14870093 114.62890625 978.9140625 Z " fill="#D22A27" transform="translate(406,0)"/>
<path d="M0 0 C2.71854713 17.16476139 5.22471911 34.30842634 6.75 51.625 C6.86512939 52.93073975 6.98025879 54.23647949 7.09887695 55.58178711 C8.30527537 69.89534411 9.16014268 84.12778701 9.16796875 98.49609375 C9.17120401 99.94116748 9.1745695 101.38624093 9.17805481 102.83131409 C9.18398597 105.84563957 9.18590149 108.85993669 9.18530273 111.87426758 C9.18522234 114.88604858 9.19203529 117.89767465 9.20581055 120.90942383 C9.33780037 150.28926147 7.86490946 179.39271427 4.8125 208.625 C4.7080658 209.63796143 4.60363159 210.65092285 4.49603271 211.69458008 C0.92032873 246.07394761 -3.88071589 280.37607203 -12 314 C-12.15944092 314.66378662 -12.31888184 315.32757324 -12.4831543 316.01147461 C-27.33352887 377.57450285 -50.96757942 436.84954692 -78 494 C-78.44939941 494.95374512 -78.89879883 495.90749023 -79.36181641 496.89013672 C-85.23104481 509.31873172 -91.26847816 521.66639883 -97.37490845 533.97998047 C-98.07556862 535.39438072 -98.77432364 536.80972655 -99.47103882 538.22607422 C-101.05683785 541.44625087 -102.66100384 544.65200831 -104.33447266 547.82763672 C-105.30631298 549.67872045 -106.24554551 551.54901401 -107.09912109 553.45751953 C-108.11328125 555.390625 -108.11328125 555.390625 -111 558 C-115.58367454 558.95611398 -120.09801516 558.79736253 -124.75 558.625 C-126.17159952 558.59568803 -127.59323288 558.56797956 -129.01489258 558.54174805 C-197.51895719 556.96237509 -266.94955651 546.67488756 -334 533 C-334.66358521 532.86527283 -335.32717041 532.73054565 -336.01086426 532.59173584 C-344.38034817 530.88691981 -352.70183384 529.02276535 -361 527 C-362.10263184 526.73316406 -363.20526367 526.46632813 -364.34130859 526.19140625 C-429.96008208 510.07679445 -497.51566607 485.7239086 -550 442 C-550.53093262 441.55930176 -551.06186523 441.11860352 -551.60888672 440.66455078 C-577.89820975 418.76543346 -601.34427416 392.09363159 -606 357 C-608.41815081 318.32381146 -588.72586571 285.93206134 -563.97705078 257.69165039 C-558.35398106 251.39798142 -552.52753566 245.34439925 -546.5625 239.375 C-545.68529297 238.48554687 -544.80808594 237.59609375 -543.90429688 236.6796875 C-535.44598078 228.20267211 -527.76772455 221.01476611 -516.3125 217.125 C-506.87124865 213.66142983 -499.05928169 208.95898404 -491 203 C-490.34 203.33 -489.68 203.66 -489 204 C-490.55847656 205.14275391 -490.55847656 205.14275391 -492.1484375 206.30859375 C-500.12869396 212.20033486 -507.74307616 218.22358555 -515 225 C-516.72833842 226.52177452 -518.45751226 228.04260073 -520.1875 229.5625 C-524.50088541 233.45392379 -528.27588998 237.55261241 -532 242 C-532.80953125 242.91007813 -533.6190625 243.82015625 -534.453125 244.7578125 C-551.7162001 264.29143577 -566.40944337 288.06369672 -572.05639648 313.71386719 C-572.23387924 314.51830261 -572.411362 315.32273804 -572.59422302 316.15155029 C-572.79508263 317.0665329 -572.79508263 317.0665329 -573 318 C-537.4560633 308.27419262 -502.0364907 298.16176583 -466.6875 287.75 C-464.8121442 287.1980074 -462.93678817 286.64601562 -461.06143188 286.09402466 C-456.55799251 284.76801756 -452.05517565 283.43991658 -447.55289078 282.10999489 C-445.89394218 281.61996911 -444.23490626 281.13023886 -442.57577133 280.64084435 C-432.01887216 277.52520812 -421.49613437 274.314704 -411 271 C-411 267.73771665 -411.62297867 266.32941405 -413.01171875 263.421875 C-413.43767334 262.51566406 -413.86362793 261.60945313 -414.30249023 260.67578125 C-414.75954346 259.71027344 -415.21659668 258.74476563 -415.6875 257.75 C-419.732193 249.01454227 -423.58085912 240.34818302 -426 231 C-426.387323 229.53820312 -426.387323 229.53820312 -426.7824707 228.046875 C-428.89292821 219.31343171 -429.43909281 211.11082025 -429.33618164 202.18652344 C-429.31251708 200.0015771 -429.31566059 197.81785566 -429.32226562 195.6328125 C-429.27978902 172.21733817 -429.27978902 172.21733817 -425.81445312 167.3269043 C-423.2734548 165.4686796 -420.60324728 164.07865706 -417.80078125 162.64453125 C-416.90820869 162.18478157 -416.90820869 162.18478157 -415.99760437 161.71574402 C-414.10528396 160.74259549 -412.20900471 159.7774643 -410.3125 158.8125 C-409.02512086 158.15221841 -407.7380083 157.4914168 -406.45117188 156.83007812 C-403.30384665 155.21401697 -400.15292268 153.60511852 -397 152 C-395.72260889 155.83217333 -396.48483183 157.81366004 -397.375 161.75 C-403.63056447 192.38622598 -398.89773497 224.49648929 -384 252 C-379.12719166 245.21349691 -374.61631911 238.28406574 -370.3125 231.125 C-369.70656006 230.12251221 -369.10062012 229.12002441 -368.47631836 228.0871582 C-367.2371469 226.03548437 -365.99958294 223.98283874 -364.76367188 221.92919922 C-363.16500184 219.27404375 -361.56024329 216.62270301 -359.953125 213.97265625 C-341.03511951 182.70990449 -323.65651557 150.74289555 -307.47949219 117.99072266 C-306.74714355 116.51031494 -306.74714355 116.51031494 -306 115 C-305.48099121 113.91243408 -304.96198242 112.82486816 -304.42724609 111.7043457 C-302.82973824 108.67738804 -301.94506575 107.93707648 -298.875 106.5625 C-298.00617188 106.16933594 -297.13734375 105.77617188 -296.2421875 105.37109375 C-295.17226563 104.91863281 -294.10234375 104.46617187 -293 104 C-291.96214355 103.54778076 -291.96214355 103.54778076 -290.90332031 103.08642578 C-288.60742206 102.08659912 -286.30543778 101.10261621 -284 100.125 C-283.2457373 99.80217041 -282.49147461 99.47934082 -281.71435547 99.14672852 C-279.83373632 98.36985827 -277.91868306 97.67742976 -276 97 C-275.34 97.33 -274.68 97.66 -274 98 C-293.82048988 151.498285 -318.82532571 203.56329839 -349 252 C-347.71766479 251.57255493 -347.71766479 251.57255493 -346.40942383 251.13647461 C-344.49333954 250.49777985 -342.57725088 249.85909815 -340.66110229 249.22059631 C-336.7466437 247.91609818 -332.83260965 246.61034457 -328.91918945 245.30273438 C-321.00279116 242.65893262 -313.08432499 240.02257929 -305.15203857 237.42677307 C-282.90424457 230.14485266 -260.80896416 222.51157099 -238.8125 214.5 C-237.6503598 214.07702637 -236.4882196 213.65405273 -235.29086304 213.21826172 C-223.56315684 208.94330855 -211.84992992 204.64500331 -200.26069641 200.00500488 C-195.20845226 198 -195.20845226 198 -193 198 C-196.95600148 193.9837166 -201.04995952 190.14053942 -205.1875 186.3125 C-214.81175561 177.3492831 -223.82679279 168.32907823 -232 158 C-232.87219716 156.9401694 -233.74594998 155.88161752 -234.62109375 154.82421875 C-242.03459808 145.76930415 -248.17749366 136.14067641 -254 126 C-254.38317383 125.33291016 -254.76634766 124.66582031 -255.16113281 123.97851562 C-260.21181852 115.08247258 -264.99478924 105.8078008 -268 96 C-267.67 95.01 -267.34 94.02 -267 93 C-264.51819988 91.79572627 -262.13520225 90.77459087 -259.5625 89.8125 C-258.86833984 89.53986328 -258.17417969 89.26722656 -257.45898438 88.98632812 C-252.31643562 87 -252.31643562 87 -250 87 C-249.66959717 87.76739502 -249.66959717 87.76739502 -249.33251953 88.55029297 C-241.3251694 107.03101005 -232.46843084 124.12681875 -220 140 C-219.23816406 140.97453125 -218.47632813 141.9490625 -217.69140625 142.953125 C-210.06829006 152.46503468 -201.7406533 161.32662166 -193.1875 170 C-192.6605957 170.53995605 -192.13369141 171.07991211 -191.59082031 171.63623047 C-188.29579109 174.93853578 -184.96350027 177.53540193 -181 180 C-169.70225832 143.76350768 -162.33318632 107.73441166 -161.4375 69.75 C-161.39419777 68.02212743 -161.35058025 66.29426273 -161.30664062 64.56640625 C-161.20079673 60.37768593 -161.09920366 56.18888263 -161 52 C-157.89878289 50.82538445 -154.79357759 49.66169544 -151.6875 48.5 C-150.80642578 48.16613281 -149.92535156 47.83226562 -149.01757812 47.48828125 C-148.17001953 47.17246094 -147.32246094 46.85664062 -146.44921875 46.53125 C-145.27879028 46.09135742 -145.27879028 46.09135742 -144.0847168 45.64257812 C-142 45 -142 45 -139 45 C-138.08421397 91.55245658 -146.18276306 137.12928721 -158 182 C-148.90045468 178.63362899 -140.0920294 174.88238242 -131.3125 170.75 C-130.36597565 170.30563599 -130.36597565 170.30563599 -129.40032959 169.85229492 C-104.68526553 158.2366519 -80.35366038 146.19068429 -57 132 C-55.38855728 131.03556143 -53.77659873 130.07198411 -52.1640625 129.109375 C-41.55229311 122.73804258 -31.24682633 115.94022634 -21 109 C-24.45882745 106.11179129 -28.29894712 104.38914044 -32.375 102.5625 C-42.18981795 98.04521085 -51.61631633 92.88883956 -61.05371094 87.63720703 C-64.02300711 85.98721531 -66.99931821 84.35044255 -69.9765625 82.71484375 C-84.82918734 74.51746748 -99.35044093 65.84077329 -113.80224609 56.96386719 C-117.6476289 54.60226547 -121.49949971 52.25140542 -125.35180664 49.90112305 C-128.56977683 47.93718827 -131.78508124 45.96892511 -135 44 C-133.59742285 41.19484571 -131.61889801 40.96825048 -128.77539062 39.99804688 C-128.08638672 39.77181641 -127.39738281 39.54558594 -126.6875 39.3125 C-126.01009766 39.07466797 -125.33269531 38.83683594 -124.63476562 38.59179688 C-120.97741963 37.37268154 -118.63911467 36.71377791 -115 38 C-112.98988342 39.13372803 -112.98988342 39.13372803 -110.84008789 40.56933594 C-109.62084373 41.37718536 -109.62084373 41.37718536 -108.37696838 42.20135498 C-107.50104538 42.78975159 -106.62512238 43.37814819 -105.72265625 43.984375 C-104.34091469 44.9015329 -104.34091469 44.9015329 -102.93125916 45.83721924 C-99.9713871 47.80276865 -97.01659461 49.77578018 -94.0625 51.75 C-75.74027376 63.97304642 -57.24999963 75.85294139 -38.25 87 C-37.37085938 87.51949219 -36.49171875 88.03898438 -35.5859375 88.57421875 C-30.10413148 91.80311636 -24.57715862 94.93882733 -19 98 C-19.26497221 81.34329861 -20.41696506 64.83266065 -21.9375 48.25 C-22.02286011 47.30950806 -22.10822021 46.36901611 -22.19616699 45.40002441 C-23.12466788 35.23876216 -24.15883786 25.11996098 -25.63500977 15.02246094 C-25.96278483 12.30817642 -26.07094341 9.72957172 -26 7 C-22.23124981 5.82652898 -18.45967916 4.66239667 -14.6875 3.5 C-13.61564453 3.16613281 -12.54378906 2.83226562 -11.43945312 2.48828125 C-10.41142578 2.17246094 -9.38339844 1.85664062 -8.32421875 1.53125 C-7.37635498 1.23798828 -6.42849121 0.94472656 -5.4519043 0.64257812 C-3 0 -3 0 0 0 Z M-22.40307617 123.35131836 C-55.48936959 148.91669625 -92.36582505 169.72099326 -129.11621094 189.44482422 C-133.92645906 192.03890486 -138.71369674 194.67456978 -143.5 197.3125 C-144.79236572 198.0245459 -144.79236572 198.0245459 -146.11083984 198.75097656 C-148.07426184 199.83331853 -150.0373489 200.91626094 -152 202 C-147.71542512 206.57353458 -142.65926582 209.47264974 -137.31542969 212.63037109 C-135.64632665 213.6176832 -133.98072984 214.61093131 -132.31738281 215.60791016 C-99.93144307 234.98019857 -66.22388907 250.16979643 -30 261 C-27.71540007 257.57310011 -27.43230191 255.43626343 -26.8515625 251.37890625 C-26.75416779 250.70353821 -26.65677307 250.02817017 -26.556427 249.33233643 C-26.2359224 247.07699966 -25.92935959 244.82006926 -25.625 242.5625 C-25.51772583 241.7828891 -25.41045166 241.0032782 -25.29992676 240.20004272 C-23.4176715 226.43853012 -21.99506628 212.6449765 -20.75 198.8125 C-20.62591766 197.4380925 -20.62591766 197.4380925 -20.49932861 196.03591919 C-18.8133186 177.167303 -17.84749289 158.37582456 -17.4375 139.4375 C-17.39415805 137.53970718 -17.35053974 135.64192064 -17.30664062 133.74414062 C-17.20125408 129.16282638 -17.09956182 124.58144437 -17 120 C-19.14657422 120 -20.76641324 122.08357069 -22.40307617 123.35131836 Z M-169 214 C-169.21503174 214.64622314 -169.43006348 215.29244629 -169.65161133 215.95825195 C-182.81644538 255.29385031 -199.50460972 293.59509225 -218.8125 330.31640625 C-219.42101807 331.47382324 -220.02953613 332.63124023 -220.65649414 333.82373047 C-221.82146239 336.02399538 -222.99480684 338.21985091 -224.17749023 340.41064453 C-224.69512939 341.38243652 -225.21276855 342.35422852 -225.74609375 343.35546875 C-226.20685303 344.20778076 -226.6676123 345.06009277 -227.14233398 345.93823242 C-227.56687866 346.95880737 -227.56687866 346.95880737 -228 348 C-227.67 348.66 -227.34 349.32 -227 350 C-173.584247 330.44662809 -120.5277282 309.80985762 -68.4375 286.9375 C-67.76019836 286.6410257 -67.08289673 286.34455139 -66.3850708 286.03909302 C-56.4269352 281.66957545 -46.69529304 276.92280124 -37 272 C-35.00070522 270.99859081 -33.00096191 269.99807387 -31 269 C-31 268.67 -31 268.34 -31 268 C-31.75579346 267.82049805 -32.51158691 267.64099609 -33.2902832 267.45605469 C-80.09454693 256.19919995 -124.59104051 238.71142999 -166.44726562 214.81933594 C-167.85479605 213.92221898 -167.85479605 213.92221898 -169 214 Z M-197 223 C-198.14436523 223.47719482 -199.28873047 223.95438965 -200.46777344 224.44604492 C-225.75049109 234.97005611 -251.0766912 245.15627872 -277 254 C-277.81261292 254.27739014 -278.62522583 254.55478027 -279.46246338 254.84057617 C-308.02904513 264.56437219 -336.90313665 273.01797652 -366 281 C-365.06659318 282.25761694 -364.13132838 283.51385497 -363.1953125 284.76953125 C-362.67469238 285.46925049 -362.15407227 286.16896973 -361.61767578 286.88989258 C-358.91496632 290.41532541 -355.97891293 293.70722748 -353 297 C-352.32976807 297.74588379 -352.32976807 297.74588379 -351.64599609 298.50683594 C-343.8584718 307.18775813 -343.8584718 307.18775813 -335.29296875 315.08203125 C-333.41150735 316.65579198 -331.57127613 318.2575633 -329.73828125 319.88671875 C-310.65743306 336.78653416 -289.66576527 350.6581391 -268 364 C-265.16388314 361.33865254 -263.11618402 358.81382571 -261.22265625 355.421875 C-260.46263306 354.07029297 -260.46263306 354.07029297 -259.68725586 352.69140625 C-259.15108643 351.72074219 -258.61491699 350.75007813 -258.0625 349.75 C-257.49474854 348.73292969 -256.92699707 347.71585938 -256.34204102 346.66796875 C-254.55153531 343.45063454 -252.77345102 340.22676338 -251 337 C-250.44538086 335.99130859 -249.89076172 334.98261719 -249.31933594 333.94335938 C-241.3453682 319.40119784 -233.57855902 304.75192775 -226 290 C-225.51176758 289.0522168 -225.02353516 288.10443359 -224.52050781 287.12792969 C-216.07695027 270.68052525 -208.37389345 253.95021629 -201 237 C-200.49710449 235.85982422 -199.99420898 234.71964844 -199.47607422 233.54492188 C-199.00830566 232.46275391 -198.54053711 231.38058594 -198.05859375 230.265625 C-197.63763428 229.29915039 -197.2166748 228.33267578 -196.78295898 227.33691406 C-196.52458252 226.56573242 -196.26620605 225.79455078 -196 225 C-196.33 224.34 -196.66 223.68 -197 223 Z M-38.765625 282.53515625 C-40.296427 283.36696411 -40.296427 283.36696411 -41.8581543 284.21557617 C-42.97746338 284.82506104 -44.09677246 285.4345459 -45.25 286.0625 C-66.13567632 297.36292747 -87.1640464 308.332378 -108.66308594 318.42724609 C-111.78205868 319.89727992 -114.89524185 321.37875593 -118.00672913 322.86453247 C-136.40768367 331.64989729 -154.91119789 340.15243735 -173.56655884 348.38345337 C-174.29353973 348.70421844 -175.02052063 349.02498352 -175.76953125 349.35546875 C-176.48370209 349.67051361 -177.19787292 349.98555847 -177.9336853 350.31015015 C-185.05957293 353.45866356 -192.14074052 356.70167583 -199.21240234 359.9699707 C-204.73704521 362.51872802 -210.27913353 365.02340042 -215.83984375 367.4921875 C-216.50811691 367.78940201 -217.17639008 368.08661652 -217.86491394 368.39283752 C-221.15287803 369.85495869 -224.44272433 371.31252416 -227.73608398 372.76245117 C-228.91372314 373.28556885 -230.0913623 373.80868652 -231.3046875 374.34765625 C-232.35640137 374.81179932 -233.40811523 375.27594238 -234.49169922 375.75415039 C-237.09213309 376.87963871 -237.09213309 376.87963871 -239 379 C-191.2828294 401.04030996 -141.145076 416.23979626 -89.6875 426.6875 C-87.81070557 427.07180176 -87.81070557 427.07180176 -85.89599609 427.46386719 C-84.18984131 427.79692871 -84.18984131 427.79692871 -82.44921875 428.13671875 C-81.46268311 428.32967529 -80.47614746 428.52263184 -79.4597168 428.72143555 C-76.86770291 429.18977635 -76.86770291 429.18977635 -74 428 C-73.00971629 425.72526404 -72.23203336 423.57498171 -71.50390625 421.21484375 C-71.2745639 420.50455521 -71.04522156 419.79426666 -70.80892944 419.06245422 C-70.04749727 416.69129305 -69.30455707 414.3147901 -68.5625 411.9375 C-68.03060901 410.2605582 -67.49812802 408.58380344 -66.96508789 406.90722656 C-65.28829779 401.61151702 -63.64170418 396.30667331 -62 391 C-61.61080383 389.74609467 -61.61080383 389.74609467 -61.21374512 388.46685791 C-51.65461907 357.65486611 -42.95658155 326.59449297 -35.3125 295.25 C-34.94632568 293.76028687 -34.94632568 293.76028687 -34.57275391 292.24047852 C-34.25250244 290.89167603 -34.25250244 290.89167603 -33.92578125 289.515625 C-33.74442627 288.75540039 -33.56307129 287.99517578 -33.3762207 287.21191406 C-32.96136392 284.77284695 -32.93557077 282.46951544 -33 280 C-35.03265437 280 -37.04531711 281.59595197 -38.765625 282.53515625 Z M-417.25848389 293.79278564 C-418.12865646 293.99428223 -418.99882904 294.19577881 -419.89537048 294.40338135 C-420.84867752 294.63281433 -421.80198456 294.86224731 -422.78417969 295.09863281 C-424.29556267 295.45229919 -424.29556267 295.45229919 -425.83747864 295.81311035 C-429.20078959 296.60215298 -432.56126652 297.40265707 -435.921875 298.203125 C-438.29347247 298.76184092 -440.66524086 299.3198318 -443.03717041 299.87713623 C-449.33374281 301.35858659 -455.62799997 302.84965388 -461.92181396 304.34277344 C-468.13279074 305.81468809 -474.34573116 307.27825705 -480.55859375 308.7421875 C-487.88331274 310.46860833 -495.20774999 312.19618709 -502.53088379 313.92932129 C-514.36865485 316.73064868 -526.20876189 319.5209951 -538.05664062 322.27929688 C-539.16445515 322.53743038 -540.27226967 322.79556389 -541.41365433 323.06151962 C-546.63390793 324.27768083 -551.8547358 325.49126982 -557.07659912 326.70050049 C-558.90818579 327.12673071 -560.73975047 327.55305541 -562.57128906 327.97949219 C-563.82024334 328.26712559 -563.82024334 328.26712559 -565.09442902 328.56056976 C-569.15368939 329.4669163 -569.15368939 329.4669163 -573 331 C-575.35123593 352.7358699 -559.81721637 376.81610377 -547.0625 393.125 C-545.71924742 394.75903331 -544.36528243 396.38432793 -543 398 C-542.39414062 398.71800781 -541.78828125 399.43601562 -541.1640625 400.17578125 C-535.80707261 406.30561751 -530.05535197 412.04673119 -524.3125 417.8125 C-523.49225342 418.63741943 -522.67200684 419.46233887 -521.8269043 420.31225586 C-514.94104147 428.25896769 -514.94104147 428.25896769 -506 432 C-504.30348215 429.83887241 -502.82525448 427.72179771 -501.3515625 425.4140625 C-500.90258606 424.73008392 -500.45360962 424.04610535 -499.99102783 423.34140015 C-499.0276856 421.87207611 -498.06889941 420.39975698 -497.11419678 418.92480469 C-494.63403754 415.09463132 -492.12023928 411.28664801 -489.609375 407.4765625 C-489.1182724 406.72957092 -488.6271698 405.98257935 -488.1211853 405.21295166 C-483.12142213 397.62586086 -477.8285253 390.27701014 -472.43701172 382.96533203 C-469.89365539 379.48690552 -467.4168611 375.96168618 -464.9375 372.4375 C-464.44483643 371.73810303 -463.95217285 371.03870605 -463.44458008 370.31811523 C-461.96217411 368.21269382 -460.4808935 366.10648547 -459 364 C-457.02212564 361.18658795 -455.04318654 358.37393305 -453.0625 355.5625 C-452.32265869 354.51219604 -452.32265869 354.51219604 -451.56787109 353.44067383 C-448.47464087 349.05968461 -445.34516055 344.7068836 -442.19262695 340.3684082 C-435.48490065 331.13712215 -428.99748084 321.7723849 -422.58740234 312.33251953 C-419.96770966 308.48315874 -417.32761124 304.64787259 -414.6875 300.8125 C-414.21296387 300.12269043 -413.73842773 299.43288086 -413.24951172 298.72216797 C-412.16655895 297.14796212 -411.0833159 295.57395597 -410 294 C-413.20947781 292.93017406 -414.08577635 293.04298187 -417.25848389 293.79278564 Z M-388 301 C-393.89276711 307.9281318 -399.75040845 314.87863183 -405.49609375 321.9296875 C-412.88551657 330.99066463 -420.2981727 340.03232003 -427.875 348.9375 C-431.59242114 353.30878897 -435.22691517 357.73477187 -438.79296875 362.23046875 C-441.56873576 365.71368788 -444.3771628 369.16965382 -447.1875 372.625 C-447.74219971 373.30796143 -448.29689941 373.99092285 -448.8684082 374.69458008 C-451.67186161 378.14470585 -454.48175223 381.58923011 -457.3046875 385.0234375 C-468.97772454 399.25109731 -479.90129041 414.00653884 -490.55810547 429.00830078 C-491.52091476 430.33823614 -492.50998933 431.64953783 -493.52392578 432.94091797 C-496.18423955 436.14574283 -496.18423955 436.14574283 -496.94116211 440.07641602 C-496.12812667 442.21489292 -496.12812667 442.21489292 -493.74459839 443.19818115 C-490.52802742 444.13788411 -489.26827328 443.85822363 -486.14526367 442.75268555 C-485.19744522 442.426306 -484.24962677 442.09992645 -483.27308655 441.76365662 C-482.24839767 441.39176712 -481.2237088 441.01987762 -480.16796875 440.63671875 C-478.54495094 440.06988121 -478.54495094 440.06988121 -476.8891449 439.49159241 C-473.31616044 438.23932719 -469.75205035 436.96355478 -466.1875 435.6875 C-463.67872091 434.80290609 -461.16951827 433.91962445 -458.65966797 433.03808594 C-453.53770533 431.23634779 -448.41980443 429.42352464 -443.30517578 427.60107422 C-436.8629605 425.30563259 -430.4152601 423.02618111 -423.96484375 420.75390625 C-416.29798525 418.05052235 -408.63580483 415.33425756 -400.9765625 412.609375 C-391.84654098 409.36145689 -382.71068931 406.1303485 -373.57188034 402.90726471 C-369.20829292 401.36809408 -364.84515661 399.82764485 -360.48196602 398.2873497 C-356.93574436 397.03560329 -353.38925533 395.78462665 -349.84210205 394.53552246 C-336.26060099 389.75216088 -322.68926448 384.94258793 -309.1875 379.9375 C-308.17864746 379.56729736 -307.16979492 379.19709473 -306.13037109 378.81567383 C-304.75679443 378.30170044 -304.75679443 378.30170044 -303.35546875 377.77734375 C-302.55778076 377.48077881 -301.76009277 377.18421387 -300.93823242 376.87866211 C-298.82145153 376.05616193 -298.82145153 376.05616193 -297 374 C-297.6077124 373.63874023 -298.2154248 373.27748047 -298.84155273 372.90527344 C-319.16222979 360.78598106 -338.15974573 348.08163301 -355.67578125 332.10546875 C-357.71273925 330.26022445 -359.78270847 328.4691833 -361.875 326.6875 C-369.65596655 319.90085575 -377.00821292 312.47101038 -383.59765625 304.5234375 C-385.11984104 302.74930154 -385.11984104 302.74930154 -388 301 Z M-256 395 C-257.70813442 397.17250403 -259.19839045 399.30155766 -260.68359375 401.62109375 C-261.13521378 402.30771591 -261.5868338 402.99433807 -262.05213928 403.70176697 C-263.02003958 405.17549991 -263.98329613 406.65229104 -264.94238281 408.1317749 C-266.93715172 411.20804796 -268.95470481 414.26908973 -270.97171021 417.33081055 C-271.96472815 418.83839068 -272.95665701 420.34668877 -273.94747925 421.85571289 C-279.10788442 429.70986339 -284.46892583 437.40298981 -290 445 C-290.55059082 445.75877441 -291.10118164 446.51754883 -291.66845703 447.29931641 C-302.75345833 462.54844377 -314.36904483 477.29409472 -326.28564453 491.89746094 C-329.29978131 495.59409237 -332.30560084 499.29748109 -335.3125 503 C-336.41272526 504.35419523 -337.5129823 505.70836464 -338.61328125 507.0625 C-339.79470703 508.5165625 -339.79470703 508.5165625 -341 510 C-336.81900336 512.78733109 -333.71029867 511.9323806 -329 511 C-323.42400353 509.59428863 -317.91666648 507.9760816 -312.40234375 506.34765625 C-310.72841171 505.85926314 -309.05429351 505.37150767 -307.38000488 504.88433838 C-302.84431247 503.56241828 -298.31145293 502.23102127 -293.77912521 500.89761734 C-289.9624908 499.77595726 -286.14432345 498.65956796 -282.32612705 497.54323864 C-271.25250204 494.30560094 -260.18303657 491.05391601 -249.11474609 487.7980957 C-243.0954545 486.02762773 -237.07514401 484.26064246 -231.0546875 482.49414062 C-156.68658937 460.84032761 -156.68658937 460.84032761 -83 437 C-85.62552849 434.37447151 -87.15456296 434.55753039 -90.82421875 434.17578125 C-92.06067139 434.03809326 -93.29712402 433.90040527 -94.57104492 433.75854492 C-95.23913177 433.6867099 -95.90721863 433.61487488 -96.59555054 433.54086304 C-126.44668209 430.28223027 -155.9646927 424.62547833 -185 417 C-186.02029297 416.73783691 -187.04058594 416.47567383 -188.09179688 416.20556641 C-204.82957482 411.88028625 -221.12862719 406.35993075 -237.44140625 400.671875 C-238.08629501 400.44708969 -238.73118378 400.22230438 -239.39561462 399.9907074 C-242.71557786 398.82581416 -246.00662996 397.60891513 -249.28491211 396.33300781 C-252.81278916 394.83113647 -252.81278916 394.83113647 -256 395 Z M-292.1706543 397.06616211 C-293.05435196 397.33007248 -293.93804962 397.59398285 -294.848526 397.8658905 C-295.83050461 398.16667007 -296.81248322 398.46744965 -297.82421875 398.77734375 C-300.0085505 399.43091746 -302.19296272 400.08422227 -304.37744141 400.73730469 C-306.15263153 401.27212463 -306.15263153 401.27212463 -307.96368408 401.81774902 C-314.4911041 403.7805434 -321.02735153 405.71310982 -327.56640625 407.63671875 C-328.27703972 407.84583012 -328.98767319 408.05494148 -329.719841 408.27038956 C-349.78854533 414.16624521 -369.9570499 419.70532282 -390.125 425.25 C-391.53036766 425.63655825 -391.53036766 425.63655825 -392.96412659 426.03092575 C-422.28873455 434.09628648 -451.6270742 442.11223295 -481 450 C-481 450.66 -481 451.32 -481 452 C-478.43385836 453.86287505 -475.87304878 455.57207128 -473.1875 457.25 C-472.34509766 457.77650146 -471.50269531 458.30300293 -470.63476562 458.84545898 C-443.39382424 475.55281205 -414.27701273 486.86945967 -384.3125 497.5625 C-383.31575256 497.91842224 -382.31900513 498.27434448 -381.29205322 498.64105225 C-378.42177373 499.66304436 -375.54931539 500.67860544 -372.67578125 501.69140625 C-371.38978279 502.14848213 -371.38978279 502.14848213 -370.07780457 502.61479187 C-365.09574782 504.35940991 -360.14099286 505.798944 -355 507 C-354.35998047 505.95779297 -354.35998047 505.95779297 -353.70703125 504.89453125 C-351.91950632 501.98657832 -350.13007506 499.07981431 -348.33935547 496.17382812 C-347.41611423 494.67537023 -346.4932874 493.17665695 -345.57080078 491.67773438 C-338.28102937 479.83806669 -330.89067074 468.06768368 -323.41015625 456.34765625 C-318.73873052 449.02869372 -314.10839409 441.68389758 -309.4765625 434.33984375 C-307.96493281 431.94443057 -306.45147795 429.55017961 -304.9375 427.15625 C-298.59358731 417.12364118 -292.27988028 407.07281682 -286 397 C-288.61115161 395.69442419 -289.4113891 396.22833208 -292.1706543 397.06616211 Z M-85.37109375 445.9140625 C-158.74553458 478.71191398 -233.65847209 498.61562033 -312 516 C-309.10889373 518.89110627 -305.72726935 519.02987427 -301.8359375 519.7421875 C-300.97090103 519.90631134 -300.10586456 520.07043518 -299.21461487 520.23953247 C-296.26977188 520.79422949 -293.32265417 521.33545096 -290.375 521.875 C-289.33860382 522.06674805 -288.30220764 522.25849609 -287.23440552 522.45605469 C-243.84879596 530.472068 -200.29840442 537.68097953 -156.62672806 543.95318604 C-154.57971655 544.24752444 -152.53299233 544.54379976 -150.48629761 544.84033203 C-146.70157255 545.38585272 -142.91562028 545.92160574 -139.12890625 546.453125 C-138.0260025 546.61186096 -136.92309875 546.77059692 -135.78677368 546.93414307 C-129.79192407 547.75940762 -124.05145524 548.15634999 -118 548 C-115.24928241 542.66101025 -112.83848294 537.33054912 -110.70703125 531.71875 C-110.40335632 530.9274469 -110.0996814 530.1361438 -109.7868042 529.32086182 C-108.78995653 526.71593532 -107.80052524 524.10828463 -106.8125 521.5 C-106.47072723 520.60091919 -106.12895447 519.70183838 -105.77682495 518.7755127 C-99.8510075 503.1675789 -94.15430011 487.48039605 -88.5625 471.75 C-88.18815826 470.70126709 -87.81381653 469.65253418 -87.4281311 468.57202148 C-86.36419469 465.58650928 -85.30768237 462.59848645 -84.25390625 459.609375 C-83.93798523 458.72364807 -83.62206421 457.83792114 -83.29656982 456.925354 C-81.79151214 452.62442552 -80.56221379 448.5476849 -80 444 C-81.90079533 444 -83.67100907 445.14870093 -85.37109375 445.9140625 Z " fill="#B9C0C7" transform="translate(606,533)"/>
<path d="M0 0 C2.71989992 7.06160353 5.04381663 14.22118275 7.3125 21.4375 C23.64801722 73.04229246 47.15778254 122.53557605 73.68701172 169.66503906 C75.11572939 172.20580809 76.52970483 174.75442728 77.94140625 177.3046875 C80.28678086 181.54066822 82.6405765 185.77182956 85 190 C80.14765849 191.61744717 75.52966136 190.20741726 70.5625 189.375 C69.51255859 189.22160156 68.46261719 189.06820312 67.38085938 188.91015625 C66.36958984 188.74128906 65.35832031 188.57242188 64.31640625 188.3984375 C63.39287354 188.25067871 62.46934082 188.10291992 61.51782227 187.95068359 C55.91709296 185.83595074 53.62825128 179.78116582 50.98828125 174.7421875 C50.6182045 174.0450061 50.24812775 173.34782471 49.86683655 172.6295166 C48.67612345 170.3810872 47.49386089 168.12835535 46.3125 165.875 C45.91081604 165.11310364 45.50913208 164.35120728 45.09527588 163.56622314 C39.0942223 152.18298872 33.29355441 140.73249779 28 129 C23.56013961 132.28307116 19.19264979 135.62392955 14.9296875 139.13354492 C2.0648127 149.68541042 -11.73361156 158.90741226 -26.09375 167.29296875 C-28.09799848 168.47019534 -30.06597531 169.7106502 -32 171 C-39.08892718 171.44698654 -45.62010483 170.3599927 -52.5625 169 C-53.57119141 168.80921875 -54.57988281 168.6184375 -55.61914062 168.421875 C-58.08091515 167.95518789 -60.54101164 167.48111337 -63 167 C-57.99877279 163.11291842 -52.50567779 160.03117671 -47.0625 156.8125 C-46.47231079 156.46296265 -45.88212158 156.11342529 -45.27404785 155.7532959 C-23.90849347 143.11929062 -2.07998646 131.33545956 20 120 C16.78816652 118.92938884 13.96720183 118.61250252 10.59765625 118.2734375 C9.24267552 118.13212833 7.88778053 117.98999524 6.53295898 117.84716797 C5.80857635 117.77125427 5.08419373 117.69534058 4.33786011 117.61712646 C-50.84093553 111.74541997 -105.53570491 100.7649918 -159 86 C-157.54980469 87.34191406 -157.54980469 87.34191406 -156.0703125 88.7109375 C-149.40194312 94.89851805 -142.78110248 101.09459248 -136.44140625 107.62109375 C-134.4557049 109.55596114 -132.44191434 111.35725281 -130.33984375 113.16015625 C-124.38700097 118.32456142 -118.94888328 124.00643667 -113.421875 129.6171875 C-109.09678809 133.98207583 -104.72193562 138.17335564 -100.05859375 142.17285156 C-95.86692124 145.89325918 -91.95254413 149.90424138 -88 153.875 C-87.12988281 154.74125 -86.25976562 155.6075 -85.36328125 156.5 C-84.13158203 157.73363281 -84.13158203 157.73363281 -82.875 158.9921875 C-82.12992188 159.73839355 -81.38484375 160.48459961 -80.6171875 161.25341797 C-79 163 -79 163 -79 164 C-86.27316524 163.23278848 -93.51323854 162.30695927 -100.75 161.25 C-102.41482422 161.0334375 -102.41482422 161.0334375 -104.11328125 160.8125 C-110.31719366 159.88676578 -114.05932302 159.23685429 -118 154 C-119.29357422 152.52466797 -119.29357422 152.52466797 -120.61328125 151.01953125 C-121.51575881 149.95283127 -122.4154081 148.88373327 -123.3125 147.8125 C-123.79541504 147.23862549 -124.27833008 146.66475098 -124.77587891 146.07348633 C-128.17315861 142.02236286 -131.50116166 137.92095247 -134.78515625 133.77734375 C-137.60099891 130.24636644 -140.45811317 126.74983454 -143.3125 123.25 C-147.96738038 117.53664205 -152.55555782 111.77671137 -157.09228516 105.96923828 C-161.31175626 100.57725761 -165.63799866 95.27748311 -170 90 C-175.12751454 92.74944236 -179.44606275 95.7925608 -183.8125 99.625 C-184.41779541 100.15351562 -185.02309082 100.68203125 -185.64672852 101.2265625 C-187.4412955 102.80675007 -189.22295592 104.40015115 -191 106 C-191.95132813 106.85335937 -192.90265625 107.70671875 -193.8828125 108.5859375 C-201.58268191 115.86196089 -207.84422104 124.46063621 -210 135 C-218.79578127 133.70552653 -228.93316165 128.51776829 -234.765625 121.73828125 C-237.04782822 118.52441912 -238 117.02932387 -238 113 C-235.52262995 109.12009769 -232.36026621 106.12091764 -229 103 C-228.13890625 102.19433594 -227.2778125 101.38867188 -226.390625 100.55859375 C-210.92754335 86.95195552 -192.13881706 77.48035434 -174 68 C-173.12069824 67.53770996 -172.24139648 67.07541992 -171.33544922 66.59912109 C-130.28381126 45.13692671 -86.48005426 28.77958902 -43 13 C-42.32676697 12.75531982 -41.65353394 12.51063965 -40.9598999 12.25854492 C-36.45551069 10.62206355 -31.94775344 8.99525234 -27.4375 7.375 C-26.32020508 6.97297363 -25.20291016 6.57094727 -24.05175781 6.15673828 C-6.17335214 -0.21350728 -6.17335214 -0.21350728 0 0 Z M-12.01171875 11.7109375 C-13.58373047 12.3289624 -13.58373047 12.3289624 -15.1875 12.95947266 C-16.92 13.66015869 -16.92 13.66015869 -18.6875 14.375 C-19.90050781 14.85888184 -21.11351562 15.34276367 -22.36328125 15.84130859 C-46.80087308 25.63927403 -71.10662938 35.93973701 -95 47 C-96.42968029 47.65366161 -97.85936786 48.30730728 -99.2890625 48.9609375 C-116.30196642 56.79531778 -132.67645144 65.83384967 -149 75 C-145.63882963 76.947821 -142.57834963 77.52638696 -138.74926758 78.078125 C-137.46996368 78.26630295 -136.19065979 78.4544809 -134.87258911 78.64836121 C-134.18630558 78.74600454 -133.50002205 78.84364788 -132.79294205 78.94425011 C-130.60025578 79.25630104 -128.40892104 79.57666279 -126.21774292 79.89912415 C-123.06334804 80.36265119 -119.90850164 80.82290593 -116.75326538 81.28067017 C-108.42835565 82.49029404 -100.10819825 83.73182176 -91.7890625 84.98046875 C-90.95043104 85.10630026 -90.11179958 85.23213177 -89.24775505 85.36177635 C-73.02279608 87.80187095 -56.84694373 90.46880721 -40.6875 93.3125 C-39.57275299 93.50674561 -38.45800598 93.70099121 -37.30947876 93.90112305 C-23.46600247 96.32088889 -9.71647458 99.04904847 4.00056458 102.10505676 C5.11823715 102.35164536 6.23590973 102.59823395 7.38745117 102.85229492 C8.37605637 103.07382736 9.36466156 103.2953598 10.38322449 103.52360535 C13.21258822 104.11940673 13.21258822 104.11940673 17 104 C15.7267573 96.57207293 13.66263044 89.62856277 11.25 82.5 C3.5999293 59.10519809 -0.50027808 35.29135842 -4 11 C-7.65645939 9.7811802 -8.50033987 10.31892099 -12.01171875 11.7109375 Z " fill="#B6BDC5" transform="translate(406,0)"/>
<path d="M0 0 C1.98 0 3.96 0 6 0 C9.3 7.59 12.6 15.18 16 23 C19.84062209 15.39261393 23.6261073 7.82743106 27 0 C28.98 0 30.96 0 33 0 C33 10.89 33 21.78 33 33 C31.35 33 29.7 33 28 33 C27.505 23.1 27.505 23.1 27 13 C24.03 19.6 21.06 26.2 18 33 C14 32 14 32 12.71972656 30.05053711 C12.36362305 29.2178833 12.00751953 28.38522949 11.640625 27.52734375 C11.24746094 26.62822266 10.85429688 25.72910156 10.44921875 24.80273438 C10.05347656 23.85720703 9.65773438 22.91167969 9.25 21.9375 C8.83878906 20.98810547 8.42757812 20.03871094 8.00390625 19.06054688 C6.98927845 16.71274533 5.99289853 14.35707322 5 12 C4.67 18.93 4.34 25.86 4 33 C2.68 33 1.36 33 0 33 C0 22.11 0 11.22 0 0 Z " fill="#261F1F" transform="translate(555,1059)"/>
<path d="M0 0 C7.59 0 15.18 0 23 0 C23 1.32 23 2.64 23 4 C20.03 4 17.06 4 14 4 C14 13.57 14 23.14 14 33 C12.68 33 11.36 33 10 33 C10 23.43 10 13.86 10 4 C6.7 4 3.4 4 0 4 C0 2.68 0 1.36 0 0 Z " fill="#231F1F" transform="translate(527,1059)"/>
<path d="M0 0 C0.66 0.33 1.32 0.66 2 1 C-0.57934246 2.96363424 -3.16414585 4.9199511 -5.75 6.875 C-6.47960937 7.43058594 -7.20921875 7.98617187 -7.9609375 8.55859375 C-8.66992188 9.09355469 -9.37890625 9.62851562 -10.109375 10.1796875 C-10.75874023 10.67194824 -11.40810547 11.16420898 -12.07714844 11.67138672 C-13.98523153 12.98979558 -15.90262088 14.0165985 -18 15 C-18.33 14.01 -18.66 13.02 -19 12 C-18.53102295 11.70754395 -18.0620459 11.41508789 -17.57885742 11.11376953 C-15.44810835 9.7846545 -13.31779997 8.45483472 -11.1875 7.125 C-10.44951172 6.66480469 -9.71152344 6.20460938 -8.95117188 5.73046875 C-8.23896484 5.28574219 -7.52675781 4.84101562 -6.79296875 4.3828125 C-5.81106567 3.77010498 -5.81106567 3.77010498 -4.80932617 3.14501953 C-3.1907533 2.1207169 -1.59375623 1.06250416 0 0 Z " fill="#A19EA8" transform="translate(115,736)"/>
</svg>
