<svg xmlns="http://www.w3.org/2000/svg" xmlns:xlink="http://www.w3.org/1999/xlink" version="1.1" width="256" height="256" viewBox="0 0 256 256" xml:space="preserve">

<defs>
</defs>
<g style="stroke: none; stroke-width: 0; stroke-dasharray: none; stroke-linecap: butt; stroke-linejoin: miter; stroke-miterlimit: 10; fill: none; fill-rule: nonzero; opacity: 1;" transform="translate(1.4065934065934016 1.4065934065934016) scale(2.81 2.81)" >
	<path d="M 84.005 90 c 3.291 0 5.986 -2.651 5.986 -5.896 V 23.963 c 0 -3.246 -2.696 -5.896 -5.986 -5.896 H 25.576 L 49.025 90 L 84.005 90 L 84.005 90 z" style="stroke: none; stroke-width: 1; stroke-dasharray: none; stroke-linecap: butt; stroke-linejoin: miter; stroke-miterlimit: 10; fill: rgb(219,219,219); fill-rule: nonzero; opacity: 1;" transform=" matrix(1 0 0 1 0 0) " stroke-linecap="round" />
	<polygon points="43.49,73.01 49.02,90 64.42,73.01 " style="stroke: none; stroke-width: 1; stroke-dasharray: none; stroke-linecap: butt; stroke-linejoin: miter; stroke-miterlimit: 10; fill: rgb(67,82,184); fill-rule: nonzero; opacity: 1;" transform="  matrix(1 0 0 1 0 0) "/>
	<path d="M 84.401 42.922 v -3.525 H 67.408 v -5.698 H 61.89 v 5.698 H 51.045 v 3.525 h 21.583 c -1.154 4.066 -3.705 7.906 -6.194 10.891 c -4.409 -5.22 -4.427 -6.915 -4.427 -6.915 h -4.58 c 0 0 0.189 2.542 6.374 9.791 c -2.01 2.055 -3.534 3.273 -3.534 3.273 l 1.406 4.399 c 0 0 2.128 -1.83 4.787 -4.652 c 2.669 2.894 6.112 6.374 10.566 10.521 l 2.894 -2.894 c -4.769 -4.327 -8.267 -7.762 -10.836 -10.521 c 3.444 -4.075 6.942 -9.205 7.681 -13.902 h 7.627 v 0.009 H 84.401 z" style="stroke: none; stroke-width: 1; stroke-dasharray: none; stroke-linecap: butt; stroke-linejoin: miter; stroke-miterlimit: 10; fill: rgb(96,121,136); fill-rule: nonzero; opacity: 1;" transform=" matrix(1 0 0 1 0 0) " stroke-linecap="round" />
	<path d="M 5.995 0 C 2.705 0 0.009 2.696 0.009 5.995 v 61.034 c 0 3.291 2.696 5.986 5.986 5.986 h 58.428 L 40.975 0 C 40.975 0 5.995 0 5.995 0 z" style="stroke: none; stroke-width: 1; stroke-dasharray: none; stroke-linecap: butt; stroke-linejoin: miter; stroke-miterlimit: 10; fill: rgb(66,133,244); fill-rule: nonzero; opacity: 1;" transform=" matrix(1 0 0 1 0 0) " stroke-linecap="round" />
	<path d="M 33.492 38.82 c -0.225 2.732 -2.56 6.78 -8.213 6.78 c -4.895 0 -8.862 -4.048 -8.862 -9.033 s 3.967 -9.033 8.862 -9.033 c 2.786 0 4.643 1.208 5.707 2.191 l 3.714 -3.57 c -2.443 -2.254 -5.626 -3.66 -9.421 -3.66 c -7.762 0 -14.064 6.302 -14.064 14.064 s 6.302 14.064 14.064 14.064 c 8.132 0 13.505 -5.707 13.505 -13.757 c 0 -1.154 -0.144 -2.001 -0.334 -2.867 H 25.288 v 4.814 L 33.492 38.82 L 33.492 38.82 z" style="stroke: none; stroke-width: 1; stroke-dasharray: none; stroke-linecap: butt; stroke-linejoin: miter; stroke-miterlimit: 10; fill: rgb(238,238,238); fill-rule: nonzero; opacity: 1;" transform=" matrix(1 0 0 1 0 0) " stroke-linecap="round" />
</g>
</svg>