<?xml version="1.0" encoding="UTF-8"?>
<svg version="1.1" xmlns="http://www.w3.org/2000/svg" width="2500" height="2500">
<path d="M0 0 C825 0 1650 0 2500 0 C2500 825 2500 1650 2500 2500 C1675 2500 850 2500 0 2500 C0 1675 0 850 0 0 Z " fill="#007ACC" transform="translate(0,0)"/>
<path d="M0 0 C3.10938921 0.01914276 6.21872026 0.02311626 9.32816029 0.02685165 C30.13633173 0.0542129 50.92803618 0.20393953 71.63238525 2.51428223 C72.77393066 2.63996582 73.91547607 2.76564941 75.09161377 2.8951416 C83.95633798 3.91200394 92.79206149 5.11301878 101.61489868 6.44189453 C103.03192425 6.65511949 104.44942474 6.86521404 105.86740112 7.07202148 C107.85202241 7.36395462 109.83407793 7.67316978 111.815979 7.98303223 C112.95220703 8.1577002 114.08843506 8.33236816 115.25909424 8.5123291 C118.46010626 9.29873071 120.54703598 10.52343851 123.31988525 12.26428223 C125.82320125 13.15812998 125.82320125 13.15812998 128.46832275 13.80725098 C129.46162598 14.07183105 130.4549292 14.33641113 131.47833252 14.60900879 C132.53979492 14.88712402 133.60125732 15.16523926 134.69488525 15.45178223 C178.96975207 27.52411615 222.00301205 48.06268955 255.69488525 79.81506348 C257.79429796 81.77389051 259.92294624 83.65674061 262.097229 85.52990723 C266.5456392 89.40596157 270.72295119 93.519763 274.88238525 97.70178223 C275.59845947 98.41398926 276.31453369 99.12619629 277.05230713 99.85998535 C281.68090389 104.4970054 286.06635026 109.2823171 290.31988525 114.26428223 C290.7814502 114.79884033 291.24301514 115.33339844 291.71856689 115.88415527 C298.84364402 124.14807123 305.66587838 132.61864221 312.31988525 141.26428223 C312.90318604 142.01628906 313.48648682 142.7682959 314.08746338 143.54309082 C321.04784651 152.53751709 327.79530708 161.6099155 333.81988525 171.26428223 C334.29490479 172.01161621 334.76992432 172.7589502 335.25933838 173.52893066 C335.68150635 174.22534668 336.10367432 174.9217627 336.53863525 175.63928223 C336.90924072 176.2451416 337.27984619 176.85100098 337.66168213 177.47521973 C338.5164025 179.79843592 338.19535322 180.97832168 337.31988525 183.26428223 C329.31061742 191.56890267 318.5409904 197.82531343 309.0894165 204.34777832 C306.30486656 206.2746751 303.52990627 208.21465582 300.75738525 210.15881348 C288.08424521 219.03591719 275.27853189 227.69513691 262.37701416 236.2364502 C259.56632669 238.10081452 256.75992593 239.97140064 253.95492554 241.84429932 C245.64140016 247.39469167 237.30201389 252.9047848 228.94488525 258.38928223 C228.25867096 258.83971893 227.57245667 259.29015564 226.865448 259.75424194 C209.37877519 271.22721578 191.7643258 282.49568733 174.0647583 293.63757324 C173.34715332 294.08930908 172.62954834 294.54104492 171.89019775 295.00646973 C171.26903076 295.39689453 170.64786377 295.78731934 170.00787354 296.1895752 C168.43148095 297.19323157 166.87480443 298.22766944 165.31988525 299.26428223 C162.08150994 299.12759755 160.60735645 298.50215452 158.10113525 296.42834473 C152.87826675 290.61522053 148.36196967 284.56858599 144.00738525 278.07678223 C121.50481427 244.53907451 92.16730338 216.93386997 51.56988525 208.51428223 C49.86690238 208.19951288 48.16314358 207.88727903 46.45318604 207.61291504 C44.83822308 207.34899113 43.22783164 207.05689277 41.62017822 206.75158691 C32.82666262 205.19450269 24.25446484 204.95651057 15.3550415 205.00354004 C12.95504317 205.01423695 10.5557982 205.0035949 8.15582275 204.99084473 C-23.52411642 204.95952235 -51.6561068 213.99889068 -74.68011475 236.26428223 C-75.36976318 236.92814941 -76.05941162 237.5920166 -76.7699585 238.27600098 C-95.52877615 257.77774211 -100.22454845 285.04580439 -99.89105225 311.07678223 C-99.69571338 317.74241956 -98.59399314 323.87743803 -96.68011475 330.26428223 C-96.48675537 330.9128418 -96.293396 331.56140137 -96.09417725 332.22961426 C-90.86466381 349.33448113 -83.08778487 364.2926271 -70.68011475 377.26428223 C-70.14370361 377.82929443 -69.60729248 378.39430664 -69.05462646 378.97644043 C-65.00339473 383.1446114 -60.7294678 386.75415902 -56.05511475 390.20178223 C-55.00807373 390.97872437 -55.00807373 390.97872437 -53.93988037 391.7713623 C-47.73110325 396.32394671 -41.34969942 400.41039486 -34.68011475 404.26428223 C-34.09359131 404.60491699 -33.50706787 404.94555176 -32.902771 405.29650879 C-28.19818066 408.01930288 -23.45148276 410.6604845 -18.68011475 413.26428223 C-17.91763428 413.68048828 -17.15515381 414.09669434 -16.36956787 414.5255127 C15.10490993 431.5923877 48.35639254 445.53481299 81.13238525 459.88928223 C129.78956464 481.23135568 178.42834246 503.39167141 224.31988525 530.26428223 C225.11394775 530.72222168 225.90801025 531.18016113 226.72613525 531.65197754 C249.12768055 544.57523743 271.26630427 558.90212858 291.31988525 575.26428223 C291.89931885 575.73624023 292.47875244 576.20819824 293.07574463 576.69445801 C310.45337562 590.9450972 327.59891704 606.40359116 341.31988525 624.26428223 C342.09203369 625.2310791 342.86418213 626.19787598 343.659729 627.19396973 C378.39185695 671.19897227 397.78028061 723.92925283 405.56988525 779.13928223 C405.73319336 780.2907373 405.89650146 781.44219238 406.0647583 782.62854004 C408.24286792 798.98118829 408.55957643 815.35240063 408.56988525 831.82678223 C408.57089737 833.29786942 408.57089737 833.29786942 408.57192993 834.79867554 C408.53590427 868.03150269 405.40681248 901.44610527 395.31988525 933.26428223 C395.0377417 934.17597168 394.75559814 935.08766113 394.46490479 936.02697754 C390.03720947 950.25466973 384.86998923 963.87892951 378.31988525 977.26428223 C377.94138428 978.04577637 377.5628833 978.82727051 377.1729126 979.63244629 C366.56762631 1001.30977713 352.69718697 1021.28678089 336.362854 1039.03771973 C334.49029218 1041.07856149 332.68158991 1043.1589192 330.88238525 1045.26428223 C324.27098998 1052.83983931 317.03316504 1059.82201139 309.31988525 1066.26428223 C308.79217529 1066.71110352 308.26446533 1067.1579248 307.72076416 1067.61828613 C291.11479589 1081.63878543 273.19331896 1093.51767359 254.31988525 1104.26428223 C253.51953857 1104.72012695 252.71919189 1105.17597168 251.89459229 1105.64562988 C206.86899646 1130.94919526 153.46572175 1147.27475832 102.31988525 1153.26428223 C101.2527832 1153.38948242 101.2527832 1153.38948242 100.16412354 1153.51721191 C97.75855188 1153.79526046 95.352093 1154.06328633 92.94488525 1154.32678223 C91.86702759 1154.44606079 91.86702759 1154.44606079 90.76739502 1154.56774902 C76.51446439 1156.05461625 62.31564326 1156.42619286 47.99957275 1156.43225098 C46.16616797 1156.43547995 44.33276343 1156.43884511 42.49935913 1156.44233704 C38.6721131 1156.44828161 34.84488947 1156.45018208 31.01763916 1156.44958496 C27.16082013 1156.44950418 23.30412108 1156.45637717 19.44732666 1156.47009277 C-3.35051537 1156.54997032 -25.95774834 1156.29507914 -48.68011475 1154.26428223 C-49.56609344 1154.18601196 -50.45207214 1154.1077417 -51.36489868 1154.02709961 C-68.63635538 1152.44303544 -85.5497295 1149.03920512 -102.43011475 1145.13928223 C-103.69436783 1144.84765701 -103.69436783 1144.84765701 -104.98416138 1144.55014038 C-174.89298211 1128.31944259 -245.54756948 1096.35116561 -299.887146 1048.78625488 C-302.17313017 1046.84578302 -304.52254858 1044.98935463 -306.8637085 1043.11584473 C-312.86971859 1038.2146395 -318.35030274 1032.8901264 -323.80511475 1027.38928223 C-325.19150146 1026.01449707 -325.19150146 1026.01449707 -326.605896 1024.61193848 C-332.7286769 1018.47188597 -338.28983697 1012.05100502 -343.68011475 1005.26428223 C-344.69299244 1004.03285069 -345.70825132 1002.80336971 -346.72698975 1001.57678223 C-353.50982785 993.30368222 -359.62532747 984.68965947 -365.59417725 975.81506348 C-367.82682334 972.49906879 -370.12113143 969.24336071 -372.48504639 966.0201416 C-399.20041397 929.56280647 -399.20041397 929.56280647 -398.51824951 921.30480957 C-397.35743521 918.47868491 -395.83792467 917.70920859 -393.246521 916.11975098 C-391.82822998 915.23984497 -391.82822998 915.23984497 -390.38128662 914.34216309 C-388.82764404 913.40642456 -388.82764404 913.40642456 -387.24261475 912.45178223 C-386.16947021 911.79379639 -385.09632568 911.13581055 -383.99066162 910.45788574 C-373.06692734 903.801532 -361.97528517 897.43510634 -350.86761475 891.09191895 C-345.78766901 888.17919883 -340.73409858 885.22174622 -335.68011475 882.26428223 C-327.3628973 877.40274245 -319.02805455 872.57286908 -310.68011475 867.76428223 C-299.31265126 861.21535927 -287.97447795 854.61748327 -276.64788818 847.99816895 C-272.66034194 845.66849196 -268.67116446 843.34161708 -264.68182373 841.01501465 C-262.68898298 839.8526998 -260.69630577 838.69010449 -258.70379639 837.52722168 C-253.56979433 834.53109058 -248.43348513 831.53902255 -243.293396 828.55334473 C-242.24506592 827.94369873 -241.19673584 827.33405273 -240.11663818 826.70593262 C-238.06202822 825.51115669 -236.00670907 824.31759936 -233.95062256 823.12536621 C-229.73308824 820.67100925 -225.53534492 818.20555649 -221.4262085 815.57287598 C-220.82059082 815.18599609 -220.21497314 814.79911621 -219.59100342 814.4005127 C-218.07601719 813.42110517 -216.57270629 812.42369764 -215.07073975 811.42443848 C-212.68011475 810.26428223 -212.68011475 810.26428223 -210.72454834 810.45666504 C-208.09269126 811.49633344 -207.21885478 812.73300021 -205.57855225 815.02600098 C-204.72765015 816.19908813 -204.72765015 816.19908813 -203.85955811 817.39587402 C-203.2640918 818.23932373 -202.66862549 819.08277344 -202.05511475 819.95178223 C-201.43193359 820.8152124 -200.80875244 821.67864258 -200.16668701 822.5682373 C-197.41707543 826.3859822 -194.70252627 830.22805587 -191.996521 834.07678223 C-175.96783248 856.85405103 -157.02068138 878.30362118 -135.68011475 896.26428223 C-134.76359131 897.06994629 -133.84706787 897.87561035 -132.902771 898.70568848 C-86.14263016 939.57268934 -22.94316702 953.3942952 38.0112915 949.98303223 C66.42563945 947.96314329 95.55698516 940.61011348 120.31988525 926.26428223 C120.91656006 925.91929687 121.51323486 925.57431152 122.12799072 925.21887207 C143.98769177 912.343255 161.57881915 894.37995077 170.31988525 870.26428223 C170.76267822 869.13119629 170.76267822 869.13119629 171.2144165 867.97521973 C175.39697712 856.64315894 175.73314195 844.52721877 175.69488525 832.57678223 C175.69367676 831.87495819 175.69246826 831.17313416 175.69122314 830.45004272 C175.55448416 801.12161445 164.90828191 777.885233 144.0894165 757.02990723 C111.44205647 726.18717513 63.68064559 707.58136097 23.31988525 689.26428223 C22.20426208 688.75737854 22.20426208 688.75737854 21.06610107 688.24023438 C3.39830582 680.21437335 -14.29207023 672.2467615 -32.11761475 664.57678223 C-76.88153975 645.29465125 -121.00971267 624.63172033 -162.68011475 599.26428223 C-164.05852539 598.42800293 -164.05852539 598.42800293 -165.46478271 597.5748291 C-176.02964756 591.13658411 -186.08598345 584.25211036 -195.86175537 576.66955566 C-197.58795321 575.33550696 -199.32620392 574.01953048 -201.07073975 572.70959473 C-213.93674771 563.01291467 -226.02608431 552.37997422 -237.68011475 541.26428223 C-238.29032471 540.68275391 -238.90053467 540.10122559 -239.52923584 539.5020752 C-247.86087436 531.50650991 -255.49533936 523.29923145 -262.3739624 514.01916504 C-263.690657 512.25011816 -265.0325991 510.5027208 -266.3793335 508.75646973 C-273.99862762 498.7621009 -280.38375326 488.12623066 -286.68011475 477.26428223 C-287.47031968 475.92304232 -288.2606729 474.58188976 -289.0512085 473.24084473 C-318.63248209 422.48821258 -328.31815432 369.97026254 -328.12615967 311.99768066 C-328.11694706 309.08820898 -328.12399305 306.17953888 -328.14666748 303.2701416 C-328.36826718 274.61398166 -326.14319162 246.82848976 -317.68011475 219.26428223 C-317.39152588 218.30538086 -317.10293701 217.34647949 -316.80560303 216.35852051 C-305.78061696 180.14719527 -288.3190142 146.8030734 -264.68011475 117.26428223 C-263.62630615 115.92043457 -263.62630615 115.92043457 -262.5512085 114.54943848 C-243.98355413 91.26293273 -221.62423307 71.47111453 -196.68011475 55.26428223 C-196.01383057 54.82938477 -195.34754639 54.3944873 -194.66107178 53.94641113 C-160.48764423 31.84863095 -122.76611759 16.51816384 -83.06341553 7.80236816 C-80.82933463 7.29797211 -78.613041 6.74845843 -76.3949585 6.17834473 C-51.38768342 -0.11137966 -25.60927829 -0.18799027 0 0 Z " fill="#FEFEFE" transform="translate(1886.6801147460938,1137.7357177734375)"/>
<path d="M0 0 C15.94829881 -0.00089173 31.89659705 -0.00238283 47.84489553 -0.00586726 C48.97176195 -0.00611263 48.97176195 -0.00611263 50.12139336 -0.00636296 C53.15145985 -0.00702521 56.18152633 -0.00769315 59.21159282 -0.00836531 C87.81067146 -0.01470741 116.4097463 -0.01724666 145.00882547 -0.01285805 C147.80495119 -0.01243761 150.60107692 -0.01202483 153.39720265 -0.01161601 C154.08447701 -0.01151275 154.77175137 -0.01140949 155.47985222 -0.0113031 C165.66668933 -0.00983398 175.85352377 -0.01092712 186.04036061 -0.01345469 C197.55885219 -0.01627102 209.077337 -0.0154693 220.59582785 -0.01026112 C226.41275314 -0.00771517 232.22966728 -0.00656702 238.0465924 -0.00996901 C262.14310385 -0.02281458 286.22948767 0.12755405 310.32235829 0.56829045 C311.97618949 0.5974191 311.97618949 0.5974191 313.66343142 0.6271362 C327.07863653 0.86900219 340.45896655 1.31248678 353.85232656 2.1227033 C355.50098204 14.21110743 356.13279087 25.93767748 356.07937734 38.12685369 C356.0787629 39.99121282 356.07903466 41.85557242 356.08010785 43.71993135 C356.08055457 48.65829393 356.06906527 53.59655721 356.05488698 58.53489659 C356.04339446 63.18945309 356.04295521 67.84398689 356.04153554 72.49855779 C356.03109122 86.06078582 356.0031687 99.62299586 355.97732656 113.1852033 C355.93607656 143.5245783 355.89482656 173.8639533 355.85232656 205.1227033 C248.60232656 205.1227033 141.35232656 205.1227033 30.85232656 205.1227033 C30.85232656 510.3727033 30.85232656 815.6227033 30.85232656 1130.1227033 C-45.37767344 1130.1227033 -121.60767344 1130.1227033 -200.14767344 1130.1227033 C-200.14767344 824.8727033 -200.14767344 519.6227033 -200.14767344 205.1227033 C-307.39767344 205.1227033 -414.64767344 205.1227033 -525.14767344 205.1227033 C-525.14767344 171.7927033 -525.14767344 138.4627033 -525.14767344 104.1227033 C-524.48767344 104.1227033 -523.82767344 104.1227033 -523.14767344 104.1227033 C-523.14767344 70.1327033 -523.14767344 36.1427033 -523.14767344 1.1227033 C-473.7773386 0.85939484 -473.7773386 0.85939484 -453.06661876 0.76674626 C-451.14071335 0.75812523 -451.14071335 0.75812523 -449.17590077 0.74933003 C-439.41649722 0.70580952 -429.65708744 0.66381149 -419.89767344 0.6227033 C-418.84953617 0.61828361 -418.84953617 0.61828361 -417.7802244 0.61377464 C-332.55838965 0.25514841 -247.33638468 0.09481921 0 0 Z " fill="#FEFEFE" transform="translate(1073.147673443891,1150.8772967038676)"/>
</svg>
