<?xml version="1.0" encoding="UTF-8"?>
<svg version="1.1" xmlns="http://www.w3.org/2000/svg" width="1024" height="1024">
<path d="M0 0 C1.30383707 0.53036421 2.60809956 1.05968359 3.91275024 1.58804321 C6.71026386 2.72345217 9.5047755 3.86585182 12.29711914 5.01391602 C16.77098559 6.85323815 21.25116842 8.67680984 25.73242188 10.49804688 C31.20404886 12.72289482 36.67420762 14.95127915 42.14248276 17.18435287 C51.68387887 21.08032242 61.23618042 24.94852386 70.796875 28.796875 C71.48157804 29.07249268 72.16628109 29.34811035 72.87173271 29.63208008 C76.3136775 31.01740096 79.75583545 32.40219122 83.1980896 33.78674316 C89.42799917 36.29286401 95.65593837 38.80387447 101.88407707 41.31439209 C105.36778331 42.71859342 108.85161141 44.12249233 112.33544922 45.52636719 C113.02955493 45.80607109 113.72366064 46.08577499 114.43879986 46.37395477 C119.49178733 48.41010128 124.54493048 50.44586118 129.59814453 52.48144531 C130.32804376 52.7754743 131.05794298 53.06950329 131.80996037 53.37244225 C135.49054981 54.85509686 139.17117509 56.33766243 142.85185242 57.82009888 C150.00856259 60.70271471 157.1645957 63.5869906 164.3190918 66.47509766 C167.04341092 67.57465855 169.76778304 68.67408806 172.4921875 69.7734375 C173.15207987 70.0397485 173.81197224 70.30605949 174.49186134 70.58044052 C182.31809556 73.73808736 190.15074218 76.87883502 197.99525452 79.99087524 C201.9737738 81.56971477 205.94930808 83.15598293 209.92453003 84.74310303 C211.70067452 85.44955802 213.47840077 86.15205183 215.25784302 86.85015869 C217.64340063 87.78607919 220.02329088 88.73519192 222.40234375 89.6875 C223.41442902 90.07781403 223.41442902 90.07781403 224.44696045 90.47601318 C229.46738081 92.50956647 233.99840794 95.07856904 236.97083608 99.75564659 C238.02290891 102.46753824 238.07159669 104.61673431 238.07331216 107.52635372 C238.07883165 108.6719388 238.08435114 109.81752388 238.09003788 110.99782366 C238.08592725 112.2594508 238.08181661 113.52107794 238.07758141 114.8209362 C238.08027366 116.17789422 238.08384085 117.53485073 238.08820587 118.8918044 C238.09769632 122.64086675 238.09465279 126.38983235 238.08965033 130.13889957 C238.08639348 134.20996531 238.09465806 138.28100994 238.10146868 142.35206902 C238.11179452 149.49387348 238.11460801 156.63565082 238.11255646 163.77746201 C238.10951318 174.39746049 238.11781545 185.01742885 238.12830571 195.63742149 C238.14767432 215.70576315 238.15327499 235.77409462 238.15441982 255.84244452 C238.15533793 271.33619938 238.15944949 286.82995022 238.16582108 302.32370377 C238.16761608 306.7790728 238.16939571 311.23444183 238.17117083 315.68981087 C238.17183398 317.35110305 238.17183398 317.35110305 238.17251052 319.0459567 C238.18482341 350.20970376 238.19271118 381.37344942 238.19182396 412.53719902 C238.1917928 413.71277469 238.19176164 414.88835036 238.19172954 416.09954954 C238.19156332 422.05823859 238.19136524 428.01692763 238.19116013 433.97561668 C238.19110029 435.75083301 238.19110029 435.75083301 238.19103925 437.56191229 C238.19095837 439.95519308 238.19087478 442.34847387 238.19078846 444.74175466 C238.18956262 481.98752001 238.20458048 519.23324897 238.23193359 556.47900391 C238.26263126 598.29643874 238.2798675 640.11384965 238.27800715 681.93129647 C238.27785788 686.38729421 238.27776047 690.84329196 238.27769852 695.2992897 C238.27766355 696.94513612 238.27766355 696.94513612 238.27762788 698.62423195 C238.27756625 716.30826693 238.2903569 733.99227041 238.30756305 751.67629601 C238.32448772 769.43793532 238.32651825 787.19952836 238.3133444 804.96117125 C238.30593418 815.52234753 238.30967482 826.08338355 238.32922908 836.64454506 C238.34117843 843.69184614 238.33869457 850.73904503 238.32428809 857.78634131 C238.31648219 861.80652376 238.31509552 865.82643371 238.33120279 869.84659754 C238.34571893 873.50149091 238.34193801 877.1558839 238.32335506 880.81075468 C238.31827014 882.74949087 238.33287501 884.6882479 238.34820062 886.62693018 C238.29552989 893.00505323 238.23289271 897.15723399 233.8203125 901.9453125 C228.77527546 906.06162047 222.81965916 908.14629628 216.81640625 910.49609375 C215.70421219 910.93815155 214.59201813 911.38020935 213.44612122 911.83566284 C211.01026263 912.80300635 208.57357014 913.76782537 206.13513184 914.72860718 C202.16820649 916.29192863 198.20531286 917.86529187 194.24316406 919.44067383 C193.55980169 919.71235351 192.87643932 919.98403318 192.172369 920.26394558 C190.76535397 920.82332615 189.35834814 921.38272985 187.95135117 921.94215584 C185.77260527 922.80807322 183.59350872 923.67310307 181.41433716 924.53794861 C165.08439039 931.02081149 148.78838492 937.5876513 132.49284363 944.1564064 C128.43654812 945.79130456 124.37988564 947.4252916 120.32324219 949.05932617 C115.41507113 951.03641792 110.506933 953.01359121 105.59896851 954.99119568 C94.8954869 959.30402341 84.19110296 963.61460403 73.48607254 967.92358589 C68.64714399 969.87140577 63.80833742 971.81952864 58.96953011 973.76764965 C54.46222249 975.58228613 49.95480307 977.39664434 45.44722176 979.21060085 C43.33625148 980.06032966 41.22554375 980.9107084 39.11483765 981.76109314 C36.39174354 982.85792242 33.66722008 983.95108607 30.94155884 985.04151917 C24.69197361 987.54621789 18.46056704 990.08250981 12.26856899 992.72691536 C9.3760661 993.9608693 6.47730705 995.17974567 3.57821083 996.39811325 C2.21531913 996.97618821 0.85561578 997.56185305 -0.50037575 998.15593338 C-16.69724083 1005.24931517 -16.69724083 1005.24931517 -25.1796875 1002.9453125 C-30.7298053 999.36404073 -35.48223803 994.9300899 -40.11428833 990.25680733 C-40.76678946 989.60661389 -41.41929059 988.95642045 -42.09156448 988.28652418 C-44.26778965 986.11557541 -46.43683142 983.93759263 -48.60595703 981.759552 C-50.18398381 980.18239777 -51.76245018 978.60568328 -53.34131718 977.02937019 C-57.67174456 972.70341064 -61.99591807 968.3712468 -66.31909156 964.03803968 C-70.50540222 959.84397648 -74.69642454 955.6546283 -78.88733365 951.46516127 C-87.4572686 942.8978507 -96.02255045 934.32590247 -104.58517456 925.75128555 C-113.0611639 917.26345524 -121.53922434 908.77770248 -130.02005005 900.29470444 C-130.54769825 899.76691875 -131.07534646 899.23913307 -131.61898401 898.69535388 C-134.29874006 896.01492114 -136.97853308 893.33452535 -139.65834033 890.6541438 C-158.63088544 871.67739978 -177.59879112 852.69602473 -196.56396484 833.71191406 C-214.98641836 815.27108678 -233.41097519 796.83236512 -251.83837891 778.39648438 C-252.69065355 777.54381516 -252.69065355 777.54381516 -253.56014585 776.6739203 C-259.26616534 770.96526373 -264.97222756 765.25664989 -270.67832109 759.54806734 C-282.30190833 747.91940791 -293.92521034 736.29046339 -305.54833984 724.66134644 C-306.34992928 723.85934513 -306.34992928 723.85934513 -307.16771245 723.04114177 C-342.84315028 687.34730793 -378.51191795 651.64680884 -414.1796875 615.9453125 C-415.43908979 616.88587173 -416.69793111 617.82718213 -417.95654297 618.76879883 C-418.65762177 619.29290848 -419.35870056 619.81701813 -420.08102417 620.35700989 C-423.20512271 622.72137858 -426.25585327 625.17266165 -429.3046875 627.6328125 C-435.98224895 632.99746908 -442.70286364 638.30429984 -449.44580078 643.58642578 C-452.94496104 646.32879779 -456.43951105 649.0770452 -459.93432617 651.82495117 C-462.82288855 654.09565645 -465.71357311 656.36353235 -468.609375 658.625 C-474.87356026 663.52264804 -481.08350008 668.4779728 -487.2421875 673.5078125 C-493.08041619 678.27388442 -498.99148208 682.92148032 -504.98046875 687.49609375 C-513.51945684 694.01911416 -521.91921214 700.71202507 -530.2421875 707.5078125 C-536.07907175 712.2726587 -541.98816771 716.91976783 -547.9765625 721.4921875 C-556.94836638 728.34518899 -565.76389601 735.40036315 -574.5715332 742.4621582 C-581.64296047 748.12717445 -588.77581812 753.71314602 -595.90917969 759.29980469 C-602.5253233 764.48301026 -609.12229661 769.68789708 -615.6796875 774.9453125 C-622.80994537 780.65905392 -629.96880433 786.333595 -637.1796875 791.9453125 C-637.9113916 792.51556152 -638.6430957 793.08581055 -639.39697266 793.67333984 C-641.71649237 795.47741073 -644.04105679 797.2747764 -646.3671875 799.0703125 C-647.09856934 799.63935303 -647.82995117 800.20839355 -648.58349609 800.79467773 C-649.61144287 801.58467163 -649.61144287 801.58467163 -650.66015625 802.390625 C-651.26754639 802.86000488 -651.87493652 803.32938477 -652.50073242 803.81298828 C-656.38847547 806.43496767 -660.66687393 806.54618509 -665.1796875 805.9453125 C-668.65479052 804.78147026 -671.85457091 803.16733204 -675.1171875 801.5078125 C-676.10605957 801.01974121 -677.09493164 800.53166992 -678.11376953 800.02880859 C-681.48046771 798.35600777 -684.83138261 796.65461958 -688.1796875 794.9453125 C-689.07068146 794.49131073 -689.07068146 794.49131073 -689.97967529 794.02813721 C-697.31560687 790.28918484 -704.63259435 786.51430208 -711.94140625 782.72265625 C-718.67933627 779.22747857 -725.43510421 775.76842849 -732.19921875 772.32421875 C-734.07309324 771.36900496 -735.94695397 770.41376417 -737.82080078 769.45849609 C-740.5762894 768.05393944 -743.3323196 766.65050865 -746.090271 765.25079346 C-748.65694384 763.94786928 -751.22124667 762.64038262 -753.78515625 761.33203125 C-754.54625198 760.94729141 -755.30734772 760.56255157 -756.09150696 760.16615295 C-769.36497547 753.37469132 -769.36497547 753.37469132 -773.1796875 746.9453125 C-773.6613538 743.92821217 -773.8524345 741.4847559 -773.80609989 738.47756958 C-773.8130675 737.63501075 -773.82003511 736.79245191 -773.82721385 735.92436099 C-773.8444941 733.09380662 -773.82607357 730.26461446 -773.80787659 727.43408203 C-773.81292043 725.38727254 -773.82014799 723.34046747 -773.82937473 721.29367256 C-773.84834688 715.66348388 -773.83603508 710.03372808 -773.8186518 704.40355015 C-773.80530739 698.33393089 -773.82070438 692.26437621 -773.83247375 686.19476318 C-773.84981243 674.98981601 -773.84443726 663.78501019 -773.827487 652.5800764 C-773.81192551 642.22917288 -773.8060656 631.87831946 -773.8098278 621.52740479 C-773.81006461 620.84105997 -773.81030141 620.15471515 -773.81054538 619.44757201 C-773.81152029 616.66154145 -773.8125411 613.87551092 -773.81363049 611.08948041 C-773.82371572 584.94926073 -773.80544262 558.80912906 -773.77391013 532.66893008 C-773.74604903 509.44006287 -773.74108566 486.21130032 -773.75610352 462.98242188 C-773.75992589 457.03439337 -773.76372066 451.08636486 -773.7672739 445.13833618 C-773.76771172 444.40608549 -773.76814953 443.6738348 -773.76860061 442.91939469 C-773.77983791 423.51498213 -773.77249336 404.11057727 -773.75939316 384.70616722 C-773.75800457 382.61846248 -773.75662386 380.53075774 -773.75525474 378.44305299 C-773.75434535 377.05809953 -773.75342268 375.67314608 -773.75248663 374.28819264 C-773.74568793 363.94327767 -773.74835355 353.59839291 -773.75543404 343.253479 C-773.76339613 331.49195899 -773.75645426 319.73052822 -773.731259 307.96902514 C-773.71873849 301.96529389 -773.71264841 295.96173817 -773.72380066 289.95800018 C-773.73381037 284.46573927 -773.72545311 278.97382909 -773.70221948 273.48161101 C-773.69704217 271.49112395 -773.69865424 269.5006057 -773.70761413 267.51013207 C-773.71875771 264.81068313 -773.70543125 262.11243072 -773.68584538 259.41305542 C-773.69492419 258.63477725 -773.70400301 257.85649908 -773.71335694 257.05463672 C-773.63982252 251.87858457 -772.44808786 248.93446028 -769.1796875 244.9453125 C-766.97924805 243.35302734 -766.97924805 243.35302734 -764.56640625 242.15625 C-763.66196777 241.69694092 -762.7575293 241.23763184 -761.82568359 240.7644043 C-760.84937988 240.287854 -759.87307617 239.81130371 -758.8671875 239.3203125 C-756.74848229 238.2517295 -754.62999797 237.18270845 -752.51171875 236.11328125 C-750.90417725 235.31156494 -750.90417725 235.31156494 -749.26416016 234.49365234 C-745.69500051 232.70200991 -742.15970633 230.85226383 -738.62744141 228.98925781 C-725.81037066 222.23165247 -712.89367566 215.66466761 -699.9921875 209.0703125 C-698.51259552 208.31383926 -698.51259552 208.31383926 -697.00311279 207.54208374 C-692.33695992 205.15700053 -687.66928572 202.77501863 -682.99780273 200.40039062 C-680.1020142 198.92824633 -677.21247224 197.44576036 -674.33227539 195.94335938 C-672.75240845 195.12834961 -672.75240845 195.12834961 -671.140625 194.296875 C-670.28388184 193.84908691 -669.42713867 193.40129883 -668.54443359 192.93994141 C-664.35220831 191.17666185 -660.58812901 190.89287989 -656.1796875 191.9453125 C-652.75945054 193.44450555 -650.07139559 195.6013729 -647.1796875 197.9453125 C-646.60976074 198.40164062 -646.03983398 198.85796875 -645.45263672 199.328125 C-642.04969284 202.05397478 -638.66862552 204.80514586 -635.30078125 207.57421875 C-631.58909275 210.62128221 -627.83667865 213.61114549 -624.0546875 216.5703125 C-623.48459961 217.01665039 -622.91451172 217.46298828 -622.32714844 217.92285156 C-621.18278122 218.81796353 -620.03808902 219.71266016 -618.89306641 220.60693359 C-610.48414854 227.17542715 -602.1123522 233.78756044 -593.78759766 240.46240234 C-587.28765644 245.66942596 -580.73648732 250.81020163 -574.1796875 255.9453125 C-566.3496294 262.07760532 -558.54699302 268.24086908 -550.78759766 274.46240234 C-546.58084074 277.83238399 -542.35740224 281.180034 -538.1171875 284.5078125 C-537.54210449 284.95914551 -536.96702148 285.41047852 -536.37451172 285.87548828 C-533.50335437 288.12707585 -530.6295253 290.37520821 -527.75390625 292.62109375 C-521.48895036 297.52070171 -515.27728411 302.4768219 -509.1171875 307.5078125 C-503.27895881 312.27388442 -497.36789292 316.92148032 -491.37890625 321.49609375 C-482.14007568 328.553731 -473.07804636 335.8240534 -464.07324219 343.17675781 C-459.96878543 346.51870301 -455.82558812 349.79788321 -451.6171875 353.0078125 C-446.9428379 356.57416812 -442.32698468 360.20214274 -437.7421875 363.8828125 C-437.12174561 364.37950439 -436.50130371 364.87619629 -435.86206055 365.38793945 C-433.303833 367.43631394 -430.74668633 369.48575386 -428.20068359 371.54931641 C-426.28198436 373.10426323 -424.35642133 374.65034011 -422.4296875 376.1953125 C-421.84517822 376.67347412 -421.26066895 377.15163574 -420.65844727 377.64428711 C-417.34590421 380.37609746 -417.34590421 380.37609746 -413.1796875 380.9453125 C-410.95407459 379.00943397 -408.89906875 377.05342159 -406.83302689 374.95662212 C-405.85847711 373.98546707 -405.85847711 373.98546707 -404.86423945 372.99469271 C-402.66491825 370.79933653 -400.47656585 368.59335335 -398.28790283 366.38737488 C-396.70702583 364.80494333 -395.12548423 363.2231755 -393.54333186 361.64201909 C-389.17867286 357.27630095 -384.82344543 352.90127624 -380.46959591 348.52478158 C-376.26070483 344.29695237 -372.04477586 340.07615691 -367.82891313 335.85528223 C-359.20070157 327.21640346 -350.57921847 318.57083977 -341.96121979 309.92177391 C-330.19123265 298.10957871 -318.41096176 286.30767972 -306.62780985 274.50861851 C-301.14158085 269.01496617 -295.65582902 263.5208374 -290.17017746 258.02660847 C-289.62095753 257.47653174 -289.07173761 256.92645502 -288.50587465 256.3597093 C-275.42574306 243.2589714 -262.35010025 230.15375625 -249.27539062 217.04760742 C-248.703135 216.4739801 -248.13087938 215.90035279 -247.54128268 215.30934282 C-234.77108343 202.50849972 -222.00178894 189.70675449 -209.23349051 176.9040154 C-204.02419615 171.68067444 -198.81484328 166.45739186 -193.60546875 161.23413086 C-193.0341273 160.66126258 -192.46278585 160.0883943 -191.87413103 159.49816637 C-178.83127419 146.42051714 -165.7867685 133.34451978 -152.73637009 120.27439594 C-152.18792138 119.72511766 -151.63947268 119.17583938 -151.07440431 118.60991631 C-145.59903788 113.12635925 -140.12333538 107.64313799 -134.64715385 102.16039492 C-122.87701571 90.37604267 -111.11217469 78.58647296 -99.35800814 66.78618862 C-90.78786727 58.18262218 -82.21079372 49.58602039 -73.62645772 40.9966168 C-68.97434421 36.34132456 -64.32584387 31.68252303 -59.68590927 27.01508713 C-55.4406908 22.74481907 -51.18641201 18.48380333 -46.92465314 14.2300444 C-45.38207893 12.68707755 -43.84291822 11.14068916 -42.30748621 9.59061482 C-40.22400437 7.48823603 -38.12859766 5.39851116 -36.02971268 3.3115263 C-35.43289067 2.70333869 -34.83606865 2.09515108 -34.22116113 1.46853355 C-23.06659068 -9.52385615 -13.16594625 -5.45366728 0 0 Z M-43.4921875 333.3203125 C-49.28580203 338.24532177 -55.26031412 342.89994168 -61.30615234 347.51025391 C-64.92468827 350.28191851 -68.52008344 353.08342584 -72.1171875 355.8828125 C-72.88595215 356.48101807 -73.6547168 357.07922363 -74.44677734 357.69555664 C-81.37475184 363.09057932 -88.28105941 368.51284483 -95.1796875 373.9453125 C-103.5973779 380.57399727 -112.03729388 387.17292622 -120.49804688 393.74658203 C-127.41204966 399.12070142 -134.29981317 404.52761286 -141.1796875 409.9453125 C-149.5973779 416.57399727 -158.03729388 423.17292622 -166.49804688 429.74658203 C-173.41204966 435.12070142 -180.29981317 440.52761286 -187.1796875 445.9453125 C-195.5973779 452.57399727 -204.03729388 459.17292622 -212.49804688 465.74658203 C-217.15130858 469.36347151 -221.79673064 472.98995007 -226.4296875 476.6328125 C-227.26512085 477.28950928 -227.26512085 477.28950928 -228.11743164 477.95947266 C-231.05147731 480.26720667 -233.98208395 482.57922311 -236.91015625 484.89453125 C-237.53051758 485.3841333 -238.15087891 485.87373535 -238.79003906 486.37817383 C-239.96104044 487.30242625 -241.13105459 488.22793168 -242.29980469 489.1550293 C-245.17070924 491.41942293 -248.07465958 493.5709505 -251.08984375 495.640625 C-252.10949219 496.40117187 -253.12914062 497.16171875 -254.1796875 497.9453125 C-254.1796875 498.6053125 -254.1796875 499.2653125 -254.1796875 499.9453125 C-251.88185923 501.79396423 -249.56992654 503.53543437 -247.1796875 505.2578125 C-241.38531219 509.51047009 -235.72476666 513.87241359 -230.1796875 518.4453125 C-224.94323196 522.7524509 -219.6293208 526.9113066 -214.1796875 530.9453125 C-208.03461475 535.49410659 -202.08451701 540.23450542 -196.1796875 545.08984375 C-191.60225578 548.83582791 -186.93342484 552.42643271 -182.1796875 555.9453125 C-176.03461475 560.49410659 -170.08451701 565.23450542 -164.1796875 570.08984375 C-159.60225578 573.83582791 -154.93342484 577.42643271 -150.1796875 580.9453125 C-144.03461475 585.49410659 -138.08451701 590.23450542 -132.1796875 595.08984375 C-127.60225578 598.83582791 -122.93342484 602.42643271 -118.1796875 605.9453125 C-112.03461475 610.49410659 -106.08451701 615.23450542 -100.1796875 620.08984375 C-95.60225578 623.83582791 -90.93342484 627.42643271 -86.1796875 630.9453125 C-80.73000232 634.9793568 -75.41691973 639.13907269 -70.1796875 643.4453125 C-63.52014524 648.91942511 -56.69626828 654.13014326 -49.7734375 659.265625 C-46.02000048 662.05113262 -42.33884091 664.9228373 -38.68359375 667.8359375 C-37.35703224 669.04425029 -37.35703224 669.04425029 -36.1796875 668.9453125 C-36.1796875 556.7453125 -36.1796875 444.5453125 -36.1796875 328.9453125 C-39.4449609 328.9453125 -41.07052938 331.23544127 -43.4921875 333.3203125 Z M-646.1796875 387.9453125 C-646.1796875 462.1953125 -646.1796875 536.4453125 -646.1796875 612.9453125 C-644.5296875 611.2953125 -642.8796875 609.6453125 -641.1796875 607.9453125 C-640.20189489 606.97168638 -639.2236347 605.99852928 -638.24462891 605.02612305 C-635.37778218 602.17715402 -632.51405097 599.3250755 -629.65136719 596.47192383 C-628.4247303 595.25031414 -627.19719718 594.02960369 -625.96875 592.80981445 C-617.25313584 584.15411044 -617.25313584 584.15411044 -609.04052734 575.02661133 C-603.97603255 569.36211144 -598.40894169 564.12891566 -593.00439453 558.79052734 C-587.50421001 553.35165318 -582.06986139 547.9287003 -577.04882812 542.03710938 C-572.16188319 536.56802053 -566.79527818 531.5146342 -561.57714844 526.36328125 C-556.07074898 520.92102746 -550.62680637 515.48445181 -545.59716797 509.58984375 C-543.74336552 507.43910084 -541.76701543 505.43461714 -539.7421875 503.4453125 C-539.06285156 502.775 -538.38351562 502.1046875 -537.68359375 501.4140625 C-537.18730469 500.929375 -536.69101562 500.4446875 -536.1796875 499.9453125 C-537.74594495 496.17154856 -540.09316686 493.79622302 -542.97729492 490.93652344 C-543.70701508 490.20877464 -543.70701508 490.20877464 -544.45147705 489.46632385 C-546.05815317 487.86612837 -547.67168941 486.27303312 -549.28515625 484.6796875 C-550.40947111 483.56164965 -551.53326798 482.44309067 -552.65657043 481.32403564 C-555.6170498 478.3768553 -558.58303386 475.43528313 -561.55065918 472.49530029 C-566.28334464 467.80570863 -571.00946831 463.1095311 -575.73214149 458.4098587 C-577.37305824 456.77905684 -579.017407 455.15177767 -580.66215515 453.52484131 C-585.39522159 448.82966294 -589.99775964 444.09286431 -594.33277893 439.02276611 C-598.52880123 434.30296469 -603.07755682 429.90479782 -607.546875 425.4453125 C-608.63321262 424.3583 -609.71940187 423.27113919 -610.80545044 422.18383789 C-613.06464549 419.92317892 -615.32561358 417.66431292 -617.58789062 415.40673828 C-620.49334315 412.50703039 -623.39421839 409.60279097 -626.29382133 406.69723511 C-628.52754841 404.45990772 -630.76363513 402.22495099 -633.00046158 399.99072266 C-634.07215983 398.91969268 -635.14311245 397.84791609 -636.21331406 396.77539062 C-637.69954454 395.28663721 -639.18891311 393.8010983 -640.67919922 392.31640625 C-641.94991776 391.0468811 -641.94991776 391.0468811 -643.24630737 389.75170898 C-644.86047917 387.83152856 -644.86047917 387.83152856 -646.1796875 387.9453125 Z " fill="#038FD6" transform="translate(781.1796875,13.0546875)"/>
<path d="M0 0 C1.30383707 0.53036421 2.60809956 1.05968359 3.91275024 1.58804321 C6.71026386 2.72345217 9.5047755 3.86585182 12.29711914 5.01391602 C16.77098559 6.85323815 21.25116842 8.67680984 25.73242188 10.49804688 C31.20404886 12.72289482 36.67420762 14.95127915 42.14248276 17.18435287 C51.68387887 21.08032242 61.23618042 24.94852386 70.796875 28.796875 C71.48157804 29.07249268 72.16628109 29.34811035 72.87173271 29.63208008 C76.3136775 31.01740096 79.75583545 32.40219122 83.1980896 33.78674316 C89.42799917 36.29286401 95.65593837 38.80387447 101.88407707 41.31439209 C105.36778331 42.71859342 108.85161141 44.12249233 112.33544922 45.52636719 C113.02955493 45.80607109 113.72366064 46.08577499 114.43879986 46.37395477 C119.49178733 48.41010128 124.54493048 50.44586118 129.59814453 52.48144531 C130.32804376 52.7754743 131.05794298 53.06950329 131.80996037 53.37244225 C135.49054981 54.85509686 139.17117509 56.33766243 142.85185242 57.82009888 C150.00856259 60.70271471 157.1645957 63.5869906 164.3190918 66.47509766 C167.04341092 67.57465855 169.76778304 68.67408806 172.4921875 69.7734375 C173.15207987 70.0397485 173.81197224 70.30605949 174.49186134 70.58044052 C182.31809556 73.73808736 190.15074218 76.87883502 197.99525452 79.99087524 C201.9737738 81.56971477 205.94930808 83.15598293 209.92453003 84.74310303 C211.70067452 85.44955802 213.47840077 86.15205183 215.25784302 86.85015869 C217.64340063 87.78607919 220.02329088 88.73519192 222.40234375 89.6875 C223.41442902 90.07781403 223.41442902 90.07781403 224.44696045 90.47601318 C229.46738081 92.50956647 233.99840794 95.07856904 236.97083608 99.75564659 C238.02290891 102.46753824 238.07159669 104.61673431 238.07331216 107.52635372 C238.07883165 108.6719388 238.08435114 109.81752388 238.09003788 110.99782366 C238.08592725 112.2594508 238.08181661 113.52107794 238.07758141 114.8209362 C238.08027366 116.17789422 238.08384085 117.53485073 238.08820587 118.8918044 C238.09769632 122.64086675 238.09465279 126.38983235 238.08965033 130.13889957 C238.08639348 134.20996531 238.09465806 138.28100994 238.10146868 142.35206902 C238.11179452 149.49387348 238.11460801 156.63565082 238.11255646 163.77746201 C238.10951318 174.39746049 238.11781545 185.01742885 238.12830571 195.63742149 C238.14767432 215.70576315 238.15327499 235.77409462 238.15441982 255.84244452 C238.15533793 271.33619938 238.15944949 286.82995022 238.16582108 302.32370377 C238.16761608 306.7790728 238.16939571 311.23444183 238.17117083 315.68981087 C238.17183398 317.35110305 238.17183398 317.35110305 238.17251052 319.0459567 C238.18482341 350.20970376 238.19271118 381.37344942 238.19182396 412.53719902 C238.1917928 413.71277469 238.19176164 414.88835036 238.19172954 416.09954954 C238.19156332 422.05823859 238.19136524 428.01692763 238.19116013 433.97561668 C238.19110029 435.75083301 238.19110029 435.75083301 238.19103925 437.56191229 C238.19095837 439.95519308 238.19087478 442.34847387 238.19078846 444.74175466 C238.18956262 481.98752001 238.20458048 519.23324897 238.23193359 556.47900391 C238.26263126 598.29643874 238.2798675 640.11384965 238.27800715 681.93129647 C238.27785788 686.38729421 238.27776047 690.84329196 238.27769852 695.2992897 C238.27766355 696.94513612 238.27766355 696.94513612 238.27762788 698.62423195 C238.27756625 716.30826693 238.2903569 733.99227041 238.30756305 751.67629601 C238.32448772 769.43793532 238.32651825 787.19952836 238.3133444 804.96117125 C238.30593418 815.52234753 238.30967482 826.08338355 238.32922908 836.64454506 C238.34117843 843.69184614 238.33869457 850.73904503 238.32428809 857.78634131 C238.31648219 861.80652376 238.31509552 865.82643371 238.33120279 869.84659754 C238.34571893 873.50149091 238.34193801 877.1558839 238.32335506 880.81075468 C238.31827014 882.74949087 238.33287501 884.6882479 238.34820062 886.62693018 C238.29552989 893.00505323 238.23289271 897.15723399 233.8203125 901.9453125 C228.77527546 906.06162047 222.81965916 908.14629628 216.81640625 910.49609375 C215.70421219 910.93815155 214.59201813 911.38020935 213.44612122 911.83566284 C211.01026263 912.80300635 208.57357014 913.76782537 206.13513184 914.72860718 C202.16820649 916.29192863 198.20531286 917.86529187 194.24316406 919.44067383 C193.55980169 919.71235351 192.87643932 919.98403318 192.172369 920.26394558 C190.76535397 920.82332615 189.35834814 921.38272985 187.95135117 921.94215584 C185.77260527 922.80807322 183.59350872 923.67310307 181.41433716 924.53794861 C165.08439039 931.02081149 148.78838492 937.5876513 132.49284363 944.1564064 C128.43654812 945.79130456 124.37988564 947.4252916 120.32324219 949.05932617 C115.41507113 951.03641792 110.506933 953.01359121 105.59896851 954.99119568 C94.8954869 959.30402341 84.19110296 963.61460403 73.48607254 967.92358589 C68.64714399 969.87140577 63.80833742 971.81952864 58.96953011 973.76764965 C54.46222249 975.58228613 49.95480307 977.39664434 45.44722176 979.21060085 C43.33625148 980.06032966 41.22554375 980.9107084 39.11483765 981.76109314 C36.39174354 982.85792242 33.66722008 983.95108607 30.94155884 985.04151917 C24.69197361 987.54621789 18.46056704 990.08250981 12.26856899 992.72691536 C9.3760661 993.9608693 6.47730705 995.17974567 3.57821083 996.39811325 C2.21531913 996.97618821 0.85561578 997.56185305 -0.50037575 998.15593338 C-16.69724083 1005.24931517 -16.69724083 1005.24931517 -25.1796875 1002.9453125 C-30.7298053 999.36404073 -35.48223803 994.9300899 -40.11428833 990.25680733 C-40.76678946 989.60661389 -41.41929059 988.95642045 -42.09156448 988.28652418 C-44.26778965 986.11557541 -46.43683142 983.93759263 -48.60595703 981.759552 C-50.18398381 980.18239777 -51.76245018 978.60568328 -53.34131718 977.02937019 C-57.67174456 972.70341064 -61.99591807 968.3712468 -66.31909156 964.03803968 C-70.50540222 959.84397648 -74.69642454 955.6546283 -78.88733365 951.46516127 C-87.4572686 942.8978507 -96.02255045 934.32590247 -104.58517456 925.75128555 C-113.0611639 917.26345524 -121.53922434 908.77770248 -130.02005005 900.29470444 C-130.54769825 899.76691875 -131.07534646 899.23913307 -131.61898401 898.69535388 C-134.29874006 896.01492114 -136.97853308 893.33452535 -139.65834033 890.6541438 C-158.63088544 871.67739978 -177.59879112 852.69602473 -196.56396484 833.71191406 C-214.98641836 815.27108678 -233.41097519 796.83236512 -251.83837891 778.39648438 C-252.69065355 777.54381516 -252.69065355 777.54381516 -253.56014585 776.6739203 C-259.26616534 770.96526373 -264.97222756 765.25664989 -270.67832109 759.54806734 C-282.30190833 747.91940791 -293.92521034 736.29046339 -305.54833984 724.66134644 C-306.34992928 723.85934513 -306.34992928 723.85934513 -307.16771245 723.04114177 C-342.84315028 687.34730793 -378.51191795 651.64680884 -414.1796875 615.9453125 C-415.43908979 616.88587173 -416.69793111 617.82718213 -417.95654297 618.76879883 C-418.65762177 619.29290848 -419.35870056 619.81701813 -420.08102417 620.35700989 C-423.20512271 622.72137858 -426.25585327 625.17266165 -429.3046875 627.6328125 C-435.98224895 632.99746908 -442.70286364 638.30429984 -449.44580078 643.58642578 C-452.94496104 646.32879779 -456.43951105 649.0770452 -459.93432617 651.82495117 C-462.82288855 654.09565645 -465.71357311 656.36353235 -468.609375 658.625 C-474.87356026 663.52264804 -481.08350008 668.4779728 -487.2421875 673.5078125 C-493.08041619 678.27388442 -498.99148208 682.92148032 -504.98046875 687.49609375 C-513.51945684 694.01911416 -521.91921214 700.71202507 -530.2421875 707.5078125 C-536.07907175 712.2726587 -541.98816771 716.91976783 -547.9765625 721.4921875 C-556.94836638 728.34518899 -565.76389601 735.40036315 -574.5715332 742.4621582 C-581.64296047 748.12717445 -588.77581812 753.71314602 -595.90917969 759.29980469 C-602.5253233 764.48301026 -609.12229661 769.68789708 -615.6796875 774.9453125 C-622.80994537 780.65905392 -629.96880433 786.333595 -637.1796875 791.9453125 C-637.9113916 792.51556152 -638.6430957 793.08581055 -639.39697266 793.67333984 C-641.71649237 795.47741073 -644.04105679 797.2747764 -646.3671875 799.0703125 C-647.09856934 799.63935303 -647.82995117 800.20839355 -648.58349609 800.79467773 C-649.61144287 801.58467163 -649.61144287 801.58467163 -650.66015625 802.390625 C-651.26754639 802.86000488 -651.87493652 803.32938477 -652.50073242 803.81298828 C-656.38847547 806.43496767 -660.66687393 806.54618509 -665.1796875 805.9453125 C-668.65479052 804.78147026 -671.85457091 803.16733204 -675.1171875 801.5078125 C-676.10605957 801.01974121 -677.09493164 800.53166992 -678.11376953 800.02880859 C-681.48046771 798.35600777 -684.83138261 796.65461958 -688.1796875 794.9453125 C-689.07068146 794.49131073 -689.07068146 794.49131073 -689.97967529 794.02813721 C-697.31560687 790.28918484 -704.63259435 786.51430208 -711.94140625 782.72265625 C-718.67933627 779.22747857 -725.43510421 775.76842849 -732.19921875 772.32421875 C-734.07309324 771.36900496 -735.94695397 770.41376417 -737.82080078 769.45849609 C-740.5762894 768.05393944 -743.3323196 766.65050865 -746.090271 765.25079346 C-748.65694384 763.94786928 -751.22124667 762.64038262 -753.78515625 761.33203125 C-754.54625198 760.94729141 -755.30734772 760.56255157 -756.09150696 760.16615295 C-769.36497547 753.37469132 -769.36497547 753.37469132 -773.1796875 746.9453125 C-773.6613538 743.92821217 -773.8524345 741.4847559 -773.80609989 738.47756958 C-773.8130675 737.63501075 -773.82003511 736.79245191 -773.82721385 735.92436099 C-773.8444941 733.09380662 -773.82607357 730.26461446 -773.80787659 727.43408203 C-773.81292043 725.38727254 -773.82014799 723.34046747 -773.82937473 721.29367256 C-773.84834688 715.66348388 -773.83603508 710.03372808 -773.8186518 704.40355015 C-773.80530739 698.33393089 -773.82070438 692.26437621 -773.83247375 686.19476318 C-773.84981243 674.98981601 -773.84443726 663.78501019 -773.827487 652.5800764 C-773.81192551 642.22917288 -773.8060656 631.87831946 -773.8098278 621.52740479 C-773.81006461 620.84105997 -773.81030141 620.15471515 -773.81054538 619.44757201 C-773.81152029 616.66154145 -773.8125411 613.87551092 -773.81363049 611.08948041 C-773.82371572 584.94926073 -773.80544262 558.80912906 -773.77391013 532.66893008 C-773.74604903 509.44006287 -773.74108566 486.21130032 -773.75610352 462.98242188 C-773.75992589 457.03439337 -773.76372066 451.08636486 -773.7672739 445.13833618 C-773.76771172 444.40608549 -773.76814953 443.6738348 -773.76860061 442.91939469 C-773.77983791 423.51498213 -773.77249336 404.11057727 -773.75939316 384.70616722 C-773.75800457 382.61846248 -773.75662386 380.53075774 -773.75525474 378.44305299 C-773.75434535 377.05809953 -773.75342268 375.67314608 -773.75248663 374.28819264 C-773.74568793 363.94327767 -773.74835355 353.59839291 -773.75543404 343.253479 C-773.76339613 331.49195899 -773.75645426 319.73052822 -773.731259 307.96902514 C-773.71873849 301.96529389 -773.71264841 295.96173817 -773.72380066 289.95800018 C-773.73381037 284.46573927 -773.72545311 278.97382909 -773.70221948 273.48161101 C-773.69704217 271.49112395 -773.69865424 269.5006057 -773.70761413 267.51013207 C-773.71875771 264.81068313 -773.70543125 262.11243072 -773.68584538 259.41305542 C-773.69492419 258.63477725 -773.70400301 257.85649908 -773.71335694 257.05463672 C-773.63982252 251.87858457 -772.44808786 248.93446028 -769.1796875 244.9453125 C-766.97924805 243.35302734 -766.97924805 243.35302734 -764.56640625 242.15625 C-763.66196777 241.69694092 -762.7575293 241.23763184 -761.82568359 240.7644043 C-760.84937988 240.287854 -759.87307617 239.81130371 -758.8671875 239.3203125 C-756.74848229 238.2517295 -754.62999797 237.18270845 -752.51171875 236.11328125 C-750.90417725 235.31156494 -750.90417725 235.31156494 -749.26416016 234.49365234 C-745.69500051 232.70200991 -742.15970633 230.85226383 -738.62744141 228.98925781 C-725.81037066 222.23165247 -712.89367566 215.66466761 -699.9921875 209.0703125 C-698.51259552 208.31383926 -698.51259552 208.31383926 -697.00311279 207.54208374 C-692.33695992 205.15700053 -687.66928572 202.77501863 -682.99780273 200.40039062 C-680.1020142 198.92824633 -677.21247224 197.44576036 -674.33227539 195.94335938 C-672.75240845 195.12834961 -672.75240845 195.12834961 -671.140625 194.296875 C-670.28388184 193.84908691 -669.42713867 193.40129883 -668.54443359 192.93994141 C-664.35220831 191.17666185 -660.58812901 190.89287989 -656.1796875 191.9453125 C-652.75945054 193.44450555 -650.07139559 195.6013729 -647.1796875 197.9453125 C-646.60976074 198.40164062 -646.03983398 198.85796875 -645.45263672 199.328125 C-642.04969284 202.05397478 -638.66862552 204.80514586 -635.30078125 207.57421875 C-631.58909275 210.62128221 -627.83667865 213.61114549 -624.0546875 216.5703125 C-623.48459961 217.01665039 -622.91451172 217.46298828 -622.32714844 217.92285156 C-621.18278122 218.81796353 -620.03808902 219.71266016 -618.89306641 220.60693359 C-610.48414854 227.17542715 -602.1123522 233.78756044 -593.78759766 240.46240234 C-587.28765644 245.66942596 -580.73648732 250.81020163 -574.1796875 255.9453125 C-566.3496294 262.07760532 -558.54699302 268.24086908 -550.78759766 274.46240234 C-546.58084074 277.83238399 -542.35740224 281.180034 -538.1171875 284.5078125 C-537.54210449 284.95914551 -536.96702148 285.41047852 -536.37451172 285.87548828 C-533.50335437 288.12707585 -530.6295253 290.37520821 -527.75390625 292.62109375 C-521.48895036 297.52070171 -515.27728411 302.4768219 -509.1171875 307.5078125 C-503.27895881 312.27388442 -497.36789292 316.92148032 -491.37890625 321.49609375 C-482.14007568 328.553731 -473.07804636 335.8240534 -464.07324219 343.17675781 C-459.96878543 346.51870301 -455.82558812 349.79788321 -451.6171875 353.0078125 C-446.9428379 356.57416812 -442.32698468 360.20214274 -437.7421875 363.8828125 C-437.12174561 364.37950439 -436.50130371 364.87619629 -435.86206055 365.38793945 C-433.303833 367.43631394 -430.74668633 369.48575386 -428.20068359 371.54931641 C-426.28198436 373.10426323 -424.35642133 374.65034011 -422.4296875 376.1953125 C-421.84517822 376.67347412 -421.26066895 377.15163574 -420.65844727 377.64428711 C-417.34590421 380.37609746 -417.34590421 380.37609746 -413.1796875 380.9453125 C-410.95407459 379.00943397 -408.89906875 377.05342159 -406.83302689 374.95662212 C-405.85847711 373.98546707 -405.85847711 373.98546707 -404.86423945 372.99469271 C-402.66491825 370.79933653 -400.47656585 368.59335335 -398.28790283 366.38737488 C-396.70702583 364.80494333 -395.12548423 363.2231755 -393.54333186 361.64201909 C-389.17867286 357.27630095 -384.82344543 352.90127624 -380.46959591 348.52478158 C-376.26070483 344.29695237 -372.04477586 340.07615691 -367.82891313 335.85528223 C-359.20070157 327.21640346 -350.57921847 318.57083977 -341.96121979 309.92177391 C-330.19123265 298.10957871 -318.41096176 286.30767972 -306.62780985 274.50861851 C-301.14158085 269.01496617 -295.65582902 263.5208374 -290.17017746 258.02660847 C-289.62095753 257.47653174 -289.07173761 256.92645502 -288.50587465 256.3597093 C-275.42574306 243.2589714 -262.35010025 230.15375625 -249.27539062 217.04760742 C-248.703135 216.4739801 -248.13087938 215.90035279 -247.54128268 215.30934282 C-234.77108343 202.50849972 -222.00178894 189.70675449 -209.23349051 176.9040154 C-204.02419615 171.68067444 -198.81484328 166.45739186 -193.60546875 161.23413086 C-193.0341273 160.66126258 -192.46278585 160.0883943 -191.87413103 159.49816637 C-178.83127419 146.42051714 -165.7867685 133.34451978 -152.73637009 120.27439594 C-152.18792138 119.72511766 -151.63947268 119.17583938 -151.07440431 118.60991631 C-145.59903788 113.12635925 -140.12333538 107.64313799 -134.64715385 102.16039492 C-122.87701571 90.37604267 -111.11217469 78.58647296 -99.35800814 66.78618862 C-90.78786727 58.18262218 -82.21079372 49.58602039 -73.62645772 40.9966168 C-68.97434421 36.34132456 -64.32584387 31.68252303 -59.68590927 27.01508713 C-55.4406908 22.74481907 -51.18641201 18.48380333 -46.92465314 14.2300444 C-45.38207893 12.68707755 -43.84291822 11.14068916 -42.30748621 9.59061482 C-40.22400437 7.48823603 -38.12859766 5.39851116 -36.02971268 3.3115263 C-35.43289067 2.70333869 -34.83606865 2.09515108 -34.22116113 1.46853355 C-23.06659068 -9.52385615 -13.16594625 -5.45366728 0 0 Z M-24.65794581 14.16155386 C-25.2815952 14.79045727 -25.90524458 15.41936069 -26.54779243 16.06732178 C-27.54401769 17.0600855 -27.54401769 17.0600855 -28.56036872 18.07290506 C-30.81238412 20.31957427 -33.05712238 22.573381 -35.30203247 24.82714844 C-36.920253 26.44449785 -38.53891253 28.06140812 -40.15797603 29.67791367 C-44.62739048 34.14283223 -49.09050492 38.61400332 -53.55267072 43.08616447 C-57.8642798 47.4064658 -62.1815405 51.72111576 -66.49821982 56.03634989 C-75.33212122 64.86761955 -84.16134846 73.70354846 -92.98794937 82.54211426 C-101.73126961 91.29725617 -110.47664373 100.050338 -119.22478867 108.80065918 C-119.76809912 109.34410712 -120.31140958 109.88755506 -120.87118399 110.44747111 C-123.63023432 113.20719808 -126.38932158 115.96688811 -129.14842306 118.72656393 C-148.70662796 138.28897307 -168.26018879 157.85601815 -187.81103516 177.42578125 C-206.80803999 196.44114576 -225.8071377 215.45441519 -244.80908203 234.46484375 C-245.68719233 235.34334863 -245.68719233 235.34334863 -246.58304223 236.23960108 C-252.46177689 242.1209727 -258.34055422 248.00230167 -264.21936282 253.88359939 C-276.19587682 265.86518623 -288.17210592 277.84705784 -300.14816284 289.82910156 C-300.69883992 290.38005322 -301.249517 290.93100488 -301.81688126 291.49865204 C-338.60925534 328.30943695 -375.394966 365.12688062 -412.1796875 401.9453125 C-415.44703224 400.68371585 -418.02123834 399.51209538 -420.7109375 397.2578125 C-421.34974854 396.72921631 -421.98855957 396.20062012 -422.64672852 395.65600586 C-423.31760498 395.09147705 -423.98848145 394.52694824 -424.6796875 393.9453125 C-426.11475331 392.75774521 -427.55096529 391.57156169 -428.98828125 390.38671875 C-429.69839355 389.80035645 -430.40850586 389.21399414 -431.14013672 388.60986328 C-433.96324599 386.30582222 -436.84379591 384.09162393 -439.7421875 381.8828125 C-445.06394869 377.82250582 -450.30247104 373.66978479 -455.52148438 369.47851562 C-459.74344972 366.08966163 -463.98272387 362.72441191 -468.2421875 359.3828125 C-468.81646484 358.93228516 -469.39074219 358.48175781 -469.98242188 358.01757812 C-471.71443473 356.65963329 -473.44695669 355.30234109 -475.1796875 353.9453125 C-483.0097456 347.81301968 -490.81238198 341.64975592 -498.57177734 335.42822266 C-502.77853426 332.05824101 -507.00197276 328.710591 -511.2421875 325.3828125 C-511.81727051 324.93147949 -512.39235352 324.48014648 -512.98486328 324.01513672 C-515.85602063 321.76354915 -518.7298497 319.51541679 -521.60546875 317.26953125 C-527.87042464 312.36992329 -534.08209089 307.4138031 -540.2421875 302.3828125 C-546.08041619 297.61674058 -551.99148208 292.96914468 -557.98046875 288.39453125 C-567.21929932 281.336894 -576.28132864 274.0665716 -585.28613281 266.71386719 C-589.39058957 263.37192199 -593.53378688 260.09274179 -597.7421875 256.8828125 C-603.06394869 252.82250582 -608.30247104 248.66978479 -613.52148438 244.47851562 C-619.46065192 239.71131125 -625.44601067 235.0047614 -631.44140625 230.30859375 C-633.79084204 228.46600254 -636.13573064 226.61767189 -638.48022461 224.76879883 C-639.64569983 223.85201861 -640.81315425 222.93774836 -641.98266602 222.02612305 C-644.9370611 219.72298574 -647.85836561 217.39193678 -650.73828125 214.99609375 C-651.31634521 214.5256665 -651.89440918 214.05523926 -652.48999023 213.57055664 C-654.08295583 212.27404238 -655.6630209 210.96172401 -657.2421875 209.6484375 C-660.01890947 207.72149596 -660.01890947 207.72149596 -662.98828125 207.890625 C-667.35233705 209.33284662 -671.21164951 211.37643769 -675.2421875 213.5703125 C-677.28383528 214.65873149 -679.32694696 215.74440665 -681.37109375 216.828125 C-681.94836212 217.13482117 -682.52563049 217.44151733 -683.12039185 217.75750732 C-691.59327392 222.24506387 -700.15028004 226.57059153 -708.69296265 230.92321777 C-728.59138367 241.06331823 -728.59138367 241.06331823 -748.4296875 251.3203125 C-749.34427734 251.79533203 -750.25886719 252.27035156 -751.20117188 252.75976562 C-752.00361328 253.17935547 -752.80605469 253.59894531 -753.6328125 254.03125 C-754.30473633 254.3823584 -754.97666016 254.7334668 -755.66894531 255.09521484 C-757.18080764 255.85660525 -757.18080764 255.85660525 -758.1796875 256.9453125 C-758.27855805 259.5147207 -758.3114592 262.05725604 -758.30273533 264.6271677 C-758.30388917 265.44549441 -758.30504302 266.26382112 -758.30623183 267.1069456 C-758.30890599 269.88467643 -758.3043698 272.66235078 -758.29994202 275.44007874 C-758.30037756 277.43734531 -758.30125214 279.43461182 -758.30253118 281.43187803 C-758.30477955 286.94798763 -758.30075022 292.46407801 -758.29575312 297.98018515 C-758.29145368 303.91819169 -758.29289468 309.85619706 -758.2936554 315.79420471 C-758.29418095 326.09142871 -758.29106557 336.38864685 -758.28541756 346.68586922 C-758.27950701 357.48934013 -758.27565292 368.29280853 -758.27456474 379.09628105 C-758.274496 379.76720415 -758.27442726 380.43812726 -758.27435644 381.12938136 C-758.27401812 384.53645414 -758.27371673 387.94352692 -758.27342957 391.3505997 C-758.27132736 415.50302196 -758.26458501 439.65544092 -758.25512695 463.80786133 C-758.24594733 487.27628563 -758.23886136 510.74470903 -758.23461914 534.21313477 C-758.23448761 534.9361263 -758.23435609 535.65911784 -758.23422058 536.40401821 C-758.23290209 543.66438414 -758.23162627 550.92475009 -758.23038172 558.18511604 C-758.22784529 572.97622955 -758.22502403 587.767343 -758.22203064 602.55845642 C-758.22189335 603.23857577 -758.22175606 603.91869512 -758.22161461 604.61942414 C-758.21240897 650.06138832 -758.19654244 695.50335059 -758.1796875 740.9453125 C-755.14184097 742.54482335 -752.10388857 744.14413302 -749.06591797 745.7434082 C-748.21148605 746.19329353 -747.35705414 746.64317886 -746.47673035 747.10669708 C-740.09499712 750.46604437 -733.70699783 753.81281529 -727.3046875 757.1328125 C-726.23532959 757.68743164 -725.16597168 758.24205078 -724.06420898 758.81347656 C-708.23206558 767.01252463 -692.34401335 775.10349173 -676.46484375 783.2109375 C-675.58682602 783.65929459 -674.70880829 784.10765167 -673.80418396 784.56959534 C-672.98974319 784.98523239 -672.17530243 785.40086945 -671.33618164 785.82910156 C-670.62708145 786.191026 -669.91798126 786.55295044 -669.18739319 786.92584229 C-668.19357887 787.43048004 -668.19357887 787.43048004 -667.1796875 787.9453125 C-666.47295395 788.32121521 -665.7662204 788.69711792 -665.03807068 789.08441162 C-663.23407566 790.09769946 -663.23407566 790.09769946 -661.2890625 789.8359375 C-658.27468739 788.56320134 -656.00078978 786.71826099 -653.4296875 784.6953125 C-652.86894531 784.25638672 -652.30820312 783.81746094 -651.73046875 783.36523438 C-646.47691225 779.23251323 -641.30410355 774.99854275 -636.12841797 770.76904297 C-630.95188241 766.54657012 -625.69195238 762.45221425 -620.3828125 758.3984375 C-611.41100862 751.54543601 -602.59547899 744.49026185 -593.7878418 737.4284668 C-586.71641453 731.76345055 -579.58355688 726.17747898 -572.45019531 720.59082031 C-565.83405442 715.40761687 -559.23690969 710.20293556 -552.6796875 704.9453125 C-544.97983439 698.7715206 -537.22012177 692.67601964 -529.45019531 686.59082031 C-522.83405442 681.40761687 -516.23690969 676.20293556 -509.6796875 670.9453125 C-503.1240575 665.68896607 -496.52830254 660.4858919 -489.91357422 655.30419922 C-486.41441396 652.56182721 -482.91986395 649.8135798 -479.42504883 647.06567383 C-476.53648645 644.79496855 -473.64580189 642.52709265 -470.75 640.265625 C-464.48581474 635.36797696 -458.27587492 630.4126522 -452.1171875 625.3828125 C-446.29446505 620.6293992 -440.40440621 615.98780429 -434.421875 611.4375 C-432.06752974 609.64087749 -429.74672301 607.80737539 -427.4375 605.953125 C-426.81053223 605.45184082 -426.18356445 604.95055664 -425.53759766 604.43408203 C-424.33277751 603.46864271 -423.13167991 602.49853217 -421.93505859 601.52294922 C-418.78950015 599.00964525 -415.93548899 597.34459502 -412.1796875 595.9453125 C-411.35174628 596.77515233 -410.52380505 597.60499215 -409.6707747 598.45997864 C-373.19879936 635.0152617 -336.72374018 671.56746489 -300.23284912 708.10386658 C-299.68078423 708.65662175 -299.12871934 709.20937692 -298.55992522 709.77888225 C-286.56334503 721.79042542 -274.56620866 733.80141292 -262.56849886 745.81182778 C-256.68521083 751.70135275 -250.80204576 757.59100055 -244.91894531 763.48071289 C-244.33349001 764.06682199 -243.74803471 764.65293108 -243.14483834 765.25680106 C-224.1532657 784.26969751 -205.16983429 803.29069815 -186.19058781 822.3158983 C-166.69420376 841.85940252 -147.18967538 861.39474188 -127.67479611 880.91977884 C-124.92129699 883.67471883 -122.16789156 886.42975245 -119.41454315 889.18484306 C-118.60165521 889.99823668 -118.60165521 889.99823668 -117.77234528 890.82806249 C-109.03329503 899.57303166 -100.30292596 908.32661874 -91.57573691 917.08342326 C-82.81132584 925.8772089 -74.03791934 934.66193608 -65.25513485 943.43737204 C-60.49278269 948.1962455 -55.73494597 952.9594367 -50.9876709 957.73335648 C-46.64836207 962.09684332 -42.29786234 966.44882588 -37.9378607 970.79163378 C-36.35602378 972.371343 -34.77847739 973.95536163 -33.2055116 975.54390431 C-31.07955526 977.68969725 -28.93903711 979.81977161 -26.79388809 981.94635105 C-26.17549273 982.57788148 -25.55709738 983.2094119 -24.91996276 983.86007962 C-23.04883747 985.75339169 -23.04883747 985.75339169 -20.1796875 987.9453125 C-16.81794781 987.46324361 -13.74419178 986.04472441 -10.60107422 984.78515625 C-9.46125595 984.3298201 -8.32143768 983.87448395 -7.14707947 983.40534973 C-5.88448805 982.89789519 -4.62192073 982.39038069 -3.359375 981.8828125 C-2.02254997 981.34754319 -0.68563865 980.81248934 0.65135193 980.27763367 C4.31208863 978.81234628 7.97147175 977.34370552 11.63060379 975.87441635 C14.74847241 974.62293113 17.86710105 973.37334598 20.98572636 972.12374783 C56.64135394 957.83649089 92.27159613 943.48589351 127.90151596 929.13467884 C142.30187946 923.33453564 156.70331222 917.53704762 171.10460377 911.73920918 C176.1740663 909.69826553 181.24345202 907.65713127 186.31276035 905.61580467 C189.4375938 904.35749721 192.56246143 903.09927462 195.68733406 901.84106445 C197.12428439 901.26246082 198.56121915 900.68381854 199.99813652 900.10513306 C201.97137185 899.31046266 203.94466432 898.51593432 205.91796875 897.72143555 C207.56551147 897.05799385 207.56551147 897.05799385 209.24633789 896.38114929 C212.17779514 895.2034425 215.11037745 894.02865632 218.04368591 892.8555727 C218.93956138 892.49727888 219.83543684 892.13898507 220.75846004 891.76983386 C221.77907701 891.36169579 221.77907701 891.36169579 222.8203125 890.9453125 C222.85159402 834.87639216 222.87125251 778.80747005 222.88216925 722.73854208 C222.88281014 719.45738442 222.88346917 716.17622677 222.88412857 712.89506912 C222.9068266 598.07014339 222.83489214 483.24587795 222.32933396 281.72358847 C222.32027988 278.43345868 222.31124411 275.14332885 222.30221033 271.85319901 C222.15115862 216.88387469 221.99120823 161.9145787 221.8203125 106.9453125 C218.53894896 105.53170717 215.25650118 104.12063598 211.97387695 102.70996094 C211.05989388 102.31618256 210.1459108 101.92240417 209.20423126 101.51669312 C201.14185132 98.05435816 193.01941657 94.75316227 184.86279297 91.51977539 C178.47733414 88.98505368 172.09577495 86.44062742 165.71484375 83.89453125 C163.94953308 83.19045387 163.94953308 83.19045387 162.14855957 82.47215271 C147.57562724 76.65643459 133.02304452 70.79019291 118.47011566 64.92464066 C115.43011944 63.69941195 112.39002418 62.4744291 109.34993362 61.24943447 C102.3602532 58.4329422 95.37075219 55.61600496 88.38134766 52.79882812 C74.56706542 47.23082934 60.75202706 41.66470742 46.93663788 36.09945583 C43.07793382 34.54503898 39.2192835 32.99048907 35.36077881 31.43557739 C27.75118032 28.3690784 20.14094625 25.30417877 12.52905273 22.24338055 C8.72615085 20.71372176 4.92506094 19.17966381 1.12538624 17.64200687 C-1.78911725 16.46331116 -4.70527763 15.2887253 -7.62109375 14.11328125 C-8.66998276 13.68735184 -9.71887177 13.26142242 -10.79954529 12.82258606 C-11.74942825 12.44051498 -12.69931122 12.05844391 -13.67797852 11.66479492 C-14.50443375 11.33058029 -15.33088898 10.99636566 -16.18238831 10.65202332 C-20.46610439 9.13630224 -21.62995339 11.15758989 -24.65794581 14.16155386 Z " fill="#FDFEFE" transform="translate(781.1796875,13.0546875)"/>
<path d="M0 0 C0 133.32 0 266.64 0 404 C-9.90065058 396.57451206 -19.70343954 389.03809257 -29.42529297 381.38134766 C-34.18701196 377.6330368 -38.96540834 373.9065613 -43.75 370.1875 C-44.50466553 369.600896 -45.25933105 369.01429199 -46.03686523 368.40991211 C-48.3577045 366.60634319 -50.67880247 364.8031078 -53 363 C-61.90690964 356.08110662 -70.81144887 349.15998735 -79.67285156 342.18286133 C-84.43435444 338.43689987 -89.21564129 334.71670819 -94 331 C-99.90507595 326.41266751 -105.79692783 321.80942832 -111.671875 317.18359375 C-116.43374633 313.43744268 -121.21531987 309.71695789 -126 306 C-131.90507595 301.41266751 -137.79692783 296.80942832 -143.671875 292.18359375 C-148.43374633 288.43744268 -153.21531987 284.71695789 -158 281 C-163.90507595 276.41266751 -169.79692783 271.80942832 -175.671875 267.18359375 C-180.43374633 263.43744268 -185.21531987 259.71695789 -190 256 C-195.90507595 251.41266751 -201.79692783 246.80942832 -207.671875 242.18359375 C-213.20239758 237.83274686 -218.75983659 233.5167511 -224.31713867 229.20019531 C-228.99439423 225.5653794 -233.65945128 221.9157394 -238.3125 218.25 C-244.83395533 213.11300358 -251.40896484 208.04728773 -258 203 C-256.72318316 199.16954947 -254.44148159 197.79711825 -251.3125 195.5 C-250.11919705 194.60365565 -248.92650904 193.70649216 -247.734375 192.80859375 C-247.11626953 192.34565918 -246.49816406 191.88272461 -245.86132812 191.40576172 C-242.89575581 189.16602334 -239.97927061 186.86521364 -237.0625 184.5625 C-235.88154075 183.63277397 -234.70055103 182.70308664 -233.51953125 181.7734375 C-232.34633462 180.84898314 -231.17315729 179.92450429 -230 179 C-221.58297964 172.37047168 -213.14238653 165.77238077 -204.68164062 159.19873047 C-197.76763784 153.82461108 -190.87987433 148.41769964 -184 143 C-175.5823096 136.37131523 -167.14239362 129.77238628 -158.68164062 123.19873047 C-151.76763784 117.82461108 -144.87987433 112.41769964 -138 107 C-129.57943414 100.36905089 -121.13691374 93.7675038 -112.67285156 87.19213867 C-108.10448985 83.64161106 -103.54583587 80.07931469 -99 76.5 C-93.68238137 72.31299655 -88.34484789 68.15218198 -83 64 C-75.31203286 58.02685416 -67.64878722 52.02319602 -60 46 C-51.5831201 39.37195348 -43.14464671 32.77283668 -34.68383789 26.20092773 C-30.00623231 22.56589395 -25.34112128 18.91567228 -20.6875 15.25 C-16.03302551 11.58842603 -11.36989138 7.93832856 -6.6875 4.3125 C-6.12957764 3.87776367 -5.57165527 3.44302734 -4.99682617 2.99511719 C-1.11578614 0 -1.11578614 0 0 0 Z M-22.3125 36.375 C-28.10611453 41.30000927 -34.08062662 45.95462918 -40.12646484 50.56494141 C-43.74500077 53.33660601 -47.34039594 56.13811334 -50.9375 58.9375 C-51.70626465 59.53570557 -52.4750293 60.13391113 -53.26708984 60.75024414 C-60.19506434 66.14526682 -67.10137191 71.56753233 -74 77 C-82.4176904 83.62868477 -90.85760638 90.22761372 -99.31835938 96.80126953 C-106.23236216 102.17538892 -113.12012567 107.58230036 -120 113 C-128.4176904 119.62868477 -136.85760638 126.22761372 -145.31835938 132.80126953 C-152.23236216 138.17538892 -159.12012567 143.58230036 -166 149 C-174.4176904 155.62868477 -182.85760638 162.22761372 -191.31835938 168.80126953 C-195.97162108 172.41815901 -200.61704314 176.04463757 -205.25 179.6875 C-206.08543335 180.34419678 -206.08543335 180.34419678 -206.93774414 181.01416016 C-209.87178981 183.32189417 -212.80239645 185.63391061 -215.73046875 187.94921875 C-216.35083008 188.4388208 -216.97119141 188.92842285 -217.61035156 189.43286133 C-218.78135294 190.35711375 -219.95136709 191.28261918 -221.12011719 192.2097168 C-223.99102174 194.47411043 -226.89497208 196.625638 -229.91015625 198.6953125 C-230.92980469 199.45585937 -231.94945312 200.21640625 -233 201 C-233 201.66 -233 202.32 -233 203 C-230.70217173 204.84865173 -228.39023904 206.59012187 -226 208.3125 C-220.20562469 212.56515759 -214.54507916 216.92710109 -209 221.5 C-203.76354446 225.8071384 -198.4496333 229.9659941 -193 234 C-186.85492725 238.54879409 -180.90482951 243.28919292 -175 248.14453125 C-170.42256828 251.89051541 -165.75373734 255.48112021 -161 259 C-154.85492725 263.54879409 -148.90482951 268.28919292 -143 273.14453125 C-138.42256828 276.89051541 -133.75373734 280.48112021 -129 284 C-122.85492725 288.54879409 -116.90482951 293.28919292 -111 298.14453125 C-106.42256828 301.89051541 -101.75373734 305.48112021 -97 309 C-90.85492725 313.54879409 -84.90482951 318.28919292 -79 323.14453125 C-74.42256828 326.89051541 -69.75373734 330.48112021 -65 334 C-59.55031482 338.0340443 -54.23723223 342.19376019 -49 346.5 C-42.34045774 351.97411261 -35.51658078 357.18483076 -28.59375 362.3203125 C-24.84031298 365.10582012 -21.15915341 367.9775248 -17.50390625 370.890625 C-16.17734474 372.09893779 -16.17734474 372.09893779 -15 372 C-15 259.8 -15 147.6 -15 32 C-18.2652734 32 -19.89084188 34.29012877 -22.3125 36.375 Z " fill="#FDFEFE" transform="translate(760,310)"/>
<path d="M0 0 C7.9665272 6.82845188 7.9665272 6.82845188 11 9.875 C11.8971875 10.76832031 11.8971875 10.76832031 12.8125 11.6796875 C14.66205099 13.64153265 16.42277289 15.64042535 18.1809082 17.68310547 C21.73300822 21.74923531 25.46088261 25.58961425 29.29296875 29.390625 C30.33102158 30.42648743 30.33102158 30.42648743 31.39004517 31.48327637 C32.87899654 32.96844978 34.36910102 34.45246792 35.86026001 35.9354248 C38.22590636 38.28819735 40.58831828 40.64417588 42.94995117 43.00097656 C47.96382394 48.00347404 52.981616 53.00202863 58 58 C63.81962008 63.79594837 69.63758312 69.59354008 75.45132446 75.39538574 C77.76847237 77.70609471 80.08863259 80.01374891 82.40893555 82.32128906 C83.84178344 83.75050135 85.2744894 85.17985596 86.70703125 86.609375 C87.34412018 87.24129761 87.98120911 87.87322021 88.63760376 88.52429199 C92.38467263 92.27092449 95.9169611 96.14578858 99.38139534 100.15457153 C101.53202778 102.6065837 103.80011385 104.91989674 106.10913086 107.22265625 C106.56857086 107.68224228 107.02801086 108.14182831 107.50137329 108.61534119 C108.98683326 110.10011693 110.47577815 111.58134116 111.96484375 113.0625 C113.00881066 114.1045974 114.05255372 115.14691909 115.09608459 116.18945312 C117.81785922 118.90744446 120.54262523 121.6224169 123.26806641 124.33673096 C126.05881073 127.11717018 128.84665871 129.90051029 131.63476562 132.68359375 C137.08704358 138.12520842 142.54249109 143.56363103 148 149 C146.38789052 152.41221536 144.60593966 154.61583281 141.89453125 157.265625 C141.07533203 158.07386719 140.25613281 158.88210938 139.41210938 159.71484375 C138.55423828 160.55144531 137.69636719 161.38804687 136.8125 162.25 C130.01861078 168.8594317 130.01861078 168.8594317 123.63671875 175.859375 C118.27141164 182.11955239 112.26079098 187.79373468 106.39746094 193.58203125 C99.25743361 200.57954703 99.25743361 200.57954703 92.53125 207.96875 C87.04021848 214.40376031 80.83905348 220.2140623 74.82470703 226.15478516 C69.32452251 231.59365932 63.89017389 237.0166122 58.86914062 242.90820312 C53.98219569 248.37729197 48.61559068 253.4306783 43.39746094 258.58203125 C36.2706398 265.56529109 36.2706398 265.56529109 29.5546875 272.9375 C24.94831433 278.33441507 19.86904706 283.28006785 14.84570312 288.28466797 C13.10427568 290.02065963 11.36835324 291.76203142 9.6328125 293.50390625 C8.52896698 294.60709226 7.42481199 295.70996873 6.3203125 296.8125 C5.80058868 297.33424805 5.28086487 297.85599609 4.74539185 298.39355469 C1.11499844 302 1.11499844 302 0 302 C0 202.34 0 102.68 0 0 Z M16 39 C16 113.25 16 187.5 16 264 C17.65 262.35 19.3 260.7 21 259 C21.97779261 258.02637388 22.9560528 257.05321678 23.93505859 256.08081055 C26.80190532 253.23184152 29.66563653 250.379763 32.52832031 247.52661133 C33.7549572 246.30500164 34.98249032 245.08429119 36.2109375 243.86450195 C44.92655166 235.20879794 44.92655166 235.20879794 53.13916016 226.08129883 C58.20365495 220.41679894 63.77074581 215.18360316 69.17529297 209.84521484 C74.67547749 204.40634068 80.10982611 198.9833878 85.13085938 193.09179688 C90.01780431 187.62270803 95.38440932 182.5693217 100.60253906 177.41796875 C106.10893852 171.97571496 111.55288113 166.53913931 116.58251953 160.64453125 C118.43632198 158.49378834 120.41267207 156.48930464 122.4375 154.5 C123.11683594 153.8296875 123.79617187 153.159375 124.49609375 152.46875 C124.99238281 151.9840625 125.48867187 151.499375 126 151 C124.43374255 147.22623606 122.08652064 144.85091052 119.20239258 141.99121094 C118.47267242 141.26346214 118.47267242 141.26346214 117.72821045 140.52101135 C116.12153433 138.92081587 114.50799809 137.32772062 112.89453125 135.734375 C111.77021639 134.61633715 110.64641952 133.49777817 109.52311707 132.37872314 C106.5626377 129.4315428 103.59665364 126.48997063 100.62902832 123.54998779 C95.89634286 118.86039613 91.17021919 114.1642186 86.44754601 109.4645462 C84.80662926 107.83374434 83.1622805 106.20646517 81.51753235 104.57952881 C76.78446591 99.88435044 72.18192786 95.14755181 67.84690857 90.07745361 C63.65088627 85.35765219 59.10213068 80.95948532 54.6328125 76.5 C53.54647488 75.4129875 52.46028563 74.32582669 51.37423706 73.23852539 C49.11504201 70.97786642 46.85407392 68.71900042 44.59179688 66.46142578 C41.68634435 63.56171789 38.78546911 60.65747847 35.88586617 57.75192261 C33.65213909 55.51459522 31.41605237 53.27963849 29.17922592 51.04541016 C28.10752767 49.97438018 27.03657505 48.90260359 25.96637344 47.83007812 C24.48014296 46.34132471 22.99077439 44.8557858 21.50048828 43.37109375 C20.22976974 42.1015686 20.22976974 42.1015686 18.93338013 40.80639648 C17.31920833 38.88621606 17.31920833 38.88621606 16 39 Z " fill="#FDFEFE" transform="translate(119,362)"/>
</svg>
