<?xml version="1.0" standalone="no"?>
<!DOCTYPE svg PUBLIC "-//W3C//DTD SVG 20010904//EN"
 "http://www.w3.org/TR/2001/REC-SVG-20010904/DTD/svg10.dtd">
<svg version="1.0" xmlns="http://www.w3.org/2000/svg"
 width="512.000000pt" height="512.000000pt" viewBox="0 0 512.000000 512.000000"
 preserveAspectRatio="xMidYMid meet">

<g transform="translate(0.000000,512.000000) scale(0.100000,-0.100000)"
fill="#000000" stroke="none">
<path d="M1330 1305 c24 -25 45 -45 45 -45 0 0 21 20 45 45 l44 45 -89 0 -89
0 44 -45z"/>
<path d="M1896 1318 c-7 -18 -82 -185 -165 -372 -84 -186 -150 -341 -147 -344
8 -8 179 -83 182 -80 2 3 350 787 361 816 4 9 -21 12 -106 12 l-111 0 -14 -32z"/>
<path d="M3693 1303 l47 -48 47 48 48 47 -95 0 -95 0 48 -47z"/>
</g>
</svg>
